# FRET place-cone funnel (apex z=0, open base z=H)
# radius=0.024 height=0.098 segments=48 — sized for Ø25 mm tennis ball
v 0.000000 0.000000 0.000000
v 0.024000 0.000000 0.098000
v 0.023795 0.003133 0.098000
v 0.023182 0.006212 0.098000
v 0.022173 0.009184 0.098000
v 0.020785 0.012000 0.098000
v 0.019040 0.014610 0.098000
v 0.016971 0.016971 0.098000
v 0.014610 0.019040 0.098000
v 0.012000 0.020785 0.098000
v 0.009184 0.022173 0.098000
v 0.006212 0.023182 0.098000
v 0.003133 0.023795 0.098000
v 0.000000 0.024000 0.098000
v -0.003133 0.023795 0.098000
v -0.006212 0.023182 0.098000
v -0.009184 0.022173 0.098000
v -0.012000 0.020785 0.098000
v -0.014610 0.019040 0.098000
v -0.016971 0.016971 0.098000
v -0.019040 0.014610 0.098000
v -0.020785 0.012000 0.098000
v -0.022173 0.009184 0.098000
v -0.023182 0.006212 0.098000
v -0.023795 0.003133 0.098000
v -0.024000 0.000000 0.098000
v -0.023795 -0.003133 0.098000
v -0.023182 -0.006212 0.098000
v -0.022173 -0.009184 0.098000
v -0.020785 -0.012000 0.098000
v -0.019040 -0.014610 0.098000
v -0.016971 -0.016971 0.098000
v -0.014610 -0.019040 0.098000
v -0.012000 -0.020785 0.098000
v -0.009184 -0.022173 0.098000
v -0.006212 -0.023182 0.098000
v -0.003133 -0.023795 0.098000
v -0.000000 -0.024000 0.098000
v 0.003133 -0.023795 0.098000
v 0.006212 -0.023182 0.098000
v 0.009184 -0.022173 0.098000
v 0.012000 -0.020785 0.098000
v 0.014610 -0.019040 0.098000
v 0.016971 -0.016971 0.098000
v 0.019040 -0.014610 0.098000
v 0.020785 -0.012000 0.098000
v 0.022173 -0.009184 0.098000
v 0.023182 -0.006212 0.098000
v 0.023795 -0.003133 0.098000
f 1 2 3
f 1 3 4
f 1 4 5
f 1 5 6
f 1 6 7
f 1 7 8
f 1 8 9
f 1 9 10
f 1 10 11
f 1 11 12
f 1 12 13
f 1 13 14
f 1 14 15
f 1 15 16
f 1 16 17
f 1 17 18
f 1 18 19
f 1 19 20
f 1 20 21
f 1 21 22
f 1 22 23
f 1 23 24
f 1 24 25
f 1 25 26
f 1 26 27
f 1 27 28
f 1 28 29
f 1 29 30
f 1 30 31
f 1 31 32
f 1 32 33
f 1 33 34
f 1 34 35
f 1 35 36
f 1 36 37
f 1 37 38
f 1 38 39
f 1 39 40
f 1 40 41
f 1 41 42
f 1 42 43
f 1 43 44
f 1 44 45
f 1 45 46
f 1 46 47
f 1 47 48
f 1 48 49
f 1 49 2
