# https://github.com/mikedh/trimesh
mtllib material.mtl
usemtl material_0
v 0.00000000 0.61146606 1.40414841
v 0.00000000 0.61146606 0.24478302
v 0.00000000 0.01480835 1.40414841
v 0.00000000 0.01480835 0.24478302
v 0.43583466 0.61146606 1.40414841
v 0.43583466 0.61146606 0.24478302
v 0.00000000 0.61146606 1.40414841
v 0.00000000 0.61146606 0.24478302
v 0.43583466 0.01480835 1.40414841
v 0.43583466 0.01480835 0.24478302
v 0.43583466 0.61146606 1.40414841
v 0.43583466 0.61146606 0.24478302
v 0.00000000 0.01480835 1.40414841
v 0.00000000 0.01480835 0.24478302
v 0.43583466 0.01480835 1.40414841
v 0.43583466 0.01480835 0.24478302
v 0.02132507 0.58406006 0.00044712
v 0.00000000 0.01480835 0.24478302
v 0.00000000 0.61146606 0.24478302
v 0.02132507 0.04221436 0.00044712
v 0.43583466 0.61146606 0.24478302
v 0.41450959 0.58406006 0.00044712
v 0.00000000 0.61146606 0.24478302
v 0.02132507 0.58406006 0.00044712
v 0.43583466 0.61146606 0.24478302
v 0.43583466 0.01480835 0.24478302
v 0.41450959 0.04221436 0.00044712
v 0.41450959 0.58406006 0.00044712
v 0.00000000 0.01480835 0.24478302
v 0.02132507 0.04221436 0.00044712
v 0.43583466 0.01480835 0.24478302
v 0.41450959 0.04221436 0.00044712
v 0.02132507 0.04221436 0.00044712
v 0.41450959 0.58406006 0.00044712
v 0.41450959 0.04221436 0.00044712
v 0.02132507 0.58406006 0.00044712
v 0.00000000 0.01480835 1.40414841
v 0.01501236 0.59572147 1.40414841
v 0.00000000 0.61146606 1.40414841
v 0.01501236 0.03055290 1.40414841
v 0.43583466 0.01480835 1.40414841
v 0.42082228 0.03055290 1.40414841
v 0.43583466 0.61146606 1.40414841
v 0.42082228 0.59572147 1.40414841
v 0.01501236 0.03055290 1.40414841
v 0.03555481 0.56704725 1.07089249
v 0.01501236 0.59572147 1.40414841
v 0.03555481 0.05736053 1.07089249
v 0.42082228 0.03055290 1.40414841
v 0.03555481 0.05736053 1.07089249
v 0.01501236 0.03055290 1.40414841
v 0.40027987 0.05736053 1.07089249
v 0.42082228 0.59572147 1.40414841
v 0.40027987 0.56704725 1.07089249
v 0.42082228 0.03055290 1.40414841
v 0.40027987 0.05736053 1.07089249
v 0.01501236 0.59572147 1.40414841
v 0.03555481 0.56704725 1.07089249
v 0.42082228 0.59572147 1.40414841
v 0.40027987 0.56704725 1.07089249
v 0.03555481 0.56704725 1.07089249
v 0.40027987 0.05736053 1.07089249
v 0.40027987 0.56704725 1.07089249
v 0.03555481 0.05736053 1.07089249
v 0.03943161 1.21770874 1.19170395
v 0.03943161 1.21770874 0.24433590
v 0.03943161 0.62105102 1.19170395
v 0.03943161 0.62105102 0.24433590
v 0.47526627 1.21770874 1.19170395
v 0.47526627 1.21770874 0.24433590
v 0.03943161 1.21770874 1.19170395
v 0.03943161 1.21770874 0.24433590
v 0.47526627 0.62105102 1.19170395
v 0.47526627 0.62105102 0.24433590
v 0.47526627 1.21770874 1.19170395
v 0.47526627 1.21770874 0.24433590
v 0.03943161 0.62105102 1.19170395
v 0.03943161 0.62105102 0.24433590
v 0.47526627 0.62105102 1.19170395
v 0.47526627 0.62105102 0.24433590
v 0.03943161 0.62105102 0.24433590
v 0.03943161 1.21770874 0.24433590
v 0.06075668 1.19030273 0.00000000
v 0.06075668 0.64845703 0.00000000
v 0.47526627 1.21770874 0.24433590
v 0.45394120 1.19030273 0.00000000
v 0.03943161 1.21770874 0.24433590
v 0.06075668 1.19030273 0.00000000
v 0.45394120 0.64845703 0.00000000
v 0.47526627 1.21770874 0.24433590
v 0.47526627 0.62105102 0.24433590
v 0.45394120 1.19030273 0.00000000
v 0.03943161 0.62105102 0.24433590
v 0.06075668 0.64845703 0.00000000
v 0.47526627 0.62105102 0.24433590
v 0.45394120 0.64845703 0.00000000
v 0.06075668 0.64845703 0.00000000
v 0.45394120 1.19030273 0.00000000
v 0.45394120 0.64845703 0.00000000
v 0.06075668 1.19030273 0.00000000
v 0.03943161 0.62105102 1.19170395
v 0.05444397 1.20196411 1.19170395
v 0.03943161 1.21770874 1.19170395
v 0.05444397 0.63679558 1.19170395
v 0.47526627 0.62105102 1.19170395
v 0.46025389 0.63679558 1.19170395
v 0.47526627 1.21770874 1.19170395
v 0.46025389 1.20196411 1.19170395
v 0.05444397 0.63679558 1.19170395
v 0.07498642 1.17328995 0.85865417
v 0.05444397 1.20196411 1.19170395
v 0.07498642 0.66360321 0.85865417
v 0.46025389 0.63679558 1.19170395
v 0.07498642 0.66360321 0.85865417
v 0.05444397 0.63679558 1.19170395
v 0.43971148 0.66360321 0.85865417
v 0.46025389 1.20196411 1.19170395
v 0.43971148 1.17328995 0.85865417
v 0.46025389 0.63679558 1.19170395
v 0.43971148 0.66360321 0.85865417
v 0.05444397 1.20196411 1.19170395
v 0.07498642 1.17328995 0.85865417
v 0.46025389 1.20196411 1.19170395
v 0.43971148 1.17328995 0.85865417
v 0.07498642 1.17328995 0.85865417
v 0.43971148 0.66360321 0.85865417
v 0.43971148 1.17328995 0.85865417
v 0.07498642 0.66360321 0.85865417
v 0.50522660 1.21770874 0.24433590
v 0.50522660 0.62105102 0.87304581
v 0.50522660 1.21770874 0.87304581
v 0.50522660 0.62105102 0.24433590
v 0.94106129 1.21770874 0.87304581
v 0.94106129 1.21770874 0.24433590
v 0.50522660 1.21770874 0.87304581
v 0.50522660 1.21770874 0.24433590
v 0.94106129 0.62105102 0.24433590
v 0.94106129 1.21770874 0.87304581
v 0.94106129 0.62105102 0.87304581
v 0.94106129 1.21770874 0.24433590
v 0.50522660 0.62105102 0.87304581
v 0.50522660 0.62105102 0.24433590
v 0.94106129 0.62105102 0.87304581
v 0.94106129 0.62105102 0.24433590
v 0.50522660 0.62105102 0.24433590
v 0.50522660 1.21770874 0.24433590
v 0.52655167 1.19030273 0.00000000
v 0.52655167 0.64845703 0.00000000
v 0.94106129 1.21770874 0.24433590
v 0.91973621 1.19030273 0.00000000
v 0.50522660 1.21770874 0.24433590
v 0.52655167 1.19030273 0.00000000
v 0.91973621 0.64845703 0.00000000
v 0.94106129 1.21770874 0.24433590
v 0.94106129 0.62105102 0.24433590
v 0.91973621 1.19030273 0.00000000
v 0.50522660 0.62105102 0.24433590
v 0.52655167 0.64845703 0.00000000
v 0.94106129 0.62105102 0.24433590
v 0.91973621 0.64845703 0.00000000
v 0.52655167 0.64845703 0.00000000
v 0.91973621 1.19030273 0.00000000
v 0.91973621 0.64845703 0.00000000
v 0.52655167 1.19030273 0.00000000
v 0.50522660 0.62105102 0.87304581
v 0.52023898 1.20196411 0.87304581
v 0.50522660 1.21770874 0.87304581
v 0.52023898 0.63679558 0.87304581
v 0.94106129 0.62105102 0.87304581
v 0.92604885 0.63679558 0.87304581
v 0.94106129 1.21770874 0.87304581
v 0.92604885 1.20196411 0.87304581
v 0.52023898 0.63679558 0.87304581
v 0.54078141 1.17328995 0.54033794
v 0.52023898 1.20196411 0.87304581
v 0.54078141 0.66360321 0.54033794
v 0.92604885 0.63679558 0.87304581
v 0.54078141 0.66360321 0.54033794
v 0.52023898 0.63679558 0.87304581
v 0.90550648 0.66360321 0.54033794
v 0.92604885 1.20196411 0.87304581
v 0.90550648 1.17328995 0.54033794
v 0.92604885 0.63679558 0.87304581
v 0.90550648 0.66360321 0.54033794
v 0.52023898 1.20196411 0.87304581
v 0.54078141 1.17328995 0.54033794
v 0.92604885 1.20196411 0.87304581
v 0.90550648 1.17328995 0.54033794
v 0.54078141 1.17328995 0.54033794
v 0.90550648 0.66360321 0.54033794
v 0.90550648 1.17328995 0.54033794
v 0.54078141 0.66360321 0.54033794
v 0.48598740 0.59665771 1.29792053
v 0.48598740 0.59665771 0.24478302
v 0.48598740 0.00000000 1.29792053
v 0.48598740 0.00000000 0.24478302
v 0.92182209 0.59665771 1.29792053
v 0.92182209 0.59665771 0.24478302
v 0.48598740 0.59665771 1.29792053
v 0.48598740 0.59665771 0.24478302
v 0.92182209 0.00000000 1.29792053
v 0.92182209 0.00000000 0.24478302
v 0.92182209 0.59665771 1.29792053
v 0.92182209 0.59665771 0.24478302
v 0.48598740 0.00000000 1.29792053
v 0.48598740 0.00000000 0.24478302
v 0.92182209 0.00000000 1.29792053
v 0.92182209 0.00000000 0.24478302
v 0.50731247 0.56925171 0.00044712
v 0.48598740 0.00000000 0.24478302
v 0.48598740 0.59665771 0.24478302
v 0.50731247 0.02740601 0.00044712
v 0.92182209 0.59665771 0.24478302
v 0.90049702 0.56925171 0.00044712
v 0.48598740 0.59665771 0.24478302
v 0.50731247 0.56925171 0.00044712
v 0.92182209 0.59665771 0.24478302
v 0.92182209 0.00000000 0.24478302
v 0.90049702 0.02740601 0.00044712
v 0.90049702 0.56925171 0.00044712
v 0.48598740 0.00000000 0.24478302
v 0.50731247 0.02740601 0.00044712
v 0.92182209 0.00000000 0.24478302
v 0.90049702 0.02740601 0.00044712
v 0.50731247 0.02740601 0.00044712
v 0.90049702 0.56925171 0.00044712
v 0.90049702 0.02740601 0.00044712
v 0.50731247 0.56925171 0.00044712
v 0.48598740 0.00000000 1.29792053
v 0.50099978 0.58091312 1.29792053
v 0.48598740 0.59665771 1.29792053
v 0.50099978 0.01574455 1.29792053
v 0.92182209 0.00000000 1.29792053
v 0.90680965 0.01574455 1.29792053
v 0.92182209 0.59665771 1.29792053
v 0.90680965 0.58091312 1.29792053
v 0.50099978 0.01574455 1.29792053
v 0.52154221 0.55223890 0.96496231
v 0.50099978 0.58091312 1.29792053
v 0.52154221 0.04255219 0.96496231
v 0.90680965 0.01574455 1.29792053
v 0.52154221 0.04255219 0.96496231
v 0.50099978 0.01574455 1.29792053
v 0.88626728 0.04255219 0.96496231
v 0.90680965 0.58091312 1.29792053
v 0.88626728 0.55223890 0.96496231
v 0.90680965 0.01574455 1.29792053
v 0.88626728 0.04255219 0.96496231
v 0.50099978 0.58091312 1.29792053
v 0.52154221 0.55223890 0.96496231
v 0.90680965 0.58091312 1.29792053
v 0.88626728 0.55223890 0.96496231
v 0.52154221 0.55223890 0.96496231
v 0.88626728 0.04255219 0.96496231
v 0.88626728 0.55223890 0.96496231
v 0.52154221 0.04255219 0.96496231
vt 0.20272601 0.99604601
vt 0.20272601 0.46804401
vt 0.47202399 0.99604601
vt 0.47202399 0.46804401
vt 0.00412300 0.99604601
vt 0.00412300 0.46804401
vt 0.20272601 0.99604601
vt 0.20272601 0.46804401
vt 0.67075503 0.99604601
vt 0.67075503 0.46804401
vt 0.94169599 0.99604601
vt 0.94169599 0.46804401
vt 0.47202399 0.99604601
vt 0.47202399 0.46804401
vt 0.67075503 0.99604601
vt 0.67075503 0.46804401
vt 0.20272601 0.35658601
vt 0.47202399 0.46804401
vt 0.20272601 0.46804401
vt 0.47202399 0.35658601
vt 0.00412300 0.46804401
vt 0.00412300 0.35658601
vt 0.20272601 0.46804401
vt 0.20272601 0.35658601
vt 0.94169599 0.46804401
vt 0.67075503 0.46804401
vt 0.67075503 0.35658601
vt 0.94169599 0.35658601
vt 0.47202399 0.46804401
vt 0.47202399 0.35658601
vt 0.67075503 0.46804401
vt 0.67075503 0.35658601
vt 0.25066200 0.18316799
vt 0.00390400 0.00411100
vt 0.25066200 0.00411100
vt 0.00390400 0.18316799
vt 0.26047501 0.18217200
vt 0.49684399 0.17606200
vt 0.50325000 0.18217200
vt 0.26688200 0.17606200
vt 0.26047501 0.00483400
vt 0.26688200 0.01094300
vt 0.50325000 0.00483400
vt 0.49684399 0.01094300
vt 0.25160399 0.19245601
vt 0.00410500 0.34584001
vt 0.00410500 0.19245601
vt 0.25160399 0.34584001
vt 0.42938399 0.19245601
vt 0.25160399 0.34584001
vt 0.25160399 0.19245601
vt 0.42938399 0.34584001
vt 0.67724901 0.19245601
vt 0.67724901 0.34584001
vt 0.42938399 0.19245601
vt 0.42938399 0.34584001
vt 0.85411102 0.19245601
vt 0.85411102 0.34584001
vt 0.67724901 0.19245601
vt 0.67724901 0.34584001
vt 0.51660299 0.00409100
vt 0.76582301 0.18242900
vt 0.51660299 0.18242900
vt 0.76582301 0.00409100
vt 0.20272601 0.89907700
vt 0.20272601 0.46804401
vt 0.47202399 0.89907700
vt 0.47202399 0.46804401
vt 0.00412300 0.89907700
vt 0.00412300 0.46804401
vt 0.20272601 0.89907700
vt 0.20272601 0.46804401
vt 0.67075503 0.89907700
vt 0.67075503 0.46804401
vt 0.94169599 0.89907700
vt 0.94169599 0.46804401
vt 0.47202399 0.89907700
vt 0.47202399 0.46804401
vt 0.67075503 0.89907700
vt 0.67075503 0.46804401
vt 0.47202399 0.46804401
vt 0.20272601 0.46804401
vt 0.20272601 0.35658601
vt 0.47202399 0.35658601
vt 0.00412300 0.46804401
vt 0.00412300 0.35658601
vt 0.20272601 0.46804401
vt 0.20272601 0.35658601
vt 0.67075503 0.35658601
vt 0.94169599 0.46804401
vt 0.67075503 0.46804401
vt 0.94169599 0.35658601
vt 0.47202399 0.46804401
vt 0.47202399 0.35658601
vt 0.67075503 0.46804401
vt 0.67075503 0.35658601
vt 0.25066200 0.18316799
vt 0.00390400 0.00411100
vt 0.25066200 0.00411100
vt 0.00390400 0.18316799
vt 0.26047501 0.18217200
vt 0.49684399 0.17606300
vt 0.50325000 0.18217200
vt 0.26688200 0.17606300
vt 0.26047501 0.00483400
vt 0.26688200 0.01094300
vt 0.50325000 0.00483400
vt 0.49684399 0.01094300
vt 0.67711502 0.19245601
vt 0.42961699 0.34584001
vt 0.42961699 0.19245601
vt 0.67711502 0.34584001
vt 0.85411102 0.19245601
vt 0.67711502 0.34584001
vt 0.67711502 0.19245601
vt 0.85411102 0.34584001
vt 0.25189301 0.19245601
vt 0.25189301 0.34584001
vt 0.00410500 0.19245601
vt 0.00410500 0.34584001
vt 0.42961699 0.19245601
vt 0.42961699 0.34584001
vt 0.25189301 0.19245601
vt 0.25189301 0.34584001
vt 0.51660299 0.00409100
vt 0.76582301 0.18242900
vt 0.51660299 0.18242900
vt 0.76582301 0.00409100
vt 0.67075503 0.46804401
vt 0.94169599 0.75475299
vt 0.67075503 0.75475299
vt 0.94169599 0.46804401
vt 0.47202399 0.75475299
vt 0.47202399 0.46804401
vt 0.67075503 0.75475299
vt 0.67075503 0.46804401
vt 0.20272601 0.46804401
vt 0.47202399 0.75475299
vt 0.20272601 0.75475299
vt 0.47202399 0.46804401
vt 0.00412300 0.75475299
vt 0.00412300 0.46804401
vt 0.20272601 0.75475299
vt 0.20272601 0.46804401
vt 0.94169599 0.46804401
vt 0.67075503 0.46804401
vt 0.67075503 0.35658601
vt 0.94169599 0.35658601
vt 0.47202399 0.46804401
vt 0.47202399 0.35658601
vt 0.67075503 0.46804401
vt 0.67075503 0.35658601
vt 0.20272601 0.35658601
vt 0.47202399 0.46804401
vt 0.20272601 0.46804401
vt 0.47202399 0.35658601
vt 0.00412300 0.46804401
vt 0.00412300 0.35658601
vt 0.20272601 0.46804401
vt 0.20272601 0.35658601
vt 0.25066200 0.18316799
vt 0.00390400 0.00411100
vt 0.25066200 0.00411100
vt 0.00390400 0.18316799
vt 0.26047501 0.18217200
vt 0.49684399 0.17606600
vt 0.50325000 0.18217200
vt 0.26687801 0.17606600
vt 0.26047501 0.00483400
vt 0.26687801 0.01094300
vt 0.50325000 0.00483400
vt 0.49684399 0.01094300
vt 0.67679298 0.19245601
vt 0.42946401 0.34584001
vt 0.42946401 0.19245601
vt 0.67679298 0.34584001
vt 0.85411102 0.19245601
vt 0.67679298 0.34584001
vt 0.67679298 0.19245601
vt 0.85411102 0.34584001
vt 0.25180301 0.19245601
vt 0.25180301 0.34584001
vt 0.00410500 0.19245601
vt 0.00410500 0.34584001
vt 0.42946401 0.19245601
vt 0.42946401 0.34584001
vt 0.25180301 0.19245601
vt 0.25180301 0.34584001
vt 0.51660299 0.00409100
vt 0.76582301 0.18242900
vt 0.51660299 0.18242900
vt 0.76582301 0.00409100
vt 0.67075503 0.94968098
vt 0.67075503 0.46804401
vt 0.94169599 0.94968098
vt 0.94169599 0.46804401
vt 0.47202399 0.94968098
vt 0.47202399 0.46804401
vt 0.67075503 0.94968098
vt 0.67075503 0.46804401
vt 0.20272601 0.94968098
vt 0.20272601 0.46804401
vt 0.47202399 0.94968098
vt 0.47202399 0.46804401
vt 0.00412300 0.94968098
vt 0.00412300 0.46804401
vt 0.20272601 0.94968098
vt 0.20272601 0.46804401
vt 0.67075503 0.35658601
vt 0.94169599 0.46804401
vt 0.67075503 0.46804401
vt 0.94169599 0.35658601
vt 0.47202399 0.46804401
vt 0.47202399 0.35658601
vt 0.67075503 0.46804401
vt 0.67075503 0.35658601
vt 0.47202399 0.46804401
vt 0.20272601 0.46804401
vt 0.20272601 0.35658601
vt 0.47202399 0.35658601
vt 0.00412300 0.46804401
vt 0.00412300 0.35658601
vt 0.20272601 0.46804401
vt 0.20272601 0.35658601
vt 0.25066200 0.18316799
vt 0.00390400 0.00411100
vt 0.25066200 0.00411100
vt 0.00390400 0.18316799
vt 0.26047501 0.18217200
vt 0.49684399 0.17606100
vt 0.50325000 0.18217200
vt 0.26688400 0.17606100
vt 0.26047501 0.00483400
vt 0.26688400 0.01094300
vt 0.50325000 0.00483400
vt 0.49684399 0.01094300
vt 0.67740703 0.19245601
vt 0.42951101 0.34584001
vt 0.42951101 0.19245601
vt 0.67740703 0.34584001
vt 0.85411102 0.19245601
vt 0.67740703 0.34584001
vt 0.67740703 0.19245601
vt 0.85411102 0.34584001
vt 0.25169200 0.19245601
vt 0.25169200 0.34584001
vt 0.00410500 0.19245601
vt 0.00410500 0.34584001
vt 0.42951101 0.19245601
vt 0.42951101 0.34584001
vt 0.25169200 0.19245601
vt 0.25169200 0.34584001
vt 0.51660299 0.00409100
vt 0.76582301 0.18242900
vt 0.51660299 0.18242900
vt 0.76582301 0.00409100
f 1/1 2/2 3/3
f 3/3 2/2 4/4
f 5/5 6/6 7/7
f 7/7 6/6 8/8
f 9/9 10/10 11/11
f 11/11 10/10 12/12
f 13/13 14/14 15/15
f 15/15 14/14 16/16
f 17/17 18/18 19/19
f 18/18 17/17 20/20
f 21/21 22/22 23/23
f 23/23 22/22 24/24
f 25/25 26/26 27/27
f 25/25 27/27 28/28
f 29/29 30/30 31/31
f 31/31 30/30 32/32
f 33/33 34/34 35/35
f 34/34 33/33 36/36
f 37/37 38/38 39/39
f 38/38 37/37 40/40
f 37/37 41/41 42/42
f 37/37 42/42 40/40
f 41/41 43/43 44/44
f 41/41 44/44 42/42
f 38/38 43/43 39/39
f 43/43 38/38 44/44
f 45/45 46/46 47/47
f 46/46 45/45 48/48
f 49/49 50/50 51/51
f 50/50 49/49 52/52
f 53/53 54/54 55/55
f 55/55 54/54 56/56
f 57/57 58/58 59/59
f 59/59 58/58 60/60
f 61/61 62/62 63/63
f 62/62 61/61 64/64
f 65/65 66/66 67/67
f 67/67 66/66 68/68
f 69/69 70/70 71/71
f 71/71 70/70 72/72
f 73/73 74/74 75/75
f 75/75 74/74 76/76
f 77/77 78/78 79/79
f 79/79 78/78 80/80
f 81/81 82/82 83/83
f 81/81 83/83 84/84
f 85/85 86/86 87/87
f 87/87 86/86 88/88
f 89/89 90/90 91/91
f 90/90 89/89 92/92
f 93/93 94/94 95/95
f 95/95 94/94 96/96
f 97/97 98/98 99/99
f 98/98 97/97 100/100
f 101/101 102/102 103/103
f 102/102 101/101 104/104
f 101/101 105/105 106/106
f 101/101 106/106 104/104
f 105/105 107/107 108/108
f 105/105 108/108 106/106
f 107/107 103/103 102/102
f 107/107 102/102 108/108
f 109/109 110/110 111/111
f 110/110 109/109 112/112
f 113/113 114/114 115/115
f 114/114 113/113 116/116
f 117/117 118/118 119/119
f 119/119 118/118 120/120
f 121/121 122/122 123/123
f 123/123 122/122 124/124
f 125/125 126/126 127/127
f 126/126 125/125 128/128
f 129/129 130/130 131/131
f 130/130 129/129 132/132
f 133/133 134/134 135/135
f 135/135 134/134 136/136
f 137/137 138/138 139/139
f 138/138 137/137 140/140
f 141/141 142/142 143/143
f 143/143 142/142 144/144
f 145/145 146/146 147/147
f 145/145 147/147 148/148
f 149/149 150/150 151/151
f 151/151 150/150 152/152
f 153/153 154/154 155/155
f 154/154 153/153 156/156
f 157/157 158/158 159/159
f 159/159 158/158 160/160
f 161/161 162/162 163/163
f 162/162 161/161 164/164
f 165/165 166/166 167/167
f 166/166 165/165 168/168
f 165/165 169/169 170/170
f 165/165 170/170 168/168
f 169/169 171/171 172/172
f 169/169 172/172 170/170
f 167/167 172/172 171/171
f 172/172 167/167 166/166
f 173/173 174/174 175/175
f 174/174 173/173 176/176
f 177/177 178/178 179/179
f 178/178 177/177 180/180
f 181/181 182/182 183/183
f 183/183 182/182 184/184
f 185/185 186/186 187/187
f 187/187 186/186 188/188
f 189/189 190/190 191/191
f 190/190 189/189 192/192
f 193/193 194/194 195/195
f 195/195 194/194 196/196
f 197/197 198/198 199/199
f 199/199 198/198 200/200
f 201/201 202/202 203/203
f 203/203 202/202 204/204
f 205/205 206/206 207/207
f 207/207 206/206 208/208
f 209/209 210/210 211/211
f 210/210 209/209 212/212
f 213/213 214/214 215/215
f 215/215 214/214 216/216
f 217/217 218/218 219/219
f 217/217 219/219 220/220
f 221/221 222/222 223/223
f 223/223 222/222 224/224
f 225/225 226/226 227/227
f 226/226 225/225 228/228
f 229/229 230/230 231/231
f 230/230 229/229 232/232
f 229/229 233/233 234/234
f 229/229 234/234 232/232
f 233/233 235/235 236/236
f 233/233 236/236 234/234
f 231/231 236/236 235/235
f 236/236 231/231 230/230
f 237/237 238/238 239/239
f 238/238 237/237 240/240
f 241/241 242/242 243/243
f 242/242 241/241 244/244
f 245/245 246/246 247/247
f 247/247 246/246 248/248
f 249/249 250/250 251/251
f 251/251 250/250 252/252
f 253/253 254/254 255/255
f 254/254 253/253 256/256

