# https://github.com/mikedh/trimesh
mtllib material.mtl
usemtl material_0
v 2.62789702 1.46924996 0.43882601
v 2.71675611 0.71921498 0.43882601
v 2.62789607 1.46924996 0.00000000
v 2.71675611 0.71921498 0.00000000
v 2.12072706 0.64860100 0.00000000
v 2.62789607 1.46924996 0.00000000
v 2.71675611 0.71921498 0.00000000
v 2.03186703 1.39863597 0.00000000
v 2.62789702 1.46924996 0.43882601
v 2.04499406 1.40019096 0.43882601
v 2.71675611 0.71921498 0.43882601
v 2.12072706 0.64860100 0.43882601
v 2.03186703 1.39863597 0.43882601
v 2.03186703 1.39863597 0.00000000
v 2.71675611 0.71921498 0.43882601
v 2.12072706 0.64860100 0.43882601
v 2.71675611 0.71921498 0.00000000
v 2.12072706 0.64860100 0.00000000
v 2.12072706 0.64860100 0.43882601
v 2.03186703 1.39863597 0.43882601
v 2.12072706 0.64860100 0.00000000
v 2.03186703 1.39863597 0.00000000
v 2.62789702 1.46924996 0.43882601
v 2.62789607 1.46924996 0.00000000
v 2.04499406 1.40019096 0.43882601
v 2.03186703 1.39863597 0.00000000
v 2.01300508 1.54716197 0.43882601
v 2.02891803 0.79204896 0.43882601
v 2.01300406 1.54716197 0.00000000
v 2.02891803 0.79204896 0.00000000
v 1.42885305 0.77940297 0.00000000
v 1.41294005 1.53451598 0.00000000
v 2.02891803 0.79204896 0.00000000
v 2.01300406 1.54716197 0.00000000
v 2.01300508 1.54716197 0.43882601
v 1.42615605 1.53479496 0.43882601
v 2.02891803 0.79204896 0.43882601
v 1.42885406 0.77940297 0.43882601
v 1.41294005 1.53451598 0.43882601
v 1.41294005 1.53451598 0.00000000
v 2.02891803 0.79204896 0.43882601
v 1.42885406 0.77940297 0.43882601
v 2.02891803 0.79204896 0.00000000
v 1.42885305 0.77940297 0.00000000
v 1.42885406 0.77940297 0.43882601
v 1.41294005 1.53451598 0.43882601
v 1.42885305 0.77940297 0.00000000
v 1.41294005 1.53451598 0.00000000
v 2.01300508 1.54716197 0.43882601
v 2.01300406 1.54716197 0.00000000
v 1.42615605 1.53479496 0.43882601
v 1.41294005 1.53451598 0.00000000
v 1.40738705 1.53941497 0.43882601
v 1.42330106 0.78430197 0.43882601
v 1.40738705 1.53941497 0.00000000
v 1.42330106 0.78430095 0.00000000
v 0.82323605 0.77165496 0.00000000
v 0.80732203 1.52676797 0.00000000
v 1.42330106 0.78430095 0.00000000
v 1.40738705 1.53941497 0.00000000
v 1.40738705 1.53941497 0.43882601
v 0.82053804 1.52704698 0.43882601
v 1.42330106 0.78430197 0.43882601
v 0.82323605 0.77165496 0.43882601
v 0.80732304 1.52676797 0.43882601
v 0.80732203 1.52676797 0.00000000
v 1.42330106 0.78430197 0.43882601
v 0.82323605 0.77165496 0.43882601
v 1.42330106 0.78430095 0.00000000
v 0.82323605 0.77165496 0.00000000
v 0.80732304 1.52676797 0.43882601
v 0.80732203 1.52676797 0.00000000
v 0.82323605 0.77165496 0.43882601
v 0.82323605 0.77165496 0.00000000
v 1.40738705 1.53941497 0.43882601
v 1.40738705 1.53941497 0.00000000
v 0.82053804 1.52704698 0.43882601
v 0.80732203 1.52676797 0.00000000
v 2.08696008 0.77893496 0.43882601
v 2.10287404 0.02382195 0.43882601
v 2.08696008 0.77893496 0.00000000
v 2.10287404 0.02382195 0.00000000
v 1.50280905 0.01117599 0.00000000
v 1.48689605 0.76628897 0.00000000
v 2.10287404 0.02382195 0.00000000
v 2.08696008 0.77893496 0.00000000
v 2.08696008 0.77893496 0.43882601
v 1.50011106 0.76656696 0.43882601
v 2.10287404 0.02382195 0.43882601
v 1.50280905 0.01117599 0.43882601
v 1.48689605 0.76628897 0.43882601
v 1.48689605 0.76628897 0.00000000
v 2.10287404 0.02382195 0.43882601
v 1.50280905 0.01117599 0.43882601
v 2.10287404 0.02382195 0.00000000
v 1.50280905 0.01117599 0.00000000
v 1.48689605 0.76628897 0.00000000
v 1.50280905 0.01117599 0.43882601
v 1.48689605 0.76628897 0.43882601
v 1.50280905 0.01117599 0.00000000
v 2.08696008 0.77893496 0.43882601
v 2.08696008 0.77893496 0.00000000
v 1.50011106 0.76656696 0.43882601
v 1.48689605 0.76628897 0.00000000
v 1.47183705 0.76775998 0.43882601
v 1.48775005 0.01264691 0.43882601
v 1.47183605 0.76775998 0.00000000
v 1.48775005 0.01264596 0.00000000
v 0.88768506 0.00000000 0.00000000
v 0.87177205 0.75511396 0.00000000
v 1.48775005 0.01264596 0.00000000
v 1.47183605 0.76775998 0.00000000
v 1.47183705 0.76775998 0.43882601
v 0.88498804 0.75539196 0.43882601
v 1.48775005 0.01264691 0.43882601
v 0.88768604 0.00000000 0.43882601
v 0.87177205 0.75511396 0.43882601
v 0.87177205 0.75511396 0.00000000
v 1.48775005 0.01264691 0.43882601
v 0.88768604 0.00000000 0.43882601
v 1.48775005 0.01264596 0.00000000
v 0.88768506 0.00000000 0.00000000
v 0.87177205 0.75511396 0.43882601
v 0.87177205 0.75511396 0.00000000
v 0.88768604 0.00000000 0.43882601
v 0.88768506 0.00000000 0.00000000
v 1.47183705 0.76775998 0.43882601
v 1.47183605 0.76775998 0.00000000
v 0.88498804 0.75539196 0.43882601
v 0.87177205 0.75511396 0.00000000
v 1.00766104 0.01286292 0.88635198
v 0.25238800 0.00944495 0.88635198
v 1.00766104 0.01286399 0.44752602
v 0.25238800 0.00944495 0.44752602
v 0.25238800 0.00944495 0.44752602
v 1.00494406 0.61305499 0.44752602
v 1.00766104 0.01286399 0.44752602
v 0.24967110 0.60963696 0.44752602
v 0.24967110 0.60963696 0.88635198
v 1.00500405 0.59983695 0.88635198
v 1.00494406 0.61305499 0.44752602
v 0.25238800 0.00944495 0.88635198
v 1.00766104 0.01286292 0.88635198
v 0.25238800 0.00944495 0.88635198
v 0.24967110 0.60963696 0.88635198
v 0.25238800 0.00944495 0.44752602
v 0.24967110 0.60963696 0.44752602
v 1.00494406 0.61305499 0.88635198
v 1.00494406 0.61305499 0.44752602
v 0.24967110 0.60963696 0.88635198
v 0.24967110 0.60963696 0.44752602
v 1.00766104 0.01286292 0.88635198
v 1.00766104 0.01286399 0.44752602
v 1.00500405 0.59983695 0.88635198
v 1.00494406 0.61305499 0.44752602
v 0.83643204 0.76775998 0.43882601
v 0.85234505 0.01264691 0.43882601
v 0.83643103 0.76775998 0.00000000
v 0.85234505 0.01264596 0.00000000
v 0.25228000 0.00000000 0.00000000
v 0.23636711 0.75511396 0.00000000
v 0.85234505 0.01264596 0.00000000
v 0.83643103 0.76775998 0.00000000
v 0.83643204 0.76775998 0.43882601
v 0.24958301 0.75539196 0.43882601
v 0.85234505 0.01264691 0.43882601
v 0.25228000 0.00000000 0.43882601
v 0.23636711 0.75511396 0.43882601
v 0.23636711 0.75511396 0.00000000
v 0.85234505 0.01264691 0.43882601
v 0.25228000 0.00000000 0.43882601
v 0.85234505 0.01264596 0.00000000
v 0.25228000 0.00000000 0.00000000
v 0.23636711 0.75511396 0.43882601
v 0.23636711 0.75511396 0.00000000
v 0.25228000 0.00000000 0.43882601
v 0.25228000 0.00000000 0.00000000
v 0.83643204 0.76775998 0.43882601
v 0.83643103 0.76775998 0.00000000
v 0.24958301 0.75539196 0.43882601
v 0.23636711 0.75511396 0.00000000
v 1.77282804 0.00888503 0.88635198
v 1.01755506 0.00546694 0.88635198
v 1.77282804 0.00888598 0.44752602
v 1.01755506 0.00546694 0.44752602
v 1.77282804 0.00888598 0.44752602
v 1.01755506 0.00546694 0.44752602
v 1.77011105 0.60907698 0.44752602
v 1.01483804 0.60565895 0.44752602
v 1.01483804 0.60565895 0.88635198
v 1.77011105 0.60907698 0.44752602
v 1.77011105 0.60907799 0.88635198
v 1.77017105 0.59585899 0.88635198
v 1.01755506 0.00546694 0.88635198
v 1.77282804 0.00888503 0.88635198
v 1.01755506 0.00546694 0.88635198
v 1.01483804 0.60565895 0.88635198
v 1.01755506 0.00546694 0.44752602
v 1.01483804 0.60565895 0.44752602
v 1.77011105 0.60907698 0.44752602
v 1.01483804 0.60565895 0.88635198
v 1.77011105 0.60907799 0.88635198
v 1.01483804 0.60565895 0.44752602
v 1.77282804 0.00888503 0.88635198
v 1.77282804 0.00888598 0.44752602
v 1.77017105 0.59585899 0.88635198
v 1.77011105 0.60907698 0.44752602
v 0.22780609 0.75323498 0.89758102
v 0.22438800 1.50850797 0.89758102
v 0.22780704 0.75323498 0.45875500
v 0.22438800 1.50850797 0.45875500
v 0.22780704 0.75323498 0.45875500
v 0.22438800 1.50850797 0.45875500
v 0.82799804 0.75595197 0.45875500
v 0.82458007 1.51122496 0.45875500
v 0.82458007 1.51122496 0.89758102
v 0.22438800 1.50850797 0.89758102
v 0.81478006 0.75589198 0.89758102
v 0.22780609 0.75323498 0.89758102
v 0.82799906 0.75595197 0.89758102
v 0.82799804 0.75595197 0.45875500
v 0.22438800 1.50850797 0.89758102
v 0.82458007 1.51122496 0.89758102
v 0.22438800 1.50850797 0.45875500
v 0.82458007 1.51122496 0.45875500
v 0.82799906 0.75595197 0.89758102
v 0.82799804 0.75595197 0.45875500
v 0.82458007 1.51122496 0.89758102
v 0.82458007 1.51122496 0.45875500
v 0.22780609 0.75323498 0.89758102
v 0.22780704 0.75323498 0.45875500
v 0.81478006 0.75589198 0.89758102
v 0.82799804 0.75595197 0.45875500
v 0.76776004 0.86753896 0.43882601
v 0.01264703 0.85162598 0.43882601
v 0.76776004 0.86753896 0.00000000
v 0.01264608 0.85162598 0.00000000
v 0.76776004 0.86753896 0.00000000
v 0.01264608 0.85162598 0.00000000
v 0.75511307 1.46760397 0.00000000
v 0.00000000 1.45168997 0.00000000
v 0.00000000 1.45168997 0.43882601
v 0.75539207 1.45438796 0.43882601
v 0.75511307 1.46760397 0.00000000
v 0.01264703 0.85162598 0.43882601
v 0.76776004 0.86753896 0.43882601
v 0.01264703 0.85162598 0.43882601
v 0.00000000 1.45168997 0.43882601
v 0.00000000 1.45168997 0.00000000
v 0.01264608 0.85162598 0.00000000
v 0.75511307 1.46760397 0.43882601
v 0.75511307 1.46760397 0.00000000
v 0.00000000 1.45168997 0.43882601
v 0.00000000 1.45168997 0.00000000
v 0.76776004 0.86753896 0.43882601
v 0.76776004 0.86753896 0.00000000
v 0.75539207 1.45438796 0.43882601
v 0.75511307 1.46760397 0.00000000
v 0.39496708 1.50689396 0.88121901
v 0.39154804 2.26216698 0.88121901
v 0.39496803 1.50689396 0.44239299
v 0.39154804 2.26216793 0.44239299
v 0.39496803 1.50689396 0.44239299
v 0.39154804 2.26216793 0.44239299
v 0.99515906 1.50961098 0.44239299
v 0.99174106 2.26488495 0.44239299
v 0.99174005 2.26488495 0.88121901
v 0.39154804 2.26216698 0.88121901
v 0.98194104 1.50955096 0.88121901
v 0.39496708 1.50689396 0.88121901
v 0.99515906 1.50961098 0.44239299
v 0.39154804 2.26216698 0.88121901
v 0.99174005 2.26488495 0.88121901
v 0.39154804 2.26216793 0.44239299
v 0.99174106 2.26488495 0.44239299
v 0.99515906 1.50961098 0.88121901
v 0.99515906 1.50961098 0.44239299
v 0.99174005 2.26488495 0.88121901
v 0.99174106 2.26488495 0.44239299
v 0.39496708 1.50689396 0.88121901
v 0.39496803 1.50689396 0.44239299
v 0.98194104 1.50955096 0.88121901
v 0.99515906 1.50961098 0.44239299
v 0.93492106 1.62119797 0.43882601
v 0.17980802 1.60528496 0.43882601
v 0.93492106 1.62119898 0.00000000
v 0.17980707 1.60528496 0.00000000
v 0.17980707 1.60528496 0.00000000
v 0.92227405 2.22126299 0.00000000
v 0.93492106 1.62119898 0.00000000
v 0.16716111 2.20534897 0.00000000
v 0.16716111 2.20534897 0.43882601
v 0.92255306 2.20804697 0.43882601
v 0.92227405 2.22126299 0.00000000
v 0.17980802 1.60528496 0.43882601
v 0.93492106 1.62119797 0.43882601
v 0.17980802 1.60528496 0.43882601
v 0.16716111 2.20534897 0.43882601
v 0.16716111 2.20534897 0.00000000
v 0.17980707 1.60528496 0.00000000
v 0.92227405 2.22126299 0.43882601
v 0.92227405 2.22126299 0.00000000
v 0.16716111 2.20534897 0.43882601
v 0.16716111 2.20534897 0.00000000
v 0.93492106 1.62119797 0.43882601
v 0.93492106 1.62119898 0.00000000
v 0.92255306 2.20804697 0.43882601
v 0.92227405 2.22126299 0.00000000
v 1.21330406 1.43351896 0.87512199
v 1.20988505 2.18879294 0.87512199
v 1.21330406 1.43351896 0.43629501
v 1.20988505 2.18879294 0.43629501
v 1.21330406 1.43351896 0.43629501
v 1.20988505 2.18879294 0.43629501
v 1.81349605 1.43623596 0.43629501
v 1.81007805 2.19150996 0.43629501
v 1.81007704 2.19150996 0.87512199
v 1.20988505 2.18879294 0.87512199
v 1.80027705 1.43617597 0.87512199
v 1.21330406 1.43351896 0.87512199
v 1.81349605 1.43623596 0.43629501
v 1.20988505 2.18879294 0.87512199
v 1.81007704 2.19150996 0.87512199
v 1.20988505 2.18879294 0.43629501
v 1.81007805 2.19150996 0.43629501
v 1.81349605 1.43623596 0.43629501
v 1.81007704 2.19150996 0.87512199
v 1.81349605 1.43623596 0.87512199
v 1.81007805 2.19150996 0.43629501
v 1.21330406 1.43351896 0.87512199
v 1.21330406 1.43351896 0.43629501
v 1.80027705 1.43617597 0.87512199
v 1.81349605 1.43623596 0.43629501
v 1.75325805 1.54782298 0.43882601
v 0.99814406 1.53190997 0.43882601
v 1.75325805 1.54782397 0.00000000
v 0.99814406 1.53190997 0.00000000
v 0.99814406 1.53190997 0.00000000
v 1.74061105 2.14788795 0.00000000
v 1.75325805 1.54782397 0.00000000
v 0.98549804 2.13197500 0.00000000
v 0.98549804 2.13197500 0.43882601
v 1.74089006 2.13467199 0.43882601
v 1.74061105 2.14788795 0.00000000
v 0.99814406 1.53190997 0.43882601
v 1.75325805 1.54782298 0.43882601
v 0.99814406 1.53190997 0.43882601
v 0.98549804 2.13197500 0.43882601
v 0.98549804 2.13197500 0.00000000
v 0.99814406 1.53190997 0.00000000
v 1.74061105 2.14788795 0.43882601
v 1.74061105 2.14788795 0.00000000
v 0.98549804 2.13197500 0.43882601
v 0.98549804 2.13197500 0.00000000
v 1.75325805 1.54782298 0.43882601
v 1.75325805 1.54782397 0.00000000
v 1.74089006 2.13467199 0.43882601
v 1.74061105 2.14788795 0.00000000
v 1.82258704 2.46618497 0.87116103
v 2.57786107 2.46960402 0.87116103
v 1.82258704 2.46618497 0.43233500
v 2.57786107 2.46960402 0.43233500
v 2.58057809 1.86941195 0.43233500
v 1.82530406 1.86599296 0.43233500
v 2.57786107 2.46960402 0.43233500
v 1.82258704 2.46618497 0.43233500
v 1.82524404 1.87921196 0.87116103
v 2.57786107 2.46960402 0.87116103
v 1.82258704 2.46618497 0.87116103
v 2.58057809 1.86941195 0.87116103
v 1.82530406 1.86599296 0.87116103
v 1.82530406 1.86599296 0.43233500
v 2.57786107 2.46960402 0.87116103
v 2.58057809 1.86941195 0.87116103
v 2.57786107 2.46960402 0.43233500
v 2.58057809 1.86941195 0.43233500
v 1.82530406 1.86599296 0.43233500
v 2.58057809 1.86941195 0.87116103
v 1.82530406 1.86599296 0.87116103
v 2.58057809 1.86941195 0.43233500
v 1.82258704 2.46618497 0.87116103
v 1.82258704 2.46618497 0.43233500
v 1.82524404 1.87921196 0.87116103
v 1.82530406 1.86599296 0.43233500
v 2.52290010 1.90985799 0.43882601
v 1.76778704 1.89394397 0.43882601
v 2.52290010 1.90985799 0.00000000
v 1.76778606 1.89394397 0.00000000
v 2.52290010 1.90985799 0.00000000
v 1.75514007 2.49400902 0.00000000
v 2.51025403 2.50992298 0.00000000
v 1.76778606 1.89394397 0.00000000
v 1.75514007 2.49400902 0.43882601
v 2.51053202 2.49670696 0.43882601
v 2.51025403 2.50992298 0.00000000
v 1.76778704 1.89394397 0.43882601
v 2.52290010 1.90985799 0.43882601
v 1.76778704 1.89394397 0.43882601
v 1.75514007 2.49400902 0.43882601
v 1.75514007 2.49400902 0.00000000
v 1.76778606 1.89394397 0.00000000
v 2.51025403 2.50992298 0.43882601
v 2.51025403 2.50992298 0.00000000
v 1.75514007 2.49400902 0.43882601
v 1.75514007 2.49400902 0.00000000
v 2.52290010 1.90985799 0.43882601
v 2.52290010 1.90985799 0.00000000
v 2.51053202 2.49670696 0.43882601
v 2.51025403 2.50992298 0.00000000
v 1.21330406 1.43351896 1.31430898
v 1.20988505 2.18879294 1.31430898
v 1.21330406 1.43351896 0.87548200
v 1.20988505 2.18879294 0.87548200
v 1.21330406 1.43351896 0.87548200
v 1.20988505 2.18879294 0.87548200
v 1.81349605 1.43623596 0.87548200
v 1.81007805 2.19150996 0.87548200
v 1.81007704 2.19150996 1.31430898
v 1.20988505 2.18879294 1.31430898
v 1.80027705 1.43617597 1.31430898
v 1.21330406 1.43351896 1.31430898
v 1.81349605 1.43623596 0.87548200
v 1.20988505 2.18879294 1.31430898
v 1.81007704 2.19150996 1.31430898
v 1.20988505 2.18879294 0.87548200
v 1.81007805 2.19150996 0.87548200
v 1.81349605 1.43623596 0.87548200
v 1.81007704 2.19150996 1.31430898
v 1.81349605 1.43623596 1.31430898
v 1.81007805 2.19150996 0.87548200
v 1.21330406 1.43351896 1.31430898
v 1.21330406 1.43351896 0.87548200
v 1.80027705 1.43617597 1.31430898
v 1.81349605 1.43623596 0.87548200
v 0.22780609 0.75323498 1.33886097
v 0.22438800 1.50850797 1.33886097
v 0.22780704 0.75323498 0.90003501
v 0.22438800 1.50850898 0.90003501
v 0.22780704 0.75323498 0.90003501
v 0.82458007 1.51122496 0.90003501
v 0.82799804 0.75595197 0.90003501
v 0.22438800 1.50850898 0.90003501
v 0.82458007 1.51122496 1.33886097
v 0.22438800 1.50850797 1.33886097
v 0.81478006 0.75589198 1.33886097
v 0.22780609 0.75323498 1.33886097
v 0.82799906 0.75595197 1.33886097
v 0.82799804 0.75595197 0.90003501
v 0.22438800 1.50850797 1.33886097
v 0.82458007 1.51122496 1.33886097
v 0.22438800 1.50850898 0.90003501
v 0.82458007 1.51122496 0.90003501
v 0.82799906 0.75595197 1.33886097
v 0.82799804 0.75595197 0.90003501
v 0.82458007 1.51122496 1.33886097
v 0.82458007 1.51122496 0.90003501
v 0.22780609 0.75323498 1.33886097
v 0.22780704 0.75323498 0.90003501
v 0.81478006 0.75589198 1.33886097
v 0.82799804 0.75595197 0.90003501
v 0.92206106 0.68481499 0.40256501
v 1.90809506 0.73209596 0.40256501
v 0.92206106 0.68481296 0.66063402
v 1.90809506 0.73209494 0.66063402
v 1.90809506 0.73209596 0.40256501
v 0.92206106 0.68481499 0.40256501
v 0.89309105 1.28898097 0.40256501
v 1.87912506 1.33626497 0.40256501
v 1.87912607 1.33626497 0.66063402
v 1.90809506 0.73209494 0.66063402
v 1.90809506 0.73209596 0.40256501
v 1.87912506 1.33626497 0.40256501
v 0.89309105 1.28898397 0.66063402
v 1.90809506 0.73209494 0.66063402
v 1.87912607 1.33626497 0.66063402
v 0.92206106 0.68481296 0.66063402
v 0.89309105 1.28898097 0.40256501
v 0.92206106 0.68481296 0.66063402
v 0.89309105 1.28898397 0.66063402
v 0.92206106 0.68481499 0.40256501
v 0.89309105 1.28898397 0.66063402
v 1.87912607 1.33626497 0.66063402
v 1.87912506 1.33626497 0.40256501
v 0.89309105 1.28898097 0.40256501
v 0.93143407 0.67145199 0.66914300
v 1.91574305 0.74651498 0.66914300
v 0.93143407 0.67145199 0.92721198
v 1.91574305 0.74651396 0.92721198
v 1.91574305 0.74651498 0.66914300
v 0.93143407 0.67145199 0.66914300
v 0.88544306 1.27456297 0.66914402
v 1.86975306 1.34962697 0.66914402
v 1.86975306 1.34962597 0.92721198
v 1.91574305 0.74651396 0.92721198
v 1.91574305 0.74651498 0.66914300
v 1.86975306 1.34962697 0.66914402
v 0.88544306 1.27456397 0.92721198
v 1.91574305 0.74651396 0.92721198
v 1.86975306 1.34962597 0.92721198
v 0.93143407 0.67145199 0.92721198
v 0.93143407 0.67145199 0.92721198
v 0.88544306 1.27456397 0.92721198
v 0.88544306 1.27456297 0.66914402
v 0.93143407 0.67145199 0.66914300
v 1.86975306 1.34962697 0.66914402
v 0.88544306 1.27456297 0.66914402
v 1.86975306 1.34962597 0.92721198
v 0.88544306 1.27456397 0.92721198
v 0.93143407 0.67145199 0.92792998
v 1.91574305 0.74651498 0.92792998
v 0.93143407 0.67145199 1.18599902
v 1.91574305 0.74651396 1.18599902
v 1.91574305 0.74651498 0.92792998
v 0.93143407 0.67145199 0.92792998
v 0.88544306 1.27456297 0.92792998
v 1.86975306 1.34962697 0.92792998
v 1.86975306 1.34962597 1.18599902
v 1.91574305 0.74651396 1.18599902
v 1.91574305 0.74651498 0.92792998
v 1.86975306 1.34962697 0.92792998
v 0.88544306 1.27456397 1.18599902
v 1.91574305 0.74651396 1.18599902
v 1.86975306 1.34962597 1.18599902
v 0.93143407 0.67145199 1.18599902
v 0.93143407 0.67145199 1.18599902
v 0.88544306 1.27456397 1.18599902
v 0.88544306 1.27456297 0.92792998
v 0.93143407 0.67145199 0.92792998
v 1.86975306 1.34962697 0.92792998
v 0.88544306 1.27456297 0.92792998
v 1.86975306 1.34962597 1.18599902
v 0.88544306 1.27456397 1.18599902
v 2.08556807 0.81260195 0.45407198
v 2.08556807 1.53191796 0.45407198
v 2.58207405 0.81260398 0.45407198
v 2.58207202 1.53191996 0.45407198
v 2.58207202 1.53191996 0.73697702
v 2.08556807 1.53191796 0.73697702
v 2.58207405 0.81260398 0.73697702
v 2.08556807 0.81260195 0.73697702
v 2.58207405 0.81260398 0.73697702
v 2.08556807 0.81260195 0.73697702
v 2.08556807 0.81260195 0.45407198
v 2.58207405 0.81260398 0.45407198
v 2.58207202 1.53191996 0.73697702
v 2.58207405 0.81260398 0.73697702
v 2.58207405 0.81260398 0.45407198
v 2.58207202 1.53191996 0.45407198
v 2.08556807 1.53191796 0.73697702
v 2.58207202 1.53191996 0.73697702
v 2.58207202 1.53191996 0.45407198
v 2.08556807 1.53191796 0.45407198
v 2.08556807 0.81260195 0.73697702
v 2.08556807 1.53191796 0.73697702
v 2.08556807 1.53191796 0.45407198
v 2.08556807 0.81260195 0.45407198
vt 0.62663094 0.34729123
vt 0.51187576 0.34729123
vt 0.62663019 0.21394019
vt 0.51187576 0.21394019
vt 0.63163090 0.02000371
vt 0.74638483 0.20239429
vt 0.63163090 0.20239429
vt 0.74638483 0.02000371
vt 0.51250103 0.20916153
vt 0.51250103 0.02362762
vt 0.62725571 0.20916204
vt 0.62725571 0.01961048
vt 0.51250103 0.01961048
vt 0.51250103 0.01961048
vt 0.60719323 0.48687705
vt 0.51446669 0.48678027
vt 0.60676432 0.35065314
vt 0.51491306 0.35063119
vt 0.74602355 0.33972004
vt 0.63126910 0.33972004
vt 0.74602279 0.20636551
vt 0.63126910 0.20636551
vt 0.64743672 0.48220372
vt 0.64743696 0.35378202
vt 0.73332589 0.48220422
vt 0.73526036 0.35378202
vt 0.62663094 0.34729123
vt 0.51187576 0.34729123
vt 0.62663019 0.21394019
vt 0.51187576 0.21394019
vt 0.63163090 0.02000371
vt 0.74638483 0.02000371
vt 0.63163090 0.20239429
vt 0.74638483 0.20239429
vt 0.51250103 0.20916153
vt 0.51250103 0.02362762
vt 0.62725571 0.20916204
vt 0.62725571 0.01961048
vt 0.51250103 0.01961048
vt 0.51250103 0.01961048
vt 0.60719323 0.48687705
vt 0.51446669 0.48678027
vt 0.60676432 0.35065314
vt 0.51491306 0.35063119
vt 0.74602355 0.33972004
vt 0.63126910 0.33972004
vt 0.74602279 0.20636551
vt 0.63126910 0.20636551
vt 0.64743672 0.48220372
vt 0.64743696 0.35378202
vt 0.73332589 0.48220422
vt 0.73526036 0.35378202
vt 0.62663094 0.34729123
vt 0.51187576 0.34729123
vt 0.62663019 0.21394019
vt 0.51187576 0.21394019
vt 0.63163090 0.02000371
vt 0.74638483 0.02000371
vt 0.63163090 0.20239429
vt 0.74638483 0.20239429
vt 0.51250103 0.20916153
vt 0.51250103 0.02362762
vt 0.62725571 0.20916204
vt 0.62725571 0.01961048
vt 0.51250103 0.01961048
vt 0.51250103 0.01960998
vt 0.60719323 0.48687705
vt 0.51446669 0.48678027
vt 0.60676432 0.35065314
vt 0.51491306 0.35063119
vt 0.63126910 0.33972004
vt 0.63126910 0.20636551
vt 0.74602355 0.33972004
vt 0.74602279 0.20636551
vt 0.64743672 0.48220372
vt 0.64743696 0.35378202
vt 0.73332589 0.48220422
vt 0.73526036 0.35378202
vt 0.62663094 0.34729123
vt 0.51187576 0.34729123
vt 0.62663019 0.21394019
vt 0.51187576 0.21394019
vt 0.63163090 0.02000371
vt 0.74638483 0.02000371
vt 0.63163090 0.20239429
vt 0.74638483 0.20239429
vt 0.51250103 0.20916153
vt 0.51250103 0.02362762
vt 0.62725571 0.20916204
vt 0.62725571 0.01961048
vt 0.51250103 0.01961048
vt 0.51250103 0.01961048
vt 0.60719323 0.48687705
vt 0.51446669 0.48678027
vt 0.60676432 0.35065314
vt 0.51491306 0.35063119
vt 0.63126910 0.20636551
vt 0.74602355 0.33972004
vt 0.63126910 0.33972004
vt 0.74602279 0.20636551
vt 0.64743672 0.48220372
vt 0.64743696 0.35378202
vt 0.73332589 0.48220422
vt 0.73526036 0.35378202
vt 0.62663094 0.34729123
vt 0.51187576 0.34729123
vt 0.62663019 0.21394019
vt 0.51187576 0.21394019
vt 0.63163090 0.02000371
vt 0.74638483 0.02000371
vt 0.63163090 0.20239429
vt 0.74638483 0.20239429
vt 0.51250103 0.20916153
vt 0.51250103 0.02362762
vt 0.62725571 0.20916204
vt 0.62725571 0.01961048
vt 0.51250103 0.01961048
vt 0.51250103 0.01961048
vt 0.60719323 0.48687705
vt 0.51446669 0.48678027
vt 0.60676432 0.35065314
vt 0.51491306 0.35063119
vt 0.63126910 0.33972004
vt 0.63126910 0.20636551
vt 0.74602355 0.33972004
vt 0.74602279 0.20636551
vt 0.64743672 0.48220372
vt 0.64743696 0.35378202
vt 0.73332589 0.48220422
vt 0.73526036 0.35378202
vt 0.62663094 0.34729123
vt 0.51187576 0.34729123
vt 0.62663019 0.21394019
vt 0.51187576 0.21394019
vt 0.63163090 0.20239429
vt 0.74638483 0.02000371
vt 0.74638483 0.20239429
vt 0.63163090 0.02000371
vt 0.62725571 0.01961048
vt 0.51250103 0.02362762
vt 0.51250103 0.01961048
vt 0.62725571 0.20916204
vt 0.51250103 0.20916153
vt 0.60719323 0.48687705
vt 0.51446669 0.48678027
vt 0.60676432 0.35065314
vt 0.51491306 0.35063119
vt 0.63126910 0.33972004
vt 0.63126910 0.20636551
vt 0.74602355 0.33972004
vt 0.74602279 0.20636551
vt 0.64743672 0.48220372
vt 0.64743696 0.35378202
vt 0.73332589 0.48220422
vt 0.73526036 0.35378202
vt 0.62663094 0.34729123
vt 0.51187576 0.34729123
vt 0.62663019 0.21394019
vt 0.51187576 0.21394019
vt 0.63163090 0.02000371
vt 0.74638483 0.02000371
vt 0.63163090 0.20239429
vt 0.74638483 0.20239429
vt 0.51250103 0.20916153
vt 0.51250103 0.02362762
vt 0.62725571 0.20916204
vt 0.62725571 0.01961048
vt 0.51250103 0.01961048
vt 0.51250103 0.01961048
vt 0.60719323 0.48687705
vt 0.51446669 0.48678027
vt 0.60676432 0.35065314
vt 0.51491306 0.35063119
vt 0.63126910 0.33972004
vt 0.63126910 0.20636551
vt 0.74602355 0.33972004
vt 0.74602279 0.20636551
vt 0.64743672 0.48220372
vt 0.64743696 0.35378202
vt 0.73332589 0.48220422
vt 0.73526036 0.35378202
vt 0.62663094 0.34729123
vt 0.51187576 0.34729123
vt 0.62663019 0.21394019
vt 0.51187576 0.21394019
vt 0.74638483 0.20239429
vt 0.63163090 0.20239429
vt 0.74638483 0.02000371
vt 0.63163090 0.02000371
vt 0.62725571 0.01961048
vt 0.51250103 0.01961098
vt 0.51250103 0.01961048
vt 0.51250103 0.02362762
vt 0.62725571 0.20916204
vt 0.51250103 0.20916153
vt 0.60719323 0.48687705
vt 0.51446669 0.48678027
vt 0.60676432 0.35065314
vt 0.51491306 0.35063119
vt 0.63126910 0.20636551
vt 0.74602355 0.33972004
vt 0.63126910 0.33972004
vt 0.74602279 0.20636551
vt 0.64743672 0.48220372
vt 0.64743696 0.35378202
vt 0.73332589 0.48220422
vt 0.73526036 0.35378202
vt 0.62663094 0.34729123
vt 0.51187576 0.34729123
vt 0.62663019 0.21394019
vt 0.51187576 0.21394019
vt 0.74638483 0.20239429
vt 0.63163090 0.20239429
vt 0.74638483 0.02000371
vt 0.63163090 0.02000371
vt 0.62725571 0.01961048
vt 0.62725571 0.20916204
vt 0.51250103 0.02362762
vt 0.51250103 0.20916153
vt 0.51250103 0.01961048
vt 0.51250103 0.01961098
vt 0.60719323 0.48687705
vt 0.51446669 0.48678027
vt 0.60676432 0.35065314
vt 0.51491306 0.35063119
vt 0.63126910 0.33972004
vt 0.63126910 0.20636551
vt 0.74602355 0.33972004
vt 0.74602279 0.20636551
vt 0.64743672 0.48220372
vt 0.64743696 0.35378202
vt 0.73332589 0.48220422
vt 0.73526036 0.35378202
vt 0.62663094 0.34729123
vt 0.51187576 0.34729123
vt 0.62663019 0.21394019
vt 0.51187576 0.21394019
vt 0.74638483 0.20239429
vt 0.63163090 0.20239429
vt 0.74638483 0.02000371
vt 0.63163090 0.02000371
vt 0.62725571 0.01961048
vt 0.51250103 0.02362762
vt 0.51250103 0.01961048
vt 0.62725571 0.20916204
vt 0.51250103 0.20916153
vt 0.60719323 0.48687705
vt 0.51446669 0.48678027
vt 0.51491306 0.35063119
vt 0.60676432 0.35065314
vt 0.63126910 0.33972004
vt 0.63126910 0.20636551
vt 0.74602355 0.33972004
vt 0.74602279 0.20636551
vt 0.64743672 0.48220372
vt 0.64743696 0.35378202
vt 0.73332589 0.48220422
vt 0.73526036 0.35378202
vt 0.62663094 0.34729123
vt 0.51187576 0.34729123
vt 0.62663019 0.21394019
vt 0.51187576 0.21394019
vt 0.74638483 0.20239429
vt 0.63163090 0.20239429
vt 0.74638483 0.02000371
vt 0.63163090 0.02000371
vt 0.62725571 0.01961048
vt 0.62725571 0.20916204
vt 0.51250103 0.02362762
vt 0.51250103 0.20916153
vt 0.51250103 0.01961048
vt 0.60719323 0.48687705
vt 0.51446669 0.48678027
vt 0.60676432 0.35065314
vt 0.51491306 0.35063119
vt 0.63126910 0.33972004
vt 0.63126910 0.20636551
vt 0.74602355 0.33972004
vt 0.74602279 0.20636551
vt 0.64743672 0.48220372
vt 0.64743696 0.35378202
vt 0.73332589 0.48220422
vt 0.73526036 0.35378202
vt 0.62663094 0.34729123
vt 0.51187576 0.34729123
vt 0.62663019 0.21394019
vt 0.51187576 0.21394019
vt 0.63163090 0.20239429
vt 0.74638483 0.02000371
vt 0.74638483 0.20239429
vt 0.63163090 0.02000371
vt 0.62725571 0.01961048
vt 0.51250103 0.02362762
vt 0.51250103 0.01961048
vt 0.62725571 0.20916204
vt 0.51250103 0.20916153
vt 0.60719323 0.48687705
vt 0.51446669 0.48678027
vt 0.51491306 0.35063119
vt 0.60676432 0.35065314
vt 0.63126910 0.33972004
vt 0.63126910 0.20636551
vt 0.74602355 0.33972004
vt 0.74602279 0.20636551
vt 0.64743672 0.48220372
vt 0.64743696 0.35378202
vt 0.73332589 0.48220422
vt 0.73526036 0.35378202
vt 0.62663094 0.34729123
vt 0.51187576 0.34729123
vt 0.62663019 0.21394019
vt 0.51187576 0.21394019
vt 0.74638483 0.20239429
vt 0.63163090 0.20239429
vt 0.74638483 0.02000371
vt 0.63163090 0.02000371
vt 0.62725571 0.01961048
vt 0.62725571 0.20916204
vt 0.51250103 0.02362762
vt 0.51250103 0.20916153
vt 0.51250103 0.01961048
vt 0.60719323 0.48687705
vt 0.51446669 0.48678027
vt 0.60676432 0.35065314
vt 0.51491306 0.35063119
vt 0.63126910 0.20636551
vt 0.74602355 0.33972004
vt 0.63126910 0.33972004
vt 0.74602279 0.20636551
vt 0.64743672 0.48220372
vt 0.64743696 0.35378202
vt 0.73332589 0.48220422
vt 0.73526036 0.35378202
vt 0.62663094 0.34729123
vt 0.51187576 0.34729123
vt 0.62663019 0.21394019
vt 0.51187576 0.21394019
vt 0.63163090 0.20239429
vt 0.74638483 0.02000371
vt 0.74638483 0.20239429
vt 0.63163090 0.02000371
vt 0.62725571 0.01961048
vt 0.51250103 0.02362762
vt 0.51250103 0.01961048
vt 0.62725571 0.20916204
vt 0.51250103 0.20916153
vt 0.60719323 0.48687705
vt 0.51446669 0.48678027
vt 0.51491306 0.35063119
vt 0.60676432 0.35065314
vt 0.63126910 0.33972004
vt 0.63126910 0.20636551
vt 0.74602355 0.33972004
vt 0.74602279 0.20636551
vt 0.64743672 0.48220372
vt 0.64743696 0.35378202
vt 0.73332589 0.48220422
vt 0.73526036 0.35378202
vt 0.62663094 0.34729123
vt 0.51187576 0.34729123
vt 0.62663019 0.21394019
vt 0.51187576 0.21394019
vt 0.63163090 0.02000371
vt 0.74638483 0.02000371
vt 0.63163090 0.20239429
vt 0.74638483 0.20239429
vt 0.51250103 0.02362762
vt 0.62725571 0.20916204
vt 0.51250103 0.20916153
vt 0.62725571 0.01961048
vt 0.51250103 0.01961048
vt 0.51250103 0.01961048
vt 0.60719323 0.48687705
vt 0.51446669 0.48678027
vt 0.60676432 0.35065314
vt 0.51491306 0.35063119
vt 0.63126910 0.20636551
vt 0.74602355 0.33972004
vt 0.63126910 0.33972004
vt 0.74602279 0.20636551
vt 0.64743672 0.48220372
vt 0.64743696 0.35378202
vt 0.73332589 0.48220422
vt 0.73526036 0.35378202
vt 0.62663094 0.34729123
vt 0.51187576 0.34729123
vt 0.62663019 0.21394019
vt 0.51187576 0.21394019
vt 0.74638483 0.20239429
vt 0.63163090 0.02000371
vt 0.74638483 0.02000371
vt 0.63163090 0.20239429
vt 0.62725571 0.01961048
vt 0.51250103 0.02362762
vt 0.51250103 0.01961048
vt 0.62725571 0.20916204
vt 0.51250103 0.20916153
vt 0.60719323 0.48687705
vt 0.51446669 0.48678027
vt 0.51491306 0.35063119
vt 0.60676432 0.35065314
vt 0.63126910 0.33972004
vt 0.63126910 0.20636551
vt 0.74602355 0.33972004
vt 0.74602279 0.20636551
vt 0.64743672 0.48220372
vt 0.64743696 0.35378202
vt 0.73332589 0.48220422
vt 0.73526036 0.35378202
vt 0.62663094 0.34729123
vt 0.51187576 0.34729123
vt 0.62663019 0.21394019
vt 0.51187576 0.21394019
vt 0.74638483 0.20239429
vt 0.63163090 0.20239429
vt 0.74638483 0.02000371
vt 0.63163090 0.02000371
vt 0.62725571 0.01961048
vt 0.62725571 0.20916204
vt 0.51250103 0.02362762
vt 0.51250103 0.20916153
vt 0.51250103 0.01961048
vt 0.60719323 0.48687705
vt 0.51446669 0.48678027
vt 0.60676432 0.35065314
vt 0.51491306 0.35063119
vt 0.63126910 0.20636551
vt 0.74602355 0.33972004
vt 0.63126910 0.33972004
vt 0.74602279 0.20636551
vt 0.64743672 0.48220372
vt 0.64743696 0.35378202
vt 0.73332589 0.48220422
vt 0.73526036 0.35378202
vt 0.62663094 0.34729123
vt 0.51187576 0.34729123
vt 0.62663019 0.21394019
vt 0.51187576 0.21394019
vt 0.74638483 0.20239429
vt 0.63163090 0.02000371
vt 0.74638483 0.02000371
vt 0.63163090 0.20239429
vt 0.62725571 0.01961048
vt 0.62725571 0.20916204
vt 0.51250103 0.02362762
vt 0.51250103 0.20916153
vt 0.51250103 0.01961048
vt 0.51250103 0.01961098
vt 0.60719323 0.48687705
vt 0.51446669 0.48678027
vt 0.60676432 0.35065314
vt 0.51491306 0.35063119
vt 0.63126910 0.33972004
vt 0.63126910 0.20636551
vt 0.74602355 0.33972004
vt 0.74602279 0.20636551
vt 0.64743672 0.48220372
vt 0.64743696 0.35378202
vt 0.73332589 0.48220422
vt 0.73526036 0.35378202
vt 0.25710607 0.26261095
vt 0.44177018 0.26261095
vt 0.25710632 0.35917647
vt 0.44177044 0.35917647
vt 0.25543010 0.03239546
vt 0.44009621 0.03239496
vt 0.44009647 0.25869909
vt 0.25543010 0.25869960
vt 0.49494912 0.24166343
vt 0.49497408 0.47040230
vt 0.44554255 0.47019822
vt 0.44552559 0.24183860
vt 0.44059374 0.02162804
vt 0.25484774 0.25095376
vt 0.25484774 0.02162804
vt 0.44059374 0.25095376
vt 0.49691876 0.02244494
vt 0.44747452 0.25100865
vt 0.44749424 0.02226878
vt 0.49690380 0.25080306
vt 0.44176995 0.45687479
vt 0.25710607 0.45687479
vt 0.25710607 0.36030924
vt 0.44176995 0.36030924
vt 0.25710607 0.26261095
vt 0.44177018 0.26261095
vt 0.25710632 0.35917647
vt 0.44177044 0.35917647
vt 0.25543010 0.03239546
vt 0.44009621 0.03239496
vt 0.44009647 0.25869909
vt 0.25543010 0.25869960
vt 0.49494912 0.24166343
vt 0.49497408 0.47040230
vt 0.44554255 0.47019822
vt 0.44552559 0.24183860
vt 0.44059374 0.02162804
vt 0.25484774 0.25095376
vt 0.25484774 0.02162804
vt 0.44059374 0.25095376
vt 0.44747452 0.25100865
vt 0.44749424 0.02226878
vt 0.49691876 0.02244494
vt 0.49690380 0.25080306
vt 0.25710607 0.36030924
vt 0.44176995 0.36030924
vt 0.25710607 0.45687479
vt 0.44176995 0.45687479
vt 0.25710607 0.26261095
vt 0.44177018 0.26261095
vt 0.25710632 0.35917647
vt 0.44177044 0.35917647
vt 0.25543010 0.03239546
vt 0.44009621 0.03239496
vt 0.44009647 0.25869909
vt 0.25543010 0.25869960
vt 0.49494912 0.24166343
vt 0.49497408 0.47040230
vt 0.44554255 0.47019822
vt 0.44552559 0.24183860
vt 0.44059374 0.02162804
vt 0.25484774 0.25095376
vt 0.25484774 0.02162804
vt 0.44059374 0.25095376
vt 0.44747452 0.25100865
vt 0.44749424 0.02226878
vt 0.49691876 0.02244494
vt 0.49690380 0.25080306
vt 0.25710607 0.36030924
vt 0.44176995 0.36030924
vt 0.25710607 0.45687479
vt 0.44176995 0.45687479
vt 0.06052950 0.10481674
vt 0.23615456 0.10481674
vt 0.06052950 0.34726576
vt 0.23615456 0.34726576
vt 0.06102777 0.34726576
vt 0.06102777 0.10481674
vt 0.23665309 0.34726576
vt 0.23665309 0.10481674
vt 0.00267721 0.34920148
vt 0.00267721 0.10675245
vt 0.07292674 0.10675245
vt 0.07292674 0.34920148
vt 0.03860191 0.35476262
vt 0.21422722 0.35476262
vt 0.21422722 0.49526266
vt 0.03860191 0.49526216
vt 0.07266225 0.10565660
vt 0.07266225 0.34810565
vt 0.00358918 0.34810565
vt 0.00358918 0.10565660
vt 0.21931975 0.24482326
vt 0.04369444 0.24482326
vt 0.04369444 0.10432420
vt 0.21931975 0.10432420
f 1/1 2/2 3/3
f 2/2 4/4 3/3
f 5/5 6/6 7/7
f 6/6 5/5 8/8
f 9/9 10/10 11/11
f 10/10 12/12 11/11
f 12/12 10/10 13/13
f 13/13 10/10 14/14
f 15/15 16/16 17/17
f 16/16 18/18 17/17
f 19/19 20/20 21/21
f 20/20 22/22 21/21
f 23/23 24/24 25/25
f 25/25 24/24 26/26
f 27/27 28/28 29/29
f 28/28 30/30 29/29
f 31/31 32/32 33/33
f 33/33 32/32 34/34
f 35/35 36/36 37/37
f 36/36 38/38 37/37
f 38/38 36/36 39/39
f 39/39 36/36 40/40
f 41/41 42/42 43/43
f 42/42 44/44 43/43
f 45/45 46/46 47/47
f 46/46 48/48 47/47
f 49/49 50/50 51/51
f 51/51 50/50 52/52
f 53/53 54/54 55/55
f 54/54 56/56 55/55
f 57/57 58/58 59/59
f 59/59 58/58 60/60
f 61/61 62/62 63/63
f 62/62 64/64 63/63
f 64/64 62/62 65/65
f 62/62 66/66 65/65
f 67/67 68/68 69/69
f 68/68 70/70 69/69
f 71/71 72/72 73/73
f 73/73 72/72 74/74
f 75/75 76/76 77/77
f 77/77 76/76 78/78
f 79/79 80/80 81/81
f 80/80 82/82 81/81
f 83/83 84/84 85/85
f 85/85 84/84 86/86
f 87/87 88/88 89/89
f 88/88 90/90 89/89
f 90/90 88/88 91/91
f 91/91 88/88 92/92
f 93/93 94/94 95/95
f 94/94 96/96 95/95
f 97/97 98/98 99/99
f 98/98 97/97 100/100
f 101/101 102/102 103/103
f 103/103 102/102 104/104
f 105/105 106/106 107/107
f 106/106 108/108 107/107
f 109/109 110/110 111/111
f 111/111 110/110 112/112
f 113/113 114/114 115/115
f 114/114 116/116 115/115
f 116/116 114/114 117/117
f 117/117 114/114 118/118
f 119/119 120/120 121/121
f 120/120 122/122 121/121
f 123/123 124/124 125/125
f 125/125 124/124 126/126
f 127/127 128/128 129/129
f 129/129 128/128 130/130
f 131/131 132/132 133/133
f 132/132 134/134 133/133
f 135/135 136/136 137/137
f 136/136 135/135 138/138
f 139/139 140/140 141/141
f 140/140 139/139 142/142
f 140/140 142/142 143/143
f 144/144 145/145 146/146
f 145/145 147/147 146/146
f 148/148 149/149 150/150
f 150/150 149/149 151/151
f 152/152 153/153 154/154
f 154/154 153/153 155/155
f 156/156 157/157 158/158
f 157/157 159/159 158/158
f 160/160 161/161 162/162
f 162/162 161/161 163/163
f 164/164 165/165 166/166
f 165/165 167/167 166/166
f 167/167 165/165 168/168
f 168/168 165/165 169/169
f 170/170 171/171 172/172
f 171/171 173/173 172/172
f 174/174 175/175 176/176
f 176/176 175/175 177/177
f 178/178 179/179 180/180
f 180/180 179/179 181/181
f 182/182 183/183 184/184
f 183/183 185/185 184/184
f 186/186 187/187 188/188
f 187/187 189/189 188/188
f 190/190 191/191 192/192
f 190/190 193/193 191/191
f 193/193 190/190 194/194
f 193/193 194/194 195/195
f 196/196 197/197 198/198
f 197/197 199/199 198/198
f 200/200 201/201 202/202
f 201/201 200/200 203/203
f 204/204 205/205 206/206
f 206/206 205/205 207/207
f 208/208 209/209 210/210
f 209/209 211/211 210/210
f 212/212 213/213 214/214
f 214/214 213/213 215/215
f 216/216 217/217 218/218
f 217/217 219/219 218/218
f 220/220 216/216 221/221
f 218/218 221/221 216/216
f 222/222 223/223 224/224
f 223/223 225/225 224/224
f 226/226 227/227 228/228
f 228/228 227/227 229/229
f 230/230 231/231 232/232
f 232/232 231/231 233/233
f 234/234 235/235 236/236
f 235/235 237/237 236/236
f 238/238 239/239 240/240
f 239/239 241/241 240/240
f 242/242 243/243 244/244
f 243/243 242/242 245/245
f 243/243 245/245 246/246
f 247/247 248/248 249/249
f 247/247 249/249 250/250
f 251/251 252/252 253/253
f 253/253 252/252 254/254
f 255/255 256/256 257/257
f 257/257 256/256 258/258
f 259/259 260/260 261/261
f 260/260 262/262 261/261
f 263/263 264/264 265/265
f 265/265 264/264 266/266
f 267/267 268/268 269/269
f 268/268 270/270 269/269
f 269/269 271/271 267/267
f 272/272 273/273 274/274
f 273/273 275/275 274/274
f 276/276 277/277 278/278
f 278/278 277/277 279/279
f 280/280 281/281 282/282
f 282/282 281/281 283/283
f 284/284 285/285 286/286
f 285/285 287/287 286/286
f 288/288 289/289 290/290
f 289/289 288/288 291/291
f 292/292 293/293 294/294
f 293/293 292/292 295/295
f 293/293 295/295 296/296
f 297/297 298/298 299/299
f 297/297 299/299 300/300
f 301/301 302/302 303/303
f 303/303 302/302 304/304
f 305/305 306/306 307/307
f 307/307 306/306 308/308
f 309/309 310/310 311/311
f 310/310 312/312 311/311
f 313/313 314/314 315/315
f 315/315 314/314 316/316
f 317/317 318/318 319/319
f 318/318 320/320 319/319
f 319/319 321/321 317/317
f 322/322 323/323 324/324
f 323/323 325/325 324/324
f 326/326 327/327 328/328
f 327/327 326/326 329/329
f 330/330 331/331 332/332
f 332/332 331/331 333/333
f 334/334 335/335 336/336
f 335/335 337/337 336/336
f 338/338 339/339 340/340
f 339/339 338/338 341/341
f 342/342 343/343 344/344
f 343/343 342/342 345/345
f 343/343 345/345 346/346
f 347/347 348/348 349/349
f 347/347 349/349 350/350
f 351/351 352/352 353/353
f 353/353 352/352 354/354
f 355/355 356/356 357/357
f 357/357 356/356 358/358
f 359/359 360/360 361/361
f 360/360 362/362 361/361
f 363/363 364/364 365/365
f 364/364 366/366 365/365
f 367/367 368/368 369/369
f 368/368 367/367 370/370
f 370/370 367/367 371/371
f 371/371 367/367 372/372
f 373/373 374/374 375/375
f 374/374 376/376 375/375
f 377/377 378/378 379/379
f 378/378 377/377 380/380
f 381/381 382/382 383/383
f 383/383 382/382 384/384
f 385/385 386/386 387/387
f 386/386 388/388 387/387
f 389/389 390/390 391/391
f 390/390 389/389 392/392
f 393/393 394/394 395/395
f 394/394 393/393 396/396
f 394/394 396/396 397/397
f 398/398 399/399 400/400
f 398/398 400/400 401/401
f 402/402 403/403 404/404
f 404/404 403/403 405/405
f 406/406 407/407 408/408
f 408/408 407/407 409/409
f 410/410 411/411 412/412
f 411/411 413/413 412/412
f 414/414 415/415 416/416
f 416/416 415/415 417/417
f 418/418 419/419 420/420
f 419/419 421/421 420/420
f 420/420 422/422 418/418
f 423/423 424/424 425/425
f 424/424 426/426 425/425
f 427/427 428/428 429/429
f 428/428 427/427 430/430
f 431/431 432/432 433/433
f 433/433 432/432 434/434
f 435/435 436/436 437/437
f 436/436 438/438 437/437
f 439/439 440/440 441/441
f 440/440 439/439 442/442
f 443/443 444/444 445/445
f 444/444 446/446 445/445
f 447/447 443/443 448/448
f 445/445 448/448 443/443
f 449/449 450/450 451/451
f 450/450 452/452 451/451
f 453/453 454/454 455/455
f 455/455 454/454 456/456
f 457/457 458/458 459/459
f 459/459 458/458 460/460
f 461/461 462/462 463/463
f 464/464 463/463 462/462
f 465/465 466/466 467/467
f 465/465 467/467 468/468
f 469/469 470/470 471/471
f 469/469 471/471 472/472
f 473/473 474/474 475/475
f 474/474 473/473 476/476
f 477/477 478/478 479/479
f 478/478 477/477 480/480
f 481/481 482/482 483/483
f 481/481 483/483 484/484
f 485/485 486/486 487/487
f 488/488 487/487 486/486
f 489/489 490/490 491/491
f 489/489 491/491 492/492
f 493/493 494/494 495/495
f 493/493 495/495 496/496
f 497/497 498/498 499/499
f 498/498 497/497 500/500
f 501/501 502/502 503/503
f 501/501 503/503 504/504
f 505/505 506/506 507/507
f 508/508 507/507 506/506
f 509/509 510/510 511/511
f 512/512 511/511 510/510
f 513/513 514/514 515/515
f 513/513 515/515 516/516
f 517/517 518/518 519/519
f 517/517 519/519 520/520
f 521/521 522/522 523/523
f 522/522 521/521 524/524
f 525/525 526/526 527/527
f 525/525 527/527 528/528
f 529/529 530/530 531/531
f 532/532 531/531 530/530
f 533/533 534/534 535/535
f 535/535 534/534 536/536
f 537/537 538/538 539/539
f 538/538 540/540 539/539
f 541/541 542/542 543/543
f 541/541 543/543 544/544
f 545/545 546/546 547/547
f 545/545 547/547 548/548
f 549/549 550/550 551/551
f 549/549 551/551 552/552
f 553/553 554/554 555/555
f 553/553 555/555 556/556

