# https://github.com/mikedh/trimesh
mtllib material.mtl
usemtl material_0
v 2.16705704 0.06286198 1.34731799
v 2.15114295 0.81797500 0.90849197
v 2.15114295 0.81797500 1.34731799
v 2.16705704 0.06286198 0.90849197
v 2.16705704 0.06286198 0.90849197
v 1.55107799 0.80532900 0.90849197
v 2.15114295 0.81797500 0.90849197
v 1.56699198 0.05021602 0.90849197
v 1.56429499 0.80560700 1.34731799
v 2.16705704 0.06286198 1.34731799
v 2.15114295 0.81797500 1.34731799
v 1.56699198 0.05021602 1.34731799
v 1.55107901 0.80532900 1.34731799
v 1.56699198 0.05021602 1.34731799
v 2.16705704 0.06286198 0.90849197
v 2.16705704 0.06286198 1.34731799
v 1.56699198 0.05021602 0.90849197
v 1.56699198 0.05021602 1.34731799
v 1.55107901 0.80532900 1.34731799
v 1.55107799 0.80532900 0.90849197
v 1.56699198 0.05021602 0.90849197
v 1.56429499 0.80560700 1.34731799
v 1.55107799 0.80532900 0.90849197
v 1.55107901 0.80532900 1.34731799
v 2.15114295 0.81797500 0.90849197
v 2.15114295 0.81797500 1.34731799
v 0.03620005 0.00000000 0.43882599
v 0.93546100 0.01336300 0.00000000
v 0.93546100 0.01336300 0.43882599
v 0.03620005 0.00000000 0.00000000
v 0.03620005 0.00000000 0.00000000
v 0.92039999 0.51723999 0.00000000
v 0.93546100 0.01336300 0.00000000
v 0.02113998 0.50387800 0.00000000
v 0.02113998 0.50387701 0.43882599
v 0.92073199 0.50614199 0.43882599
v 0.92039999 0.51723999 0.43882599
v 0.03620005 0.00000000 0.43882599
v 0.93546100 0.01336300 0.43882599
v 0.02113998 0.50387701 0.43882599
v 0.03620005 0.00000000 0.00000000
v 0.03620005 0.00000000 0.43882599
v 0.02113998 0.50387800 0.00000000
v 0.02113998 0.50387701 0.43882599
v 0.92039999 0.51723999 0.43882599
v 0.92039999 0.51723999 0.00000000
v 0.02113998 0.50387800 0.00000000
v 0.92073199 0.50614199 0.43882599
v 0.92039999 0.51723999 0.00000000
v 0.92039999 0.51723999 0.43882599
v 0.93546100 0.01336300 0.00000000
v 0.93546100 0.01336300 0.43882599
v 0.03620005 0.00000000 0.89180303
v 0.93546100 0.01336300 0.45297700
v 0.93546100 0.01336300 0.89180303
v 0.03620005 0.00000000 0.45297700
v 0.03620005 0.00000000 0.45297700
v 0.92039999 0.51723999 0.45297700
v 0.93546100 0.01336300 0.45297700
v 0.02113998 0.50387800 0.45297700
v 0.02113998 0.50387701 0.89180303
v 0.92073199 0.50614199 0.89180303
v 0.92039999 0.51723999 0.89180303
v 0.03620005 0.00000000 0.89180303
v 0.93546100 0.01336300 0.89180303
v 0.02113998 0.50387701 0.89180303
v 0.03620005 0.00000000 0.45297700
v 0.03620005 0.00000000 0.89180303
v 0.02113998 0.50387800 0.45297700
v 0.02113998 0.50387701 0.89180303
v 0.92039999 0.51723999 0.89180303
v 0.92039999 0.51723999 0.45297700
v 0.02113998 0.50387800 0.45297700
v 0.92073199 0.50614199 0.89180303
v 0.92039999 0.51723999 0.45297700
v 0.92039999 0.51723999 0.89180303
v 0.93546100 0.01336300 0.45297700
v 0.93546100 0.01336300 0.89180303
v 0.03620005 0.00000000 1.34731799
v 0.93546100 0.01336300 0.90849197
v 0.93546100 0.01336300 1.34731799
v 0.03620005 0.00000000 0.90849197
v 0.03620005 0.00000000 0.90849197
v 0.92039999 0.51723999 0.90849197
v 0.93546100 0.01336300 0.90849197
v 0.02113998 0.50387800 0.90849197
v 0.02113998 0.50387701 1.34731799
v 0.92073199 0.50614199 1.34731799
v 0.92039999 0.51723999 1.34731799
v 0.03620005 0.00000000 1.34731799
v 0.93546100 0.01336300 1.34731799
v 0.02113998 0.50387701 1.34731799
v 0.03620005 0.00000000 0.90849197
v 0.03620005 0.00000000 1.34731799
v 0.02113998 0.50387800 0.90849197
v 0.02113998 0.50387701 1.34731799
v 0.92039999 0.51723999 1.34731799
v 0.92039999 0.51723999 0.90849197
v 0.02113998 0.50387800 0.90849197
v 0.92073199 0.50614199 1.34731799
v 0.92039999 0.51723999 0.90849197
v 0.92039999 0.51723999 1.34731799
v 0.93546100 0.01336300 0.90849197
v 0.93546100 0.01336300 1.34731799
v 0.02552998 0.51328200 0.43882599
v 0.92479099 0.52664500 0.00000000
v 0.92479099 0.52664500 0.43882599
v 0.02552998 0.51328200 0.00000000
v 0.02552998 0.51328200 0.00000000
v 0.90973000 1.03052200 0.00000000
v 0.92479099 0.52664500 0.00000000
v 0.01047003 1.01715900 0.00000000
v 0.01047003 1.01715900 0.43882599
v 0.91006200 1.01942401 0.43882599
v 0.90973000 1.03052200 0.43882599
v 0.02552998 0.51328200 0.43882599
v 0.92479099 0.52664500 0.43882599
v 0.01047003 1.01715900 0.43882599
v 0.02552998 0.51328200 0.00000000
v 0.02552998 0.51328200 0.43882599
v 0.01047003 1.01715900 0.00000000
v 0.01047003 1.01715900 0.43882599
v 0.90973000 1.03052200 0.43882599
v 0.90973000 1.03052200 0.00000000
v 0.01047003 1.01715900 0.00000000
v 0.91006200 1.01942401 0.43882599
v 0.90973000 1.03052200 0.00000000
v 0.90973000 1.03052200 0.43882599
v 0.92479099 0.52664500 0.00000000
v 0.92479099 0.52664500 0.43882599
v 0.02552998 0.51328200 0.89180303
v 0.92479099 0.52664500 0.45297700
v 0.92479099 0.52664500 0.89180303
v 0.02552998 0.51328200 0.45297700
v 0.02552998 0.51328200 0.45297700
v 0.90973000 1.03052200 0.45297700
v 0.92479099 0.52664500 0.45297700
v 0.01047003 1.01715900 0.45297700
v 0.01047003 1.01715900 0.89180303
v 0.91006200 1.01942401 0.89180303
v 0.90973000 1.03052200 0.89180303
v 0.02552998 0.51328200 0.89180303
v 0.92479099 0.52664500 0.89180303
v 0.01047003 1.01715900 0.89180303
v 0.02552998 0.51328200 0.45297700
v 0.02552998 0.51328200 0.89180303
v 0.01047003 1.01715900 0.45297700
v 0.01047003 1.01715900 0.89180303
v 0.90973000 1.03052200 0.89180303
v 0.90973000 1.03052200 0.45297700
v 0.01047003 1.01715900 0.45297700
v 0.91006200 1.01942401 0.89180303
v 0.90973000 1.03052200 0.45297700
v 0.90973000 1.03052200 0.89180303
v 0.92479099 0.52664500 0.45297700
v 0.92479099 0.52664500 0.89180303
v 0.02552998 0.51328200 1.34731799
v 0.92479099 0.52664500 0.90849197
v 0.92479099 0.52664500 1.34731799
v 0.02552998 0.51328200 0.90849197
v 0.02552998 0.51328200 0.90849197
v 0.90973000 1.03052200 0.90849197
v 0.92479099 0.52664500 0.90849197
v 0.01047003 1.01715900 0.90849197
v 0.01047003 1.01715900 1.34731799
v 0.91006200 1.01942401 1.34731799
v 0.90973000 1.03052200 1.34731799
v 0.02552998 0.51328200 1.34731799
v 0.92479099 0.52664500 1.34731799
v 0.01047003 1.01715900 1.34731799
v 0.02552998 0.51328200 0.90849197
v 0.02552998 0.51328200 1.34731799
v 0.01047003 1.01715900 0.90849197
v 0.01047003 1.01715900 1.34731799
v 0.90973000 1.03052200 1.34731799
v 0.90973000 1.03052200 0.90849197
v 0.01047003 1.01715900 0.90849197
v 0.91006200 1.01942401 1.34731799
v 0.90973000 1.03052200 0.90849197
v 0.90973000 1.03052200 1.34731799
v 0.92479099 0.52664500 0.90849197
v 0.92479099 0.52664500 1.34731799
v 0.03025305 0.28609198 1.80029505
v 0.92951299 0.29945502 1.36146897
v 0.92951299 0.29945502 1.80029505
v 0.03025305 0.28609198 1.36146897
v 0.03025305 0.28609198 1.36146897
v 0.91445300 0.80333200 1.36146897
v 0.92951299 0.29945502 1.36146897
v 0.01519299 0.78996900 1.36146897
v 0.01519299 0.78996900 1.80029505
v 0.91478400 0.79223400 1.80029505
v 0.91445300 0.80333200 1.80029505
v 0.03025305 0.28609198 1.80029505
v 0.92951299 0.29945502 1.80029505
v 0.01519299 0.78996900 1.80029505
v 0.03025305 0.28609198 1.36146897
v 0.03025305 0.28609198 1.80029505
v 0.01519299 0.78996900 1.36146897
v 0.01519299 0.78996900 1.80029505
v 0.91445300 0.80333200 1.80029505
v 0.91445300 0.80333200 1.36146897
v 0.01519299 0.78996900 1.36146897
v 0.91478400 0.79223400 1.80029505
v 0.91445300 0.80333200 1.36146897
v 0.91445300 0.80333200 1.80029505
v 0.92951299 0.29945502 1.36146897
v 0.92951299 0.29945502 1.80029505
v 2.16705799 0.06286198 0.43882599
v 2.15114403 0.81797500 0.00000000
v 2.15114403 0.81797500 0.43882599
v 2.16705799 0.06286198 0.00000000
v 2.16705799 0.06286198 0.00000000
v 1.55107901 0.80532900 0.00000000
v 2.15114403 0.81797500 0.00000000
v 1.56699300 0.05021602 0.00000000
v 1.56429601 0.80560700 0.43882599
v 2.16705799 0.06286198 0.43882599
v 2.15114403 0.81797500 0.43882599
v 1.56699300 0.05021602 0.43882599
v 1.55107999 0.80532900 0.43882599
v 1.56699300 0.05021602 0.43882599
v 2.16705799 0.06286198 0.00000000
v 2.16705799 0.06286198 0.43882599
v 1.56699300 0.05021602 0.00000000
v 1.56699300 0.05021602 0.43882599
v 1.55107999 0.80532900 0.43882599
v 1.55107901 0.80532900 0.00000000
v 1.56699300 0.05021602 0.00000000
v 1.56429601 0.80560700 0.43882599
v 1.55107901 0.80532900 0.00000000
v 1.55107999 0.80532900 0.43882599
v 2.15114403 0.81797500 0.00000000
v 2.15114403 0.81797500 0.43882599
v 2.16705799 0.06286198 0.89180303
v 2.15114403 0.81797500 0.45297700
v 2.15114403 0.81797500 0.89180303
v 2.16705799 0.06286198 0.45297700
v 2.16705799 0.06286198 0.45297700
v 1.55107901 0.80532900 0.45297700
v 2.15114403 0.81797500 0.45297700
v 1.56699300 0.05021602 0.45297700
v 1.56429601 0.80560700 0.89180303
v 2.16705799 0.06286198 0.89180303
v 2.15114403 0.81797500 0.89180303
v 1.56699300 0.05021602 0.89180303
v 1.55107999 0.80532900 0.89180303
v 1.56699300 0.05021602 0.89180303
v 2.16705799 0.06286198 0.45297700
v 2.16705799 0.06286198 0.89180303
v 1.56699300 0.05021602 0.45297700
v 1.56699300 0.05021602 0.89180303
v 1.55107999 0.80532900 0.89180303
v 1.55107901 0.80532900 0.45297700
v 1.56699300 0.05021602 0.45297700
v 1.56429601 0.80560700 0.89180303
v 1.55107901 0.80532900 0.45297700
v 1.55107999 0.80532900 0.89180303
v 2.15114403 0.81797500 0.45297700
v 2.15114403 0.81797500 0.89180303
v 1.55579200 0.05390203 0.43882599
v 1.53987798 0.80901500 0.00000000
v 1.53987798 0.80901500 0.43882599
v 1.55579200 0.05390203 0.00000000
v 1.55579200 0.05390203 0.00000000
v 0.93981300 0.79636900 0.00000000
v 1.53987798 0.80901500 0.00000000
v 0.95572700 0.04125601 0.00000000
v 0.95302999 0.79664700 0.43882599
v 1.55579200 0.05390203 0.43882599
v 1.53987798 0.80901500 0.43882599
v 0.95572700 0.04125601 0.43882599
v 0.93981400 0.79636900 0.43882599
v 0.95572700 0.04125601 0.43882599
v 1.55579200 0.05390203 0.00000000
v 1.55579200 0.05390203 0.43882599
v 0.95572700 0.04125601 0.00000000
v 0.95572700 0.04125601 0.43882599
v 0.93981400 0.79636900 0.43882599
v 0.93981300 0.79636900 0.00000000
v 0.95572700 0.04125601 0.00000000
v 0.95302999 0.79664700 0.43882599
v 0.93981300 0.79636900 0.00000000
v 0.93981400 0.79636900 0.43882599
v 1.53987798 0.80901500 0.00000000
v 1.53987798 0.80901500 0.43882599
v 1.55579200 0.05390203 0.89180303
v 1.53987798 0.80901500 0.45297700
v 1.53987798 0.80901500 0.89180303
v 1.55579200 0.05390203 0.45297700
v 1.55579200 0.05390203 0.45297700
v 0.93981300 0.79636900 0.45297700
v 1.53987798 0.80901500 0.45297700
v 0.95572700 0.04125601 0.45297700
v 0.95302999 0.79664700 0.89180303
v 1.55579200 0.05390203 0.89180303
v 1.53987798 0.80901500 0.89180303
v 0.95572700 0.04125601 0.89180303
v 0.93981400 0.79636900 0.89180303
v 0.95572700 0.04125601 0.89180303
v 1.55579200 0.05390203 0.45297700
v 1.55579200 0.05390203 0.89180303
v 0.95572700 0.04125601 0.45297700
v 0.95572700 0.04125601 0.89180303
v 0.93981400 0.79636900 0.89180303
v 0.93981300 0.79636900 0.45297700
v 0.95572700 0.04125601 0.45297700
v 0.95302999 0.79664700 0.89180303
v 0.93981300 0.79636900 0.45297700
v 0.93981400 0.79636900 0.89180303
v 1.53987798 0.80901500 0.45297700
v 1.53987798 0.80901500 0.89180303
v 1.55579200 0.05390203 1.34731799
v 1.53987798 0.80901500 0.90849197
v 1.53987798 0.80901500 1.34731799
v 1.55579200 0.05390203 0.90849197
v 1.55579200 0.05390203 0.90849197
v 0.93981300 0.79636900 0.90849197
v 1.53987798 0.80901500 0.90849197
v 0.95572700 0.04125601 0.90849197
v 0.95302999 0.79664700 1.34731799
v 1.55579200 0.05390203 1.34731799
v 1.53987798 0.80901500 1.34731799
v 0.95572700 0.04125601 1.34731799
v 0.93981400 0.79636900 1.34731799
v 0.95572700 0.04125601 1.34731799
v 1.55579200 0.05390203 0.90849197
v 1.55579200 0.05390203 1.34731799
v 0.95572700 0.04125601 0.90849197
v 0.95572700 0.04125601 1.34731799
v 0.93981400 0.79636900 1.34731799
v 0.93981300 0.79636900 0.90849197
v 0.95572700 0.04125601 0.90849197
v 0.95302999 0.79664700 1.34731799
v 0.93981300 0.79636900 0.90849197
v 0.93981400 0.79636900 1.34731799
v 1.53987798 0.80901500 0.90849197
v 1.53987798 0.80901500 1.34731799
v 1.07447200 0.25662398 1.80029505
v 1.97373301 0.26998699 1.36146897
v 1.97373301 0.26998699 1.80029505
v 1.07447200 0.25662398 1.36146897
v 1.07447200 0.25662398 1.36146897
v 1.95867199 0.77386300 1.36146897
v 1.97373301 0.26998699 1.36146897
v 1.05941200 0.76050100 1.36146897
v 1.05941200 0.76050000 1.80029505
v 1.95900398 0.76276500 1.80029505
v 1.95867199 0.77386300 1.80029505
v 1.07447200 0.25662398 1.80029505
v 1.97373301 0.26998699 1.80029505
v 1.05941200 0.76050000 1.80029505
v 1.07447200 0.25662398 1.36146897
v 1.07447200 0.25662398 1.80029505
v 1.05941200 0.76050100 1.36146897
v 1.05941200 0.76050000 1.80029505
v 1.95867199 0.77386300 1.80029505
v 1.95867199 0.77386300 1.36146897
v 1.05941200 0.76050100 1.36146897
v 1.95900398 0.76276500 1.80029505
v 1.95867199 0.77386300 1.36146897
v 1.95867199 0.77386300 1.80029505
v 1.97373301 0.26998699 1.36146897
v 1.97373301 0.26998699 1.80029505
v 2.15118396 0.82652700 0.43882599
v 2.13527000 1.58163899 0.00000000
v 2.13527000 1.58163899 0.43882599
v 2.15118396 0.82652700 0.00000000
v 2.15118396 0.82652700 0.00000000
v 1.53520501 1.56899303 0.00000000
v 2.13527000 1.58163899 0.00000000
v 1.55111799 0.81388000 0.00000000
v 1.54842100 1.56927103 0.43882599
v 2.15118396 0.82652700 0.43882599
v 2.13527000 1.58163899 0.43882599
v 1.55111900 0.81388000 0.43882599
v 1.53520501 1.56899303 0.43882599
v 1.55111900 0.81388000 0.43882599
v 2.15118396 0.82652700 0.00000000
v 2.15118396 0.82652700 0.43882599
v 1.55111799 0.81388000 0.00000000
v 1.55111900 0.81388000 0.43882599
v 1.53520501 1.56899303 0.43882599
v 1.53520501 1.56899303 0.00000000
v 1.55111799 0.81388000 0.00000000
v 1.54842100 1.56927103 0.43882599
v 1.53520501 1.56899303 0.00000000
v 1.53520501 1.56899303 0.43882599
v 2.13527000 1.58163899 0.00000000
v 2.13527000 1.58163899 0.43882599
v 2.15118396 0.82652700 0.89180303
v 2.13527000 1.58163899 0.45297700
v 2.13527000 1.58163899 0.89180303
v 2.15118396 0.82652700 0.45297700
v 2.15118396 0.82652700 0.45297700
v 1.53520501 1.56899303 0.45297700
v 2.13527000 1.58163899 0.45297700
v 1.55111799 0.81388000 0.45297700
v 1.54842100 1.56927103 0.89180303
v 2.15118396 0.82652700 0.89180303
v 2.13527000 1.58163899 0.89180303
v 1.55111900 0.81388000 0.89180303
v 1.53520501 1.56899303 0.89180303
v 1.55111900 0.81388000 0.89180303
v 2.15118396 0.82652700 0.45297700
v 2.15118396 0.82652700 0.89180303
v 1.55111799 0.81388000 0.45297700
v 1.55111900 0.81388000 0.89180303
v 1.53520501 1.56899303 0.89180303
v 1.53520501 1.56899303 0.45297700
v 1.55111799 0.81388000 0.45297700
v 1.54842100 1.56927103 0.89180303
v 1.53520501 1.56899303 0.45297700
v 1.53520501 1.56899303 0.89180303
v 2.13527000 1.58163899 0.45297700
v 2.13527000 1.58163899 0.89180303
v 2.15118396 0.82652700 1.34731799
v 2.13527000 1.58163899 0.90849197
v 2.13527000 1.58163899 1.34731799
v 2.15118396 0.82652700 0.90849197
v 2.15118396 0.82652700 0.90849197
v 1.53520501 1.56899303 0.90849197
v 2.13527000 1.58163899 0.90849197
v 1.55111799 0.81388000 0.90849197
v 1.54842100 1.56927103 1.34731799
v 2.15118396 0.82652700 1.34731799
v 2.13527000 1.58163899 1.34731799
v 1.55111900 0.81388000 1.34731799
v 1.53520501 1.56899303 1.34731799
v 1.55111900 0.81388000 1.34731799
v 2.15118396 0.82652700 0.90849197
v 2.15118396 0.82652700 1.34731799
v 1.55111799 0.81388000 0.90849197
v 1.55111900 0.81388000 1.34731799
v 1.53520501 1.56899303 1.34731799
v 1.53520501 1.56899303 0.90849197
v 1.55111799 0.81388000 0.90849197
v 1.54842100 1.56927103 1.34731799
v 1.53520501 1.56899303 0.90849197
v 1.53520501 1.56899303 1.34731799
v 2.13527000 1.58163899 0.90849197
v 2.13527000 1.58163899 1.34731799
v 1.53991699 0.81756700 0.43882599
v 1.52400398 1.57268000 0.00000000
v 1.52400398 1.57268000 0.43882599
v 1.53991699 0.81756700 0.00000000
v 1.53991699 0.81756700 0.00000000
v 0.92393899 1.56003302 0.00000000
v 1.52400398 1.57268000 0.00000000
v 0.93985200 0.80492000 0.00000000
v 0.93715499 1.56031102 0.43882599
v 1.53991699 0.81756700 0.43882599
v 1.52400398 1.57268000 0.43882599
v 0.93985300 0.80492000 0.43882599
v 0.92393899 1.56003302 0.43882599
v 0.93985300 0.80492000 0.43882599
v 1.53991699 0.81756700 0.00000000
v 1.53991699 0.81756700 0.43882599
v 0.93985200 0.80492000 0.00000000
v 0.93985300 0.80492000 0.43882599
v 0.92393899 1.56003302 0.43882599
v 0.92393899 1.56003302 0.00000000
v 0.93985200 0.80492000 0.00000000
v 0.93715499 1.56031102 0.43882599
v 0.92393899 1.56003302 0.00000000
v 0.92393899 1.56003302 0.43882599
v 1.52400398 1.57268000 0.00000000
v 1.52400398 1.57268000 0.43882599
v 1.53991699 0.81756700 0.89180303
v 1.52400398 1.57268000 0.45297700
v 1.52400398 1.57268000 0.89180303
v 1.53991699 0.81756700 0.45297700
v 1.53991699 0.81756700 0.45297700
v 0.92393899 1.56003302 0.45297700
v 1.52400398 1.57268000 0.45297700
v 0.93985200 0.80492000 0.45297700
v 0.93715499 1.56031102 0.89180303
v 1.53991699 0.81756700 0.89180303
v 1.52400398 1.57268000 0.89180303
v 0.93985300 0.80492000 0.89180303
v 0.92393899 1.56003302 0.89180303
v 0.93985300 0.80492000 0.89180303
v 1.53991699 0.81756700 0.45297700
v 1.53991699 0.81756700 0.89180303
v 0.93985200 0.80492000 0.45297700
v 0.93985300 0.80492000 0.89180303
v 0.92393899 1.56003302 0.89180303
v 0.92393899 1.56003302 0.45297700
v 0.93985200 0.80492000 0.45297700
v 0.93715499 1.56031102 0.89180303
v 0.92393899 1.56003302 0.45297700
v 0.92393899 1.56003302 0.89180303
v 1.52400398 1.57268000 0.45297700
v 1.52400398 1.57268000 0.89180303
v 1.53991699 0.81756700 1.34731799
v 1.52400398 1.57268000 0.90849197
v 1.52400398 1.57268000 1.34731799
v 1.53991699 0.81756700 0.90849197
v 1.53991699 0.81756700 0.90849197
v 0.92393899 1.56003302 0.90849197
v 1.52400398 1.57268000 0.90849197
v 0.93985200 0.80492000 0.90849197
v 0.93715499 1.56031102 1.34731799
v 1.53991699 0.81756700 1.34731799
v 1.52400398 1.57268000 1.34731799
v 0.93985300 0.80492000 1.34731799
v 0.92393899 1.56003302 1.34731799
v 0.93985300 0.80492000 1.34731799
v 1.53991699 0.81756700 0.90849197
v 1.53991699 0.81756700 1.34731799
v 0.93985200 0.80492000 0.90849197
v 0.93985300 0.80492000 1.34731799
v 0.92393899 1.56003302 1.34731799
v 0.92393899 1.56003302 0.90849197
v 0.93985200 0.80492000 0.90849197
v 0.93715499 1.56031102 1.34731799
v 0.92393899 1.56003302 0.90849197
v 0.92393899 1.56003302 1.34731799
v 1.52400398 1.57268000 0.90849197
v 1.52400398 1.57268000 1.34731799
v 1.37921900 0.81521100 1.80029505
v 1.36330500 1.57032400 1.36146897
v 1.36330500 1.57032400 1.80029505
v 1.37921900 0.81521100 1.36146897
v 1.37921900 0.81521100 1.36146897
v 0.76324001 1.55767798 1.36146897
v 1.36330500 1.57032400 1.36146897
v 0.77915299 0.80256400 1.36146897
v 0.77645600 1.55795598 1.80029505
v 1.37921900 0.81521100 1.80029505
v 1.36330500 1.57032400 1.80029505
v 0.77915400 0.80256400 1.80029505
v 0.76324001 1.55767798 1.80029505
v 0.77915400 0.80256400 1.80029505
v 1.37921900 0.81521100 1.36146897
v 1.37921900 0.81521100 1.80029505
v 0.77915299 0.80256400 1.36146897
v 0.77915400 0.80256400 1.80029505
v 0.76324001 1.55767798 1.80029505
v 0.76324001 1.55767798 1.36146897
v 0.77915299 0.80256400 1.36146897
v 0.77645600 1.55795598 1.80029505
v 0.76324001 1.55767798 1.36146897
v 0.76324001 1.55767798 1.80029505
v 1.36330500 1.57032400 1.36146897
v 1.36330500 1.57032400 1.80029505
v 0.01506102 1.01691900 0.43882599
v 0.91432099 1.03028101 0.00000000
v 0.91432099 1.03028101 0.43882599
v 0.01506102 1.01691900 0.00000000
v 0.01506102 1.01691900 0.00000000
v 0.89926100 1.53415799 0.00000000
v 0.91432099 1.03028101 0.00000000
v 0.00000000 1.52079600 0.00000000
v 0.00000000 1.52079499 0.43882599
v 0.89959200 1.52306002 0.43882599
v 0.89926100 1.53415799 0.43882599
v 0.01506102 1.01691900 0.43882599
v 0.91432099 1.03028101 0.43882599
v 0.00000000 1.52079499 0.43882599
v 0.01506102 1.01691900 0.00000000
v 0.01506102 1.01691900 0.43882599
v 0.00000000 1.52079600 0.00000000
v 0.00000000 1.52079499 0.43882599
v 0.89926100 1.53415799 0.43882599
v 0.89926100 1.53415799 0.00000000
v 0.00000000 1.52079600 0.00000000
v 0.89959200 1.52306002 0.43882599
v 0.89926100 1.53415799 0.00000000
v 0.89926100 1.53415799 0.43882599
v 0.91432099 1.03028101 0.00000000
v 0.91432099 1.03028101 0.43882599
v 0.01506102 1.01691900 0.89180303
v 0.91432099 1.03028101 0.45297700
v 0.91432099 1.03028101 0.89180303
v 0.01506102 1.01691900 0.45297700
v 0.01506102 1.01691900 0.45297700
v 0.89926100 1.53415799 0.45297700
v 0.91432099 1.03028101 0.45297700
v 0.00000000 1.52079600 0.45297700
v 0.00000000 1.52079499 0.89180303
v 0.89959200 1.52306002 0.89180303
v 0.89926100 1.53415799 0.89180303
v 0.01506102 1.01691900 0.89180303
v 0.91432099 1.03028101 0.89180303
v 0.00000000 1.52079499 0.89180303
v 0.01506102 1.01691900 0.45297700
v 0.01506102 1.01691900 0.89180303
v 0.00000000 1.52079600 0.45297700
v 0.00000000 1.52079499 0.89180303
v 0.89926100 1.53415799 0.89180303
v 0.89926100 1.53415799 0.45297700
v 0.00000000 1.52079600 0.45297700
v 0.89959200 1.52306002 0.89180303
v 0.89926100 1.53415799 0.45297700
v 0.89926100 1.53415799 0.89180303
v 0.91432099 1.03028101 0.45297700
v 0.91432099 1.03028101 0.89180303
v 0.01506102 1.01691900 1.34731799
v 0.91432099 1.03028101 0.90849197
v 0.91432099 1.03028101 1.34731799
v 0.01506102 1.01691900 0.90849197
v 0.01506102 1.01691900 0.90849197
v 0.89926100 1.53415799 0.90849197
v 0.91432099 1.03028101 0.90849197
v 0.00000000 1.52079600 0.90849197
v 0.00000000 1.52079499 1.34731799
v 0.89959200 1.52306002 1.34731799
v 0.89926100 1.53415799 1.34731799
v 0.01506102 1.01691900 1.34731799
v 0.91432099 1.03028101 1.34731799
v 0.00000000 1.52079499 1.34731799
v 0.01506102 1.01691900 0.90849197
v 0.01506102 1.01691900 1.34731799
v 0.00000000 1.52079600 0.90849197
v 0.00000000 1.52079499 1.34731799
v 0.89926100 1.53415799 1.34731799
v 0.89926100 1.53415799 0.90849197
v 0.00000000 1.52079600 0.90849197
v 0.89959200 1.52306002 1.34731799
v 0.89926100 1.53415799 0.90849197
v 0.89926100 1.53415799 1.34731799
v 0.91432099 1.03028101 0.90849197
v 0.91432099 1.03028101 1.34731799
vt 0.02703800 0.69202399
vt 0.48695400 0.42480001
vt 0.48695701 0.69202399
vt 0.02703800 0.42480001
vt 0.50699598 0.40166301
vt 0.96691000 0.03616800
vt 0.96691000 0.40166301
vt 0.50699598 0.03616800
vt 0.02954400 0.04343000
vt 0.48946100 0.41522500
vt 0.02954400 0.41522399
vt 0.48946100 0.03538000
vt 0.02954400 0.03538000
vt 0.03742200 0.97154802
vt 0.40733501 0.69876099
vt 0.40905401 0.97174197
vt 0.03921100 0.69871700
vt 0.96546203 0.67685199
vt 0.50554597 0.67685199
vt 0.50554597 0.40962100
vt 0.96545899 0.40962100
vt 0.91457200 0.96237803
vt 0.92232502 0.70503098
vt 0.92232502 0.96237803
vt 0.57034397 0.70503098
vt 0.57034302 0.96237701
vt 0.02703800 0.69202399
vt 0.48695400 0.42480001
vt 0.48695701 0.69202399
vt 0.02703800 0.42480001
vt 0.50699598 0.40166301
vt 0.96691000 0.03616800
vt 0.96691000 0.40166301
vt 0.50699598 0.03616800
vt 0.48946100 0.03538000
vt 0.02954400 0.04343000
vt 0.02954400 0.03538000
vt 0.48946100 0.41522500
vt 0.02954400 0.41522399
vt 0.03742200 0.97154802
vt 0.40733501 0.69876099
vt 0.40905401 0.97174197
vt 0.03921100 0.69871700
vt 0.96546203 0.67685199
vt 0.50554597 0.67685199
vt 0.50554597 0.40962100
vt 0.96545899 0.40962100
vt 0.91457200 0.96237803
vt 0.92232502 0.70503098
vt 0.92232502 0.96237803
vt 0.57034397 0.70503098
vt 0.57034302 0.96237701
vt 0.02703800 0.69202399
vt 0.48695400 0.42480001
vt 0.48695701 0.69202399
vt 0.02703800 0.42480001
vt 0.50699598 0.40166301
vt 0.96691000 0.03616800
vt 0.96691000 0.40166301
vt 0.50699598 0.03616800
vt 0.48946100 0.03538000
vt 0.02954400 0.04343000
vt 0.02954400 0.03538000
vt 0.48946100 0.41522500
vt 0.02954400 0.41522399
vt 0.03742200 0.97154802
vt 0.40733501 0.69876099
vt 0.40905401 0.97174197
vt 0.03921100 0.69871700
vt 0.96546203 0.67685199
vt 0.50554597 0.67685199
vt 0.50554597 0.40962100
vt 0.96545899 0.40962100
vt 0.91457200 0.96237803
vt 0.92232502 0.70503098
vt 0.92232502 0.96237803
vt 0.57034397 0.70503098
vt 0.57034302 0.96237701
vt 0.02703800 0.69202399
vt 0.48695400 0.42480001
vt 0.48695701 0.69202399
vt 0.02703800 0.42480001
vt 0.50699598 0.40166301
vt 0.96691000 0.03616800
vt 0.96691000 0.40166301
vt 0.50699598 0.03616800
vt 0.48946100 0.03538000
vt 0.02954400 0.04343000
vt 0.02954400 0.03538000
vt 0.48946100 0.41522500
vt 0.02954400 0.41522399
vt 0.03742200 0.97154802
vt 0.40733501 0.69876099
vt 0.40905401 0.97174197
vt 0.03921100 0.69871700
vt 0.96546203 0.67685199
vt 0.50554597 0.67685199
vt 0.50554597 0.40962100
vt 0.96545899 0.40962100
vt 0.91457200 0.96237803
vt 0.92232502 0.70503098
vt 0.92232502 0.96237803
vt 0.57034397 0.70503098
vt 0.57034302 0.96237701
vt 0.02703800 0.69202399
vt 0.48695400 0.42480001
vt 0.48695701 0.69202399
vt 0.02703800 0.42480001
vt 0.50699598 0.40166301
vt 0.96691000 0.03616800
vt 0.96691000 0.40166301
vt 0.50699598 0.03616800
vt 0.48946100 0.03538000
vt 0.02954400 0.04343000
vt 0.02954400 0.03538000
vt 0.48946100 0.41522500
vt 0.02954400 0.41522399
vt 0.03742200 0.97154802
vt 0.40733501 0.69876099
vt 0.40905401 0.97174197
vt 0.03921100 0.69871700
vt 0.96546203 0.67685199
vt 0.50554597 0.67685199
vt 0.50554597 0.40962100
vt 0.96545899 0.40962100
vt 0.91457200 0.96237803
vt 0.92232502 0.70503098
vt 0.92232502 0.96237803
vt 0.57034397 0.70503098
vt 0.57034302 0.96237701
vt 0.02703800 0.69202399
vt 0.48695400 0.42480001
vt 0.48695701 0.69202399
vt 0.02703800 0.42480001
vt 0.50699598 0.40166301
vt 0.96691000 0.03616800
vt 0.96691000 0.40166301
vt 0.50699598 0.03616800
vt 0.48946100 0.03538000
vt 0.02954400 0.04343000
vt 0.02954400 0.03538000
vt 0.48946100 0.41522500
vt 0.02954400 0.41522399
vt 0.03742200 0.97154802
vt 0.40733501 0.69876099
vt 0.40905401 0.97174197
vt 0.03921100 0.69871700
vt 0.96546203 0.67685199
vt 0.50554597 0.67685199
vt 0.50554597 0.40962100
vt 0.96545899 0.40962100
vt 0.91457200 0.96237803
vt 0.92232502 0.70503098
vt 0.92232502 0.96237803
vt 0.57034397 0.70503098
vt 0.57034302 0.96237701
vt 0.02703800 0.69202399
vt 0.48695400 0.42480001
vt 0.48695701 0.69202399
vt 0.02703800 0.42480001
vt 0.50699598 0.40166301
vt 0.96691000 0.03616800
vt 0.96691000 0.40166301
vt 0.50699598 0.03616800
vt 0.48946100 0.03538000
vt 0.02954400 0.04343000
vt 0.02954400 0.03538000
vt 0.48946100 0.41522500
vt 0.02954400 0.41522399
vt 0.03742200 0.97154802
vt 0.40733501 0.69876099
vt 0.40905401 0.97174197
vt 0.03921100 0.69871700
vt 0.96546203 0.67685199
vt 0.50554597 0.67685199
vt 0.50554597 0.40962100
vt 0.96545899 0.40962100
vt 0.91457200 0.96237803
vt 0.92232502 0.70503098
vt 0.92232502 0.96237803
vt 0.57034397 0.70503098
vt 0.57034302 0.96237701
vt 0.02703800 0.69202399
vt 0.48695400 0.42480001
vt 0.48695701 0.69202399
vt 0.02703800 0.42480001
vt 0.50699598 0.40166301
vt 0.96691000 0.03616800
vt 0.96691000 0.40166301
vt 0.50699598 0.03616800
vt 0.48946100 0.03538000
vt 0.02954400 0.04343000
vt 0.02954400 0.03538000
vt 0.48946100 0.41522500
vt 0.02954400 0.41522399
vt 0.03742200 0.97154802
vt 0.40733501 0.69876099
vt 0.40905401 0.97174197
vt 0.03921100 0.69871700
vt 0.96546203 0.67685199
vt 0.50554597 0.67685199
vt 0.50554597 0.40962100
vt 0.96545899 0.40962100
vt 0.91457200 0.96237803
vt 0.92232502 0.70503098
vt 0.92232502 0.96237803
vt 0.57034397 0.70503098
vt 0.57034302 0.96237701
vt 0.02703800 0.69202399
vt 0.48695400 0.42480001
vt 0.48695701 0.69202399
vt 0.02703800 0.42480001
vt 0.50699598 0.40166301
vt 0.96691000 0.03616800
vt 0.96691000 0.40166301
vt 0.50699598 0.03616800
vt 0.02954400 0.04343000
vt 0.48946100 0.41522500
vt 0.02954400 0.41522399
vt 0.48946100 0.03538000
vt 0.02954400 0.03538000
vt 0.03742200 0.97154802
vt 0.40733501 0.69876099
vt 0.40905401 0.97174197
vt 0.03921100 0.69871700
vt 0.96546203 0.67685199
vt 0.50554597 0.67685199
vt 0.50554597 0.40962100
vt 0.96545899 0.40962100
vt 0.91457200 0.96237803
vt 0.92232502 0.70503098
vt 0.92232502 0.96237803
vt 0.57034397 0.70503098
vt 0.57034302 0.96237701
vt 0.02703800 0.69202399
vt 0.48695400 0.42480001
vt 0.48695701 0.69202399
vt 0.02703800 0.42480001
vt 0.50699598 0.40166301
vt 0.96691000 0.03616800
vt 0.96691000 0.40166301
vt 0.50699598 0.03616800
vt 0.02954400 0.04343000
vt 0.48946100 0.41522500
vt 0.02954400 0.41522399
vt 0.48946100 0.03538000
vt 0.02954400 0.03538000
vt 0.03742200 0.97154802
vt 0.40733501 0.69876099
vt 0.40905401 0.97174197
vt 0.03921100 0.69871700
vt 0.96546203 0.67685199
vt 0.50554597 0.67685199
vt 0.50554597 0.40962100
vt 0.96545899 0.40962100
vt 0.91457200 0.96237803
vt 0.92232502 0.70503098
vt 0.92232502 0.96237803
vt 0.57034397 0.70503098
vt 0.57034302 0.96237701
vt 0.02703800 0.69202399
vt 0.48695400 0.42480001
vt 0.48695701 0.69202399
vt 0.02703800 0.42480001
vt 0.50699598 0.40166301
vt 0.96691000 0.03616800
vt 0.96691000 0.40166301
vt 0.50699598 0.03616800
vt 0.02954400 0.04343000
vt 0.48946100 0.41522500
vt 0.02954400 0.41522399
vt 0.48946100 0.03538000
vt 0.02954400 0.03538000
vt 0.03742200 0.97154802
vt 0.40733501 0.69876099
vt 0.40905401 0.97174197
vt 0.03921100 0.69871700
vt 0.96546203 0.67685199
vt 0.50554597 0.67685199
vt 0.50554597 0.40962100
vt 0.96545899 0.40962100
vt 0.91457200 0.96237803
vt 0.92232502 0.70503098
vt 0.92232502 0.96237803
vt 0.57034397 0.70503098
vt 0.57034302 0.96237701
vt 0.02703800 0.69202399
vt 0.48695400 0.42480001
vt 0.48695701 0.69202399
vt 0.02703800 0.42480001
vt 0.50699598 0.40166301
vt 0.96691000 0.03616800
vt 0.96691000 0.40166301
vt 0.50699598 0.03616800
vt 0.02954400 0.04343000
vt 0.48946100 0.41522500
vt 0.02954400 0.41522399
vt 0.48946100 0.03538000
vt 0.02954400 0.03538000
vt 0.03742200 0.97154802
vt 0.40733501 0.69876099
vt 0.40905401 0.97174197
vt 0.03921100 0.69871700
vt 0.96546203 0.67685199
vt 0.50554597 0.67685199
vt 0.50554597 0.40962100
vt 0.96545899 0.40962100
vt 0.91457200 0.96237803
vt 0.92232502 0.70503098
vt 0.92232502 0.96237803
vt 0.57034397 0.70503098
vt 0.57034302 0.96237701
vt 0.02703800 0.69202399
vt 0.48695400 0.42480001
vt 0.48695701 0.69202399
vt 0.02703800 0.42480001
vt 0.50699598 0.40166301
vt 0.96691000 0.03616800
vt 0.96691000 0.40166301
vt 0.50699598 0.03616800
vt 0.02954400 0.04343000
vt 0.48946100 0.41522500
vt 0.02954400 0.41522399
vt 0.48946100 0.03538000
vt 0.02954400 0.03538000
vt 0.03742200 0.97154802
vt 0.40733501 0.69876099
vt 0.40905401 0.97174197
vt 0.03921100 0.69871700
vt 0.96546203 0.67685199
vt 0.50554597 0.67685199
vt 0.50554597 0.40962100
vt 0.96545899 0.40962100
vt 0.91457200 0.96237803
vt 0.92232502 0.70503098
vt 0.92232502 0.96237803
vt 0.57034397 0.70503098
vt 0.57034302 0.96237701
vt 0.02703800 0.69202399
vt 0.48695400 0.42480001
vt 0.48695701 0.69202399
vt 0.02703800 0.42480001
vt 0.50699598 0.40166301
vt 0.96691000 0.03616800
vt 0.96691000 0.40166301
vt 0.50699598 0.03616800
vt 0.48946100 0.03538000
vt 0.02954400 0.04343000
vt 0.02954400 0.03538000
vt 0.48946100 0.41522500
vt 0.02954400 0.41522399
vt 0.03742200 0.97154802
vt 0.40733501 0.69876099
vt 0.40905401 0.97174197
vt 0.03921100 0.69871700
vt 0.96546203 0.67685199
vt 0.50554597 0.67685199
vt 0.50554597 0.40962100
vt 0.96545899 0.40962100
vt 0.91457200 0.96237803
vt 0.92232502 0.70503098
vt 0.92232502 0.96237803
vt 0.57034397 0.70503098
vt 0.57034302 0.96237701
vt 0.02703800 0.69202399
vt 0.48695400 0.42480001
vt 0.48695701 0.69202399
vt 0.02703800 0.42480001
vt 0.50699598 0.40166301
vt 0.96691000 0.03616800
vt 0.96691000 0.40166301
vt 0.50699598 0.03616800
vt 0.02954400 0.04343000
vt 0.48946100 0.41522500
vt 0.02954400 0.41522399
vt 0.48946100 0.03538000
vt 0.02954400 0.03538000
vt 0.03742200 0.97154802
vt 0.40733501 0.69876099
vt 0.40905401 0.97174197
vt 0.03921100 0.69871700
vt 0.96546203 0.67685199
vt 0.50554597 0.67685199
vt 0.50554597 0.40962100
vt 0.96545899 0.40962100
vt 0.91457200 0.96237803
vt 0.92232502 0.70503098
vt 0.92232502 0.96237803
vt 0.57034397 0.70503098
vt 0.57034302 0.96237701
vt 0.02703800 0.69202399
vt 0.48695400 0.42480001
vt 0.48695701 0.69202399
vt 0.02703800 0.42480001
vt 0.50699598 0.40166301
vt 0.96691000 0.03616800
vt 0.96691000 0.40166301
vt 0.50699598 0.03616800
vt 0.02954400 0.04343000
vt 0.48946100 0.41522500
vt 0.02954400 0.41522399
vt 0.48946100 0.03538000
vt 0.02954400 0.03538000
vt 0.03742200 0.97154802
vt 0.40733501 0.69876099
vt 0.40905401 0.97174197
vt 0.03921100 0.69871700
vt 0.96546203 0.67685199
vt 0.50554597 0.67685199
vt 0.50554597 0.40962100
vt 0.96545899 0.40962100
vt 0.91457200 0.96237803
vt 0.92232502 0.70503098
vt 0.92232502 0.96237803
vt 0.57034397 0.70503098
vt 0.57034302 0.96237701
vt 0.02703800 0.69202399
vt 0.48695400 0.42480001
vt 0.48695701 0.69202399
vt 0.02703800 0.42480001
vt 0.50699598 0.40166301
vt 0.96691000 0.03616800
vt 0.96691000 0.40166301
vt 0.50699598 0.03616800
vt 0.02954400 0.04343000
vt 0.48946100 0.41522500
vt 0.02954400 0.41522399
vt 0.48946100 0.03538000
vt 0.02954400 0.03538000
vt 0.03742200 0.97154802
vt 0.40733501 0.69876099
vt 0.40905401 0.97174197
vt 0.03921100 0.69871700
vt 0.96546203 0.67685199
vt 0.50554597 0.67685199
vt 0.50554597 0.40962100
vt 0.96545899 0.40962100
vt 0.91457200 0.96237803
vt 0.92232502 0.70503098
vt 0.92232502 0.96237803
vt 0.57034397 0.70503098
vt 0.57034302 0.96237701
vt 0.02703800 0.69202399
vt 0.48695400 0.42480001
vt 0.48695701 0.69202399
vt 0.02703800 0.42480001
vt 0.50699598 0.40166301
vt 0.96691000 0.03616800
vt 0.96691000 0.40166301
vt 0.50699598 0.03616800
vt 0.02954400 0.04343000
vt 0.48946100 0.41522500
vt 0.02954400 0.41522399
vt 0.48946100 0.03538000
vt 0.02954400 0.03538000
vt 0.03742200 0.97154802
vt 0.40733501 0.69876099
vt 0.40905401 0.97174197
vt 0.03921100 0.69871700
vt 0.96546203 0.67685199
vt 0.50554597 0.67685199
vt 0.50554597 0.40962100
vt 0.96545899 0.40962100
vt 0.91457200 0.96237803
vt 0.92232502 0.70503098
vt 0.92232502 0.96237803
vt 0.57034397 0.70503098
vt 0.57034302 0.96237701
vt 0.02703800 0.69202399
vt 0.48695400 0.42480001
vt 0.48695701 0.69202399
vt 0.02703800 0.42480001
vt 0.50699598 0.40166301
vt 0.96691000 0.03616800
vt 0.96691000 0.40166301
vt 0.50699598 0.03616800
vt 0.02954400 0.04343000
vt 0.48946100 0.41522500
vt 0.02954400 0.41522399
vt 0.48946100 0.03538000
vt 0.02954400 0.03538000
vt 0.03742200 0.97154802
vt 0.40733501 0.69876099
vt 0.40905401 0.97174197
vt 0.03921100 0.69871700
vt 0.96546203 0.67685199
vt 0.50554597 0.67685199
vt 0.50554597 0.40962100
vt 0.96545899 0.40962100
vt 0.91457200 0.96237803
vt 0.92232502 0.70503098
vt 0.92232502 0.96237803
vt 0.57034397 0.70503098
vt 0.57034302 0.96237701
vt 0.02703800 0.69202399
vt 0.48695400 0.42480001
vt 0.48695701 0.69202399
vt 0.02703800 0.42480001
vt 0.50699598 0.40166301
vt 0.96691000 0.03616800
vt 0.96691000 0.40166301
vt 0.50699598 0.03616800
vt 0.02954400 0.04343000
vt 0.48946100 0.41522500
vt 0.02954400 0.41522399
vt 0.48946100 0.03538000
vt 0.02954400 0.03538000
vt 0.03742200 0.97154802
vt 0.40733501 0.69876099
vt 0.40905401 0.97174197
vt 0.03921100 0.69871700
vt 0.96546203 0.67685199
vt 0.50554597 0.67685199
vt 0.50554597 0.40962100
vt 0.96545899 0.40962100
vt 0.91457200 0.96237803
vt 0.92232502 0.70503098
vt 0.92232502 0.96237803
vt 0.57034397 0.70503098
vt 0.57034302 0.96237701
vt 0.02703800 0.69202399
vt 0.48695400 0.42480001
vt 0.48695701 0.69202399
vt 0.02703800 0.42480001
vt 0.50699598 0.40166301
vt 0.96691000 0.03616800
vt 0.96691000 0.40166301
vt 0.50699598 0.03616800
vt 0.02954400 0.04343000
vt 0.48946100 0.41522500
vt 0.02954400 0.41522399
vt 0.48946100 0.03538000
vt 0.02954400 0.03538000
vt 0.03742200 0.97154802
vt 0.40733501 0.69876099
vt 0.40905401 0.97174197
vt 0.03921100 0.69871700
vt 0.96546203 0.67685199
vt 0.50554597 0.67685199
vt 0.50554597 0.40962100
vt 0.96545899 0.40962100
vt 0.91457200 0.96237803
vt 0.92232502 0.70503098
vt 0.92232502 0.96237803
vt 0.57034397 0.70503098
vt 0.57034302 0.96237701
vt 0.02703800 0.69202399
vt 0.48695400 0.42480001
vt 0.48695701 0.69202399
vt 0.02703800 0.42480001
vt 0.50699598 0.40166301
vt 0.96691000 0.03616800
vt 0.96691000 0.40166301
vt 0.50699598 0.03616800
vt 0.48946100 0.03538000
vt 0.02954400 0.04343000
vt 0.02954400 0.03538000
vt 0.48946100 0.41522500
vt 0.02954400 0.41522399
vt 0.03742200 0.97154802
vt 0.40733501 0.69876099
vt 0.40905401 0.97174197
vt 0.03921100 0.69871700
vt 0.96546203 0.67685199
vt 0.50554597 0.67685199
vt 0.50554597 0.40962100
vt 0.96545899 0.40962100
vt 0.91457200 0.96237803
vt 0.92232502 0.70503098
vt 0.92232502 0.96237803
vt 0.57034397 0.70503098
vt 0.57034302 0.96237701
vt 0.02703800 0.69202399
vt 0.48695400 0.42480001
vt 0.48695701 0.69202399
vt 0.02703800 0.42480001
vt 0.50699598 0.40166301
vt 0.96691000 0.03616800
vt 0.96691000 0.40166301
vt 0.50699598 0.03616800
vt 0.48946100 0.03538000
vt 0.02954400 0.04343000
vt 0.02954400 0.03538000
vt 0.48946100 0.41522500
vt 0.02954400 0.41522399
vt 0.03742200 0.97154802
vt 0.40733501 0.69876099
vt 0.40905401 0.97174197
vt 0.03921100 0.69871700
vt 0.96546203 0.67685199
vt 0.50554597 0.67685199
vt 0.50554597 0.40962100
vt 0.96545899 0.40962100
vt 0.91457200 0.96237803
vt 0.92232502 0.70503098
vt 0.92232502 0.96237803
vt 0.57034397 0.70503098
vt 0.57034302 0.96237701
vt 0.02703800 0.69202399
vt 0.48695400 0.42480001
vt 0.48695701 0.69202399
vt 0.02703800 0.42480001
vt 0.50699598 0.40166301
vt 0.96691000 0.03616800
vt 0.96691000 0.40166301
vt 0.50699598 0.03616800
vt 0.48946100 0.03538000
vt 0.02954400 0.04343000
vt 0.02954400 0.03538000
vt 0.48946100 0.41522500
vt 0.02954400 0.41522399
vt 0.03742200 0.97154802
vt 0.40733501 0.69876099
vt 0.40905401 0.97174197
vt 0.03921100 0.69871700
vt 0.96546203 0.67685199
vt 0.50554597 0.67685199
vt 0.50554597 0.40962100
vt 0.96545899 0.40962100
vt 0.91457200 0.96237803
vt 0.92232502 0.70503098
vt 0.92232502 0.96237803
vt 0.57034397 0.70503098
vt 0.57034302 0.96237701
f 1/1 2/2 3/3
f 2/2 1/1 4/4
f 5/5 6/6 7/7
f 6/6 5/5 8/8
f 9/9 10/10 11/11
f 10/10 9/9 12/12
f 13/13 12/12 9/9
f 14/14 15/15 16/16
f 15/15 14/14 17/17
f 18/18 19/19 20/20
f 18/18 20/20 21/21
f 22/22 23/23 24/24
f 23/23 22/22 25/25
f 22/22 26/26 25/25
f 27/27 28/28 29/29
f 28/28 27/27 30/30
f 31/31 32/32 33/33
f 32/32 31/31 34/34
f 35/35 36/36 37/37
f 38/38 36/36 35/35
f 36/36 38/38 39/39
f 40/40 41/41 42/42
f 41/41 40/40 43/43
f 44/44 45/45 46/46
f 44/44 46/46 47/47
f 48/48 49/49 50/50
f 49/49 48/48 51/51
f 48/48 52/52 51/51
f 53/53 54/54 55/55
f 54/54 53/53 56/56
f 57/57 58/58 59/59
f 58/58 57/57 60/60
f 61/61 62/62 63/63
f 64/64 62/62 61/61
f 62/62 64/64 65/65
f 66/66 67/67 68/68
f 67/67 66/66 69/69
f 70/70 71/71 72/72
f 70/70 72/72 73/73
f 74/74 75/75 76/76
f 75/75 74/74 77/77
f 74/74 78/78 77/77
f 79/79 80/80 81/81
f 80/80 79/79 82/82
f 83/83 84/84 85/85
f 84/84 83/83 86/86
f 87/87 88/88 89/89
f 90/90 88/88 87/87
f 88/88 90/90 91/91
f 92/92 93/93 94/94
f 93/93 92/92 95/95
f 96/96 97/97 98/98
f 96/96 98/98 99/99
f 100/100 101/101 102/102
f 101/101 100/100 103/103
f 100/100 104/104 103/103
f 105/105 106/106 107/107
f 106/106 105/105 108/108
f 109/109 110/110 111/111
f 110/110 109/109 112/112
f 113/113 114/114 115/115
f 116/116 114/114 113/113
f 114/114 116/116 117/117
f 118/118 119/119 120/120
f 119/119 118/118 121/121
f 122/122 123/123 124/124
f 122/122 124/124 125/125
f 126/126 127/127 128/128
f 127/127 126/126 129/129
f 126/126 130/130 129/129
f 131/131 132/132 133/133
f 132/132 131/131 134/134
f 135/135 136/136 137/137
f 136/136 135/135 138/138
f 139/139 140/140 141/141
f 142/142 140/140 139/139
f 140/140 142/142 143/143
f 144/144 145/145 146/146
f 145/145 144/144 147/147
f 148/148 149/149 150/150
f 148/148 150/150 151/151
f 152/152 153/153 154/154
f 153/153 152/152 155/155
f 152/152 156/156 155/155
f 157/157 158/158 159/159
f 158/158 157/157 160/160
f 161/161 162/162 163/163
f 162/162 161/161 164/164
f 165/165 166/166 167/167
f 168/168 166/166 165/165
f 166/166 168/168 169/169
f 170/170 171/171 172/172
f 171/171 170/170 173/173
f 174/174 175/175 176/176
f 174/174 176/176 177/177
f 178/178 179/179 180/180
f 179/179 178/178 181/181
f 178/178 182/182 181/181
f 183/183 184/184 185/185
f 184/184 183/183 186/186
f 187/187 188/188 189/189
f 188/188 187/187 190/190
f 191/191 192/192 193/193
f 194/194 192/192 191/191
f 192/192 194/194 195/195
f 196/196 197/197 198/198
f 197/197 196/196 199/199
f 200/200 201/201 202/202
f 200/200 202/202 203/203
f 204/204 205/205 206/206
f 205/205 204/204 207/207
f 204/204 208/208 207/207
f 209/209 210/210 211/211
f 210/210 209/209 212/212
f 213/213 214/214 215/215
f 214/214 213/213 216/216
f 217/217 218/218 219/219
f 218/218 217/217 220/220
f 221/221 220/220 217/217
f 222/222 223/223 224/224
f 223/223 222/222 225/225
f 226/226 227/227 228/228
f 226/226 228/228 229/229
f 230/230 231/231 232/232
f 231/231 230/230 233/233
f 230/230 234/234 233/233
f 235/235 236/236 237/237
f 236/236 235/235 238/238
f 239/239 240/240 241/241
f 240/240 239/239 242/242
f 243/243 244/244 245/245
f 244/244 243/243 246/246
f 247/247 246/246 243/243
f 248/248 249/249 250/250
f 249/249 248/248 251/251
f 252/252 253/253 254/254
f 252/252 254/254 255/255
f 256/256 257/257 258/258
f 257/257 256/256 259/259
f 256/256 260/260 259/259
f 261/261 262/262 263/263
f 262/262 261/261 264/264
f 265/265 266/266 267/267
f 266/266 265/265 268/268
f 269/269 270/270 271/271
f 270/270 269/269 272/272
f 273/273 272/272 269/269
f 274/274 275/275 276/276
f 275/275 274/274 277/277
f 278/278 279/279 280/280
f 278/278 280/280 281/281
f 282/282 283/283 284/284
f 283/283 282/282 285/285
f 282/282 286/286 285/285
f 287/287 288/288 289/289
f 288/288 287/287 290/290
f 291/291 292/292 293/293
f 292/292 291/291 294/294
f 295/295 296/296 297/297
f 296/296 295/295 298/298
f 299/299 298/298 295/295
f 300/300 301/301 302/302
f 301/301 300/300 303/303
f 304/304 305/305 306/306
f 304/304 306/306 307/307
f 308/308 309/309 310/310
f 309/309 308/308 311/311
f 308/308 312/312 311/311
f 313/313 314/314 315/315
f 314/314 313/313 316/316
f 317/317 318/318 319/319
f 318/318 317/317 320/320
f 321/321 322/322 323/323
f 322/322 321/321 324/324
f 325/325 324/324 321/321
f 326/326 327/327 328/328
f 327/327 326/326 329/329
f 330/330 331/331 332/332
f 330/330 332/332 333/333
f 334/334 335/335 336/336
f 335/335 334/334 337/337
f 334/334 338/338 337/337
f 339/339 340/340 341/341
f 340/340 339/339 342/342
f 343/343 344/344 345/345
f 344/344 343/343 346/346
f 347/347 348/348 349/349
f 350/350 348/348 347/347
f 348/348 350/350 351/351
f 352/352 353/353 354/354
f 353/353 352/352 355/355
f 356/356 357/357 358/358
f 356/356 358/358 359/359
f 360/360 361/361 362/362
f 361/361 360/360 363/363
f 360/360 364/364 363/363
f 365/365 366/366 367/367
f 366/366 365/365 368/368
f 369/369 370/370 371/371
f 370/370 369/369 372/372
f 373/373 374/374 375/375
f 374/374 373/373 376/376
f 377/377 376/376 373/373
f 378/378 379/379 380/380
f 379/379 378/378 381/381
f 382/382 383/383 384/384
f 382/382 384/384 385/385
f 386/386 387/387 388/388
f 387/387 386/386 389/389
f 386/386 390/390 389/389
f 391/391 392/392 393/393
f 392/392 391/391 394/394
f 395/395 396/396 397/397
f 396/396 395/395 398/398
f 399/399 400/400 401/401
f 400/400 399/399 402/402
f 403/403 402/402 399/399
f 404/404 405/405 406/406
f 405/405 404/404 407/407
f 408/408 409/409 410/410
f 408/408 410/410 411/411
f 412/412 413/413 414/414
f 413/413 412/412 415/415
f 412/412 416/416 415/415
f 417/417 418/418 419/419
f 418/418 417/417 420/420
f 421/421 422/422 423/423
f 422/422 421/421 424/424
f 425/425 426/426 427/427
f 426/426 425/425 428/428
f 429/429 428/428 425/425
f 430/430 431/431 432/432
f 431/431 430/430 433/433
f 434/434 435/435 436/436
f 434/434 436/436 437/437
f 438/438 439/439 440/440
f 439/439 438/438 441/441
f 438/438 442/442 441/441
f 443/443 444/444 445/445
f 444/444 443/443 446/446
f 447/447 448/448 449/449
f 448/448 447/447 450/450
f 451/451 452/452 453/453
f 452/452 451/451 454/454
f 455/455 454/454 451/451
f 456/456 457/457 458/458
f 457/457 456/456 459/459
f 460/460 461/461 462/462
f 460/460 462/462 463/463
f 464/464 465/465 466/466
f 465/465 464/464 467/467
f 464/464 468/468 467/467
f 469/469 470/470 471/471
f 470/470 469/469 472/472
f 473/473 474/474 475/475
f 474/474 473/473 476/476
f 477/477 478/478 479/479
f 478/478 477/477 480/480
f 481/481 480/480 477/477
f 482/482 483/483 484/484
f 483/483 482/482 485/485
f 486/486 487/487 488/488
f 486/486 488/488 489/489
f 490/490 491/491 492/492
f 491/491 490/490 493/493
f 490/490 494/494 493/493
f 495/495 496/496 497/497
f 496/496 495/495 498/498
f 499/499 500/500 501/501
f 500/500 499/499 502/502
f 503/503 504/504 505/505
f 504/504 503/503 506/506
f 507/507 506/506 503/503
f 508/508 509/509 510/510
f 509/509 508/508 511/511
f 512/512 513/513 514/514
f 512/512 514/514 515/515
f 516/516 517/517 518/518
f 517/517 516/516 519/519
f 516/516 520/520 519/519
f 521/521 522/522 523/523
f 522/522 521/521 524/524
f 525/525 526/526 527/527
f 526/526 525/525 528/528
f 529/529 530/530 531/531
f 530/530 529/529 532/532
f 533/533 532/532 529/529
f 534/534 535/535 536/536
f 535/535 534/534 537/537
f 538/538 539/539 540/540
f 538/538 540/540 541/541
f 542/542 543/543 544/544
f 543/543 542/542 545/545
f 542/542 546/546 545/545
f 547/547 548/548 549/549
f 548/548 547/547 550/550
f 551/551 552/552 553/553
f 552/552 551/551 554/554
f 555/555 556/556 557/557
f 558/558 556/556 555/555
f 556/556 558/558 559/559
f 560/560 561/561 562/562
f 561/561 560/560 563/563
f 564/564 565/565 566/566
f 564/564 566/566 567/567
f 568/568 569/569 570/570
f 569/569 568/568 571/571
f 568/568 572/572 571/571
f 573/573 574/574 575/575
f 574/574 573/573 576/576
f 577/577 578/578 579/579
f 578/578 577/577 580/580
f 581/581 582/582 583/583
f 584/584 582/582 581/581
f 582/582 584/584 585/585
f 586/586 587/587 588/588
f 587/587 586/586 589/589
f 590/590 591/591 592/592
f 590/590 592/592 593/593
f 594/594 595/595 596/596
f 595/595 594/594 597/597
f 594/594 598/598 597/597
f 599/599 600/600 601/601
f 600/600 599/599 602/602
f 603/603 604/604 605/605
f 604/604 603/603 606/606
f 607/607 608/608 609/609
f 610/610 608/608 607/607
f 608/608 610/610 611/611
f 612/612 613/613 614/614
f 613/613 612/612 615/615
f 616/616 617/617 618/618
f 616/616 618/618 619/619
f 620/620 621/621 622/622
f 621/621 620/620 623/623
f 620/620 624/624 623/623

