# https://github.com/mikedh/trimesh
mtllib material.mtl
usemtl material_0
v 0.02552998 0.00000101 0.43882599
v 0.92479000 0.01336402 0.00000000
v 0.92479000 0.01336402 0.43882599
v 0.02552998 0.00000101 0.00000000
v 0.02552998 0.00000101 0.00000000
v 0.90973000 0.51724101 0.00000000
v 0.92479000 0.01336402 0.00000000
v 0.01046902 0.50387901 0.00000000
v 0.01046902 0.50387801 0.43882599
v 0.91006100 0.50614301 0.43882599
v 0.90973000 0.51724101 0.43882599
v 0.02552998 0.00000101 0.43882599
v 0.92479000 0.01336402 0.43882599
v 0.01046902 0.50387801 0.43882599
v 0.02552998 0.00000101 0.00000000
v 0.02552998 0.00000101 0.43882599
v 0.01046902 0.50387901 0.00000000
v 0.01046902 0.50387801 0.43882599
v 0.90973000 0.51724101 0.43882599
v 0.90973000 0.51724101 0.00000000
v 0.01046902 0.50387901 0.00000000
v 0.91006100 0.50614301 0.43882599
v 0.90973000 0.51724101 0.00000000
v 0.90973000 0.51724101 0.43882599
v 0.92479000 0.01336402 0.00000000
v 0.92479000 0.01336402 0.43882599
v 0.02552998 0.00000101 0.88528600
v 0.92479100 0.01336402 0.44645903
v 0.92479100 0.01336402 0.88528600
v 0.02552998 0.00000101 0.44645903
v 0.02552998 0.00000101 0.44645903
v 0.90973100 0.51724001 0.44645903
v 0.92479100 0.01336402 0.44645903
v 0.01046902 0.50387801 0.44645903
v 0.01046902 0.50387801 0.88528600
v 0.91006200 0.50614301 0.88528600
v 0.90973100 0.51724001 0.88528600
v 0.02552998 0.00000101 0.88528600
v 0.92479100 0.01336402 0.88528600
v 0.01046902 0.50387801 0.88528600
v 0.02552998 0.00000101 0.44645903
v 0.02552998 0.00000101 0.88528600
v 0.01046902 0.50387801 0.44645903
v 0.01046902 0.50387801 0.88528600
v 0.90973100 0.51724001 0.88528600
v 0.90973100 0.51724001 0.44645903
v 0.01046902 0.50387801 0.44645903
v 0.91006200 0.50614301 0.88528600
v 0.90973100 0.51724001 0.44645903
v 0.90973100 0.51724001 0.88528600
v 0.92479100 0.01336402 0.44645903
v 0.92479100 0.01336402 0.88528600
v 0.02553099 0.00000000 1.32983997
v 0.92479200 0.01336402 0.89101401
v 0.92479200 0.01336402 1.32983997
v 0.02553099 0.00000000 0.89101401
v 0.02553099 0.00000000 0.89101401
v 0.90973200 0.51724001 0.89101401
v 0.92479200 0.01336402 0.89101401
v 0.01046902 0.50387801 0.89101401
v 0.01046997 0.50387701 1.32983997
v 0.91006300 0.50614301 1.32983997
v 0.90973200 0.51724001 1.32983997
v 0.02553099 0.00000000 1.32983997
v 0.92479200 0.01336402 1.32983997
v 0.01046997 0.50387701 1.32983997
v 0.02553099 0.00000000 0.89101401
v 0.02553099 0.00000000 1.32983997
v 0.01046902 0.50387801 0.89101401
v 0.01046997 0.50387701 1.32983997
v 0.90973200 0.51724001 1.32983997
v 0.90973200 0.51724001 0.89101401
v 0.01046902 0.50387801 0.89101401
v 0.91006300 0.50614301 1.32983997
v 0.90973200 0.51724001 0.89101401
v 0.90973200 0.51724001 1.32983997
v 0.92479200 0.01336402 0.89101401
v 0.92479200 0.01336402 1.32983997
v 0.01506001 0.50363801 0.43882599
v 0.91432100 0.51700101 0.00000000
v 0.91432100 0.51700101 0.43882599
v 0.01506001 0.50363801 0.00000000
v 0.01506001 0.50363801 0.00000000
v 0.89926000 1.02087700 0.00000000
v 0.91432100 0.51700101 0.00000000
v 0.00000000 1.00751501 0.00000000
v 0.00000000 1.00751400 0.43882599
v 0.89959200 1.00977901 0.43882599
v 0.89926000 1.02087700 0.43882599
v 0.01506001 0.50363801 0.43882599
v 0.91432100 0.51700101 0.43882599
v 0.00000000 1.00751400 0.43882599
v 0.01506001 0.50363801 0.00000000
v 0.01506001 0.50363801 0.43882599
v 0.00000000 1.00751501 0.00000000
v 0.00000000 1.00751400 0.43882599
v 0.89926000 1.02087700 0.43882599
v 0.89926000 1.02087700 0.00000000
v 0.00000000 1.00751501 0.00000000
v 0.89959200 1.00977901 0.43882599
v 0.89926000 1.02087700 0.00000000
v 0.89926000 1.02087700 0.43882599
v 0.91432100 0.51700101 0.00000000
v 0.91432100 0.51700101 0.43882599
v 0.01506102 0.50363701 0.88528600
v 0.91432200 0.51700001 0.44645903
v 0.91432200 0.51700001 0.88528600
v 0.01506102 0.50363701 0.44645903
v 0.01506102 0.50363701 0.44645903
v 0.89926200 1.02087700 0.44645903
v 0.91432200 0.51700001 0.44645903
v 0.00000101 1.00751400 0.44645903
v 0.00000101 1.00751400 0.88528600
v 0.89959200 1.00977901 0.88528600
v 0.89926200 1.02087700 0.88528600
v 0.01506102 0.50363701 0.88528600
v 0.91432200 0.51700001 0.88528600
v 0.00000101 1.00751400 0.88528600
v 0.01506102 0.50363701 0.44645903
v 0.01506102 0.50363701 0.88528600
v 0.00000101 1.00751400 0.44645903
v 0.00000101 1.00751400 0.88528600
v 0.89926200 1.02087700 0.88528600
v 0.89926200 1.02087700 0.44645903
v 0.00000101 1.00751400 0.44645903
v 0.89959200 1.00977901 0.88528600
v 0.89926200 1.02087700 0.44645903
v 0.89926200 1.02087700 0.88528600
v 0.91432200 0.51700001 0.44645903
v 0.91432200 0.51700001 0.88528600
v 0.01506197 0.50363701 1.32983997
v 0.91432200 0.51700001 0.89101401
v 0.91432200 0.51700001 1.32983997
v 0.01506197 0.50363701 0.89101401
v 0.01506197 0.50363701 0.89101401
v 0.89926300 1.02087700 0.89101401
v 0.91432200 0.51700001 0.89101401
v 0.00000203 1.00751400 0.89101401
v 0.00000203 1.00751302 1.32983997
v 0.89959300 1.00977802 1.32983997
v 0.89926300 1.02087700 1.32983997
v 0.01506197 0.50363701 1.32983997
v 0.91432200 0.51700001 1.32983997
v 0.00000203 1.00751302 1.32983997
v 0.01506197 0.50363701 0.89101401
v 0.01506197 0.50363701 1.32983997
v 0.00000203 1.00751400 0.89101401
v 0.00000203 1.00751302 1.32983997
v 0.89926300 1.02087700 1.32983997
v 0.89926300 1.02087700 0.89101401
v 0.00000203 1.00751400 0.89101401
v 0.89959300 1.00977802 1.32983997
v 0.89926300 1.02087700 0.89101401
v 0.89926300 1.02087700 1.32983997
v 0.91432200 0.51700001 0.89101401
v 0.91432200 0.51700001 1.32983997
v 0.93181000 0.01328498 0.43882599
v 1.83107102 0.02664700 0.00000000
v 1.83107102 0.02664700 0.43882599
v 0.93181000 0.01328498 0.00000000
v 0.93181000 0.01328498 0.00000000
v 1.81601000 0.53052401 0.00000000
v 1.83107102 0.02664700 0.00000000
v 0.91674900 0.51716201 0.00000000
v 0.91674900 0.51716101 0.43882599
v 1.81634200 0.51942701 0.43882599
v 1.81601000 0.53052401 0.43882599
v 0.93181000 0.01328498 0.43882599
v 1.83107102 0.02664700 0.43882599
v 0.91674900 0.51716101 0.43882599
v 0.93181000 0.01328498 0.00000000
v 0.93181000 0.01328498 0.43882599
v 0.91674900 0.51716201 0.00000000
v 0.91674900 0.51716101 0.43882599
v 1.81601000 0.53052401 0.43882599
v 1.81601000 0.53052401 0.00000000
v 0.91674900 0.51716201 0.00000000
v 1.81634200 0.51942701 0.43882599
v 1.81601000 0.53052401 0.00000000
v 1.81601000 0.53052401 0.43882599
v 1.83107102 0.02664700 0.00000000
v 1.83107102 0.02664700 0.43882599
v 0.93181000 0.01328403 0.88528600
v 1.83107102 0.02664700 0.44645903
v 1.83107102 0.02664700 0.88528600
v 0.93181000 0.01328403 0.44645903
v 0.93181000 0.01328403 0.44645903
v 1.81601101 0.53052401 0.44645903
v 1.83107102 0.02664700 0.44645903
v 0.91675000 0.51716101 0.44645903
v 0.91675000 0.51716101 0.88528600
v 1.81634200 0.51942601 0.88528600
v 1.81601101 0.53052401 0.88528600
v 0.93181000 0.01328403 0.88528600
v 1.83107102 0.02664700 0.88528600
v 0.91675000 0.51716101 0.88528600
v 0.93181000 0.01328403 0.44645903
v 0.93181000 0.01328403 0.88528600
v 0.91675000 0.51716101 0.44645903
v 0.91675000 0.51716101 0.88528600
v 1.81601101 0.53052401 0.88528600
v 1.81601101 0.53052401 0.44645903
v 0.91675000 0.51716101 0.44645903
v 1.81634200 0.51942601 0.88528600
v 1.81601101 0.53052401 0.44645903
v 1.81601101 0.53052401 0.88528600
v 1.83107102 0.02664700 0.44645903
v 1.83107102 0.02664700 0.88528600
v 0.93181000 0.01328403 1.32983997
v 1.83107197 0.02664700 0.89101401
v 1.83107197 0.02664700 1.32983997
v 0.93181000 0.01328403 0.89101401
v 0.93181000 0.01328403 0.89101401
v 1.81601202 0.53052401 0.89101401
v 1.83107197 0.02664700 0.89101401
v 0.91675100 0.51716101 0.89101401
v 0.91675100 0.51716101 1.32983997
v 1.81634200 0.51942601 1.32983997
v 1.81601202 0.53052401 1.32983997
v 0.93181000 0.01328403 1.32983997
v 1.83107197 0.02664700 1.32983997
v 0.91675100 0.51716101 1.32983997
v 0.93181000 0.01328403 0.89101401
v 0.93181000 0.01328403 1.32983997
v 0.91675100 0.51716101 0.89101401
v 0.91675100 0.51716101 1.32983997
v 1.81601202 0.53052401 1.32983997
v 1.81601202 0.53052401 0.89101401
v 0.91675100 0.51716101 0.89101401
v 1.81634200 0.51942601 1.32983997
v 1.81601202 0.53052401 0.89101401
v 1.81601202 0.53052401 1.32983997
v 1.83107197 0.02664700 0.89101401
v 1.83107197 0.02664700 1.32983997
v 0.92134000 0.51692101 0.43882599
v 1.82060099 0.53028401 0.00000000
v 1.82060099 0.53028401 0.43882599
v 0.92134000 0.51692101 0.00000000
v 0.92134000 0.51692101 0.00000000
v 1.80554098 1.03416103 0.00000000
v 1.82060099 0.53028401 0.00000000
v 0.90628000 1.02079803 0.00000000
v 0.90628000 1.02079701 0.43882599
v 1.80587202 1.02306300 0.43882599
v 1.80554098 1.03416103 0.43882599
v 0.92134000 0.51692101 0.43882599
v 1.82060099 0.53028401 0.43882599
v 0.90628000 1.02079701 0.43882599
v 0.92134000 0.51692101 0.00000000
v 0.92134000 0.51692101 0.43882599
v 0.90628000 1.02079803 0.00000000
v 0.90628000 1.02079701 0.43882599
v 1.80554098 1.03416103 0.43882599
v 1.80554098 1.03416103 0.00000000
v 0.90628000 1.02079803 0.00000000
v 1.80587202 1.02306300 0.43882599
v 1.80554098 1.03416103 0.00000000
v 1.80554098 1.03416103 0.43882599
v 1.82060099 0.53028401 0.00000000
v 1.82060099 0.53028401 0.43882599
v 0.92134200 0.51692101 0.88528600
v 1.82060200 0.53028401 0.44645903
v 1.82060200 0.53028401 0.88528600
v 0.92134200 0.51692101 0.44645903
v 0.92134200 0.51692101 0.44645903
v 1.80554301 1.03416002 0.44645903
v 1.82060200 0.53028401 0.44645903
v 0.90628100 1.02079803 0.44645903
v 0.90628100 1.02079701 0.88528600
v 1.80587298 1.02306199 0.88528600
v 1.80554301 1.03416002 0.88528600
v 0.92134200 0.51692101 0.88528600
v 1.82060200 0.53028401 0.88528600
v 0.90628100 1.02079701 0.88528600
v 0.92134200 0.51692101 0.44645903
v 0.92134200 0.51692101 0.88528600
v 0.90628100 1.02079803 0.44645903
v 0.90628100 1.02079701 0.88528600
v 1.80554301 1.03416002 0.88528600
v 1.80554301 1.03416002 0.44645903
v 0.90628100 1.02079803 0.44645903
v 1.80587298 1.02306199 0.88528600
v 1.80554301 1.03416002 0.44645903
v 1.80554301 1.03416002 0.88528600
v 1.82060200 0.53028401 0.44645903
v 1.82060200 0.53028401 0.88528600
v 0.92134200 0.51692001 1.32983997
v 1.82060301 0.53028401 0.89101401
v 1.82060301 0.53028401 1.32983997
v 0.92134200 0.51692001 0.89101401
v 0.92134200 0.51692001 0.89101401
v 1.80554301 1.03416002 0.89101401
v 1.82060301 0.53028401 0.89101401
v 0.90628200 1.02079701 0.89101401
v 0.90628200 1.02079600 1.32983997
v 1.80587298 1.02306199 1.32983997
v 1.80554301 1.03416002 1.32983997
v 0.92134200 0.51692001 1.32983997
v 1.82060301 0.53028401 1.32983997
v 0.90628200 1.02079600 1.32983997
v 0.92134200 0.51692001 0.89101401
v 0.92134200 0.51692001 1.32983997
v 0.90628200 1.02079701 0.89101401
v 0.90628200 1.02079600 1.32983997
v 1.80554301 1.03416002 1.32983997
v 1.80554301 1.03416002 0.89101401
v 0.90628200 1.02079701 0.89101401
v 1.80587298 1.02306199 1.32983997
v 1.80554301 1.03416002 0.89101401
v 1.80554301 1.03416002 1.32983997
v 1.82060301 0.53028401 0.89101401
v 1.82060301 0.53028401 1.32983997
v 0.02553302 0.00000000 1.77770606
v 0.92479300 0.01336300 1.33887902
v 0.92479300 0.01336300 1.77770606
v 0.02553302 0.00000000 1.33887902
v 0.02553302 0.00000000 1.33887902
v 0.90973400 0.51724001 1.33887902
v 0.92479300 0.01336300 1.33887902
v 0.01046902 0.50387701 1.33887902
v 0.01047200 0.50387701 1.77770606
v 0.91006400 0.50614201 1.77770606
v 0.90973400 0.51724001 1.77770606
v 0.02553302 0.00000000 1.77770606
v 0.92479300 0.01336300 1.77770606
v 0.01047200 0.50387701 1.77770606
v 0.01046902 0.50387701 1.33887902
v 0.02553302 0.00000000 1.77770606
v 0.02553302 0.00000000 1.33887902
v 0.01047200 0.50387701 1.77770606
v 0.90973400 0.51724001 1.77770606
v 0.90973400 0.51724001 1.33887902
v 0.01046902 0.50387701 1.33887902
v 0.91006400 0.50614201 1.77770606
v 0.90973400 0.51724001 1.33887902
v 0.90973400 0.51724001 1.77770606
v 0.92479300 0.01336300 1.33887902
v 0.92479300 0.01336300 1.77770606
v 0.01506400 0.50363601 1.77770606
v 0.91432300 0.51700001 1.33887902
v 0.91432300 0.51700001 1.77770606
v 0.01506400 0.50363601 1.33887902
v 0.01506400 0.50363601 1.33887902
v 0.89926600 1.02087599 1.33887902
v 0.91432300 0.51700001 1.33887902
v 0.00000298 1.00751302 1.33887902
v 0.00000298 1.00751302 1.77770606
v 0.89959400 1.00977701 1.77770606
v 0.89926600 1.02087599 1.77770606
v 0.01506400 0.50363601 1.77770606
v 0.91432300 0.51700001 1.77770606
v 0.00000298 1.00751302 1.77770606
v 0.01506400 0.50363601 1.33887902
v 0.01506400 0.50363601 1.77770606
v 0.00000298 1.00751302 1.33887902
v 0.00000298 1.00751302 1.77770606
v 0.89926600 1.02087599 1.77770606
v 0.89926600 1.02087599 1.33887902
v 0.00000298 1.00751302 1.33887902
v 0.89959400 1.00977701 1.77770606
v 0.89926600 1.02087599 1.33887902
v 0.89926600 1.02087599 1.77770606
v 0.91432300 0.51700001 1.33887902
v 0.91432300 0.51700001 1.77770606
v 0.93181000 0.01328301 1.77770606
v 1.83107400 0.02664700 1.33887902
v 1.83107400 0.02664700 1.77770606
v 0.93181000 0.01328301 1.33887902
v 0.93181000 0.01328301 1.33887902
v 1.81601298 0.53052301 1.33887902
v 1.83107400 0.02664700 1.33887902
v 0.91675200 0.51716001 1.33887902
v 0.91675200 0.51716001 1.77770606
v 1.81634200 0.51942501 1.77770606
v 1.81601298 0.53052301 1.77770606
v 0.93181000 0.01328301 1.77770606
v 1.83107400 0.02664700 1.77770606
v 0.91675200 0.51716001 1.77770606
v 0.93181000 0.01328301 1.33887902
v 0.93181000 0.01328301 1.77770606
v 0.91675200 0.51716001 1.33887902
v 0.91675200 0.51716001 1.77770606
v 1.81601298 0.53052301 1.77770606
v 1.81601298 0.53052301 1.33887902
v 0.91675200 0.51716001 1.33887902
v 1.81634200 0.51942501 1.77770606
v 1.81601298 0.53052301 1.33887902
v 1.81601298 0.53052301 1.77770606
v 1.83107400 0.02664700 1.33887902
v 1.83107400 0.02664700 1.77770606
v 0.92134400 0.51692001 1.77770606
v 1.82060403 0.53028301 1.33887902
v 1.82060403 0.53028301 1.77770606
v 0.92134400 0.51692001 1.33887902
v 0.92134400 0.51692001 1.33887902
v 1.80554402 1.03415900 1.33887902
v 1.82060403 0.53028301 1.33887902
v 0.90628300 1.02079600 1.33887902
v 0.90628300 1.02079600 1.77770606
v 1.80587399 1.02306104 1.77770606
v 1.80554402 1.03415900 1.77770606
v 0.92134400 0.51692001 1.77770606
v 1.82060403 0.53028301 1.77770606
v 0.90628300 1.02079600 1.77770606
v 0.92134400 0.51692001 1.33887902
v 0.92134400 0.51692001 1.77770606
v 0.90628300 1.02079600 1.33887902
v 0.90628300 1.02079600 1.77770606
v 1.80554402 1.03415900 1.77770606
v 1.80554402 1.03415900 1.33887902
v 0.90628300 1.02079600 1.33887902
v 1.80587399 1.02306104 1.77770606
v 1.80554402 1.03415900 1.33887902
v 1.80554402 1.03415900 1.77770606
v 1.82060403 0.53028301 1.33887902
v 1.82060403 0.53028301 1.77770606
vt 0.02703800 0.69202399
vt 0.48695400 0.42480001
vt 0.48695701 0.69202399
vt 0.02703800 0.42480001
vt 0.50699598 0.40166301
vt 0.96691000 0.03616800
vt 0.96691000 0.40166301
vt 0.50699598 0.03616800
vt 0.48946100 0.03538000
vt 0.02954400 0.04343000
vt 0.02954400 0.03538000
vt 0.48946100 0.41522500
vt 0.02954400 0.41522399
vt 0.03742200 0.97154802
vt 0.40733501 0.69876099
vt 0.40905401 0.97174197
vt 0.03921100 0.69871700
vt 0.96546203 0.67685199
vt 0.50554597 0.67685199
vt 0.50554597 0.40962100
vt 0.96545899 0.40962100
vt 0.91457200 0.96237803
vt 0.92232502 0.70503098
vt 0.92232502 0.96237803
vt 0.57034397 0.70503098
vt 0.57034302 0.96237701
vt 0.02703800 0.69202399
vt 0.48695400 0.42480001
vt 0.48695701 0.69202399
vt 0.02703800 0.42480001
vt 0.50699598 0.40166301
vt 0.96691000 0.03616800
vt 0.96691000 0.40166301
vt 0.50699598 0.03616800
vt 0.48946100 0.03538000
vt 0.02954400 0.04343000
vt 0.02954400 0.03538000
vt 0.48946100 0.41522500
vt 0.02954400 0.41522399
vt 0.03742200 0.97154802
vt 0.40733501 0.69876099
vt 0.40905401 0.97174197
vt 0.03921100 0.69871700
vt 0.96546203 0.67685199
vt 0.50554597 0.67685199
vt 0.50554597 0.40962100
vt 0.96545899 0.40962100
vt 0.91457200 0.96237803
vt 0.92232502 0.70503098
vt 0.92232502 0.96237803
vt 0.57034397 0.70503098
vt 0.57034302 0.96237701
vt 0.02703800 0.69202399
vt 0.48695400 0.42480001
vt 0.48695701 0.69202399
vt 0.02703800 0.42480001
vt 0.50699598 0.40166301
vt 0.96691000 0.03616800
vt 0.96691000 0.40166301
vt 0.50699598 0.03616800
vt 0.48946100 0.03538000
vt 0.02954400 0.04343000
vt 0.02954400 0.03538000
vt 0.48946100 0.41522500
vt 0.02954400 0.41522399
vt 0.03742200 0.97154802
vt 0.40733501 0.69876099
vt 0.40905401 0.97174197
vt 0.03921100 0.69871700
vt 0.96546203 0.67685199
vt 0.50554597 0.67685199
vt 0.50554597 0.40962100
vt 0.96545899 0.40962100
vt 0.91457200 0.96237803
vt 0.92232502 0.70503098
vt 0.92232502 0.96237803
vt 0.57034397 0.70503098
vt 0.57034302 0.96237701
vt 0.02703800 0.69202399
vt 0.48695400 0.42480001
vt 0.48695701 0.69202399
vt 0.02703800 0.42480001
vt 0.50699598 0.40166301
vt 0.96691000 0.03616800
vt 0.96691000 0.40166301
vt 0.50699598 0.03616800
vt 0.48946100 0.03538000
vt 0.02954400 0.04343000
vt 0.02954400 0.03538000
vt 0.48946100 0.41522500
vt 0.02954400 0.41522399
vt 0.03742200 0.97154802
vt 0.40733501 0.69876099
vt 0.40905401 0.97174197
vt 0.03921100 0.69871700
vt 0.96546203 0.67685199
vt 0.50554597 0.67685199
vt 0.50554597 0.40962100
vt 0.96545899 0.40962100
vt 0.91457200 0.96237803
vt 0.92232502 0.70503098
vt 0.92232502 0.96237803
vt 0.57034397 0.70503098
vt 0.57034302 0.96237701
vt 0.02703800 0.69202399
vt 0.48695400 0.42480001
vt 0.48695701 0.69202399
vt 0.02703800 0.42480001
vt 0.50699598 0.40166301
vt 0.96691000 0.03616800
vt 0.96691000 0.40166301
vt 0.50699598 0.03616800
vt 0.48946100 0.03538000
vt 0.02954400 0.04343000
vt 0.02954400 0.03538000
vt 0.48946100 0.41522500
vt 0.02954400 0.41522399
vt 0.03742200 0.97154802
vt 0.40733501 0.69876099
vt 0.40905401 0.97174197
vt 0.03921100 0.69871700
vt 0.96546203 0.67685199
vt 0.50554597 0.67685199
vt 0.50554597 0.40962100
vt 0.96545899 0.40962100
vt 0.91457200 0.96237803
vt 0.92232502 0.70503098
vt 0.92232502 0.96237803
vt 0.57034397 0.70503098
vt 0.57034302 0.96237701
vt 0.02703800 0.69202399
vt 0.48695400 0.42480001
vt 0.48695701 0.69202399
vt 0.02703800 0.42480001
vt 0.50699598 0.40166301
vt 0.96691000 0.03616800
vt 0.96691000 0.40166301
vt 0.50699598 0.03616800
vt 0.48946100 0.03538000
vt 0.02954400 0.04343000
vt 0.02954400 0.03538000
vt 0.48946100 0.41522500
vt 0.02954400 0.41522399
vt 0.03742200 0.97154802
vt 0.40733501 0.69876099
vt 0.40905401 0.97174197
vt 0.03921100 0.69871700
vt 0.96546203 0.67685199
vt 0.50554597 0.67685199
vt 0.50554597 0.40962100
vt 0.96545899 0.40962100
vt 0.91457200 0.96237803
vt 0.92232502 0.70503098
vt 0.92232502 0.96237803
vt 0.57034397 0.70503098
vt 0.57034302 0.96237701
vt 0.02703800 0.69202399
vt 0.48695400 0.42480001
vt 0.48695701 0.69202399
vt 0.02703800 0.42480001
vt 0.50699598 0.40166301
vt 0.96691000 0.03616800
vt 0.96691000 0.40166301
vt 0.50699598 0.03616800
vt 0.48946100 0.03538000
vt 0.02954400 0.04343000
vt 0.02954400 0.03538000
vt 0.48946100 0.41522500
vt 0.02954400 0.41522399
vt 0.03742200 0.97154802
vt 0.40733501 0.69876099
vt 0.40905401 0.97174197
vt 0.03921100 0.69871700
vt 0.96546203 0.67685199
vt 0.50554597 0.67685199
vt 0.50554597 0.40962100
vt 0.96545899 0.40962100
vt 0.91457200 0.96237803
vt 0.92232502 0.70503098
vt 0.92232502 0.96237803
vt 0.57034397 0.70503098
vt 0.57034302 0.96237701
vt 0.02703800 0.69202399
vt 0.48695400 0.42480001
vt 0.48695701 0.69202399
vt 0.02703800 0.42480001
vt 0.50699598 0.40166301
vt 0.96691000 0.03616800
vt 0.96691000 0.40166301
vt 0.50699598 0.03616800
vt 0.48946100 0.03538000
vt 0.02954400 0.04343000
vt 0.02954400 0.03538000
vt 0.48946100 0.41522500
vt 0.02954400 0.41522399
vt 0.03742200 0.97154802
vt 0.40733501 0.69876099
vt 0.40905401 0.97174197
vt 0.03921100 0.69871700
vt 0.96546203 0.67685199
vt 0.50554597 0.67685199
vt 0.50554597 0.40962100
vt 0.96545899 0.40962100
vt 0.91457200 0.96237803
vt 0.92232502 0.70503098
vt 0.92232502 0.96237803
vt 0.57034397 0.70503098
vt 0.57034302 0.96237701
vt 0.02703800 0.69202399
vt 0.48695400 0.42480001
vt 0.48695701 0.69202399
vt 0.02703800 0.42480001
vt 0.50699598 0.40166301
vt 0.96691000 0.03616800
vt 0.96691000 0.40166301
vt 0.50699598 0.03616800
vt 0.48946100 0.03538000
vt 0.02954400 0.04343000
vt 0.02954400 0.03538000
vt 0.48946100 0.41522500
vt 0.02954400 0.41522399
vt 0.03742200 0.97154802
vt 0.40733501 0.69876099
vt 0.40905401 0.97174197
vt 0.03921100 0.69871700
vt 0.96546203 0.67685199
vt 0.50554597 0.67685199
vt 0.50554597 0.40962100
vt 0.96545899 0.40962100
vt 0.91457200 0.96237803
vt 0.92232502 0.70503098
vt 0.92232502 0.96237803
vt 0.57034397 0.70503098
vt 0.57034302 0.96237701
vt 0.02703800 0.69202399
vt 0.48695400 0.42480001
vt 0.48695701 0.69202399
vt 0.02703800 0.42480001
vt 0.50699598 0.40166301
vt 0.96691000 0.03616800
vt 0.96691000 0.40166301
vt 0.50699598 0.03616800
vt 0.48946100 0.03538000
vt 0.02954400 0.04343000
vt 0.02954400 0.03538000
vt 0.48946100 0.41522500
vt 0.02954400 0.41522399
vt 0.03742200 0.97154802
vt 0.40733501 0.69876099
vt 0.40905401 0.97174197
vt 0.03921100 0.69871700
vt 0.96546203 0.67685199
vt 0.50554597 0.67685199
vt 0.50554597 0.40962100
vt 0.96545899 0.40962100
vt 0.91457200 0.96237803
vt 0.92232502 0.70503098
vt 0.92232502 0.96237803
vt 0.57034397 0.70503098
vt 0.57034302 0.96237701
vt 0.02703800 0.69202399
vt 0.48695400 0.42480001
vt 0.48695701 0.69202399
vt 0.02703800 0.42480001
vt 0.50699598 0.40166301
vt 0.96691000 0.03616800
vt 0.96691000 0.40166301
vt 0.50699598 0.03616800
vt 0.48946100 0.03538000
vt 0.02954400 0.04343000
vt 0.02954400 0.03538000
vt 0.48946100 0.41522500
vt 0.02954400 0.41522399
vt 0.03742200 0.97154802
vt 0.40733501 0.69876099
vt 0.40905401 0.97174197
vt 0.03921100 0.69871700
vt 0.96546203 0.67685199
vt 0.50554597 0.67685199
vt 0.50554597 0.40962100
vt 0.96545899 0.40962100
vt 0.91457200 0.96237803
vt 0.92232502 0.70503098
vt 0.92232502 0.96237803
vt 0.57034397 0.70503098
vt 0.57034302 0.96237701
vt 0.02703800 0.69202399
vt 0.48695400 0.42480001
vt 0.48695701 0.69202399
vt 0.02703800 0.42480001
vt 0.50699598 0.40166301
vt 0.96691000 0.03616800
vt 0.96691000 0.40166301
vt 0.50699598 0.03616800
vt 0.48946100 0.03538000
vt 0.02954400 0.04343000
vt 0.02954400 0.03538000
vt 0.48946100 0.41522500
vt 0.02954400 0.41522399
vt 0.03742200 0.97154802
vt 0.40733501 0.69876099
vt 0.40905401 0.97174197
vt 0.03921100 0.69871700
vt 0.96546203 0.67685199
vt 0.50554597 0.67685199
vt 0.50554597 0.40962100
vt 0.96545899 0.40962100
vt 0.91457200 0.96237803
vt 0.92232502 0.70503098
vt 0.92232502 0.96237803
vt 0.57034397 0.70503098
vt 0.57034302 0.96237701
vt 0.02703800 0.69202399
vt 0.48695400 0.42480001
vt 0.48695701 0.69202399
vt 0.02703800 0.42480001
vt 0.50699598 0.40166301
vt 0.96691000 0.03616800
vt 0.96691000 0.40166301
vt 0.50699598 0.03616800
vt 0.48946100 0.03538000
vt 0.02954400 0.04343000
vt 0.02954400 0.03538000
vt 0.48946100 0.41522500
vt 0.02954400 0.41522399
vt 0.03742200 0.97154802
vt 0.03921100 0.69871700
vt 0.40905401 0.97174197
vt 0.40733501 0.69876099
vt 0.96546203 0.67685199
vt 0.50554597 0.67685199
vt 0.50554597 0.40962100
vt 0.96545899 0.40962100
vt 0.91457200 0.96237803
vt 0.92232502 0.70503098
vt 0.92232502 0.96237803
vt 0.57034397 0.70503098
vt 0.57034302 0.96237701
vt 0.02703800 0.69202399
vt 0.48695400 0.42480001
vt 0.48695701 0.69202399
vt 0.02703800 0.42480001
vt 0.50699598 0.40166301
vt 0.96691000 0.03616800
vt 0.96691000 0.40166301
vt 0.50699598 0.03616800
vt 0.48946100 0.03538000
vt 0.02954400 0.04343000
vt 0.02954400 0.03538000
vt 0.48946100 0.41522500
vt 0.02954400 0.41522399
vt 0.03742200 0.97154802
vt 0.40733501 0.69876099
vt 0.40905401 0.97174197
vt 0.03921100 0.69871700
vt 0.96546203 0.67685199
vt 0.50554597 0.67685199
vt 0.50554597 0.40962100
vt 0.96545899 0.40962100
vt 0.91457200 0.96237803
vt 0.92232502 0.70503098
vt 0.92232502 0.96237803
vt 0.57034397 0.70503098
vt 0.57034302 0.96237701
vt 0.02703800 0.69202399
vt 0.48695400 0.42480001
vt 0.48695701 0.69202399
vt 0.02703800 0.42480001
vt 0.50699598 0.40166301
vt 0.96691000 0.03616800
vt 0.96691000 0.40166301
vt 0.50699598 0.03616800
vt 0.48946100 0.03538000
vt 0.02954400 0.04343000
vt 0.02954400 0.03538000
vt 0.48946100 0.41522500
vt 0.02954400 0.41522399
vt 0.03742200 0.97154802
vt 0.40733501 0.69876099
vt 0.40905401 0.97174197
vt 0.03921100 0.69871700
vt 0.96546203 0.67685199
vt 0.50554597 0.67685199
vt 0.50554597 0.40962100
vt 0.96545899 0.40962100
vt 0.91457200 0.96237803
vt 0.92232502 0.70503098
vt 0.92232502 0.96237803
vt 0.57034397 0.70503098
vt 0.57034302 0.96237701
vt 0.02703800 0.69202399
vt 0.48695400 0.42480001
vt 0.48695701 0.69202399
vt 0.02703800 0.42480001
vt 0.50699598 0.40166301
vt 0.96691000 0.03616800
vt 0.96691000 0.40166301
vt 0.50699598 0.03616800
vt 0.48946100 0.03538000
vt 0.02954400 0.04343000
vt 0.02954400 0.03538000
vt 0.48946100 0.41522500
vt 0.02954400 0.41522399
vt 0.03742200 0.97154802
vt 0.40733501 0.69876099
vt 0.40905401 0.97174197
vt 0.03921100 0.69871700
vt 0.96546203 0.67685199
vt 0.50554597 0.67685199
vt 0.50554597 0.40962100
vt 0.96545899 0.40962100
vt 0.91457200 0.96237803
vt 0.92232502 0.70503098
vt 0.92232502 0.96237803
vt 0.57034397 0.70503098
vt 0.57034302 0.96237701
f 1/1 2/2 3/3
f 2/2 1/1 4/4
f 5/5 6/6 7/7
f 6/6 5/5 8/8
f 9/9 10/10 11/11
f 12/12 10/10 9/9
f 10/10 12/12 13/13
f 14/14 15/15 16/16
f 15/15 14/14 17/17
f 18/18 19/19 20/20
f 18/18 20/20 21/21
f 22/22 23/23 24/24
f 23/23 22/22 25/25
f 22/22 26/26 25/25
f 27/27 28/28 29/29
f 28/28 27/27 30/30
f 31/31 32/32 33/33
f 32/32 31/31 34/34
f 35/35 36/36 37/37
f 38/38 36/36 35/35
f 36/36 38/38 39/39
f 40/40 41/41 42/42
f 41/41 40/40 43/43
f 44/44 45/45 46/46
f 44/44 46/46 47/47
f 48/48 49/49 50/50
f 49/49 48/48 51/51
f 48/48 52/52 51/51
f 53/53 54/54 55/55
f 54/54 53/53 56/56
f 57/57 58/58 59/59
f 58/58 57/57 60/60
f 61/61 62/62 63/63
f 64/64 62/62 61/61
f 62/62 64/64 65/65
f 66/66 67/67 68/68
f 67/67 66/66 69/69
f 70/70 71/71 72/72
f 70/70 72/72 73/73
f 74/74 75/75 76/76
f 75/75 74/74 77/77
f 74/74 78/78 77/77
f 79/79 80/80 81/81
f 80/80 79/79 82/82
f 83/83 84/84 85/85
f 84/84 83/83 86/86
f 87/87 88/88 89/89
f 90/90 88/88 87/87
f 88/88 90/90 91/91
f 92/92 93/93 94/94
f 93/93 92/92 95/95
f 96/96 97/97 98/98
f 96/96 98/98 99/99
f 100/100 101/101 102/102
f 101/101 100/100 103/103
f 100/100 104/104 103/103
f 105/105 106/106 107/107
f 106/106 105/105 108/108
f 109/109 110/110 111/111
f 110/110 109/109 112/112
f 113/113 114/114 115/115
f 116/116 114/114 113/113
f 114/114 116/116 117/117
f 118/118 119/119 120/120
f 119/119 118/118 121/121
f 122/122 123/123 124/124
f 122/122 124/124 125/125
f 126/126 127/127 128/128
f 127/127 126/126 129/129
f 126/126 130/130 129/129
f 131/131 132/132 133/133
f 132/132 131/131 134/134
f 135/135 136/136 137/137
f 136/136 135/135 138/138
f 139/139 140/140 141/141
f 142/142 140/140 139/139
f 140/140 142/142 143/143
f 144/144 145/145 146/146
f 145/145 144/144 147/147
f 148/148 149/149 150/150
f 148/148 150/150 151/151
f 152/152 153/153 154/154
f 153/153 152/152 155/155
f 152/152 156/156 155/155
f 157/157 158/158 159/159
f 158/158 157/157 160/160
f 161/161 162/162 163/163
f 162/162 161/161 164/164
f 165/165 166/166 167/167
f 168/168 166/166 165/165
f 166/166 168/168 169/169
f 170/170 171/171 172/172
f 171/171 170/170 173/173
f 174/174 175/175 176/176
f 174/174 176/176 177/177
f 178/178 179/179 180/180
f 179/179 178/178 181/181
f 178/178 182/182 181/181
f 183/183 184/184 185/185
f 184/184 183/183 186/186
f 187/187 188/188 189/189
f 188/188 187/187 190/190
f 191/191 192/192 193/193
f 194/194 192/192 191/191
f 192/192 194/194 195/195
f 196/196 197/197 198/198
f 197/197 196/196 199/199
f 200/200 201/201 202/202
f 200/200 202/202 203/203
f 204/204 205/205 206/206
f 205/205 204/204 207/207
f 204/204 208/208 207/207
f 209/209 210/210 211/211
f 210/210 209/209 212/212
f 213/213 214/214 215/215
f 214/214 213/213 216/216
f 217/217 218/218 219/219
f 220/220 218/218 217/217
f 218/218 220/220 221/221
f 222/222 223/223 224/224
f 223/223 222/222 225/225
f 226/226 227/227 228/228
f 226/226 228/228 229/229
f 230/230 231/231 232/232
f 231/231 230/230 233/233
f 230/230 234/234 233/233
f 235/235 236/236 237/237
f 236/236 235/235 238/238
f 239/239 240/240 241/241
f 240/240 239/239 242/242
f 243/243 244/244 245/245
f 246/246 244/244 243/243
f 244/244 246/246 247/247
f 248/248 249/249 250/250
f 249/249 248/248 251/251
f 252/252 253/253 254/254
f 252/252 254/254 255/255
f 256/256 257/257 258/258
f 257/257 256/256 259/259
f 256/256 260/260 259/259
f 261/261 262/262 263/263
f 262/262 261/261 264/264
f 265/265 266/266 267/267
f 266/266 265/265 268/268
f 269/269 270/270 271/271
f 272/272 270/270 269/269
f 270/270 272/272 273/273
f 274/274 275/275 276/276
f 275/275 274/274 277/277
f 278/278 279/279 280/280
f 278/278 280/280 281/281
f 282/282 283/283 284/284
f 283/283 282/282 285/285
f 282/282 286/286 285/285
f 287/287 288/288 289/289
f 288/288 287/287 290/290
f 291/291 292/292 293/293
f 292/292 291/291 294/294
f 295/295 296/296 297/297
f 298/298 296/296 295/295
f 296/296 298/298 299/299
f 300/300 301/301 302/302
f 301/301 300/300 303/303
f 304/304 305/305 306/306
f 304/304 306/306 307/307
f 308/308 309/309 310/310
f 309/309 308/308 311/311
f 308/308 312/312 311/311
f 313/313 314/314 315/315
f 314/314 313/313 316/316
f 317/317 318/318 319/319
f 318/318 317/317 320/320
f 321/321 322/322 323/323
f 324/324 322/322 321/321
f 322/322 324/324 325/325
f 326/326 327/327 328/328
f 328/328 327/327 329/329
f 330/330 331/331 332/332
f 330/330 332/332 333/333
f 334/334 335/335 336/336
f 335/335 334/334 337/337
f 334/334 338/338 337/337
f 339/339 340/340 341/341
f 340/340 339/339 342/342
f 343/343 344/344 345/345
f 344/344 343/343 346/346
f 347/347 348/348 349/349
f 350/350 348/348 347/347
f 348/348 350/350 351/351
f 352/352 353/353 354/354
f 353/353 352/352 355/355
f 356/356 357/357 358/358
f 356/356 358/358 359/359
f 360/360 361/361 362/362
f 361/361 360/360 363/363
f 360/360 364/364 363/363
f 365/365 366/366 367/367
f 366/366 365/365 368/368
f 369/369 370/370 371/371
f 370/370 369/369 372/372
f 373/373 374/374 375/375
f 376/376 374/374 373/373
f 374/374 376/376 377/377
f 378/378 379/379 380/380
f 379/379 378/378 381/381
f 382/382 383/383 384/384
f 382/382 384/384 385/385
f 386/386 387/387 388/388
f 387/387 386/386 389/389
f 386/386 390/390 389/389
f 391/391 392/392 393/393
f 392/392 391/391 394/394
f 395/395 396/396 397/397
f 396/396 395/395 398/398
f 399/399 400/400 401/401
f 402/402 400/400 399/399
f 400/400 402/402 403/403
f 404/404 405/405 406/406
f 405/405 404/404 407/407
f 408/408 409/409 410/410
f 408/408 410/410 411/411
f 412/412 413/413 414/414
f 413/413 412/412 415/415
f 412/412 416/416 415/415

