# https://github.com/mikedh/trimesh
mtllib material.mtl
usemtl material_0
v 0.06725471 0.16117775 0.90633262
v 0.06725471 0.16117775 0.00000000
v 0.06725471 0.12255684 0.90633262
v 0.06725471 0.12255684 0.00000000
v 0.07150780 0.11830376 0.90633262
v 0.07150780 0.11830376 0.00000000
v 0.15302673 0.11830376 0.90633262
v 0.15302673 0.11830376 0.00000000
v 0.15727982 0.12255684 0.90633262
v 0.15727982 0.12255684 0.00000000
v 0.15727982 0.16117775 0.90633262
v 0.15727982 0.16117775 0.00000000
v 0.07314201 0.12761833 0.90633262
v 0.07314224 0.16117775 0.00000000
v 0.07314224 0.16117775 0.90633262
v 0.07314201 0.12761833 0.00000000
v 0.14713867 0.12336533 0.90633262
v 0.07739510 0.12336533 0.00000000
v 0.07739510 0.12336533 0.90633262
v 0.14713867 0.12336533 0.00000000
v 0.15139229 0.16117775 0.90633262
v 0.15139183 0.12761833 0.00000000
v 0.15139183 0.12761833 0.90633262
v 0.15139229 0.16117775 0.00000000
v 0.06725471 0.12255684 0.00000000
v 0.06725471 0.16117775 0.00000000
v 0.07314201 0.12761833 0.00000000
v 0.07314224 0.16117775 0.00000000
v 0.06725471 0.16117775 0.00000000
v 0.06725471 0.16117775 0.90633262
v 0.07314224 0.16117775 0.90633262
v 0.07314224 0.16117775 0.00000000
v 0.14713867 0.12336533 0.00000000
v 0.07150780 0.11830376 0.00000000
v 0.07739510 0.12336533 0.00000000
v 0.15302673 0.11830376 0.00000000
v 0.15727982 0.16117775 0.00000000
v 0.15727982 0.12255684 0.00000000
v 0.15139183 0.12761833 0.00000000
v 0.15139229 0.16117775 0.00000000
v 0.15727982 0.16117775 0.90633262
v 0.15139229 0.16117775 0.00000000
v 0.15139229 0.16117775 0.90633262
v 0.15727982 0.16117775 0.00000000
v 0.06725471 0.12255684 0.90633262
v 0.06725471 0.12255684 0.00000000
v 0.07150780 0.11830376 0.90633262
v 0.07150780 0.11830376 0.00000000
v 0.15302673 0.11830376 0.90633262
v 0.15302673 0.11830376 0.00000000
v 0.15727982 0.12255684 0.90633262
v 0.15727982 0.12255684 0.00000000
v 0.07739510 0.12336533 0.90633262
v 0.07739510 0.12336533 0.00000000
v 0.07314201 0.12761833 0.90633262
v 0.07314201 0.12761833 0.00000000
v 0.15139183 0.12761833 0.90633262
v 0.15139183 0.12761833 0.00000000
v 0.14713867 0.12336533 0.90633262
v 0.14713867 0.12336533 0.00000000
v 0.06725487 1.39414787 0.00000000
v 0.06725487 1.39414787 0.90633262
v 0.06725487 1.43276878 0.90633262
v 0.06725487 1.43276878 0.00000000
v 0.07150795 1.43702187 0.00000000
v 0.07150795 1.43702187 0.90633262
v 0.15302689 1.43702187 0.90633262
v 0.15302689 1.43702187 0.00000000
v 0.15727997 1.43276878 0.00000000
v 0.15727997 1.43276878 0.90633262
v 0.15727997 1.39414787 0.90633262
v 0.15727997 1.39414787 0.00000000
v 0.07314240 1.39414787 0.90633262
v 0.07314240 1.39414787 0.00000000
v 0.07314217 1.42770729 0.90633262
v 0.07314217 1.42770729 0.00000000
v 0.07739525 1.43196030 0.90633262
v 0.07739525 1.43196030 0.00000000
v 0.14713882 1.43196030 0.90633262
v 0.14713882 1.43196030 0.00000000
v 0.15139198 1.42770729 0.90633262
v 0.15139198 1.42770729 0.00000000
v 0.15139244 1.39414787 0.90633262
v 0.15139244 1.39414787 0.00000000
v 0.07314217 1.42770729 0.00000000
v 0.07314240 1.39414787 0.00000000
v 0.06725487 1.39414787 0.00000000
v 0.06725487 1.43276878 0.00000000
v 0.06725487 1.39414787 0.90633262
v 0.06725487 1.39414787 0.00000000
v 0.07314240 1.39414787 0.90633262
v 0.07314240 1.39414787 0.00000000
v 0.07150795 1.43702187 0.00000000
v 0.15302689 1.43702187 0.00000000
v 0.14713882 1.43196030 0.00000000
v 0.07739525 1.43196030 0.00000000
v 0.15139244 1.39414787 0.00000000
v 0.15139198 1.42770729 0.00000000
v 0.15727997 1.39414787 0.00000000
v 0.15727997 1.43276878 0.00000000
v 0.15139244 1.39414787 0.90633262
v 0.15139244 1.39414787 0.00000000
v 0.15727997 1.39414787 0.90633262
v 0.15727997 1.39414787 0.00000000
v 0.06725487 1.43276878 0.00000000
v 0.06725487 1.43276878 0.90633262
v 0.07150795 1.43702187 0.90633262
v 0.07150795 1.43702187 0.00000000
v 0.15302689 1.43702187 0.00000000
v 0.15302689 1.43702187 0.90633262
v 0.15727997 1.43276878 0.90633262
v 0.15727997 1.43276878 0.00000000
v 0.07314217 1.42770729 0.90633262
v 0.07739525 1.43196030 0.00000000
v 0.07739525 1.43196030 0.90633262
v 0.07314217 1.42770729 0.00000000
v 0.14713882 1.43196030 0.90633262
v 0.15139198 1.42770729 0.00000000
v 0.15139198 1.42770729 0.90633262
v 0.14713882 1.43196030 0.00000000
v 0.81083767 0.16117764 0.00000003
v 0.81083767 0.16117764 0.90633270
v 0.81083767 0.12255676 0.90633270
v 0.81083767 0.12255676 0.00000003
v 0.80658459 0.11830360 0.00000003
v 0.80658459 0.11830360 0.90633270
v 0.72506565 0.11830368 0.90633270
v 0.72506565 0.11830368 0.00000003
v 0.72081257 0.12255684 0.00000003
v 0.72081257 0.12255684 0.90633270
v 0.72081259 0.16117764 0.90633270
v 0.72081259 0.16117764 0.00000003
v 0.80495022 0.16117764 0.90633270
v 0.80495022 0.16117764 0.00000003
v 0.80495033 0.12761818 0.90633270
v 0.80495033 0.12761818 0.00000003
v 0.80069725 0.12336517 0.90633270
v 0.80069725 0.12336517 0.00000003
v 0.73095364 0.12336525 0.90633270
v 0.73095364 0.12336525 0.00000003
v 0.72670055 0.12761826 0.90633270
v 0.72670055 0.12761826 0.00000003
v 0.72670015 0.16117764 0.90633270
v 0.72670015 0.16117764 0.00000003
v 0.81083767 0.16117764 0.00000003
v 0.81083767 0.12255676 0.00000003
v 0.80495033 0.12761818 0.00000003
v 0.80495022 0.16117764 0.00000003
v 0.81083767 0.16117764 0.90633270
v 0.81083767 0.16117764 0.00000003
v 0.80495022 0.16117764 0.90633270
v 0.80495022 0.16117764 0.00000003
v 0.80658459 0.11830360 0.00000003
v 0.72506565 0.11830368 0.00000003
v 0.73095364 0.12336525 0.00000003
v 0.80069725 0.12336517 0.00000003
v 0.72081257 0.12255684 0.00000003
v 0.72081259 0.16117764 0.00000003
v 0.72670055 0.12761826 0.00000003
v 0.72670015 0.16117764 0.00000003
v 0.72670015 0.16117764 0.90633270
v 0.72670015 0.16117764 0.00000003
v 0.72081259 0.16117764 0.90633270
v 0.72081259 0.16117764 0.00000003
v 0.81083767 0.12255676 0.00000003
v 0.81083767 0.12255676 0.90633270
v 0.80658459 0.11830360 0.90633270
v 0.80658459 0.11830360 0.00000003
v 0.72506565 0.11830368 0.00000003
v 0.72506565 0.11830368 0.90633270
v 0.72081257 0.12255684 0.90633270
v 0.72081257 0.12255684 0.00000003
v 0.80495033 0.12761818 0.90633270
v 0.80069725 0.12336517 0.00000003
v 0.80069725 0.12336517 0.90633270
v 0.80495033 0.12761818 0.00000003
v 0.73095364 0.12336525 0.90633270
v 0.72670055 0.12761826 0.00000003
v 0.72670055 0.12761826 0.90633270
v 0.73095364 0.12336525 0.00000003
v 0.81083790 1.39414768 0.90633270
v 0.81083790 1.39414768 0.00000003
v 0.81083790 1.43276848 0.90633270
v 0.81083790 1.43276848 0.00000003
v 0.80658482 1.43702156 0.90633270
v 0.80658482 1.43702156 0.00000003
v 0.72506588 1.43702164 0.90633270
v 0.72506588 1.43702164 0.00000003
v 0.72081280 1.43276855 0.90633270
v 0.72081280 1.43276855 0.00000003
v 0.72081278 1.39414768 0.90633270
v 0.72081278 1.39414768 0.00000003
v 0.80495056 1.42770714 0.90633270
v 0.80495041 1.39414768 0.00000003
v 0.80495041 1.39414768 0.90633270
v 0.80495056 1.42770714 0.00000003
v 0.73095387 1.43196022 0.90633270
v 0.80069748 1.43196014 0.00000003
v 0.80069748 1.43196014 0.90633270
v 0.73095387 1.43196022 0.00000003
v 0.72670034 1.39414768 0.90633270
v 0.72670078 1.42770721 0.00000003
v 0.72670078 1.42770721 0.90633270
v 0.72670034 1.39414768 0.00000003
v 0.80495041 1.39414768 0.00000003
v 0.80495056 1.42770714 0.00000003
v 0.81083790 1.39414768 0.00000003
v 0.81083790 1.43276848 0.00000003
v 0.81083790 1.39414768 0.00000003
v 0.81083790 1.39414768 0.90633270
v 0.80495041 1.39414768 0.90633270
v 0.80495041 1.39414768 0.00000003
v 0.80658482 1.43702156 0.00000003
v 0.73095387 1.43196022 0.00000003
v 0.72506588 1.43702164 0.00000003
v 0.80069748 1.43196014 0.00000003
v 0.72081278 1.39414768 0.00000003
v 0.72670078 1.42770721 0.00000003
v 0.72670034 1.39414768 0.00000003
v 0.72081280 1.43276855 0.00000003
v 0.72081278 1.39414768 0.90633270
v 0.72670034 1.39414768 0.00000003
v 0.72670034 1.39414768 0.90633270
v 0.72081278 1.39414768 0.00000003
v 0.81083790 1.43276848 0.90633270
v 0.81083790 1.43276848 0.00000003
v 0.80658482 1.43702156 0.90633270
v 0.80658482 1.43702156 0.00000003
v 0.72506588 1.43702164 0.90633270
v 0.72506588 1.43702164 0.00000003
v 0.72081280 1.43276855 0.90633270
v 0.72081280 1.43276855 0.00000003
v 0.80069748 1.43196014 0.90633270
v 0.80069748 1.43196014 0.00000003
v 0.80495056 1.42770714 0.90633270
v 0.80495056 1.42770714 0.00000003
v 0.72670078 1.42770721 0.90633270
v 0.72670078 1.42770721 0.00000003
v 0.73095387 1.43196022 0.90633270
v 0.73095387 1.43196022 0.00000003
v 0.01004185 0.01004211 0.89855544
v 0.00000031 1.51917458 0.89855544
v 0.01004215 1.54528351 0.89855544
v 0.00000000 0.03615105 0.89855544
v 0.84578205 1.55532532 0.89855544
v 0.03615105 1.55532547 0.89855544
v 0.84578205 1.55532532 0.95154342
v 0.03615105 1.55532547 0.95154342
v 0.01004215 1.54528351 0.95154342
v 0.00000031 1.51917458 0.89855544
v 0.00000031 1.51917458 0.95154342
v 0.01004215 1.54528351 0.89855544
v 0.01004185 0.01004211 0.95154342
v 0.01004185 0.01004211 0.89855544
v 0.03615074 0.00000015 0.95154342
v 0.03615074 0.00000015 0.89855544
v 0.87189072 0.01004211 0.95154342
v 0.87189072 0.01004211 0.89855544
v 0.88193260 0.03615097 0.95154342
v 0.88193260 0.03615097 0.89855544
v 0.03615105 1.55532547 0.95154342
v 0.03615074 0.00000015 0.95154342
v 0.84578205 1.55532532 0.95154342
v 0.84578182 0.00000000 0.95154342
v 0.00000000 0.03615105 0.95154342
v 0.00000031 1.51917458 0.95154342
v 0.00000000 0.03615105 0.89855544
v 0.00000000 0.03615105 0.95154342
v 0.01004185 0.01004211 0.95154342
v 0.84578182 0.00000000 0.89855544
v 0.03615074 0.00000015 0.95154342
v 0.84578182 0.00000000 0.95154342
v 0.84578182 0.00000000 0.95154342
v 0.87189072 0.01004211 0.95154342
v 0.88193283 1.51917435 0.89855544
v 0.88193260 0.03615097 0.95154342
v 0.88193283 1.51917435 0.95154342
v 0.88193283 1.51917435 0.95154342
v 0.87189095 1.54528320 0.95154342
v 0.87189095 1.54528320 0.89855544
v 0.87189095 1.54528320 0.95154342
v 0.84578205 1.55532532 0.95154342
v 0.03615105 1.55532547 0.95154342
v 0.01004215 1.54528351 0.95154342
v 0.87189072 0.01004211 0.95154342
v 0.87189095 1.54528320 0.95154342
v 0.88193260 0.03615097 0.95154342
v 0.88193283 1.51917435 0.95154342
v 0.01004215 1.54528351 0.95154342
v 0.01004185 0.01004211 0.95154342
v 0.00000031 1.51917458 0.95154342
v 0.00000000 0.03615105 0.95154342
v 0.84578182 0.00000000 0.89855544
v 0.84578205 1.55532532 0.89855544
v 0.87189072 0.01004211 0.89855544
v 0.87189095 1.54528320 0.89855544
v 0.88193260 0.03615097 0.89855544
v 0.88193283 1.51917435 0.89855544
v 0.03615074 0.00000015 0.89855544
v 0.03615105 1.55532547 0.89855544
v 0.06725471 0.12630692 0.18550397
v 0.06725487 1.42930168 0.18550401
v 0.06725487 1.42930168 0.14688308
v 0.06725471 0.12630692 0.14688302
v 0.07150780 0.12630692 0.14262995
v 0.07150795 1.42930168 0.14263001
v 0.15302673 0.12630692 0.14262995
v 0.15302689 1.42930168 0.14263001
v 0.15727982 0.12630692 0.14688302
v 0.15727997 1.42930168 0.14688308
v 0.15727982 0.12630692 0.18550397
v 0.15727997 1.42930168 0.18550401
v 0.07314201 0.12630692 0.15194450
v 0.07314217 1.42930168 0.15194455
v 0.07314224 0.12630692 0.18550397
v 0.07314240 1.42930168 0.18550401
v 0.14713867 0.12630692 0.14769142
v 0.14713882 1.42930168 0.14769147
v 0.07739525 1.42930168 0.14769147
v 0.07739510 0.12630692 0.14769142
v 0.15139229 0.12630692 0.18550397
v 0.15139244 1.42930168 0.18550401
v 0.15139198 1.42930168 0.15194455
v 0.15139183 0.12630692 0.15194450
v 0.06725487 1.42930168 0.18550401
v 0.07314224 0.12630692 0.18550397
v 0.07314240 1.42930168 0.18550401
v 0.06725471 0.12630692 0.18550397
v 0.15727982 0.12630692 0.18550397
v 0.15727997 1.42930168 0.18550401
v 0.15139244 1.42930168 0.18550401
v 0.15139229 0.12630692 0.18550397
v 0.06725471 0.12630692 0.14688302
v 0.06725487 1.42930168 0.14688308
v 0.07150780 0.12630692 0.14262995
v 0.07150795 1.42930168 0.14263001
v 0.15302673 0.12630692 0.14262995
v 0.15302689 1.42930168 0.14263001
v 0.15727982 0.12630692 0.14688302
v 0.15727997 1.42930168 0.14688308
v 0.07739510 0.12630692 0.14769142
v 0.07739525 1.42930168 0.14769147
v 0.07314217 1.42930168 0.15194455
v 0.07314201 0.12630692 0.15194450
v 0.15139183 0.12630692 0.15194450
v 0.15139198 1.42930168 0.15194455
v 0.14713882 1.42930168 0.14769147
v 0.14713867 0.12630692 0.14769142
v 0.81083767 0.12630684 0.14688302
v 0.81083790 1.42930153 0.14688308
v 0.81083767 0.12630684 0.18550397
v 0.81083790 1.42930153 0.18550401
v 0.80658482 1.42930153 0.14263001
v 0.80658459 0.12630684 0.14262995
v 0.72506565 0.12630692 0.14262995
v 0.72506588 1.42930161 0.14263001
v 0.72081257 0.12630692 0.18550397
v 0.72081280 1.42930161 0.18550401
v 0.72081280 1.42930161 0.14688308
v 0.72081257 0.12630692 0.14688302
v 0.80495022 0.12630684 0.18550397
v 0.80495045 1.42930153 0.18550401
v 0.80495056 1.42930153 0.15194455
v 0.80495033 0.12630684 0.15194448
v 0.73095387 1.42930161 0.14769147
v 0.73095364 0.12630692 0.14769140
v 0.80069748 1.42930153 0.14769147
v 0.80069725 0.12630684 0.14769140
v 0.72670013 0.12630692 0.18550397
v 0.72670078 1.42930161 0.15194455
v 0.72670036 1.42930161 0.18550401
v 0.72670055 0.12630692 0.15194448
v 0.81083767 0.12630684 0.18550397
v 0.81083790 1.42930153 0.18550401
v 0.80495045 1.42930153 0.18550401
v 0.80495022 0.12630684 0.18550397
v 0.72670013 0.12630692 0.18550397
v 0.72670036 1.42930161 0.18550401
v 0.72081280 1.42930161 0.18550401
v 0.72081257 0.12630692 0.18550397
v 0.80658459 0.12630684 0.14262995
v 0.80658482 1.42930153 0.14263001
v 0.81083767 0.12630684 0.14688302
v 0.81083790 1.42930153 0.14688308
v 0.72081257 0.12630692 0.14688302
v 0.72081280 1.42930161 0.14688308
v 0.72506565 0.12630692 0.14262995
v 0.72506588 1.42930161 0.14263001
v 0.80495033 0.12630684 0.15194448
v 0.80495056 1.42930153 0.15194455
v 0.80069748 1.42930153 0.14769147
v 0.80069725 0.12630684 0.14769140
v 0.73095364 0.12630692 0.14769140
v 0.73095387 1.42930161 0.14769147
v 0.72670078 1.42930161 0.15194455
v 0.72670055 0.12630692 0.15194448
v 0.47949093 1.13173397 0.98492431
v 0.53890987 1.15564335 1.19188232
v 0.50079570 1.16996891 1.08075332
v 0.49496135 1.13058910 0.95483993
v 0.48540691 1.13066017 0.96616119
v 0.48032253 1.12985546 0.96259147
v 0.49719173 1.13128841 0.96034942
v 0.61590252 1.12563168 0.95325698
v 0.61590801 1.12598881 0.95657386
v 0.50877971 1.17860401 1.09247619
v 0.50586727 1.17051083 1.08072982
v 0.50388378 1.17810253 1.09247375
v 0.50079570 1.16996891 1.08075332
v 0.50145916 1.17103336 1.06686408
v 0.49617413 1.17046978 1.06691688
v 0.49723903 1.17997189 1.05617530
v 0.49178417 1.17941357 1.05624938
v 0.53515010 1.23510983 1.19711433
v 0.54274593 1.15647480 1.19711410
v 0.54290417 1.23517773 1.20243072
v 0.55038799 1.15770283 1.20243011
v 0.53120815 1.23537777 1.19188247
v 0.50177776 1.20573421 1.09417732
v 0.49738811 1.21467815 1.08350990
v 0.50425900 1.19176357 1.09760124
v 0.49276653 1.21517887 1.06967346
v 0.46117855 1.25413998 0.98549033
v 0.48967815 1.20704525 1.05795303
v 0.47305767 1.13116215 0.98549026
v 0.48930325 1.19338421 1.05282554
v 0.49617413 1.17046978 1.06691688
v 0.49178417 1.17941357 1.05624938
v 0.46163417 1.25551136 0.97473365
v 0.47373012 1.13028477 0.97473373
v 0.48032253 1.12985546 0.96259147
v 0.46798076 1.25762615 0.96259124
v 0.49496135 1.13058910 0.95483993
v 0.48246257 1.25998356 0.95483932
v 0.60054882 1.28275097 0.95325744
v 0.61590252 1.12563168 0.95325698
v 0.63386059 1.25791790 0.95305953
v 0.61522472 1.27967640 0.95317153
v 0.62693996 1.27094318 0.95310195
v 0.64380383 1.15497997 0.95306045
v 0.64054836 1.14001598 0.95309860
v 0.62957836 1.12847706 0.95317573
v 0.62958157 1.12878910 0.95625381
v 0.64054836 1.14001598 0.95309860
v 0.64053951 1.14027447 0.95594962
v 0.62957836 1.12847706 0.95317573
v 0.60062710 1.28230236 0.95657913
v 0.61522472 1.27967640 0.95317153
v 0.60054882 1.28275097 0.95325744
v 0.61529278 1.27927547 0.95624099
v 0.48480495 1.25952847 0.96034988
v 0.48246257 1.25998356 0.95483932
v 0.47313747 1.25768284 0.96616126
v 0.46798076 1.25762615 0.96259124
v 0.46788692 1.25596737 0.97593109
v 0.46163417 1.25551136 0.97473365
v 0.46117855 1.25413998 0.98549033
v 0.46763286 1.25483379 0.98491424
v 0.46763286 1.25483379 0.98491424
v 0.53409589 1.23582386 1.19056037
v 0.50244335 1.21510174 1.08349868
v 0.46763286 1.25483379 0.98491424
v 0.53120815 1.23537777 1.19188247
v 0.53515010 1.23510983 1.19711433
v 0.53409589 1.23582386 1.19056037
v 0.53738506 1.23561596 1.19476791
v 0.54290417 1.23517773 1.20243072
v 0.54455898 1.23568287 1.19963760
v 0.63390759 1.25758373 0.95580047
v 0.64379543 1.15521965 0.95579971
v 0.64380383 1.15497997 0.95306045
v 0.63386059 1.25791790 0.95305953
v 0.50244335 1.21510174 1.08349868
v 0.50666362 1.20616261 1.09418754
v 0.50177776 1.20573421 1.09417732
v 0.49738811 1.21467815 1.08350990
v 0.50425900 1.19176357 1.09760124
v 0.50908397 1.19222210 1.09761657
v 0.52496304 1.44762451 1.38911613
v 0.58151730 1.20000362 1.20488921
v 0.52588619 1.45980438 1.37726432
v 0.52492275 1.45554062 1.38502799
v 0.58639339 1.46564865 1.03251380
v 0.57340374 0.94613628 1.38911643
v 0.58963055 1.45387085 1.02066200
v 0.58815517 1.46164825 1.02475005
v 0.63807125 0.95238262 1.02066230
v 0.63714825 0.94020302 1.03251403
v 0.63811169 0.94446636 1.02475044
v 0.57207088 0.93391590 1.37645500
v 0.57664104 0.93435824 1.37726463
v 0.57487911 0.93835880 1.38502830
v 0.47995891 1.13099140 0.97593124
v 0.47373012 1.13028477 0.97473373
v 0.47949093 1.13173397 0.98492431
v 0.47305767 1.13116215 0.98549026
v 0.54180416 1.15580517 1.19056693
v 0.47949093 1.13173397 0.98492431
v 0.50586727 1.17051083 1.08072982
v 0.53890987 1.15564335 1.19188232
v 0.54180416 1.15580517 1.19056693
v 0.54502789 1.15648891 1.19476821
v 0.54274593 1.15647480 1.19711410
v 0.53890987 1.15564335 1.19188232
v 0.55038799 1.15770283 1.20243011
v 0.55209881 1.15762280 1.19963798
v 0.62693996 1.27094318 0.95310195
v 0.62699062 1.27058697 0.95596725
v 0.49481868 1.19391293 1.05274619
v 0.48930325 1.19338421 1.05282554
v 0.49512280 1.20753086 1.05788665
v 0.48967815 1.20704525 1.05795303
v 0.52492275 1.45554062 1.38502799
v 0.52034482 1.45509964 1.38421836
v 0.52496304 1.44762451 1.38911613
v 0.52038707 1.44718262 1.38830711
v 0.57340374 0.94613628 1.38911643
v 0.56882778 0.94569393 1.38830711
v 0.57030148 0.93791523 1.38421867
v 0.57487911 0.93835880 1.38502830
v 0.49512280 1.20753086 1.05788665
v 0.49481868 1.19391293 1.05274619
v 0.49723903 1.17997189 1.05617530
v 0.50145916 1.17103336 1.06686408
v 0.50908397 1.19222210 1.09761657
v 0.50666362 1.20616261 1.09418754
v 0.54502789 1.15648891 1.19476821
v 0.53738506 1.23561596 1.19476791
v 0.47995891 1.13099140 0.97593124
v 0.46788692 1.25596737 0.97593109
v 0.48540691 1.13066017 0.96616119
v 0.47313747 1.25768284 0.96616126
v 0.49719173 1.13128841 0.96034942
v 0.48480495 1.25952847 0.96034988
v 0.60062710 1.28230236 0.95657913
v 0.61590801 1.12598881 0.95657386
v 0.63390759 1.25758373 0.95580047
v 0.61529278 1.27927547 0.95624099
v 0.62699062 1.27058697 0.95596725
v 0.64379543 1.15521965 0.95579971
v 0.64053951 1.14027447 0.95594962
v 0.62958157 1.12878910 0.95625381
v 0.58639339 1.46564865 1.03251380
v 0.58358044 1.46120728 1.02393867
v 0.58182522 1.46520798 1.03170440
v 0.58815517 1.46164825 1.02475005
v 0.52588619 1.45980438 1.37726432
v 0.52131603 1.45936356 1.37645500
v 0.52034482 1.45509964 1.38421836
v 0.52492275 1.45554062 1.38502799
v 0.63258007 0.93976082 1.03170471
v 0.63811169 0.94446636 1.02475044
v 0.63714825 0.94020302 1.03251403
v 0.63353695 0.94402340 1.02393897
v 0.63714825 0.94020302 1.03251403
v 0.57207088 0.93391590 1.37645500
v 0.56971966 0.98986923 1.30125205
v 0.57207088 0.93391590 1.37645500
v 0.57487911 0.93835880 1.38502830
v 0.57030148 0.93791523 1.38421867
v 0.57664104 0.93435824 1.37726463
v 0.69485790 1.05778885 0.95191718
v 0.69511105 1.05809582 0.95179221
v 0.69514706 1.05772278 0.95191718
v 0.69473782 1.05805996 0.95191718
v 0.66828625 1.33580349 0.95179206
v 0.66791286 1.33576740 0.95191703
v 0.80861889 1.06868343 0.95191718
v 0.80858288 1.06905659 0.95179221
v 0.66788586 1.33604733 0.95201080
v 0.66824993 1.33617664 0.95191703
v 0.80888988 1.06880360 0.95191718
v 0.80895611 1.06909264 0.95191718
v 0.78172192 1.34713741 0.95191703
v 0.78175808 1.34676403 0.95179206
v 0.78213131 1.34680012 0.95191703
v 0.78200191 1.34716450 0.95201080
v 0.54455898 1.23568287 1.19963760
v 0.55209881 1.15762280 1.19963798
v 0.58505764 1.45342911 1.01985076
v 0.58815517 1.46164825 1.02475005
v 0.58963055 1.45387085 1.02066200
v 0.58358044 1.46120728 1.02393867
v 0.63349819 0.95194050 1.01985092
v 0.63807125 0.95238262 1.02066230
v 0.63811169 0.94446636 1.02475044
v 0.63353695 0.94402340 1.02393897
v 0.66791302 1.33576748 0.95466705
v 0.66788586 1.33604733 0.95457321
v 0.66778835 1.33575527 0.95429206
v 0.66787685 1.33614063 0.95429206
v 0.66778835 1.33575527 0.95229209
v 0.66787685 1.33614063 0.95229202
v 0.69473782 1.05805996 0.95466720
v 0.69461330 1.05804790 0.95429214
v 0.69486706 1.05769573 0.95457343
v 0.69477383 1.05768658 0.95429221
v 0.69461330 1.05804790 0.95229217
v 0.66788586 1.33604733 0.95201080
v 0.66791286 1.33576740 0.95191703
v 0.69473782 1.05805996 0.95191718
v 0.69477383 1.05768658 0.95229217
v 0.69485790 1.05778885 0.95191718
v 0.78209530 1.34717342 0.95229202
v 0.78225567 1.34681194 0.95229202
v 0.78200191 1.34716450 0.95201080
v 0.78213131 1.34680012 0.95191703
v 0.78225567 1.34681194 0.95429206
v 0.78209530 1.34717342 0.95429206
v 0.78213131 1.34680012 0.95466712
v 0.78200191 1.34716450 0.95457336
v 0.80908047 1.06910465 0.95429221
v 0.80895611 1.06909264 0.95466720
v 0.80908047 1.06910465 0.95229217
v 0.80895611 1.06909264 0.95191718
v 0.80899212 1.06871944 0.95229217
v 0.80888988 1.06880360 0.95191718
v 0.80899212 1.06871944 0.95429214
v 0.80898327 1.06881275 0.95457336
v 0.69511105 1.05809582 0.95479217
v 0.69473782 1.05805996 0.95466720
v 0.69486706 1.05769573 0.95457343
v 0.69514706 1.05772278 0.95466720
v 0.80861889 1.06868343 0.95466705
v 0.80858288 1.06905659 0.95479217
v 0.66828625 1.33580349 0.95479202
v 0.66791302 1.33576748 0.95466705
v 0.66788586 1.33604733 0.95457321
v 0.66824993 1.33617664 0.95466697
v 0.78175808 1.34676403 0.95479202
v 0.80898327 1.06881275 0.95457336
v 0.80895611 1.06909264 0.95466720
v 0.78213131 1.34680012 0.95466712
v 0.78172192 1.34713741 0.95466705
v 0.78200191 1.34716450 0.95457336
v 0.78172192 1.34713741 0.95466705
v 0.78200191 1.34716450 0.95457336
v 0.78171001 1.34726170 0.95429206
v 0.78209530 1.34717342 0.95429206
v 0.66824993 1.33617664 0.95466697
v 0.66823818 1.33630123 0.95429199
v 0.78171001 1.34726170 0.95229202
v 0.78209530 1.34717342 0.95229202
v 0.78200191 1.34716450 0.95201080
v 0.78172192 1.34713741 0.95191703
v 0.66824993 1.33617664 0.95191703
v 0.66823818 1.33630123 0.95229202
v 0.66788586 1.33604733 0.95457321
v 0.66787685 1.33614063 0.95429206
v 0.66787685 1.33614063 0.95229202
v 0.66788586 1.33604733 0.95201080
v 0.69514706 1.05772278 0.95466720
v 0.69486706 1.05769573 0.95457343
v 0.69515911 1.05759830 0.95429214
v 0.69477383 1.05768658 0.95429221
v 0.69477383 1.05768658 0.95229217
v 0.69515911 1.05759830 0.95229217
v 0.80861889 1.06868343 0.95466705
v 0.80863079 1.06855892 0.95429221
v 0.69485790 1.05778885 0.95191718
v 0.69514706 1.05772278 0.95191718
v 0.80898327 1.06881275 0.95457336
v 0.80899212 1.06871944 0.95429214
v 0.80863079 1.06855892 0.95229217
v 0.80861889 1.06868343 0.95191718
v 0.80899212 1.06871944 0.95229217
v 0.80888988 1.06880360 0.95191718
v 0.52131603 1.45936356 1.37645500
v 0.52971798 1.40399456 1.30125175
v 0.52038707 1.44718262 1.38830711
v 0.52034482 1.45509964 1.38421836
v 0.58182522 1.46520798 1.03170440
v 0.56444073 1.40734852 1.10341140
v 0.58505764 1.45342911 1.01985076
v 0.58358044 1.46120728 1.02393867
v 0.63349819 0.95194050 1.01985092
v 0.60444256 0.99322323 1.10341155
v 0.63258007 0.93976082 1.03170471
v 0.63353695 0.94402340 1.02393897
v 0.56882778 0.94569393 1.38830711
v 0.57030148 0.93791523 1.38421867
v 0.49803508 1.21562405 1.06963302
v 0.49276653 1.21517887 1.06967346
v 0.49803508 1.21562405 1.06963302
v 0.50388378 1.17810253 1.09247375
v 0.50877971 1.17860401 1.09247619
v 0.77405331 1.39682953 0.95506660
v 0.75575268 1.39893417 0.96195739
v 0.75620098 1.38892647 0.95942504
v 0.77222530 1.40254425 0.95720344
v 0.68336224 1.43742416 0.95865455
v 0.68325695 1.42975433 0.95209266
v 0.67092098 1.43012077 0.95508552
v 0.67293560 1.42764229 0.95351730
v 0.67287579 1.42156960 0.95194885
v 0.66568996 1.42198990 0.95414947
v 0.66568996 1.42198990 0.95414947
v 0.67092098 1.43012077 0.95508552
v 0.67293560 1.42764229 0.95351730
v 0.69949627 1.44027344 0.96083129
v 0.70020306 1.43316574 0.95186523
v 0.72645214 1.44298233 0.96164504
v 0.72715328 1.43612152 0.95192878
v 0.75148983 1.43757309 0.95195495
v 0.75027798 1.44419357 0.95941070
v 0.76991238 1.44041084 0.95492942
v 0.76812801 1.43555351 0.95279418
v 0.76991238 1.44041084 0.95492942
v 0.77623287 1.43378769 0.95414787
v 0.76812801 1.43555351 0.95279418
v 0.77072292 1.41850189 0.95162452
v 0.77623287 1.43378769 0.95414787
v 0.77954388 1.42032585 0.95414550
v 0.75402615 1.41666534 0.95003677
v 0.70249355 1.41116272 0.94989555
v 0.72951580 1.41404541 0.94980041
v 0.77179485 1.40049767 0.95303405
v 0.77960262 1.40653313 0.95414764
v 0.75601421 1.39436707 0.95259162
v 0.77179485 1.40049767 0.95303405
v 0.77960262 1.40653313 0.95414764
v 0.77405331 1.39682953 0.95506660
v 0.77405331 1.39682953 0.95506660
v 0.75620098 1.38892647 0.95942504
v 0.73259411 1.38538918 0.96164512
v 0.73198284 1.39084686 0.95265449
v 0.70562298 1.38282372 0.96083038
v 0.70501842 1.38814667 0.95256683
v 0.68797298 1.38771973 0.95276763
v 0.68836086 1.38241058 0.95837837
v 0.68500149 1.40930771 0.95021148
v 0.67399593 1.40729218 0.95166236
v 0.66642849 1.40726067 0.95414947
v 0.67675259 1.39036575 0.95309295
v 0.67096661 1.39004868 0.95430068
v 0.67647366 1.38541740 0.95516204
v 0.67096661 1.39004868 0.95430068
v 0.67647366 1.38541740 0.95516204
v 0.67591091 1.39226547 0.95724815
v 0.77110439 1.41865372 0.95809577
v 0.77960262 1.40653313 0.95414764
v 0.77954388 1.42032585 0.95414550
v 0.73149273 1.39577591 0.96436469
v 0.73259411 1.38538918 0.96164512
v 0.70441051 1.39302147 0.96350700
v 0.70562298 1.38282372 0.96083038
v 0.68836086 1.38241058 0.95837837
v 0.68718746 1.39194489 0.96106307
v 0.72953976 1.41421982 0.96590522
v 0.70237026 1.41132301 0.96480827
v 0.68474453 1.40944153 0.96199462
v 0.66642849 1.40726067 0.95414947
v 0.67351971 1.40824463 0.95815078
v 0.67247814 1.42441422 0.95724685
v 0.66568996 1.42198990 0.95414947
v 0.68342434 1.42721375 0.96106346
v 0.67092098 1.43012077 0.95508552
v 0.68336224 1.43742416 0.95865455
v 0.70049206 1.42976410 0.96350799
v 0.69949627 1.44027344 0.96083129
v 0.72756008 1.43264328 0.96436431
v 0.72645214 1.44298233 0.96164504
v 0.75027798 1.44419357 0.95941070
v 0.75195156 1.43457184 0.96195648
v 0.75419765 1.41684990 0.96299796
v 0.76880260 1.43461098 0.95720428
v 0.77623287 1.43378769 0.95414787
v 0.76991238 1.44041084 0.95492942
v 0.67096661 1.39004868 0.95430068
v 0.67675259 1.39036575 0.95309295
v 0.67647366 1.38541740 0.95516204
v 0.35257275 0.76641992 1.43656059
v 0.75661480 0.78940916 1.43656059
v 0.35257259 0.76641931 1.20142783
v 0.75661495 0.78940915 1.20142783
v 0.77488400 0.46832962 1.20142783
v 0.37084224 0.44534004 1.20142783
v 0.75661495 0.78940915 1.20142783
v 0.35257259 0.76641931 1.20142783
v 0.37084224 0.44534004 1.43656059
v 0.75661480 0.78940916 1.43656059
v 0.35257275 0.76641992 1.43656059
v 0.77488400 0.46832962 1.43656059
v 0.77488400 0.46832962 1.43656059
v 0.75661495 0.78940915 1.20142783
v 0.75661480 0.78940916 1.43656059
v 0.77488400 0.46832962 1.20142783
v 0.37084224 0.44534004 1.43656059
v 0.37084224 0.44534004 1.20142783
v 0.77488400 0.46832962 1.43656059
v 0.77488400 0.46832962 1.20142783
v 0.35257275 0.76641992 1.43656059
v 0.35257259 0.76641931 1.20142783
v 0.37084224 0.44534004 1.43656059
v 0.37084224 0.44534004 1.20142783
v 0.77128887 0.80240574 1.20323112
v 0.77128872 0.80240576 0.95154075
v 0.33879436 0.77779753 1.20323112
v 0.33879436 0.77779684 0.95154075
v 0.35834988 0.43410755 0.95154075
v 0.33879436 0.77779684 0.95154075
v 0.79084423 0.45871603 0.95154075
v 0.77128872 0.80240576 0.95154075
v 0.33879436 0.77779753 1.20323112
v 0.79084423 0.45871603 1.20323112
v 0.77128887 0.80240574 1.20323112
v 0.35834988 0.43410755 1.20323112
v 0.77128887 0.80240574 1.20323112
v 0.79084423 0.45871603 1.20323112
v 0.79084423 0.45871603 0.95154075
v 0.77128872 0.80240576 0.95154075
v 0.35834988 0.43410755 0.95154075
v 0.79084423 0.45871603 1.20323112
v 0.35834988 0.43410755 1.20323112
v 0.79084423 0.45871603 0.95154075
v 0.33879436 0.77779753 1.20323112
v 0.33879436 0.77779684 0.95154075
v 0.35834988 0.43410755 1.20323112
v 0.35834988 0.43410755 0.95154075
v 0.32874889 0.13787285 0.94926238
v 0.77267605 0.15915962 0.94926246
v 0.32874889 0.13787231 1.06544891
v 0.77267605 0.15915916 1.06544891
v 0.77267605 0.15915962 0.94926246
v 0.32874889 0.13787285 0.94926238
v 0.31570675 0.40987778 0.94926246
v 0.75963360 0.43116562 0.94926246
v 0.75963406 0.43116562 1.06544891
v 0.77267605 0.15915916 1.06544891
v 0.77267605 0.15915962 0.94926246
v 0.75963360 0.43116562 0.94926246
v 0.31570675 0.40987885 1.06544891
v 0.77267605 0.15915916 1.06544891
v 0.75963406 0.43116562 1.06544891
v 0.32874889 0.13787231 1.06544891
v 0.32874889 0.13787231 1.06544891
v 0.31570675 0.40987885 1.06544891
v 0.31570675 0.40987778 0.94926246
v 0.32874889 0.13787285 0.94926238
v 0.31570675 0.40987885 1.06544891
v 0.75963406 0.43116562 1.06544891
v 0.75963360 0.43116562 0.94926246
v 0.31570675 0.40987778 0.94926246
v 0.33296902 0.13185699 1.06616210
v 0.77611950 0.16565147 1.06616210
v 0.33296902 0.13185699 1.18234847
v 0.77611980 0.16565079 1.18234847
v 0.77611950 0.16565147 1.06616210
v 0.33296902 0.13185699 1.06616210
v 0.31226345 0.40338654 1.06616210
v 0.75541424 0.43718147 1.06616210
v 0.75541424 0.43718079 1.18234863
v 0.77611980 0.16565079 1.18234847
v 0.77611950 0.16565147 1.06616210
v 0.75541424 0.43718147 1.06616210
v 0.31226345 0.40338707 1.18234863
v 0.77611980 0.16565079 1.18234847
v 0.75541424 0.43718079 1.18234863
v 0.33296902 0.13185699 1.18234847
v 0.33296902 0.13185699 1.18234847
v 0.31226345 0.40338707 1.18234863
v 0.31226345 0.40338654 1.06616210
v 0.33296902 0.13185699 1.06616210
v 0.75541424 0.43718147 1.06616210
v 0.31226345 0.40338654 1.06616210
v 0.75541424 0.43718079 1.18234863
v 0.31226345 0.40338707 1.18234863
v 0.33296902 0.13185699 1.18267181
v 0.77611950 0.16565147 1.18267181
v 0.33296902 0.13185699 1.29885825
v 0.77611980 0.16565079 1.29885825
v 0.77611950 0.16565147 1.18267181
v 0.33296902 0.13185699 1.18267181
v 0.31226345 0.40338654 1.18267181
v 0.75541424 0.43718147 1.18267181
v 0.75541424 0.43718079 1.29885856
v 0.77611980 0.16565079 1.29885825
v 0.77611950 0.16565147 1.18267181
v 0.75541424 0.43718147 1.18267181
v 0.31226345 0.40338707 1.29885856
v 0.77611980 0.16565079 1.29885825
v 0.75541424 0.43718079 1.29885856
v 0.33296902 0.13185699 1.29885825
v 0.33296902 0.13185699 1.29885825
v 0.31226345 0.40338707 1.29885856
v 0.31226345 0.40338654 1.18267181
v 0.33296902 0.13185699 1.18267181
v 0.75541424 0.43718147 1.18267181
v 0.31226345 0.40338654 1.18267181
v 0.75541424 0.43718079 1.29885856
v 0.31226345 0.40338707 1.29885856
vt 0.46499713 0.31952007
vt 0.46499713 0.42776723
vt 0.46384401 0.31952007
vt 0.46384401 0.42776723
vt 0.46337168 0.31952007
vt 0.46337168 0.42776723
vt 0.46093757 0.31952007
vt 0.46093757 0.42776723
vt 0.46046525 0.31952007
vt 0.46046525 0.42776723
vt 0.45931213 0.31952007
vt 0.45931213 0.42776723
vt 0.48869625 0.31908444
vt 0.48769508 0.42723778
vt 0.48769508 0.31908444
vt 0.48869625 0.42723778
vt 0.47371257 0.42756714
vt 0.47580361 0.31886885
vt 0.47580361 0.42756714
vt 0.47371257 0.31886885
vt 0.47307058 0.31984844
vt 0.47206954 0.42798332
vt 0.47206954 0.31984844
vt 0.47307058 0.42798332
vt 0.45141546 0.45265603
vt 0.45140723 0.44803160
vt 0.45159074 0.45204423
vt 0.45158338 0.44802610
vt 0.44535843 0.42808112
vt 0.44535843 0.32053958
vt 0.44582765 0.32053958
vt 0.44582765 0.42808112
vt 0.45381190 0.45248536
vt 0.45154383 0.45316255
vt 0.45171924 0.45255023
vt 0.45398980 0.45308768
vt 0.45410757 0.44793576
vt 0.45411642 0.45257320
vt 0.45393852 0.45197088
vt 0.45393078 0.44794126
vt 0.44503357 0.32062441
vt 0.44456436 0.42816646
vt 0.44456436 0.32062441
vt 0.44503357 0.42816646
vt 0.46384401 0.31952007
vt 0.46384401 0.42776723
vt 0.46337168 0.31952007
vt 0.46337168 0.42776723
vt 0.46093757 0.31952007
vt 0.46093757 0.42776723
vt 0.46046525 0.31952007
vt 0.46046525 0.42776723
vt 0.48916808 0.31908444
vt 0.48916808 0.42723778
vt 0.48869625 0.31908444
vt 0.48869625 0.42723778
vt 0.47206954 0.31984844
vt 0.47206954 0.42798332
vt 0.47159771 0.31984844
vt 0.47159771 0.42798332
vt 0.45894909 0.31941528
vt 0.45894909 0.42766244
vt 0.45779597 0.42766244
vt 0.45779597 0.31941528
vt 0.45732377 0.31941528
vt 0.45732377 0.42766244
vt 0.45488966 0.42766244
vt 0.45488966 0.31941528
vt 0.45441746 0.31941528
vt 0.45441746 0.42766244
vt 0.45326434 0.42766244
vt 0.45326434 0.31941528
vt 0.49782027 0.31807290
vt 0.49782027 0.42680114
vt 0.49681386 0.31807290
vt 0.49681386 0.42680114
vt 0.48458031 0.42736952
vt 0.48458031 0.31940380
vt 0.48665724 0.42736952
vt 0.48665724 0.31940380
vt 0.49544841 0.42686351
vt 0.49544841 0.31813530
vt 0.49645494 0.42686351
vt 0.49645494 0.31813530
vt 0.45392717 0.44381335
vt 0.45394363 0.43979221
vt 0.45412004 0.43980369
vt 0.45410120 0.44443164
vt 0.44632143 0.42811256
vt 0.44632143 0.32060347
vt 0.44679063 0.42811256
vt 0.44679063 0.32060347
vt 0.45397158 0.44493366
vt 0.45152649 0.44477396
vt 0.45170551 0.44417813
vt 0.45379754 0.44431537
vt 0.45159648 0.43963251
vt 0.45158001 0.44365963
vt 0.45141982 0.43962103
vt 0.45140086 0.44425546
vt 0.49978368 0.42694585
vt 0.49978368 0.31943672
vt 0.50025276 0.42691042
vt 0.50025276 0.31940082
vt 0.45779597 0.31941528
vt 0.45779597 0.42766244
vt 0.45732377 0.42766244
vt 0.45732377 0.31941528
vt 0.45488966 0.31941528
vt 0.45488966 0.42766244
vt 0.45441746 0.42766244
vt 0.45441746 0.31941528
vt 0.48410923 0.42736952
vt 0.48458031 0.31940380
vt 0.48458031 0.42736952
vt 0.48410923 0.31940380
vt 0.48665724 0.42736952
vt 0.48712832 0.31940380
vt 0.48712832 0.42736952
vt 0.48665724 0.31940380
vt 0.44724112 0.42784510
vt 0.44724112 0.31959841
vt 0.44839424 0.31959841
vt 0.44839424 0.42784510
vt 0.44886657 0.42784510
vt 0.44886657 0.31959841
vt 0.45130056 0.31959841
vt 0.45130056 0.42784510
vt 0.45177276 0.42784510
vt 0.45177276 0.31959841
vt 0.45292588 0.31959841
vt 0.45292588 0.42784510
vt 0.49244055 0.42696881
vt 0.49244055 0.31824057
vt 0.49344695 0.42696881
vt 0.49344695 0.31824057
vt 0.48088442 0.42715745
vt 0.48088442 0.31920020
vt 0.48296122 0.42715745
vt 0.48296122 0.31920020
vt 0.48949144 0.42707711
vt 0.48949144 0.31854699
vt 0.49049598 0.42707711
vt 0.49049598 0.31854699
vt 0.44684777 0.44479243
vt 0.44684628 0.44015449
vt 0.44702318 0.44076130
vt 0.44702455 0.44479142
vt 0.50191114 0.31921965
vt 0.50191114 0.42672827
vt 0.50144193 0.31925511
vt 0.50144193 0.42676420
vt 0.44697378 0.43964349
vt 0.44941812 0.43962954
vt 0.44924171 0.44023784
vt 0.44715055 0.44024982
vt 0.44954574 0.44013903
vt 0.44954749 0.44476947
vt 0.44936946 0.44074735
vt 0.44937096 0.44477096
vt 0.50109698 0.31930698
vt 0.50109698 0.42681661
vt 0.50062778 0.31934291
vt 0.50062778 0.42685203
vt 0.44839424 0.42784510
vt 0.44839424 0.31959841
vt 0.44886657 0.31959841
vt 0.44886657 0.42784510
vt 0.45130056 0.42784510
vt 0.45130056 0.31959841
vt 0.45177276 0.31959841
vt 0.45177276 0.42784510
vt 0.48041321 0.42715745
vt 0.48088442 0.31920020
vt 0.48088442 0.42715745
vt 0.48041321 0.31920020
vt 0.48296122 0.42715745
vt 0.48343242 0.31920020
vt 0.48343242 0.42715745
vt 0.48296122 0.31920020
vt 0.46525749 0.42781765
vt 0.46525749 0.31957099
vt 0.46641061 0.42781765
vt 0.46641061 0.31957099
vt 0.46688294 0.42781765
vt 0.46688294 0.31957099
vt 0.46931705 0.42781765
vt 0.46931705 0.31957099
vt 0.46978938 0.42781765
vt 0.46978938 0.31957099
vt 0.47094249 0.42781765
vt 0.47094249 0.31957099
vt 0.49400274 0.42686851
vt 0.49500915 0.31814027
vt 0.49500915 0.42686851
vt 0.49400274 0.31814027
vt 0.47926758 0.31934142
vt 0.47719102 0.42728419
vt 0.47719102 0.31934142
vt 0.47926758 0.42728419
vt 0.49204008 0.31827302
vt 0.49103355 0.42700123
vt 0.49103355 0.31827302
vt 0.49204008 0.42700123
vt 0.44938767 0.45387165
vt 0.44935823 0.44984004
vt 0.44956445 0.45385118
vt 0.44953065 0.44921178
vt 0.49852152 0.31918473
vt 0.49852152 0.42672628
vt 0.49805232 0.42677220
vt 0.49805232 0.31923015
vt 0.44939927 0.44871675
vt 0.44713720 0.44958406
vt 0.44695643 0.44899769
vt 0.44922712 0.44934403
vt 0.44686574 0.45414910
vt 0.44701345 0.45010803
vt 0.44704214 0.45412914
vt 0.44683268 0.44952166
vt 0.49892436 0.42689296
vt 0.49939344 0.31930499
vt 0.49939344 0.42684704
vt 0.49892436 0.31935091
vt 0.46641061 0.42781765
vt 0.46641061 0.31957099
vt 0.46688294 0.42781765
vt 0.46688294 0.31957099
vt 0.46931705 0.42781765
vt 0.46931705 0.31957099
vt 0.46978938 0.42781765
vt 0.46978938 0.31957099
vt 0.47719102 0.31934142
vt 0.47719102 0.42728419
vt 0.47671994 0.31934142
vt 0.47671994 0.42728419
vt 0.47973866 0.31934142
vt 0.47973866 0.42728419
vt 0.47926758 0.31934142
vt 0.47926758 0.42728419
vt 0.45081725 0.01704151
vt 0.45178973 0.21463683
vt 0.45121310 0.22114858
vt 0.45136555 0.02255971
vt 0.38348726 0.22395858
vt 0.45017975 0.22397406
vt 0.38229023 0.23405981
vt 0.45126226 0.23445304
vt 0.45313197 0.22711242
vt 0.45178973 0.21463683
vt 0.45368377 0.22178335
vt 0.45121310 0.22114858
vt 0.45194380 0.00720626
vt 0.45081725 0.01704151
vt 0.45102460 0.00430094
vt 0.44980274 0.01424748
vt 0.38015790 0.01109415
vt 0.38207677 0.01705798
vt 0.37960611 0.01642322
vt 0.38150015 0.02356973
vt 0.43998108 0.30622460
vt 0.44003722 0.49264378
vt 0.38238442 0.30650256
vt 0.38244069 0.49292174
vt 0.45327893 0.01661984
vt 0.45371658 0.22178733
vt 0.45136555 0.02255971
vt 0.45327731 0.01498354
vt 0.45268672 0.01050979
vt 0.38311013 0.01423251
vt 0.45099977 0.00414625
vt 0.38202762 0.00375351
vt 0.38174268 0.00370611
vt 0.38080476 0.00712641
vt 0.38192457 0.21564685
vt 0.37957330 0.01641923
vt 0.38001107 0.22158623
vt 0.38001269 0.22322253
vt 0.38060328 0.22769578
vt 0.38247287 0.22116455
vt 0.38134620 0.23099931
vt 0.38226541 0.23390511
vt 0.45154720 0.23450046
vt 0.45248524 0.23108015
vt 0.38122781 0.49170063
vt 0.38116818 0.30873170
vt 0.38004787 0.48856578
vt 0.37993384 0.32583573
vt 0.44119383 0.30744571
vt 0.44125360 0.49041464
vt 0.44237377 0.31058056
vt 0.44248792 0.47331112
vt 0.38311013 0.01423251
vt 0.38348726 0.22395858
vt 0.38207677 0.01705798
vt 0.38247287 0.22116455
vt 0.38150015 0.02356973
vt 0.38192457 0.21564685
vt 0.44980274 0.01424748
vt 0.45017975 0.22397406
vt 0.49542945 0.08376843
vt 0.45654554 0.08376843
vt 0.45654554 0.07915795
vt 0.49542945 0.07915845
vt 0.49543818 0.07644426
vt 0.45655427 0.07644376
vt 0.49543818 0.06671380
vt 0.45655427 0.06671330
vt 0.49544691 0.06399962
vt 0.45656301 0.06399912
vt 0.49544691 0.05938914
vt 0.45656301 0.05938864
vt 0.49552202 0.19970655
vt 0.45644362 0.19970655
vt 0.49552202 0.19568042
vt 0.45644362 0.19568042
vt 0.49526826 0.13185283
vt 0.45651473 0.13185283
vt 0.45651473 0.12355557
vt 0.49526826 0.12355557
vt 0.49535572 0.16631488
vt 0.45627732 0.16631488
vt 0.45627732 0.16228877
vt 0.49535572 0.16228877
vt 0.45637974 0.18363350
vt 0.49496686 0.18632673
vt 0.45638523 0.18632673
vt 0.49496137 0.18363350
vt 0.49530557 0.20473171
vt 0.45672394 0.20473171
vt 0.45671845 0.20203849
vt 0.49530008 0.20203849
vt 0.49542945 0.07915845
vt 0.45654554 0.07915795
vt 0.49543818 0.07644426
vt 0.45655427 0.07644376
vt 0.49543818 0.06671380
vt 0.45655427 0.06671330
vt 0.49544691 0.06399962
vt 0.45656301 0.06399912
vt 0.49526826 0.12355557
vt 0.45651473 0.12355557
vt 0.45652334 0.12085086
vt 0.49527687 0.12085037
vt 0.49525966 0.13455803
vt 0.45650600 0.13455803
vt 0.45651473 0.13185283
vt 0.49526826 0.13185283
vt 0.49538990 0.09201629
vt 0.45650600 0.09201679
vt 0.49538990 0.08740631
vt 0.45650600 0.08740631
vt 0.45651161 0.09473097
vt 0.49539539 0.09473097
vt 0.49539539 0.10446143
vt 0.45651161 0.10446193
vt 0.49540088 0.11178610
vt 0.45651710 0.11178660
vt 0.45651710 0.10717612
vt 0.49540088 0.10717612
vt 0.49542371 0.19305206
vt 0.45634531 0.19305206
vt 0.45634531 0.18902594
vt 0.49542371 0.18902594
vt 0.45651149 0.14632700
vt 0.49526502 0.14632700
vt 0.45651149 0.15462427
vt 0.49526502 0.15462427
vt 0.49552689 0.17645105
vt 0.45644848 0.18047717
vt 0.45644848 0.17645105
vt 0.49552689 0.18047717
vt 0.49503322 0.17273084
vt 0.45645148 0.17273084
vt 0.45646021 0.17003810
vt 0.49504196 0.17003810
vt 0.49727434 0.43941595
vt 0.45869259 0.43941595
vt 0.45870132 0.43672321
vt 0.49728307 0.43672321
vt 0.49539539 0.09473097
vt 0.45651161 0.09473097
vt 0.49538990 0.09201629
vt 0.45650600 0.09201679
vt 0.49540088 0.10717612
vt 0.45651710 0.10717612
vt 0.49539539 0.10446143
vt 0.45651161 0.10446193
vt 0.49527051 0.15732947
vt 0.45651697 0.15732998
vt 0.45651149 0.15462427
vt 0.49526502 0.15462427
vt 0.49526502 0.14632700
vt 0.45651149 0.14632700
vt 0.45650600 0.14362181
vt 0.49525953 0.14362181
vt 0.25753246 0.43821479
vt 0.26198562 0.33114484
vt 0.26661406 0.38653793
vt 0.25688485 0.45978159
vt 0.25712763 0.45072781
vt 0.25705203 0.45155021
vt 0.25700262 0.45712928
vt 0.25280783 0.49066315
vt 0.25289304 0.48875739
vt 0.26795793 0.38329877
vt 0.26661406 0.38773608
vt 0.26795793 0.38214154
vt 0.26661406 0.38653793
vt 0.26674531 0.39565459
vt 0.26674531 0.39439106
vt 0.26894276 0.40185793
vt 0.26894276 0.40055847
vt 0.28153711 0.32898256
vt 0.26209728 0.32898256
vt 0.28138229 0.32773349
vt 0.26220906 0.32775395
vt 0.28169705 0.33114484
vt 0.27510794 0.38049675
vt 0.27730601 0.38665967
vt 0.27138947 0.37902463
vt 0.27743801 0.39452779
vt 0.28795617 0.43628556
vt 0.27609276 0.39892368
vt 0.25754381 0.43628556
vt 0.27266248 0.40200517
vt 0.26674531 0.39439106
vt 0.26894276 0.40055847
vt 0.28827592 0.44274295
vt 0.25731351 0.44274295
vt 0.25705203 0.45155021
vt 0.28864146 0.45155021
vt 0.25688485 0.45978159
vt 0.28887749 0.45978409
vt 0.29166192 0.49062023
vt 0.25280783 0.49066315
vt 0.28478850 0.49841200
vt 0.28962628 0.49582655
vt 0.28705768 0.49773681
vt 0.25933206 0.49841048
vt 0.25708059 0.49772235
vt 0.25315066 0.49305547
vt 0.25322838 0.49125750
vt 0.25708059 0.49772235
vt 0.25713873 0.49612346
vt 0.25315066 0.49305547
vt 0.29155014 0.48871146
vt 0.28962628 0.49582655
vt 0.29166192 0.49062023
vt 0.29112884 0.49120560
vt 0.28871244 0.45712928
vt 0.28887749 0.45978409
vt 0.28853479 0.45072781
vt 0.28864146 0.45155021
vt 0.28823026 0.44359077
vt 0.28827592 0.44274295
vt 0.28795617 0.43628556
vt 0.28795617 0.43821479
vt 0.28795617 0.43821479
vt 0.28173759 0.33260697
vt 0.27727932 0.38787282
vt 0.28795617 0.43821479
vt 0.28169705 0.33114484
vt 0.28153711 0.32898256
vt 0.28173759 0.33260697
vt 0.28160685 0.33088083
vt 0.28138229 0.32773349
vt 0.28146862 0.32980445
vt 0.28470728 0.49684356
vt 0.25939032 0.49684356
vt 0.25933206 0.49841048
vt 0.28478850 0.49841200
vt 0.27727932 0.38787282
vt 0.27510794 0.38165448
vt 0.27510794 0.38049675
vt 0.27730601 0.38665967
vt 0.27138947 0.37902463
vt 0.27138947 0.38017189
vt 0.36696406 0.01030070
vt 0.33958239 0.16374791
vt 0.36513663 0.00317315
vt 0.36631944 0.00544770
vt 0.31347997 0.00341717
vt 0.36699649 0.31642213
vt 0.31165243 0.01072687
vt 0.31229205 0.00600611
vt 0.31165243 0.31713423
vt 0.31347997 0.32444394
vt 0.31229205 0.32191590
vt 0.36513663 0.32395738
vt 0.36513663 0.32395691
vt 0.36633978 0.32145929
vt 0.25733896 0.44359077
vt 0.25731351 0.44274295
vt 0.25753246 0.43821479
vt 0.25754381 0.43628556
vt 0.26195768 0.33260697
vt 0.25753246 0.43821479
vt 0.26661406 0.38773608
vt 0.26198562 0.33114484
vt 0.26195768 0.33260697
vt 0.26204974 0.33088083
vt 0.26209728 0.32898256
vt 0.26198562 0.33114484
vt 0.26220906 0.32775395
vt 0.26215367 0.32982890
vt 0.28705768 0.49773681
vt 0.28697647 0.49613646
vt 0.27265861 0.40334553
vt 0.27266248 0.40200517
vt 0.27609027 0.40021317
vt 0.27609276 0.39892368
vt 0.36845651 0.32133752
vt 0.36778645 0.32133752
vt 0.36845651 0.31615967
vt 0.36776362 0.31584176
vt 0.36845651 0.00975228
vt 0.36778645 0.00975228
vt 0.36778645 0.00451353
vt 0.36845651 0.00451353
vt 0.27609027 0.40021317
vt 0.27265861 0.40334553
vt 0.26894276 0.40185793
vt 0.26674531 0.39565459
vt 0.27138947 0.38017189
vt 0.27510794 0.38165448
vt 0.26204974 0.33088083
vt 0.28160685 0.33088083
vt 0.25733896 0.44359077
vt 0.28823026 0.44359077
vt 0.25712763 0.45072781
vt 0.28853479 0.45072781
vt 0.25700262 0.45712928
vt 0.28871244 0.45712928
vt 0.29155014 0.48871146
vt 0.25289304 0.48875739
vt 0.28470728 0.49684356
vt 0.29112884 0.49120560
vt 0.28697647 0.49613646
vt 0.25939032 0.49684356
vt 0.25713873 0.49612346
vt 0.25322838 0.49125750
vt 0.37131966 0.22076534
vt 0.37064947 0.22600359
vt 0.37062689 0.22043997
vt 0.37131966 0.22600359
vt 0.37131966 0.00780309
vt 0.37062676 0.00817885
vt 0.37064947 0.00402598
vt 0.37131966 0.00402598
vt 0.36965217 0.01007764
vt 0.37034494 0.00451353
vt 0.37036727 0.01008163
vt 0.36967488 0.00451353
vt 0.30827142 0.32667906
vt 0.25480305 0.32618004
vt 0.26620150 0.29179335
vt 0.36965205 0.22238916
vt 0.37034494 0.22649113
vt 0.36967488 0.22649113
vt 0.37034494 0.22271452
vt 0.31055595 0.49992205
vt 0.31061683 0.49974689
vt 0.31061683 0.49998091
vt 0.31055595 0.49974689
vt 0.31061683 0.32554078
vt 0.31055595 0.32554078
vt 0.32840427 0.49998091
vt 0.32840427 0.49974689
vt 0.31055595 0.32541853
vt 0.31061683 0.32529676
vt 0.32840427 0.49992205
vt 0.32846528 0.49974689
vt 0.32840427 0.32529676
vt 0.32840427 0.32554078
vt 0.32846528 0.32554078
vt 0.32840427 0.32529676
vt 0.28145340 0.32980445
vt 0.26215367 0.32982890
vt 0.36873834 0.00811548
vt 0.36943123 0.00402598
vt 0.36945356 0.00813145
vt 0.36876117 0.00402598
vt 0.36873834 0.31389757
vt 0.36943123 0.31421048
vt 0.36943123 0.31804794
vt 0.36876117 0.31804794
vt 0.31003821 0.49869793
vt 0.31003821 0.49886911
vt 0.30997720 0.49869793
vt 0.30997720 0.49892648
vt 0.30967268 0.49869793
vt 0.30967268 0.49892648
vt 0.31003821 0.32785526
vt 0.30997720 0.32785526
vt 0.31003821 0.32761175
vt 0.30997720 0.32761175
vt 0.30967268 0.32785526
vt 0.30964223 0.49886911
vt 0.30961179 0.49869793
vt 0.30961179 0.32785526
vt 0.30967268 0.32761175
vt 0.30961179 0.32761175
vt 0.32870892 0.32529676
vt 0.32870892 0.32554078
vt 0.32870892 0.32529676
vt 0.32864804 0.32554078
vt 0.32901345 0.32554078
vt 0.32901345 0.32529676
vt 0.32907446 0.32554078
vt 0.32907446 0.32529676
vt 0.32901345 0.49647828
vt 0.32907446 0.49647828
vt 0.32870892 0.49647828
vt 0.32864804 0.49647828
vt 0.32870892 0.49670683
vt 0.32864804 0.49664945
vt 0.32901345 0.49670683
vt 0.32907446 0.49664945
vt 0.29197656 0.32785526
vt 0.29194611 0.32785526
vt 0.29194611 0.32761175
vt 0.29200700 0.32761175
vt 0.30933758 0.32761175
vt 0.30933758 0.32785526
vt 0.29197656 0.49757113
vt 0.29194611 0.49747982
vt 0.29194611 0.49765100
vt 0.29200700 0.49770787
vt 0.30933758 0.49757113
vt 0.30939858 0.32761175
vt 0.30939858 0.32785526
vt 0.30939858 0.49747982
vt 0.30933758 0.49770787
vt 0.30936814 0.49770787
vt 0.31877960 0.47452575
vt 0.31877960 0.47469342
vt 0.31871872 0.47452575
vt 0.31871872 0.47475431
vt 0.31877960 0.40467045
vt 0.31871872 0.40467045
vt 0.31841407 0.47452575
vt 0.31841407 0.47475431
vt 0.31835318 0.47469342
vt 0.31835318 0.47452575
vt 0.31835318 0.40467045
vt 0.31841407 0.40467045
vt 0.31877960 0.40448779
vt 0.31871872 0.40448779
vt 0.31841407 0.40448779
vt 0.31835318 0.40448779
vt 0.31847508 0.39888326
vt 0.31847508 0.39906591
vt 0.31841407 0.39888326
vt 0.31841407 0.39912680
vt 0.31810954 0.39912680
vt 0.31810954 0.39888326
vt 0.31847508 0.32907388
vt 0.31841407 0.32907388
vt 0.31804866 0.39906591
vt 0.31804866 0.39888326
vt 0.31847508 0.32882986
vt 0.31841407 0.32882986
vt 0.31810954 0.32907388
vt 0.31804866 0.32907388
vt 0.31810954 0.32882986
vt 0.31804866 0.32895163
vt 0.25480305 0.00353893
vt 0.26620150 0.03777344
vt 0.25293808 0.01097039
vt 0.25360777 0.00606699
vt 0.30827154 0.00359982
vt 0.29684989 0.03801746
vt 0.31013714 0.01097039
vt 0.30947469 0.00612787
vt 0.31013714 0.31880948
vt 0.29684989 0.29179335
vt 0.30827154 0.32618004
vt 0.30947469 0.32362154
vt 0.25293808 0.31883991
vt 0.25360777 0.32365200
vt 0.27739484 0.39569552
vt 0.27743801 0.39452779
vt 0.27739484 0.39569552
vt 0.26795793 0.38214154
vt 0.26795793 0.38329877
vt 0.32969699 0.35225501
vt 0.33042831 0.36693129
vt 0.32846203 0.36679956
vt 0.33085821 0.35377354
vt 0.32728970 0.42079738
vt 0.32914120 0.42145261
vt 0.32860450 0.43051686
vt 0.32917850 0.42921092
vt 0.33031291 0.42985167
vt 0.32997407 0.43523312
vt 0.33602073 0.43476855
vt 0.33752367 0.43028730
vt 0.33712932 0.42965405
vt 0.32689035 0.40859028
vt 0.32899798 0.40889167
vt 0.32704218 0.38854001
vt 0.32922042 0.38914432
vt 0.32971944 0.37160665
vt 0.32787917 0.37113307
vt 0.32959681 0.35760306
vt 0.33048619 0.35973039
vt 0.33813884 0.35299757
vt 0.33677127 0.34846692
vt 0.33738220 0.35365876
vt 0.33366834 0.35989306
vt 0.33103113 0.35388782
vt 0.33360310 0.35300855
vt 0.33351888 0.37213012
vt 0.33303259 0.40973305
vt 0.33328909 0.39001311
vt 0.33695067 0.36123794
vt 0.33613439 0.35470471
vt 0.33757170 0.37324645
vt 0.33030992 0.35280742
vt 0.33148586 0.34741499
vt 0.32969699 0.35225501
vt 0.33776308 0.35987908
vt 0.33916920 0.37351391
vt 0.33950592 0.39115240
vt 0.33757782 0.39086546
vt 0.33907314 0.41110586
vt 0.33726880 0.41057787
vt 0.33683290 0.42281344
vt 0.33824426 0.42363634
vt 0.33286578 0.42251751
vt 0.33291694 0.43072347
vt 0.33270061 0.43656703
vt 0.33609460 0.43074343
vt 0.33600177 0.43513232
vt 0.33705821 0.43176790
vt 0.32983322 0.43247352
vt 0.32885776 0.42846238
vt 0.33022957 0.42803124
vt 0.33392859 0.35387485
vt 0.33148586 0.34741499
vt 0.33413693 0.34669340
vt 0.33015921 0.38541313
vt 0.32811908 0.38506979
vt 0.33001424 0.40592050
vt 0.32799819 0.40574183
vt 0.32815251 0.41910220
vt 0.33005192 0.41904929
vt 0.33365387 0.38591714
vt 0.33348645 0.40637711
vt 0.33336718 0.41983079
vt 0.33318254 0.43504901
vt 0.33328659 0.42880072
vt 0.33636444 0.42890902
vt 0.33602073 0.43476855
vt 0.33672049 0.41998596
vt 0.33752367 0.43028730
vt 0.33871871 0.41988418
vt 0.33697899 0.40689709
vt 0.33904008 0.40727684
vt 0.33714891 0.38638823
vt 0.33919016 0.38660429
vt 0.33909947 0.36826419
vt 0.33717897 0.36785051
vt 0.33381543 0.36721922
vt 0.33699159 0.35460191
vt 0.33677127 0.34846692
vt 0.33813884 0.35299757
vt 0.32983322 0.43247352
vt 0.32965369 0.42880821
vt 0.32885776 0.42846238
vt 0.18724647 0.34729123
vt 0.12986888 0.34729123
vt 0.18724609 0.21394019
vt 0.12986888 0.21394019
vt 0.18974645 0.02000371
vt 0.24712342 0.02000371
vt 0.18974645 0.20239429
vt 0.24712342 0.20239429
vt 0.13018151 0.01961048
vt 0.18755885 0.20916204
vt 0.13018151 0.20916153
vt 0.18755885 0.01961048
vt 0.13116434 0.48678027
vt 0.17731316 0.35065314
vt 0.17752761 0.48687705
vt 0.13138753 0.35063119
vt 0.18956555 0.33972004
vt 0.18956555 0.20636551
vt 0.24694277 0.33972004
vt 0.24694239 0.20636551
vt 0.19764936 0.48220372
vt 0.19764948 0.35378202
vt 0.24059394 0.48220422
vt 0.24156118 0.35378202
vt 0.12986888 0.34729123
vt 0.12986888 0.21394019
vt 0.18724647 0.34729123
vt 0.18724609 0.21394019
vt 0.24712342 0.02000371
vt 0.24712342 0.20239429
vt 0.18974645 0.02000371
vt 0.18974645 0.20239429
vt 0.13018151 0.20916153
vt 0.18755885 0.01961048
vt 0.18755885 0.20916204
vt 0.13018151 0.01961048
vt 0.17752761 0.48687705
vt 0.13116434 0.48678027
vt 0.13138753 0.35063119
vt 0.17731316 0.35065314
vt 0.18956555 0.20636551
vt 0.24694277 0.33972004
vt 0.18956555 0.33972004
vt 0.24694239 0.20636551
vt 0.19764936 0.48220372
vt 0.19764948 0.35378202
vt 0.24059394 0.48220422
vt 0.24156118 0.35378202
vt 0.00251481 0.26261095
vt 0.09484687 0.26261095
vt 0.00251493 0.35917647
vt 0.09484699 0.35917647
vt 0.00167682 0.03239546
vt 0.09400988 0.03239496
vt 0.09401001 0.25869909
vt 0.00167682 0.25869960
vt 0.12143634 0.24166343
vt 0.12144881 0.47040230
vt 0.09673305 0.47019822
vt 0.09672457 0.24183860
vt 0.09425865 0.02162804
vt 0.00138564 0.25095376
vt 0.00138564 0.02162804
vt 0.09425865 0.25095376
vt 0.09769904 0.25100865
vt 0.09770890 0.02226878
vt 0.12242116 0.02244494
vt 0.12241368 0.25080306
vt 0.09484675 0.45687479
vt 0.00251481 0.45687479
vt 0.00251481 0.36030924
vt 0.09484675 0.36030924
vt 0.00251481 0.26261095
vt 0.09484687 0.26261095
vt 0.00251493 0.35917647
vt 0.09484699 0.35917647
vt 0.00167682 0.03239546
vt 0.09400988 0.03239496
vt 0.09401001 0.25869909
vt 0.00167682 0.25869960
vt 0.12143634 0.24166343
vt 0.12144881 0.47040230
vt 0.09673305 0.47019822
vt 0.09672457 0.24183860
vt 0.09425865 0.02162804
vt 0.00138564 0.25095376
vt 0.00138564 0.02162804
vt 0.09425865 0.25095376
vt 0.09769904 0.25100865
vt 0.09770890 0.02226878
vt 0.12242116 0.02244494
vt 0.12241368 0.25080306
vt 0.00251481 0.36030924
vt 0.09484675 0.36030924
vt 0.00251481 0.45687479
vt 0.09484675 0.45687479
vt 0.00251481 0.26261095
vt 0.09484687 0.26261095
vt 0.00251493 0.35917647
vt 0.09484699 0.35917647
vt 0.00167682 0.03239546
vt 0.09400988 0.03239496
vt 0.09401001 0.25869909
vt 0.00167682 0.25869960
vt 0.12143634 0.24166343
vt 0.12144881 0.47040230
vt 0.09673305 0.47019822
vt 0.09672457 0.24183860
vt 0.09425865 0.02162804
vt 0.00138564 0.25095376
vt 0.00138564 0.02162804
vt 0.09425865 0.25095376
vt 0.09769904 0.25100865
vt 0.09770890 0.02226878
vt 0.12242116 0.02244494
vt 0.12241368 0.25080306
vt 0.00251481 0.36030924
vt 0.09484675 0.36030924
vt 0.00251481 0.45687479
vt 0.09484675 0.45687479
f 1/1 2/2 3/3
f 3/3 2/2 4/4
f 5/5 6/6 7/7
f 7/7 6/6 8/8
f 9/9 10/10 11/11
f 11/11 10/10 12/12
f 13/13 14/14 15/15
f 14/14 13/13 16/16
f 17/17 18/18 19/19
f 18/18 17/17 20/20
f 21/21 22/22 23/23
f 22/22 21/21 24/24
f 25/25 26/26 27/27
f 27/27 26/26 28/28
f 29/29 30/30 31/31
f 31/31 32/32 29/29
f 33/33 34/34 35/35
f 36/36 34/34 33/33
f 37/37 38/38 39/39
f 37/37 39/39 40/40
f 41/41 42/42 43/43
f 42/42 41/41 44/44
f 45/45 46/46 47/47
f 47/47 46/46 48/48
f 49/49 50/50 51/51
f 51/51 50/50 52/52
f 53/53 54/54 55/55
f 55/55 54/54 56/56
f 57/57 58/58 59/59
f 59/59 58/58 60/60
f 34/34 27/27 35/35
f 27/27 34/34 25/25
f 39/39 38/38 36/36
f 39/39 36/36 33/33
f 61/61 62/62 63/63
f 63/63 64/64 61/61
f 65/65 66/66 67/67
f 67/67 68/68 65/65
f 69/69 70/70 71/71
f 71/71 72/72 69/69
f 73/73 74/74 75/75
f 75/75 74/74 76/76
f 77/77 78/78 79/79
f 79/79 78/78 80/80
f 81/81 82/82 83/83
f 83/83 82/82 84/84
f 85/85 86/86 87/87
f 87/87 88/88 85/85
f 89/89 90/90 91/91
f 91/91 90/90 92/92
f 93/93 94/94 95/95
f 93/93 95/95 96/96
f 97/97 98/98 99/99
f 99/99 98/98 100/100
f 101/101 102/102 103/103
f 103/103 102/102 104/104
f 105/105 106/106 107/107
f 107/107 108/108 105/105
f 109/109 110/110 111/111
f 111/111 112/112 109/109
f 113/113 114/114 115/115
f 114/114 113/113 116/116
f 117/117 118/118 119/119
f 118/118 117/117 120/120
f 85/85 93/93 96/96
f 93/93 85/85 88/88
f 100/100 98/98 94/94
f 94/94 98/98 95/95
f 121/121 122/122 123/123
f 123/123 124/124 121/121
f 125/125 126/126 127/127
f 127/127 128/128 125/125
f 129/129 130/130 131/131
f 131/131 132/132 129/129
f 133/133 134/134 135/135
f 135/135 134/134 136/136
f 137/137 138/138 139/139
f 139/139 138/138 140/140
f 141/141 142/142 143/143
f 143/143 142/142 144/144
f 145/145 146/146 147/147
f 145/145 147/147 148/148
f 149/149 150/150 151/151
f 151/151 150/150 152/152
f 153/153 154/154 155/155
f 153/153 155/155 156/156
f 157/157 158/158 159/159
f 159/159 158/158 160/160
f 161/161 162/162 163/163
f 163/163 162/162 164/164
f 165/165 166/166 167/167
f 167/167 168/168 165/165
f 169/169 170/170 171/171
f 171/171 172/172 169/169
f 173/173 174/174 175/175
f 174/174 173/173 176/176
f 177/177 178/178 179/179
f 178/178 177/177 180/180
f 147/147 146/146 153/153
f 147/147 153/153 156/156
f 155/155 154/154 159/159
f 159/159 154/154 157/157
f 181/181 182/182 183/183
f 183/183 182/182 184/184
f 185/185 186/186 187/187
f 187/187 186/186 188/188
f 189/189 190/190 191/191
f 191/191 190/190 192/192
f 193/193 194/194 195/195
f 194/194 193/193 196/196
f 197/197 198/198 199/199
f 198/198 197/197 200/200
f 201/201 202/202 203/203
f 202/202 201/201 204/204
f 205/205 206/206 207/207
f 208/208 207/207 206/206
f 209/209 210/210 211/211
f 211/211 212/212 209/209
f 213/213 214/214 215/215
f 214/214 213/213 216/216
f 217/217 218/218 219/219
f 217/217 220/220 218/218
f 221/221 222/222 223/223
f 222/222 221/221 224/224
f 225/225 226/226 227/227
f 227/227 226/226 228/228
f 229/229 230/230 231/231
f 231/231 230/230 232/232
f 233/233 234/234 235/235
f 235/235 234/234 236/236
f 237/237 238/238 239/239
f 239/239 238/238 240/240
f 206/206 213/213 208/208
f 213/213 206/206 216/216
f 215/215 214/214 218/218
f 215/215 218/218 220/220
f 241/241 242/242 243/243
f 242/242 241/241 244/244
f 245/245 246/246 247/247
f 248/248 247/247 246/246
f 249/249 250/250 251/251
f 250/250 249/249 252/252
f 253/253 254/254 255/255
f 255/255 254/254 256/256
f 257/257 258/258 259/259
f 259/259 258/258 260/260
f 261/261 262/262 263/263
f 263/263 262/262 264/264
f 265/265 266/266 250/250
f 265/265 250/250 267/267
f 268/268 267/267 269/269
f 269/269 267/267 254/254
f 256/256 270/270 271/271
f 272/272 271/271 270/270
f 273/273 270/270 274/274
f 274/274 270/270 258/258
f 260/260 275/275 276/276
f 277/277 276/276 275/275
f 278/278 275/275 279/279
f 279/279 275/275 280/280
f 281/281 280/280 282/282
f 282/282 280/280 245/245
f 283/283 246/246 284/284
f 284/284 246/246 252/252
f 263/263 285/285 286/286
f 285/285 263/263 264/264
f 286/286 285/285 287/287
f 286/286 287/287 288/288
f 262/262 261/261 289/289
f 289/289 290/290 262/262
f 290/290 289/289 291/291
f 290/290 291/291 292/292
f 293/293 294/294 295/295
f 295/295 294/294 296/296
f 296/296 297/297 295/295
f 297/297 296/296 298/298
f 294/294 293/293 299/299
f 299/299 300/300 294/294
f 243/243 299/299 241/241
f 300/300 299/299 243/243
f 301/301 302/302 303/303
f 301/301 303/303 304/304
f 305/305 306/306 307/307
f 307/307 306/306 308/308
f 309/309 310/310 311/311
f 312/312 311/311 310/310
f 313/313 314/314 315/315
f 316/316 315/315 314/314
f 317/317 318/318 319/319
f 319/319 320/320 317/317
f 321/321 322/322 323/323
f 321/321 323/323 324/324
f 325/325 326/326 327/327
f 326/326 325/325 328/328
f 329/329 330/330 331/331
f 331/331 332/332 329/329
f 333/333 334/334 335/335
f 335/335 334/334 336/336
f 337/337 338/338 339/339
f 339/339 338/338 340/340
f 341/341 342/342 343/343
f 343/343 344/344 341/341
f 345/345 346/346 347/347
f 347/347 348/348 345/345
f 349/349 350/350 351/351
f 352/352 351/351 350/350
f 353/353 354/354 355/355
f 355/355 356/356 353/353
f 357/357 358/358 359/359
f 357/357 359/359 360/360
f 361/361 362/362 363/363
f 361/361 363/363 364/364
f 365/365 366/366 367/367
f 367/367 366/366 368/368
f 369/369 370/370 371/371
f 370/370 369/369 372/372
f 373/373 374/374 375/375
f 375/375 376/376 373/373
f 377/377 378/378 379/379
f 379/379 380/380 377/377
f 381/381 382/382 383/383
f 383/383 382/382 384/384
f 385/385 386/386 387/387
f 387/387 386/386 388/388
f 389/389 390/390 391/391
f 391/391 392/392 389/389
f 393/393 394/394 395/395
f 395/395 396/396 393/393
f 397/397 398/398 399/399
f 400/400 401/401 402/402
f 403/403 401/401 400/400
f 403/403 404/404 405/405
f 404/404 403/403 400/400
f 406/406 407/407 408/408
f 407/407 409/409 408/408
f 407/407 410/410 409/409
f 410/410 411/411 409/409
f 410/410 412/412 411/411
f 412/412 413/413 411/411
f 414/414 415/415 416/416
f 416/416 415/415 417/417
f 418/418 415/415 414/414
f 415/415 418/418 398/398
f 419/419 418/418 420/420
f 418/418 421/421 398/398
f 421/421 418/418 419/419
f 422/422 423/423 424/424
f 420/420 423/423 422/422
f 423/423 425/425 426/426
f 423/423 426/426 424/424
f 425/425 427/427 428/428
f 426/426 425/425 428/428
f 429/429 430/430 423/423
f 425/425 423/423 430/430
f 429/429 431/431 430/430
f 431/431 429/429 432/432
f 431/431 432/432 433/433
f 433/433 432/432 434/434
f 435/435 433/433 434/434
f 433/433 435/435 436/436
f 436/436 435/435 437/437
f 437/437 435/435 438/438
f 437/437 438/438 439/439
f 440/440 436/436 437/437
f 436/436 440/440 441/441
f 436/436 441/441 442/442
f 443/443 444/444 445/445
f 444/444 443/443 446/446
f 447/447 448/448 449/449
f 448/448 447/447 450/450
f 449/449 451/451 447/447
f 451/451 449/449 452/452
f 453/453 451/451 452/452
f 452/452 454/454 453/453
f 455/455 454/454 456/456
f 454/454 455/455 453/453
f 457/457 455/455 456/456
f 455/455 457/457 458/458
f 459/459 420/420 418/418
f 420/420 459/459 423/423
f 460/460 461/461 462/462
f 463/463 464/464 465/465
f 465/465 464/464 466/466
f 464/464 467/467 466/466
f 466/466 467/467 468/468
f 469/469 470/470 471/471
f 469/469 471/471 472/472
f 473/473 474/474 475/475
f 475/475 476/476 473/473
f 477/477 474/474 478/478
f 474/474 477/477 475/475
f 408/408 477/477 406/406
f 406/406 477/477 478/478
f 479/479 480/480 481/481
f 479/479 481/481 482/482
f 480/480 483/483 481/481
f 484/484 480/480 479/479
f 483/483 480/480 485/485
f 483/483 485/485 486/486
f 480/480 487/487 485/485
f 480/480 488/488 487/487
f 487/487 488/488 489/489
f 480/480 490/490 488/488
f 490/490 480/480 491/491
f 491/491 480/480 484/484
f 491/491 484/484 492/492
f 443/443 404/404 446/446
f 404/404 443/443 405/405
f 401/401 493/493 402/402
f 494/494 402/402 493/493
f 495/495 494/494 493/493
f 494/494 495/495 496/496
f 497/497 498/498 499/499
f 500/500 498/498 497/497
f 501/501 502/502 503/503
f 501/501 503/503 504/504
f 505/505 502/502 506/506
f 502/502 505/505 503/503
f 507/507 450/450 508/508
f 450/450 507/507 448/448
f 472/472 508/508 469/469
f 508/508 472/472 507/507
f 444/444 471/471 445/445
f 470/470 445/445 471/471
f 413/413 509/509 510/510
f 509/509 413/413 412/412
f 509/509 511/511 512/512
f 512/512 510/510 509/509
f 513/513 514/514 515/515
f 514/514 516/516 515/515
f 516/516 517/517 515/515
f 517/517 516/516 518/518
f 519/519 517/517 518/518
f 517/517 519/519 520/520
f 462/462 521/521 522/522
f 523/523 498/498 522/522
f 522/522 498/498 462/462
f 499/499 498/498 524/524
f 524/524 498/498 523/523
f 497/497 525/525 460/460
f 460/460 525/525 526/526
f 461/461 460/460 526/526
f 527/527 460/460 528/528
f 460/460 527/527 497/497
f 462/462 498/498 529/529
f 462/462 529/529 530/530
f 531/531 530/530 529/529
f 530/530 531/531 532/532
f 533/533 534/534 532/532
f 532/532 531/531 533/533
f 533/533 535/535 534/534
f 535/535 536/536 537/537
f 536/536 535/535 533/533
f 538/538 537/537 539/539
f 535/535 537/537 538/538
f 537/537 536/536 540/540
f 541/541 536/536 542/542
f 540/540 536/536 541/541
f 543/543 544/544 545/545
f 544/544 543/543 546/546
f 547/547 543/543 548/548
f 548/548 543/543 545/545
f 549/549 547/547 548/548
f 547/547 549/549 550/550
f 551/551 552/552 553/553
f 552/552 551/551 554/554
f 555/555 556/556 557/557
f 558/558 559/559 560/560
f 559/559 558/558 561/561
f 562/562 563/563 564/564
f 563/563 562/562 565/565
f 566/566 563/563 565/565
f 565/565 567/567 566/566
f 568/568 564/564 563/563
f 568/568 563/563 569/569
f 566/566 567/567 570/570
f 566/566 570/570 571/571
f 568/568 569/569 572/572
f 572/572 569/569 573/573
f 566/566 574/574 575/575
f 574/574 566/566 571/571
f 573/573 575/575 576/576
f 575/575 573/573 569/569
f 575/575 577/577 576/576
f 577/577 575/575 574/574
f 527/527 578/578 579/579
f 578/578 527/527 528/528
f 580/580 581/581 582/582
f 581/581 580/580 583/583
f 584/584 580/580 585/585
f 585/585 580/580 582/582
f 586/586 587/587 584/584
f 586/586 584/584 585/585
f 588/588 589/589 590/590
f 589/589 591/591 590/590
f 591/591 592/592 590/590
f 592/592 591/591 593/593
f 594/594 590/590 595/595
f 590/590 594/594 588/588
f 596/596 594/594 595/595
f 596/596 595/595 597/597
f 590/590 598/598 595/595
f 598/598 590/590 592/592
f 599/599 592/592 593/593
f 592/592 599/599 600/600
f 592/592 601/601 598/598
f 601/601 592/592 600/600
f 595/595 602/602 597/597
f 602/602 595/595 598/598
f 602/602 598/598 603/603
f 598/598 601/601 603/603
f 604/604 605/605 606/606
f 605/605 607/607 606/606
f 608/608 605/605 609/609
f 609/609 605/605 604/604
f 610/610 608/608 611/611
f 611/611 608/608 609/609
f 612/612 610/610 613/613
f 610/610 612/612 608/608
f 614/614 607/607 605/605
f 607/607 614/614 615/615
f 608/608 612/612 614/614
f 608/608 614/614 605/605
f 616/616 617/617 614/614
f 614/614 617/617 615/615
f 618/618 614/614 612/612
f 614/614 618/618 616/616
f 613/613 619/619 612/612
f 619/619 618/618 612/612
f 620/620 621/621 622/622
f 620/620 622/622 623/623
f 620/620 624/624 625/625
f 623/623 624/624 620/620
f 621/621 626/626 627/627
f 626/626 621/621 620/620
f 628/628 626/626 629/629
f 626/626 628/628 627/627
f 630/630 620/620 625/625
f 620/620 630/630 626/626
f 625/625 631/631 632/632
f 631/631 625/625 624/624
f 630/630 632/632 633/633
f 632/632 630/630 625/625
f 626/626 634/634 629/629
f 634/634 626/626 630/630
f 635/635 634/634 630/630
f 630/630 633/633 635/635
f 636/636 637/637 638/638
f 637/637 639/639 638/638
f 640/640 638/638 641/641
f 638/638 640/640 636/636
f 642/642 638/638 639/639
f 639/639 643/643 642/642
f 643/643 644/644 642/642
f 642/642 644/644 645/645
f 642/642 646/646 647/647
f 646/646 642/642 645/645
f 641/641 638/638 642/642
f 641/641 642/642 647/647
f 648/648 640/640 641/641
f 648/648 641/641 649/649
f 650/650 649/649 641/641
f 641/641 647/647 650/650
f 650/650 647/647 651/651
f 647/647 646/646 651/651
f 652/652 653/653 654/654
f 653/653 655/655 654/654
f 655/655 656/656 654/654
f 654/654 656/656 657/657
f 658/658 654/654 659/659
f 654/654 658/658 652/652
f 657/657 656/656 660/660
f 657/657 660/660 661/661
f 662/662 658/658 659/659
f 662/662 659/659 663/663
f 654/654 664/664 659/659
f 664/664 654/654 657/657
f 657/657 665/665 664/664
f 665/665 657/657 661/661
f 659/659 664/664 663/663
f 663/663 664/664 666/666
f 666/666 664/664 667/667
f 664/664 665/665 667/667
f 668/668 669/669 670/670
f 668/668 670/670 671/671
f 668/668 672/672 669/669
f 669/669 672/672 673/673
f 673/673 672/672 674/674
f 674/674 672/672 675/675
f 673/673 676/676 677/677
f 676/676 673/673 674/674
f 677/677 676/676 678/678
f 678/678 676/676 679/679
f 678/678 557/557 677/677
f 669/669 677/677 557/557
f 677/677 669/669 673/673
f 680/680 557/557 556/556
f 680/680 556/556 681/681
f 670/670 557/557 680/680
f 557/557 670/670 669/669
f 682/682 473/473 476/476
f 476/476 683/683 682/682
f 683/683 511/511 682/682
f 511/511 683/683 512/512
f 462/462 461/461 684/684
f 462/462 684/684 521/521
f 685/685 398/398 421/421
f 399/399 398/398 685/685
f 497/497 499/499 686/686
f 497/497 686/686 525/525
f 425/425 399/399 427/427
f 687/687 688/688 689/689
f 688/688 687/687 690/690
f 691/691 692/692 693/693
f 692/692 694/694 693/693
f 692/692 695/695 694/694
f 696/696 694/694 695/695
f 697/697 698/698 699/699
f 691/691 700/700 701/701
f 691/691 701/701 692/692
f 702/702 701/701 700/700
f 701/701 702/702 703/703
f 704/704 703/703 705/705
f 702/702 705/705 703/703
f 704/704 706/706 707/707
f 706/706 704/704 705/705
f 708/708 709/709 710/710
f 711/711 712/712 713/713
f 712/712 711/711 707/707
f 711/711 714/714 707/707
f 714/714 704/704 707/707
f 715/715 701/701 716/716
f 716/716 701/701 703/703
f 716/716 704/704 714/714
f 704/704 716/716 703/703
f 717/717 711/711 718/718
f 718/718 711/711 713/713
f 719/719 714/714 717/717
f 717/717 714/714 711/711
f 720/720 721/721 722/722
f 723/723 724/724 719/719
f 723/723 719/719 717/717
f 724/724 725/725 726/726
f 724/724 726/726 719/719
f 727/727 726/726 725/725
f 726/726 727/727 728/728
f 729/729 728/728 730/730
f 727/727 730/730 728/728
f 728/728 716/716 726/726
f 716/716 728/728 715/715
f 726/726 716/716 719/719
f 719/719 716/716 714/714
f 728/728 729/729 715/715
f 729/729 731/731 715/715
f 731/731 692/692 715/715
f 715/715 692/692 701/701
f 695/695 732/732 733/733
f 733/733 696/696 695/695
f 731/731 695/695 692/692
f 731/731 732/732 695/695
f 731/731 729/729 734/734
f 734/734 732/732 731/731
f 735/735 732/732 734/734
f 732/732 735/735 733/733
f 736/736 729/729 730/730
f 729/729 736/736 734/734
f 737/737 738/738 739/739
f 740/740 741/741 742/742
f 740/740 690/690 741/741
f 743/743 689/689 688/688
f 689/689 743/743 744/744
f 743/743 745/745 746/746
f 743/743 746/746 744/744
f 747/747 745/745 748/748
f 745/745 747/747 746/746
f 749/749 750/750 745/745
f 749/749 745/745 743/743
f 750/750 751/751 748/748
f 750/750 748/748 745/745
f 748/748 739/739 738/738
f 748/748 738/738 747/747
f 752/752 737/737 739/739
f 752/752 739/739 753/753
f 753/753 739/739 751/751
f 739/739 748/748 751/751
f 753/753 754/754 755/755
f 755/755 752/752 753/753
f 756/756 754/754 751/751
f 754/754 753/753 751/751
f 757/757 756/756 758/758
f 756/756 757/757 754/754
f 756/756 750/750 759/759
f 750/750 756/756 751/751
f 758/758 759/759 760/760
f 759/759 758/758 756/756
f 759/759 761/761 760/760
f 762/762 760/760 761/761
f 763/763 762/762 761/761
f 763/763 761/761 764/764
f 750/750 749/749 759/759
f 761/761 759/759 749/749
f 764/764 761/761 749/749
f 764/764 749/749 765/765
f 749/749 688/688 765/765
f 688/688 749/749 743/743
f 765/765 690/690 740/740
f 690/690 765/765 688/688
f 766/766 740/740 767/767
f 740/740 742/742 767/767
f 766/766 764/764 765/765
f 766/766 765/765 740/740
f 768/768 763/763 764/764
f 768/768 764/764 766/766
f 741/741 690/690 687/687
f 768/768 766/766 767/767
f 755/755 754/754 757/757
f 769/769 770/770 771/771
f 772/772 773/773 774/774
f 773/773 775/775 774/774
f 776/776 777/777 778/778
f 777/777 779/779 778/778
f 780/780 781/781 782/782
f 781/781 780/780 783/783
f 784/784 785/785 786/786
f 785/785 784/784 787/787
f 788/788 789/789 790/790
f 790/790 789/789 791/791
f 792/792 793/793 794/794
f 794/794 793/793 795/795
f 796/796 797/797 798/798
f 798/798 797/797 799/799
f 800/800 801/801 802/802
f 802/802 801/801 803/803
f 804/804 805/805 806/806
f 805/805 804/804 807/807
f 808/808 809/809 810/810
f 808/808 810/810 811/811
f 812/812 813/813 814/814
f 813/813 812/812 815/815
f 816/816 817/817 818/818
f 818/818 817/817 819/819
f 820/820 821/821 822/822
f 823/823 822/822 821/821
f 824/824 825/825 826/826
f 824/824 826/826 827/827
f 828/828 829/829 830/830
f 828/828 830/830 831/831
f 832/832 833/833 834/834
f 833/833 832/832 835/835
f 836/836 837/837 838/838
f 836/836 838/838 839/839
f 840/840 841/841 842/842
f 840/840 842/842 843/843
f 844/844 845/845 846/846
f 847/847 846/846 845/845
f 848/848 849/849 850/850
f 848/848 850/850 851/851
f 852/852 853/853 854/854
f 852/852 854/854 855/855
f 856/856 857/857 858/858
f 857/857 856/856 859/859
f 860/860 861/861 862/862
f 860/860 862/862 863/863
f 864/864 865/865 866/866
f 867/867 866/866 865/865
f 868/868 869/869 870/870
f 871/871 870/870 869/869
f 872/872 873/873 874/874
f 872/872 874/874 875/875
f 876/876 877/877 878/878
f 876/876 878/878 879/879
f 880/880 881/881 882/882
f 881/881 880/880 883/883
f 884/884 885/885 886/886
f 884/884 886/886 887/887
f 888/888 889/889 890/890
f 891/891 890/890 889/889

