# https://github.com/mikedh/trimesh
mtllib material.mtl
usemtl material_0
v 0.05504181 0.00005440 0.00000000
v 0.00008331 0.00005432 0.00000000
v 0.00008331 0.03099968 0.00000000
v 0.05504181 0.03099972 0.00000000
v 0.00000000 0.00000000 0.11325655
v 0.00000015 0.03105400 0.11325655
v 0.00008331 0.03099968 0.00000000
v 0.00008331 0.00005432 0.00000000
v 0.05512512 0.00000004 0.11325655
v 0.00000000 0.00000000 0.11325655
v 0.00008331 0.00005432 0.00000000
v 0.05504181 0.00005440 0.00000000
v 0.05512497 0.03105404 0.11325655
v 0.05512512 0.00000004 0.11325655
v 0.05504181 0.00005440 0.00000000
v 0.05504181 0.03099972 0.00000000
v 0.00000015 0.03105400 0.11325655
v 0.05512497 0.03105404 0.11325655
v 0.05504181 0.03099972 0.00000000
v 0.00008331 0.03099968 0.00000000
v 0.00499786 0.00265823 0.11428630
v 0.00499786 0.02839581 0.11428630
v 0.00000015 0.03105400 0.11325655
v 0.00000000 0.00000000 0.11325655
v 0.05012726 0.00265823 0.11428629
v 0.00499786 0.00265823 0.11428630
v 0.00000000 0.00000000 0.11325655
v 0.05512512 0.00000004 0.11325655
v 0.05012726 0.02839584 0.11428630
v 0.05012726 0.00265823 0.11428629
v 0.05512512 0.00000004 0.11325655
v 0.05512497 0.03105404 0.11325655
v 0.00499786 0.02839581 0.11428630
v 0.05012726 0.02839584 0.11428630
v 0.05512497 0.03105404 0.11325655
v 0.00000015 0.03105400 0.11325655
v 0.00522125 0.00277676 2.61290519
v 0.00522125 0.02827724 2.61290519
v 0.00499786 0.02839581 0.11428630
v 0.00499786 0.00265823 0.11428630
v 0.04990509 0.00277676 2.61290519
v 0.00522125 0.00277676 2.61290519
v 0.00499786 0.00265823 0.11428630
v 0.05012726 0.00265823 0.11428629
v 0.04990509 0.02827724 2.61290519
v 0.04990509 0.00277676 2.61290519
v 0.05012726 0.00265823 0.11428629
v 0.05012726 0.02839584 0.11428630
v 0.00522125 0.02827724 2.61290519
v 0.04990509 0.02827724 2.61290519
v 0.05012726 0.02839584 0.11428630
v 0.00499786 0.02839581 0.11428630
v 0.00522125 0.02827724 2.61290519
v 0.00522125 0.00277676 2.61290519
v 0.04990509 0.00277676 2.61290519
v 0.04990509 0.02827724 2.61290519
v 3.91710327 0.84140430 0.00000000
v 3.86214478 0.84140427 0.00000000
v 3.86214478 0.87234959 0.00000000
v 3.91710327 0.87234966 0.00000000
v 3.86206131 0.84134987 0.11325655
v 3.86206161 0.87240398 0.11325655
v 3.86214478 0.87234959 0.00000000
v 3.86214478 0.84140427 0.00000000
v 3.91718674 0.84134987 0.11325655
v 3.86206131 0.84134987 0.11325655
v 3.86214478 0.84140427 0.00000000
v 3.91710327 0.84140430 0.00000000
v 3.91718674 0.87240402 0.11325655
v 3.91718674 0.84134987 0.11325655
v 3.91710327 0.84140430 0.00000000
v 3.91710327 0.87234966 0.00000000
v 3.86206161 0.87240398 0.11325655
v 3.91718674 0.87240402 0.11325655
v 3.91710327 0.87234966 0.00000000
v 3.86214478 0.87234959 0.00000000
v 3.86705917 0.84400822 0.11428630
v 3.86705902 0.86974586 0.11428630
v 3.86206161 0.87240398 0.11325655
v 3.86206131 0.84134987 0.11325655
v 3.91218933 0.84400826 0.11428629
v 3.86705917 0.84400822 0.11428630
v 3.86206131 0.84134987 0.11325655
v 3.91718674 0.84134987 0.11325655
v 3.91218918 0.86974590 0.11428630
v 3.91218933 0.84400826 0.11428629
v 3.91718674 0.84134987 0.11325655
v 3.91718674 0.87240402 0.11325655
v 3.86705902 0.86974586 0.11428630
v 3.91218918 0.86974590 0.11428630
v 3.91718674 0.87240402 0.11325655
v 3.86206161 0.87240398 0.11325655
v 3.86728210 0.84412682 2.61290519
v 3.86728210 0.86962738 2.61290519
v 3.86705902 0.86974586 0.11428630
v 3.86705917 0.84400822 0.11428630
v 3.91196579 0.84412685 2.61290519
v 3.86728210 0.84412682 2.61290519
v 3.86705917 0.84400822 0.11428630
v 3.91218933 0.84400826 0.11428629
v 3.91196594 0.86962738 2.61290519
v 3.91196579 0.84412685 2.61290519
v 3.91218933 0.84400826 0.11428629
v 3.91218918 0.86974590 0.11428630
v 3.86728210 0.86962738 2.61290519
v 3.91196594 0.86962738 2.61290519
v 3.91218918 0.86974590 0.11428630
v 3.86705902 0.86974586 0.11428630
v 3.86728210 0.86962738 2.61290519
v 3.86728210 0.84412682 2.61290519
v 3.91196579 0.84412685 2.61290519
v 3.91196594 0.86962738 2.61290519
v 0.05504181 0.84140308 0.00000000
v 0.00008331 0.84140305 0.00000000
v 0.00008331 0.87234837 0.00000000
v 0.05504181 0.87234844 0.00000000
v 0.00000000 0.84134865 0.11325655
v 0.00000015 0.87240276 0.11325655
v 0.00008331 0.87234837 0.00000000
v 0.00008331 0.84140305 0.00000000
v 0.05512512 0.84134865 0.11325655
v 0.00000000 0.84134865 0.11325655
v 0.00008331 0.84140305 0.00000000
v 0.05504181 0.84140308 0.00000000
v 0.05512497 0.87240280 0.11325655
v 0.05512512 0.84134865 0.11325655
v 0.05504181 0.84140308 0.00000000
v 0.05504181 0.87234844 0.00000000
v 0.00000015 0.87240276 0.11325655
v 0.05512497 0.87240280 0.11325655
v 0.05504181 0.87234844 0.00000000
v 0.00008331 0.87234837 0.00000000
v 0.00499786 0.84400700 0.11428630
v 0.00499786 0.86974464 0.11428630
v 0.00000015 0.87240276 0.11325655
v 0.00000000 0.84134865 0.11325655
v 0.05012726 0.84400703 0.11428629
v 0.00499786 0.84400700 0.11428630
v 0.00000000 0.84134865 0.11325655
v 0.05512512 0.84134865 0.11325655
v 0.05012726 0.86974468 0.11428630
v 0.05012726 0.84400703 0.11428629
v 0.05512512 0.84134865 0.11325655
v 0.05512497 0.87240280 0.11325655
v 0.00499786 0.86974464 0.11428630
v 0.05012726 0.86974468 0.11428630
v 0.05512497 0.87240280 0.11325655
v 0.00000015 0.87240276 0.11325655
v 0.00522125 0.84412560 2.61290519
v 0.00522125 0.86962616 2.61290519
v 0.00499786 0.86974464 0.11428630
v 0.00499786 0.84400700 0.11428630
v 0.04990509 0.84412563 2.61290519
v 0.00522125 0.84412560 2.61290519
v 0.00499786 0.84400700 0.11428630
v 0.05012726 0.84400703 0.11428629
v 0.04990509 0.86962616 2.61290519
v 0.04990509 0.84412563 2.61290519
v 0.05012726 0.84400703 0.11428629
v 0.05012726 0.86974468 0.11428630
v 0.00522125 0.86962616 2.61290519
v 0.04990509 0.86962616 2.61290519
v 0.05012726 0.86974468 0.11428630
v 0.00499786 0.86974464 0.11428630
v 0.00522125 0.86962616 2.61290519
v 0.00522125 0.84412560 2.61290519
v 0.04990509 0.84412563 2.61290519
v 0.04990509 0.86962616 2.61290519
v 2.00014079 0.84140369 0.00000000
v 1.94518231 0.84140366 0.00000000
v 1.94518231 0.87234898 0.00000000
v 2.00014079 0.87234905 0.00000000
v 1.94509910 0.84134926 0.11325655
v 1.94509910 0.87240337 0.11325655
v 1.94518231 0.87234898 0.00000000
v 1.94518231 0.84140366 0.00000000
v 2.00022409 0.84134926 0.11325655
v 1.94509910 0.84134926 0.11325655
v 1.94518231 0.84140366 0.00000000
v 2.00014079 0.84140369 0.00000000
v 2.00022409 0.87240341 0.11325655
v 2.00022409 0.84134926 0.11325655
v 2.00014079 0.84140369 0.00000000
v 2.00014079 0.87234905 0.00000000
v 1.94509910 0.87240337 0.11325655
v 2.00022409 0.87240341 0.11325655
v 2.00014079 0.87234905 0.00000000
v 1.94518231 0.87234898 0.00000000
v 1.95009671 0.84400761 0.11428630
v 1.95009671 0.86974525 0.11428630
v 1.94509910 0.87240337 0.11325655
v 1.94509910 0.84134926 0.11325655
v 1.99522658 0.84400764 0.11428629
v 1.95009671 0.84400761 0.11428630
v 1.94509910 0.84134926 0.11325655
v 2.00022409 0.84134926 0.11325655
v 1.99522658 0.86974529 0.11428630
v 1.99522658 0.84400764 0.11428629
v 2.00022409 0.84134926 0.11325655
v 2.00022409 0.87240341 0.11325655
v 1.95009671 0.86974525 0.11428630
v 1.99522658 0.86974529 0.11428630
v 2.00022409 0.87240341 0.11325655
v 1.94509910 0.87240337 0.11325655
v 1.95031988 0.84412621 2.61290519
v 1.95031945 0.86962677 2.61290519
v 1.95009671 0.86974525 0.11428630
v 1.95009671 0.84400761 0.11428630
v 1.99500389 0.84412628 2.61290519
v 1.95031988 0.84412621 2.61290519
v 1.95009671 0.84400761 0.11428630
v 1.99522658 0.84400764 0.11428629
v 1.99500349 0.86962681 2.61290519
v 1.99500389 0.84412628 2.61290519
v 1.99522658 0.84400764 0.11428629
v 1.99522658 0.86974529 0.11428630
v 1.95031945 0.86962677 2.61290519
v 1.99500349 0.86962681 2.61290519
v 1.99522658 0.86974529 0.11428630
v 1.95009671 0.86974525 0.11428630
v 1.95031945 0.86962677 2.61290519
v 1.95031988 0.84412621 2.61290519
v 1.99500389 0.84412628 2.61290519
v 1.99500349 0.86962681 2.61290519
v 2.00014109 0.00005501 0.00000000
v 1.94518262 0.00005493 0.00000000
v 1.94518262 0.03100029 0.00000000
v 2.00014109 0.03100033 0.00000000
v 1.94509941 0.00000061 0.11325655
v 1.94509941 0.03105461 0.11325655
v 1.94518262 0.03100029 0.00000000
v 1.94518262 0.00005493 0.00000000
v 2.00022439 0.00000065 0.11325655
v 1.94509941 0.00000061 0.11325655
v 1.94518262 0.00005493 0.00000000
v 2.00014109 0.00005501 0.00000000
v 2.00022439 0.03105465 0.11325655
v 2.00022439 0.00000065 0.11325655
v 2.00014109 0.00005501 0.00000000
v 2.00014109 0.03100033 0.00000000
v 1.94509941 0.03105461 0.11325655
v 2.00022439 0.03105465 0.11325655
v 2.00014109 0.03100033 0.00000000
v 1.94518262 0.03100029 0.00000000
v 1.95009701 0.00265884 0.11428630
v 1.95009701 0.02839642 0.11428630
v 1.94509941 0.03105461 0.11325655
v 1.94509941 0.00000061 0.11325655
v 1.99522688 0.00265884 0.11428629
v 1.95009701 0.00265884 0.11428630
v 1.94509941 0.00000061 0.11325655
v 2.00022439 0.00000065 0.11325655
v 1.99522688 0.02839645 0.11428630
v 1.99522688 0.00265884 0.11428629
v 2.00022439 0.00000065 0.11325655
v 2.00022439 0.03105465 0.11325655
v 1.95009701 0.02839642 0.11428630
v 1.99522688 0.02839645 0.11428630
v 2.00022439 0.03105465 0.11325655
v 1.94509941 0.03105461 0.11325655
v 1.95032032 0.00277737 2.61290519
v 1.95032018 0.02827789 2.61290519
v 1.95009701 0.02839642 0.11428630
v 1.95009701 0.00265884 0.11428630
v 1.99500439 0.00277737 2.61290519
v 1.95032032 0.00277737 2.61290519
v 1.95009701 0.00265884 0.11428630
v 1.99522688 0.00265884 0.11428629
v 1.99500419 0.02827793 2.61290519
v 1.99500439 0.00277737 2.61290519
v 1.99522688 0.00265884 0.11428629
v 1.99522688 0.02839645 0.11428630
v 1.95032018 0.02827789 2.61290519
v 1.99500419 0.02827793 2.61290519
v 1.99522688 0.02839645 0.11428630
v 1.95009701 0.02839642 0.11428630
v 1.95032018 0.02827789 2.61290519
v 1.95032032 0.00277737 2.61290519
v 1.99500439 0.00277737 2.61290519
v 1.99500419 0.02827793 2.61290519
v 3.91710358 0.00005562 0.00000000
v 3.86214523 0.00005554 0.00000000
v 3.86214523 0.03100090 0.00000000
v 3.91710358 0.03100094 0.00000000
v 3.86206177 0.00000122 0.11325655
v 3.86206177 0.03105522 0.11325655
v 3.86214523 0.03100090 0.00000000
v 3.86214523 0.00005554 0.00000000
v 3.91718689 0.00000126 0.11325655
v 3.86206177 0.00000122 0.11325655
v 3.86214523 0.00005554 0.00000000
v 3.91710358 0.00005562 0.00000000
v 3.91718689 0.03105526 0.11325655
v 3.91718689 0.00000126 0.11325655
v 3.91710358 0.00005562 0.00000000
v 3.91710358 0.03100094 0.00000000
v 3.86206177 0.03105522 0.11325655
v 3.91718689 0.03105526 0.11325655
v 3.91710358 0.03100094 0.00000000
v 3.86214523 0.03100090 0.00000000
v 3.86705948 0.00265945 0.11428630
v 3.86705948 0.02839703 0.11428630
v 3.86206177 0.03105522 0.11325655
v 3.86206177 0.00000122 0.11325655
v 3.91218933 0.00265945 0.11428629
v 3.86705948 0.00265945 0.11428630
v 3.86206177 0.00000122 0.11325655
v 3.91718689 0.00000126 0.11325655
v 3.91218933 0.02839706 0.11428630
v 3.91218933 0.00265945 0.11428629
v 3.91718689 0.00000126 0.11325655
v 3.91718689 0.03105526 0.11325655
v 3.86705948 0.02839703 0.11428630
v 3.91218933 0.02839706 0.11428630
v 3.91718689 0.03105526 0.11325655
v 3.86206177 0.03105522 0.11325655
v 3.86728241 0.00277798 2.61290519
v 3.86728226 0.02827847 2.61290519
v 3.86705948 0.02839703 0.11428630
v 3.86705948 0.00265945 0.11428630
v 3.91196625 0.00277798 2.61290519
v 3.86728241 0.00277798 2.61290519
v 3.86705948 0.00265945 0.11428630
v 3.91218933 0.00265945 0.11428629
v 3.91196609 0.02827847 2.61290519
v 3.91196625 0.00277798 2.61290519
v 3.91218933 0.00265945 0.11428629
v 3.91218933 0.02839706 0.11428630
v 3.86728226 0.02827847 2.61290519
v 3.91196609 0.02827847 2.61290519
v 3.91218933 0.02839706 0.11428630
v 3.86705948 0.02839703 0.11428630
v 3.86728226 0.02827847 2.61290519
v 3.86728241 0.00277798 2.61290519
v 3.91196625 0.00277798 2.61290519
v 3.91196609 0.02827847 2.61290519
v 0.00539413 0.02845051 0.13918107
v 0.00539444 0.84405090 0.70499976
v 0.00539444 0.84405090 0.66317603
v 0.00539413 0.02845039 0.09735737
v 0.04973099 0.02845055 0.13918102
v 0.04973114 0.84405094 0.70499976
v 0.00539444 0.84405090 0.70499976
v 0.00539413 0.02845051 0.13918107
v 0.04973099 0.84405094 0.66317603
v 0.04973114 0.84405094 0.70499976
v 0.04973099 0.02845055 0.13918102
v 0.04973114 0.02845043 0.09735737
v 0.00539413 0.02845039 0.09735737
v 0.00539444 0.84405090 0.66317603
v 0.04973099 0.84405094 0.66317603
v 0.04973114 0.02845043 0.09735737
v 0.00539352 0.84405056 1.95142722
v 0.00539352 0.02783901 1.41259177
v 0.00539368 0.02783901 1.44505515
v 0.00539352 0.84405067 1.99320334
v 0.00539368 0.02783901 1.44505515
v 0.04973068 0.02783905 1.44505500
v 0.04973038 0.84405071 1.99320334
v 0.00539352 0.84405067 1.99320334
v 0.04973068 0.02783905 1.44505500
v 0.04973068 0.02783905 1.41259177
v 0.04973038 0.84405060 1.95142722
v 0.04973038 0.84405071 1.99320334
v 0.04973068 0.02783905 1.41259177
v 0.00539352 0.02783901 1.41259177
v 0.00539352 0.84405056 1.95142722
v 0.04973038 0.84405060 1.95142722
v 0.00539444 0.84405090 0.81319327
v 0.00539444 0.84405090 0.77136939
v 0.00539413 0.02845051 1.30426261
v 0.00539413 0.02845043 1.34608619
v 0.00539444 0.84405090 0.77136939
v 0.04973114 0.84405094 0.77136939
v 0.04973099 0.02845055 1.30426276
v 0.00539413 0.02845051 1.30426261
v 0.04973099 0.02845055 1.30426276
v 0.04973114 0.84405094 0.77136939
v 0.04973099 0.84405094 0.81319327
v 0.04973114 0.02845051 1.34608619
v 0.04973099 0.84405094 0.81319327
v 0.00539444 0.84405090 0.81319327
v 0.00539413 0.02845043 1.34608619
v 0.04973114 0.02845051 1.34608619
v 3.86683731 0.02845264 0.13918107
v 3.86683731 0.84405323 0.70499976
v 3.86683731 0.84405323 0.66317603
v 3.86683731 0.02845253 0.09735739
v 3.91117432 0.02845284 0.13918102
v 3.91117416 0.84405342 0.70499976
v 3.86683731 0.84405323 0.70499976
v 3.86683731 0.02845264 0.13918107
v 3.91117416 0.84405342 0.66317603
v 3.91117416 0.84405342 0.70499976
v 3.91117432 0.02845284 0.13918102
v 3.91117432 0.02845272 0.09735739
v 3.86683731 0.02845253 0.09735739
v 3.86683731 0.84405323 0.66317603
v 3.91117416 0.84405342 0.66317603
v 3.91117432 0.02845272 0.09735739
v 3.86683716 0.84405285 1.95142722
v 3.86683762 0.02784115 1.41259177
v 3.86683762 0.02784115 1.44505515
v 3.86683701 0.84405300 1.99320334
v 3.86683762 0.02784115 1.44505515
v 3.91117447 0.02784130 1.44505500
v 3.91117416 0.84405312 1.99320334
v 3.86683701 0.84405300 1.99320334
v 3.91117447 0.02784130 1.44505500
v 3.91117462 0.02784130 1.41259177
v 3.91117416 0.84405300 1.95142722
v 3.91117416 0.84405312 1.99320334
v 3.91117462 0.02784130 1.41259177
v 3.86683762 0.02784115 1.41259177
v 3.86683716 0.84405285 1.95142722
v 3.91117416 0.84405300 1.95142722
v 3.86683762 0.84405323 0.81319304
v 3.86683762 0.84405323 0.77136939
v 3.86683746 0.02845264 1.30426261
v 3.86683746 0.02845257 1.34608603
v 3.86683762 0.84405323 0.77136939
v 3.91117432 0.84405342 0.77136939
v 3.91117447 0.02845284 1.30426261
v 3.86683746 0.02845264 1.30426261
v 3.91117447 0.02845284 1.30426261
v 3.91117432 0.84405342 0.77136939
v 3.91117432 0.84405342 0.81319304
v 3.91117447 0.02845276 1.34608603
v 3.91117432 0.84405342 0.81319304
v 3.86683762 0.84405323 0.81319304
v 3.86683746 0.02845257 1.34608603
v 3.91117447 0.02845276 1.34608603
v 1.94851276 0.02845249 0.13918107
v 1.94851273 0.84405315 0.70499976
v 1.94851273 0.84405315 0.66317603
v 1.94851276 0.02845242 0.09735739
v 1.99284981 0.02845268 0.13918102
v 1.99284947 0.84405338 0.70499976
v 1.94851273 0.84405315 0.70499976
v 1.94851276 0.02845249 0.13918107
v 1.99284947 0.84405338 0.66317603
v 1.99284947 0.84405338 0.70499976
v 1.99284981 0.02845268 0.13918102
v 1.99284981 0.02845261 0.09735739
v 1.94851276 0.02845242 0.09735739
v 1.94851273 0.84405315 0.66317603
v 1.99284947 0.84405338 0.66317603
v 1.99284981 0.02845261 0.09735739
v 1.94851242 0.84405281 1.95142722
v 1.94851300 0.02784100 1.41259177
v 1.94851300 0.02784100 1.44505515
v 1.94851242 0.84405289 1.99320334
v 1.94851300 0.02784100 1.44505515
v 1.99284985 0.02784126 1.44505500
v 1.99284950 0.84405312 1.99320334
v 1.94851242 0.84405289 1.99320334
v 1.99284985 0.02784126 1.44505500
v 1.99284985 0.02784126 1.41259177
v 1.99284951 0.84405300 1.95142722
v 1.99284950 0.84405312 1.99320334
v 1.99284985 0.02784126 1.41259177
v 1.94851300 0.02784100 1.41259177
v 1.94851242 0.84405281 1.95142722
v 1.99284951 0.84405300 1.95142722
v 1.94851296 0.84405315 0.81319304
v 1.94851296 0.84405315 0.77136939
v 1.94851277 0.02845249 1.30426261
v 1.94851277 0.02845245 1.34608603
v 1.94851296 0.84405315 0.77136939
v 1.99284962 0.84405338 0.77136939
v 1.99284977 0.02845268 1.30426261
v 1.94851277 0.02845249 1.30426261
v 1.99284977 0.02845268 1.30426261
v 1.99284962 0.84405338 0.77136939
v 1.99284962 0.84405338 0.81319304
v 1.99284977 0.02845264 1.34608603
v 1.99284962 0.84405338 0.81319304
v 1.94851296 0.84405315 0.81319304
v 1.94851277 0.02845245 1.34608603
v 1.99284977 0.02845264 1.34608603
v 3.86593399 0.02703007 2.56338675
v 3.86593399 0.02703007 2.59363211
v 3.86593384 0.85409500 2.59363211
v 3.86593384 0.85409500 2.56338675
v 3.91137772 0.02703011 2.56338675
v 3.91137756 0.85409504 2.56338675
v 3.91137756 0.85409504 2.59363211
v 3.91137772 0.02703011 2.59363211
v 3.86593399 0.02703007 2.56338675
v 3.86593384 0.85409500 2.56338675
v 3.91137756 0.85409504 2.56338675
v 3.91137772 0.02703011 2.56338675
v 3.86593384 0.85409500 2.59363211
v 3.86593399 0.02703007 2.59363211
v 3.91137772 0.02703011 2.59363211
v 3.91137756 0.85409504 2.59363211
v 1.94964096 0.02703033 2.56338675
v 1.94964096 0.02703033 2.59363211
v 1.94964066 0.85409531 2.59363211
v 1.94964066 0.85409531 2.56338675
v 1.99508469 0.02703037 2.56338675
v 1.99508438 0.85409534 2.56338675
v 1.99508438 0.85409534 2.59363211
v 1.99508469 0.02703037 2.59363211
v 1.94964096 0.02703033 2.56338675
v 1.94964066 0.85409531 2.56338675
v 1.99508438 0.85409534 2.56338675
v 1.99508469 0.02703037 2.56338675
v 1.94964066 0.85409531 2.59363211
v 1.94964096 0.02703033 2.59363211
v 1.99508469 0.02703037 2.59363211
v 1.99508438 0.85409534 2.59363211
v 0.00385513 0.02703068 2.56338675
v 0.00385513 0.02703068 2.59363211
v 0.00385513 0.85409561 2.59363211
v 0.00385513 0.85409561 2.56338675
v 0.04929886 0.02703072 2.56338675
v 0.04929886 0.85409565 2.56338675
v 0.04929886 0.85409565 2.59363211
v 0.04929886 0.02703072 2.59363211
v 0.00385513 0.02703068 2.56338675
v 0.00385513 0.85409561 2.56338675
v 0.04929886 0.85409565 2.56338675
v 0.04929886 0.02703072 2.56338675
v 0.00385513 0.85409561 2.59363211
v 0.00385513 0.02703068 2.59363211
v 0.04929886 0.02703072 2.59363211
v 0.04929886 0.85409565 2.59363211
v 3.89271973 0.82331738 2.36215644
v 0.03457901 0.82331654 2.36215644
v 0.03457901 0.87954758 2.36215644
v 3.89271957 0.87954834 2.36215644
v 3.89271973 0.82331738 2.42100531
v 3.89271988 0.87954838 2.42100531
v 0.03457901 0.87954754 2.42100531
v 0.03457901 0.82331650 2.42100531
v 0.03457901 0.82331650 2.42100531
v 0.03457901 0.87954754 2.42100531
v 0.03457901 0.87954758 2.36215644
v 0.03457901 0.82331654 2.36215644
v 3.89271973 0.82331738 2.42100531
v 0.03457901 0.82331650 2.42100531
v 0.03457901 0.82331654 2.36215644
v 3.89271973 0.82331738 2.36215644
v 3.89271988 0.87954838 2.42100531
v 3.89271973 0.82331738 2.42100531
v 3.89271973 0.82331738 2.36215644
v 3.89271957 0.87954834 2.36215644
v 0.03457901 0.87954754 2.42100531
v 3.89271988 0.87954838 2.42100531
v 3.89271957 0.87954834 2.36215644
v 0.03457901 0.87954758 2.36215644
v 3.89272141 0.01791256 1.35014640
v 0.03457855 0.01790970 1.35014624
v 0.03457825 0.85086285 1.35014624
v 3.89272095 0.85086563 1.35014640
v 3.89272141 0.01791252 1.40899512
v 3.89272095 0.85086563 1.40899497
v 0.03457825 0.85086285 1.40899497
v 0.03457825 0.01790966 1.40899497
v 0.03457825 0.01790966 1.40899497
v 0.03457825 0.85086285 1.40899497
v 0.03457825 0.85086285 1.35014624
v 0.03457855 0.01790970 1.35014624
v 3.89272141 0.01791252 1.40899512
v 0.03457825 0.01790966 1.40899497
v 0.03457855 0.01790970 1.35014624
v 3.89272141 0.01791256 1.35014640
v 3.89272095 0.85086563 1.40899497
v 3.89272141 0.01791252 1.40899512
v 3.89272141 0.01791256 1.35014640
v 3.89272095 0.85086563 1.35014640
v 0.03457825 0.85086285 1.40899497
v 3.89272095 0.85086563 1.40899497
v 3.89272095 0.85086563 1.35014640
v 0.03457825 0.85086285 1.35014624
v 3.89272141 0.01791256 0.70899138
v 0.03457855 0.01790970 0.70899131
v 0.03457825 0.85086285 0.70899131
v 3.89272095 0.85086563 0.70899138
v 3.89272141 0.01791252 0.76784011
v 3.89272095 0.85086563 0.76784018
v 0.03457825 0.85086285 0.76783995
v 0.03457825 0.01790966 0.76784003
v 0.03457825 0.01790966 0.76784003
v 0.03457825 0.85086285 0.76783995
v 0.03457825 0.85086285 0.70899131
v 0.03457855 0.01790970 0.70899131
v 3.89272141 0.01791252 0.76784011
v 0.03457825 0.01790966 0.76784003
v 0.03457855 0.01790970 0.70899131
v 3.89272141 0.01791256 0.70899138
v 3.89272095 0.85086563 0.76784018
v 3.89272141 0.01791252 0.76784011
v 3.89272141 0.01791256 0.70899138
v 3.89272095 0.85086563 0.70899138
v 0.03457825 0.85086285 0.76783995
v 3.89272095 0.85086563 0.76784018
v 3.89272095 0.85086563 0.70899138
v 0.03457825 0.85086285 0.70899131
v 3.89272141 0.01791252 1.96961768
v 0.03457825 0.01790966 1.96961768
v 0.03457825 0.85086285 1.96961768
v 3.89272095 0.85086571 1.96961768
v 3.89272141 0.01791252 2.02846625
v 3.89272095 0.85086571 2.02846625
v 0.03457825 0.85086288 2.02846625
v 0.03457825 0.01790970 2.02846625
v 0.03457825 0.01790970 2.02846625
v 0.03457825 0.85086288 2.02846625
v 0.03457825 0.85086285 1.96961768
v 0.03457825 0.01790966 1.96961768
v 3.89272141 0.01791252 2.02846625
v 0.03457825 0.01790970 2.02846625
v 0.03457825 0.01790966 1.96961768
v 3.89272141 0.01791252 1.96961768
v 3.89272095 0.85086571 2.02846625
v 3.89272141 0.01791252 2.02846625
v 3.89272141 0.01791252 1.96961768
v 3.89272095 0.85086571 1.96961768
v 0.03457825 0.85086288 2.02846625
v 3.89272095 0.85086571 2.02846625
v 3.89272095 0.85086571 1.96961768
v 0.03457825 0.85086285 1.96961768
v 2.68456070 0.73248852 1.23875769
v 2.68750259 0.18847683 0.76657882
v 2.68456070 0.73248852 0.76657882
v 2.68750259 0.18847652 1.23875769
v 2.04168957 0.18691185 0.76657882
v 2.68456070 0.73248852 0.76657882
v 2.68750259 0.18847683 0.76657882
v 2.03874889 0.73092415 0.76657882
v 2.05297497 0.73095863 1.23875769
v 2.68750259 0.18847652 1.23875769
v 2.68456070 0.73248852 1.23875769
v 2.04169323 0.18691185 1.23875769
v 2.03875500 0.73092415 1.23875769
v 2.04169323 0.18691185 1.23875769
v 2.68750259 0.18847683 0.76657882
v 2.68750259 0.18847652 1.23875769
v 2.04168957 0.18691185 0.76657882
v 2.04169323 0.18691185 1.23875769
v 2.03875500 0.73092415 1.23875769
v 2.03874889 0.73092415 0.76657882
v 2.04168957 0.18691185 0.76657882
v 2.05297497 0.73095863 1.23875769
v 2.03874889 0.73092415 0.76657882
v 2.03875500 0.73092415 1.23875769
v 2.68456070 0.73248852 0.76657882
v 2.68456070 0.73248852 1.23875769
v 0.83322861 0.73248852 2.50462333
v 0.83617050 0.18847683 2.03244452
v 0.83322861 0.73248852 2.03244452
v 0.83617050 0.18847652 2.50462333
v 0.19035751 0.18691185 2.03244452
v 0.83322861 0.73248852 2.03244452
v 0.83617050 0.18847683 2.03244452
v 0.18741684 0.73092415 2.03244452
v 0.20164291 0.73095863 2.50462333
v 0.83617050 0.18847652 2.50462333
v 0.83322861 0.73248852 2.50462333
v 0.19036118 0.18691185 2.50462333
v 0.18742294 0.73092415 2.50462333
v 0.19036118 0.18691185 2.50462333
v 0.83617050 0.18847683 2.03244452
v 0.83617050 0.18847652 2.50462333
v 0.19035751 0.18691185 2.03244452
v 0.19036118 0.18691185 2.50462333
v 0.18742294 0.73092415 2.50462333
v 0.18741684 0.73092415 2.03244452
v 0.19035751 0.18691185 2.03244452
v 0.20164291 0.73095863 2.50462333
v 0.18741684 0.73092415 2.03244452
v 0.18742294 0.73092415 2.50462333
v 0.83322861 0.73248852 2.03244452
v 0.83322861 0.73248852 2.50462333
v 1.93024143 0.73248852 1.88776862
v 1.93318333 0.18847683 1.41558982
v 1.93024143 0.73248852 1.41558982
v 1.93318333 0.18847652 1.88776862
v 1.28737030 0.18691185 1.41558982
v 1.93024143 0.73248852 1.41558982
v 1.93318333 0.18847683 1.41558982
v 1.28442963 0.73092415 1.41558982
v 1.29865570 0.73095863 1.88776862
v 1.93318333 0.18847652 1.88776862
v 1.93024143 0.73248852 1.88776862
v 1.28737396 0.18691185 1.88776862
v 1.28443573 0.73092415 1.88776862
v 1.28737396 0.18691185 1.88776862
v 1.93318333 0.18847683 1.41558982
v 1.93318333 0.18847652 1.88776862
v 1.28737030 0.18691185 1.41558982
v 1.28737396 0.18691185 1.88776862
v 1.28443573 0.73092415 1.88776862
v 1.28442963 0.73092415 1.41558982
v 1.28737030 0.18691185 1.41558982
v 1.29865570 0.73095863 1.88776862
v 1.28442963 0.73092415 1.41558982
v 1.28443573 0.73092415 1.88776862
v 1.93024143 0.73248852 1.41558982
v 1.93024143 0.73248852 1.88776862
v 3.64992340 0.73248852 1.88776862
v 3.65286530 0.18847683 1.41558982
v 3.64992340 0.73248852 1.41558982
v 3.65286530 0.18847652 1.88776862
v 3.00705238 0.18691185 1.41558982
v 3.64992340 0.73248852 1.41558982
v 3.65286530 0.18847683 1.41558982
v 3.00411171 0.73092415 1.41558982
v 3.01833778 0.73095863 1.88776862
v 3.65286530 0.18847652 1.88776862
v 3.64992340 0.73248852 1.88776862
v 3.00705605 0.18691185 1.88776862
v 3.00411781 0.73092415 1.88776862
v 3.00705605 0.18691185 1.88776862
v 3.65286530 0.18847683 1.41558982
v 3.65286530 0.18847652 1.88776862
v 3.00705238 0.18691185 1.41558982
v 3.00705605 0.18691185 1.88776862
v 3.00411781 0.73092415 1.88776862
v 3.00411171 0.73092415 1.41558982
v 3.00705238 0.18691185 1.41558982
v 3.01833778 0.73095863 1.88776862
v 3.00411171 0.73092415 1.41558982
v 3.00411781 0.73092415 1.88776862
v 3.64992340 0.73248852 1.41558982
v 3.64992340 0.73248852 1.88776862
v 0.95343491 0.69005022 0.96807395
v 0.17360092 0.69146738 0.76420790
v 0.17360092 0.69146860 0.96807425
v 0.95343491 0.69005022 0.76420813
v 0.17360092 0.69146738 0.76420790
v 0.95256088 0.21222849 0.76420813
v 0.17273300 0.21364450 0.76420790
v 0.95343491 0.69005022 0.76420813
v 0.17273300 0.21364527 0.96807425
v 0.17360092 0.69146860 0.96807425
v 0.17360092 0.69146738 0.76420790
v 0.17273300 0.21364450 0.76420790
v 0.17273300 0.21364527 0.96807425
v 0.95256088 0.21222757 0.96807410
v 0.17360092 0.69146860 0.96807425
v 0.95343491 0.69005022 0.96807395
v 0.95343491 0.69005022 0.96807395
v 0.95256088 0.21222757 0.96807410
v 0.95256088 0.21222849 0.76420813
v 0.95343491 0.69005022 0.76420813
v 0.17273300 0.21364527 0.96807425
v 0.95256088 0.21222849 0.76420813
v 0.95256088 0.21222757 0.96807410
v 0.17273300 0.21364450 0.76420790
v 1.85103348 0.69005022 0.96807395
v 1.07119949 0.69146738 0.76420790
v 1.07119949 0.69146860 0.96807425
v 1.85103348 0.69005022 0.76420813
v 1.07119949 0.69146738 0.76420790
v 1.85015945 0.21222849 0.76420813
v 1.07033157 0.21364450 0.76420790
v 1.85103348 0.69005022 0.76420813
v 1.07033157 0.21364527 0.96807425
v 1.07119949 0.69146860 0.96807425
v 1.07119949 0.69146738 0.76420790
v 1.07033157 0.21364450 0.76420790
v 1.07033157 0.21364527 0.96807425
v 1.85015945 0.21222757 0.96807410
v 1.07119949 0.69146860 0.96807425
v 1.85103348 0.69005022 0.96807395
v 1.85103348 0.69005022 0.96807395
v 1.85015945 0.21222757 0.96807410
v 1.85015945 0.21222849 0.76420813
v 1.85103348 0.69005022 0.76420813
v 1.07033157 0.21364527 0.96807425
v 1.85015945 0.21222849 0.76420813
v 1.85015945 0.21222757 0.96807410
v 1.07033157 0.21364450 0.76420790
v 0.59329926 0.06149261 1.61149024
v 0.59471649 0.84132664 1.40762427
v 0.59471771 0.84132664 1.61149054
v 0.59329926 0.06149261 1.40762458
v 0.59471649 0.84132664 1.40762427
v 0.11547821 0.06236668 1.40762458
v 0.11689423 0.84219452 1.40762427
v 0.59329926 0.06149261 1.40762458
v 0.11689423 0.84219452 1.61149054
v 0.59471771 0.84132664 1.61149054
v 0.59471649 0.84132664 1.40762427
v 0.11689423 0.84219452 1.40762427
v 0.11689423 0.84219452 1.61149054
v 0.11547699 0.06236668 1.61149054
v 0.59471771 0.84132664 1.61149054
v 0.59329926 0.06149261 1.61149024
v 0.59329926 0.06149261 1.61149024
v 0.11547699 0.06236668 1.61149054
v 0.11547821 0.06236668 1.40762458
v 0.59329926 0.06149261 1.40762458
v 0.11689423 0.84219452 1.61149054
v 0.11547821 0.06236668 1.40762458
v 0.11547699 0.06236668 1.61149054
v 0.11689423 0.84219452 1.40762427
v 2.91258545 0.69005022 1.61476126
v 2.13275146 0.69146742 1.41089515
v 2.13275146 0.69146864 1.61476157
v 2.91258545 0.69005022 1.41089530
v 2.13275146 0.69146742 1.41089515
v 2.91171143 0.21222849 1.41089530
v 2.13188354 0.21364454 1.41089515
v 2.91258545 0.69005022 1.41089530
v 2.13188354 0.21364531 1.61476157
v 2.13275146 0.69146864 1.61476157
v 2.13275146 0.69146742 1.41089515
v 2.13188354 0.21364454 1.41089515
v 2.13188354 0.21364531 1.61476157
v 2.91171143 0.21222757 1.61476126
v 2.13275146 0.69146864 1.61476157
v 2.91258545 0.69005022 1.61476126
v 2.91258545 0.69005022 1.61476126
v 2.91171143 0.21222757 1.61476126
v 2.91171143 0.21222849 1.41089530
v 2.91258545 0.69005022 1.41089530
v 2.13188354 0.21364531 1.61476157
v 2.91171143 0.21222849 1.41089530
v 2.91171143 0.21222757 1.61476126
v 2.13188354 0.21364454 1.41089515
v 2.91258545 0.69005022 1.82095023
v 2.13275146 0.69146746 1.61708426
v 2.13275146 0.69146868 1.82095053
v 2.91258545 0.69005022 1.61708426
v 2.13275146 0.69146746 1.61708426
v 2.91171143 0.21222845 1.61708426
v 2.13188354 0.21364454 1.61708426
v 2.91258545 0.69005022 1.61708426
v 2.13188354 0.21364531 1.82095053
v 2.13275146 0.69146868 1.82095053
v 2.13275146 0.69146746 1.61708426
v 2.13188354 0.21364454 1.61708426
v 2.13188354 0.21364531 1.82095053
v 2.91171143 0.21222754 1.82095023
v 2.13275146 0.69146868 1.82095053
v 2.91258545 0.69005022 1.82095023
v 2.91258545 0.69005022 1.82095023
v 2.91171143 0.21222754 1.82095023
v 2.91171143 0.21222845 1.61708426
v 2.91258545 0.69005022 1.61708426
v 2.91171143 0.21222754 1.82095023
v 2.13188354 0.21364454 1.61708426
v 2.91171143 0.21222845 1.61708426
v 2.13188354 0.21364531 1.82095053
v 2.78709946 0.69005022 2.22704337
v 2.00726548 0.69146742 2.02317725
v 2.00726548 0.69146864 2.22704367
v 2.78709946 0.69005022 2.02317740
v 2.00726548 0.69146742 2.02317725
v 2.78622543 0.21222849 2.02317740
v 2.00639756 0.21364454 2.02317725
v 2.78709946 0.69005022 2.02317740
v 2.00639756 0.21364531 2.22704367
v 2.00726548 0.69146864 2.22704367
v 2.00726548 0.69146742 2.02317725
v 2.00639756 0.21364454 2.02317725
v 2.00639756 0.21364531 2.22704367
v 2.78622543 0.21222757 2.22704337
v 2.00726548 0.69146864 2.22704367
v 2.78709946 0.69005022 2.22704337
v 2.78709946 0.69005022 2.22704337
v 2.78622543 0.21222757 2.22704337
v 2.78622543 0.21222849 2.02317740
v 2.78709946 0.69005022 2.02317740
v 2.00639756 0.21364531 2.22704367
v 2.78622543 0.21222849 2.02317740
v 2.78622543 0.21222757 2.22704337
v 2.00639756 0.21364454 2.02317725
v 3.58123886 0.69005022 2.22704337
v 2.80140488 0.69146742 2.02317725
v 2.80140488 0.69146864 2.22704367
v 3.58123886 0.69005022 2.02317740
v 2.80140488 0.69146742 2.02317725
v 3.58036484 0.21222849 2.02317740
v 2.80053696 0.21364454 2.02317725
v 3.58123886 0.69005022 2.02317740
v 2.80053696 0.21364531 2.22704367
v 2.80140488 0.69146864 2.22704367
v 2.80140488 0.69146742 2.02317725
v 2.80053696 0.21364454 2.02317725
v 2.80053696 0.21364531 2.22704367
v 3.58036484 0.21222757 2.22704337
v 2.80140488 0.69146864 2.22704367
v 3.58123886 0.69005022 2.22704337
v 3.58123886 0.69005022 2.22704337
v 3.58036484 0.21222757 2.22704337
v 3.58036484 0.21222849 2.02317740
v 3.58123886 0.69005022 2.02317740
v 2.80053696 0.21364531 2.22704367
v 3.58036484 0.21222849 2.02317740
v 3.58036484 0.21222757 2.22704337
v 2.80053696 0.21364454 2.02317725
v 3.58123886 0.69005022 2.43323233
v 2.80140488 0.69146746 2.22936637
v 2.80140488 0.69146868 2.43323264
v 3.58123886 0.69005022 2.22936637
v 2.80140488 0.69146746 2.22936637
v 3.58036484 0.21222845 2.22936637
v 2.80053696 0.21364454 2.22936637
v 3.58123886 0.69005022 2.22936637
v 2.80053696 0.21364531 2.43323264
v 2.80140488 0.69146868 2.43323264
v 2.80140488 0.69146746 2.22936637
v 2.80053696 0.21364454 2.22936637
v 2.80053696 0.21364531 2.43323264
v 3.58036484 0.21222754 2.43323233
v 2.80140488 0.69146868 2.43323264
v 3.58123886 0.69005022 2.43323233
v 3.58123886 0.69005022 2.43323233
v 3.58036484 0.21222754 2.43323233
v 3.58036484 0.21222845 2.22936637
v 3.58123886 0.69005022 2.22936637
v 3.58036484 0.21222754 2.43323233
v 2.80053696 0.21364454 2.22936637
v 3.58036484 0.21222845 2.22936637
v 2.80053696 0.21364531 2.43323264
v 3.85810532 0.07745728 0.75422004
v 3.33306625 0.83811401 0.75422004
v 3.85810532 0.83811642 0.75421988
v 3.33306625 0.07745483 0.75422011
v 3.33306625 0.83811401 0.83028609
v 3.85810532 0.07745728 0.83028609
v 3.85810532 0.83811642 0.83028594
v 3.33306625 0.07745483 0.83028617
v 3.85810532 0.07745728 0.83028609
v 3.33306625 0.07745483 0.83028617
v 3.33306625 0.07745483 0.75422011
v 3.85810532 0.07745728 0.75422004
v 3.85810532 0.83811642 0.83028594
v 3.85810532 0.07745728 0.83028609
v 3.85810532 0.07745728 0.75422004
v 3.85810532 0.83811642 0.75421988
v 3.85810532 0.83811642 0.83028594
v 3.33306625 0.83811401 0.75422004
v 3.33306625 0.83811401 0.83028609
v 3.85810532 0.83811642 0.75421988
v 3.33306625 0.83811401 0.83028609
v 3.33306625 0.07745483 0.75422011
v 3.33306625 0.07745483 0.83028617
v 3.33306625 0.83811401 0.75422004
v 3.85810532 0.07745728 0.83171889
v 3.33306625 0.83811401 0.83171897
v 3.85810532 0.83811642 0.83171874
v 3.33306625 0.07745483 0.83171912
v 3.33306625 0.83811401 0.90778518
v 3.85810532 0.07745728 0.90778502
v 3.85810532 0.83811642 0.90778502
v 3.33306625 0.07745483 0.90778518
v 3.85810532 0.07745728 0.90778502
v 3.33306625 0.07745483 0.90778518
v 3.33306625 0.07745483 0.83171912
v 3.85810532 0.07745728 0.83171889
v 3.85810532 0.83811642 0.90778502
v 3.85810532 0.07745728 0.90778502
v 3.85810532 0.07745728 0.83171889
v 3.85810532 0.83811642 0.83171874
v 3.85810532 0.83811642 0.90778502
v 3.33306625 0.83811401 0.83171897
v 3.33306625 0.83811401 0.90778518
v 3.85810532 0.83811642 0.83171874
v 3.33306625 0.83811401 0.90778518
v 3.33306625 0.07745483 0.83171912
v 3.33306625 0.07745483 0.90778518
v 3.33306625 0.83811401 0.83171897
v 1.03269577 0.19566643 2.03147391
v 1.79389992 0.71991177 2.03147391
v 1.79335491 0.19487288 2.03147376
v 1.03324081 0.72070545 2.03147406
v 1.79389992 0.71991177 2.10753974
v 1.03269577 0.19566643 2.10753974
v 1.79335491 0.19487288 2.10754004
v 1.03324081 0.72070545 2.10754004
v 1.03269577 0.19566643 2.10753974
v 1.03324081 0.72070545 2.10754004
v 1.03324081 0.72070545 2.03147406
v 1.03269577 0.19566643 2.03147391
v 1.79335491 0.19487288 2.10754004
v 1.03269577 0.19566643 2.10753974
v 1.03269577 0.19566643 2.03147391
v 1.79335491 0.19487288 2.03147376
v 1.79335491 0.19487288 2.10754004
v 1.79389992 0.71991177 2.03147391
v 1.79389992 0.71991177 2.10753974
v 1.79335491 0.19487288 2.03147376
v 1.79389992 0.71991177 2.10753974
v 1.03324081 0.72070545 2.03147406
v 1.03324081 0.72070545 2.10754004
v 1.79389992 0.71991177 2.03147391
v 1.03269577 0.19566643 2.10897284
v 1.79389992 0.71991177 2.10897284
v 1.79335491 0.19487288 2.10897254
v 1.03324081 0.72070545 2.10897300
v 1.79389992 0.71991177 2.18503913
v 1.03269577 0.19566643 2.18503882
v 1.79335491 0.19487288 2.18503882
v 1.03324081 0.72070545 2.18503913
v 1.03269577 0.19566643 2.18503882
v 1.03324081 0.72070545 2.18503913
v 1.03324081 0.72070545 2.10897300
v 1.03269577 0.19566643 2.10897284
v 1.79335491 0.19487288 2.18503882
v 1.03269577 0.19566643 2.18503882
v 1.03269577 0.19566643 2.10897284
v 1.79335491 0.19487288 2.10897254
v 1.79335491 0.19487288 2.18503882
v 1.79389992 0.71991177 2.10897284
v 1.79389992 0.71991177 2.18503913
v 1.79335491 0.19487288 2.10897254
v 1.79389992 0.71991177 2.18503913
v 1.03324081 0.72070545 2.10897300
v 1.03324081 0.72070545 2.18503913
v 1.79389992 0.71991177 2.10897284
v 1.03268494 0.19566576 2.18624991
v 1.79388950 0.71991331 2.18624991
v 1.79334404 0.19487219 2.18624991
v 1.03323036 0.72070673 2.18624991
v 1.79388950 0.71991331 2.26231559
v 1.03268494 0.19566576 2.26231559
v 1.79334404 0.19487219 2.26231559
v 1.03323036 0.72070673 2.26231559
v 1.03268494 0.19566576 2.26231559
v 1.03323036 0.72070673 2.26231559
v 1.03323036 0.72070673 2.18624991
v 1.03268494 0.19566576 2.18624991
v 1.79334404 0.19487219 2.26231559
v 1.03268494 0.19566576 2.26231559
v 1.03268494 0.19566576 2.18624991
v 1.79334404 0.19487219 2.18624991
v 1.79388950 0.71991331 2.26231559
v 1.79334404 0.19487219 2.26231559
v 1.79334404 0.19487219 2.18624991
v 1.79388950 0.71991331 2.18624991
v 1.03323036 0.72070673 2.26231559
v 1.79388950 0.71991331 2.26231559
v 1.79388950 0.71991331 2.18624991
v 1.03323036 0.72070673 2.18624991
v 2.62398804 0.34641013 2.42608847
v 3.52100891 0.56916901 2.42608847
v 3.33568771 0.07792099 2.42608847
v 2.80930893 0.83765804 2.42608847
v 3.52100891 0.56916901 2.50215415
v 2.62398804 0.34641013 2.50215415
v 3.33568771 0.07792099 2.50215415
v 2.80930893 0.83765804 2.50215415
v 2.62398804 0.34641013 2.50215415
v 2.80930893 0.83765804 2.50215415
v 2.80930893 0.83765804 2.42608847
v 2.62398804 0.34641013 2.42608847
v 3.33568771 0.07792099 2.50215415
v 2.62398804 0.34641013 2.50215415
v 2.62398804 0.34641013 2.42608847
v 3.33568771 0.07792099 2.42608847
v 3.52100891 0.56916901 2.50215415
v 3.33568771 0.07792099 2.50215415
v 3.33568771 0.07792099 2.42608847
v 3.52100891 0.56916901 2.42608847
v 2.80930893 0.83765804 2.50215415
v 3.52100891 0.56916901 2.50215415
v 3.52100891 0.56916901 2.42608847
v 2.80930893 0.83765804 2.42608847
v 1.21081421 0.07745728 1.41411963
v 0.68577515 0.83811401 1.41411963
v 1.21081421 0.83811642 1.41411933
v 0.68577515 0.07745483 1.41411963
v 0.68577515 0.83811401 1.49018561
v 1.21081421 0.07745728 1.49018561
v 1.21081421 0.83811642 1.49018546
v 0.68577515 0.07745483 1.49018561
v 1.21081421 0.07745728 1.49018561
v 0.68577515 0.07745483 1.49018561
v 0.68577515 0.07745483 1.41411963
v 1.21081421 0.07745728 1.41411963
v 1.21081421 0.83811642 1.49018546
v 1.21081421 0.07745728 1.49018561
v 1.21081421 0.07745728 1.41411963
v 1.21081421 0.83811642 1.41411933
v 1.21081421 0.83811642 1.49018546
v 0.68577515 0.83811401 1.41411963
v 0.68577515 0.83811401 1.49018561
v 1.21081421 0.83811642 1.41411933
v 0.68577515 0.83811401 1.49018561
v 0.68577515 0.07745483 1.41411963
v 0.68577515 0.07745483 1.49018561
v 0.68577515 0.83811401 1.41411963
v 1.21081421 0.07745728 1.49161841
v 0.68577515 0.83811401 1.49161841
v 1.21081421 0.83811642 1.49161826
v 0.68577515 0.07745483 1.49161872
v 0.68577515 0.83811401 1.56768470
v 1.21081421 0.07745728 1.56768454
v 1.21081421 0.83811642 1.56768454
v 0.68577515 0.07745483 1.56768470
v 1.21081421 0.07745728 1.56768454
v 0.68577515 0.07745483 1.56768470
v 0.68577515 0.07745483 1.49161872
v 1.21081421 0.07745728 1.49161841
v 1.21081421 0.83811642 1.56768454
v 1.21081421 0.07745728 1.56768454
v 1.21081421 0.07745728 1.49161841
v 1.21081421 0.83811642 1.49161826
v 1.21081421 0.83811642 1.56768454
v 0.68577515 0.83811401 1.49161841
v 0.68577515 0.83811401 1.56768470
v 1.21081421 0.83811642 1.49161826
v 0.68577515 0.83811401 1.56768470
v 0.68577515 0.07745483 1.49161872
v 0.68577515 0.07745483 1.56768470
v 0.68577515 0.83811401 1.49161841
v 1.21080688 0.07746048 1.56889563
v 0.68576538 0.83811722 1.56889563
v 1.21080688 0.83811962 1.56889563
v 0.68576538 0.07745804 1.56889563
v 0.68576538 0.83811722 1.64496131
v 1.21080688 0.07746048 1.64496131
v 1.21080688 0.83811962 1.64496131
v 0.68576538 0.07745804 1.64496131
v 1.21080688 0.07746048 1.64496131
v 0.68576538 0.07745804 1.64496131
v 0.68576538 0.07745804 1.56889563
v 1.21080688 0.07746048 1.56889563
v 1.21080688 0.83811962 1.64496131
v 1.21080688 0.07746048 1.64496131
v 1.21080688 0.07746048 1.56889563
v 1.21080688 0.83811962 1.56889563
v 0.68576538 0.83811722 1.64496131
v 1.21080688 0.83811962 1.64496131
v 1.21080688 0.83811962 1.56889563
v 0.68576538 0.83811722 1.56889563
v 0.68576538 0.07745804 1.64496131
v 0.68576538 0.83811722 1.64496131
v 0.68576538 0.83811722 1.56889563
v 0.68576538 0.07745804 1.56889563
v 1.21081421 0.07745731 1.64766486
v 0.68577515 0.83811405 1.64766486
v 1.21081421 0.83811642 1.64766486
v 0.68577515 0.07745487 1.64766486
v 0.68577515 0.83811405 1.72373053
v 1.21081421 0.07745731 1.72373053
v 1.21081421 0.83811642 1.72373053
v 0.68577515 0.07745487 1.72373084
v 1.21081421 0.07745731 1.72373053
v 0.68577515 0.07745487 1.72373084
v 0.68577515 0.07745487 1.64766486
v 1.21081421 0.07745731 1.64766486
v 1.21081421 0.83811642 1.72373053
v 1.21081421 0.07745731 1.72373053
v 1.21081421 0.07745731 1.64766486
v 1.21081421 0.83811642 1.64766486
v 0.68577515 0.83811405 1.72373053
v 1.21081421 0.83811642 1.72373053
v 1.21081421 0.83811642 1.64766486
v 0.68577515 0.83811405 1.64766486
v 0.68577515 0.83811405 1.72373053
v 0.68577515 0.07745487 1.64766486
v 0.68577515 0.07745487 1.72373084
v 0.68577515 0.83811405 1.64766486
v 3.26748718 0.07745728 0.75422004
v 2.74244812 0.83811401 0.75422004
v 3.26748718 0.83811642 0.75421988
v 2.74244812 0.07745483 0.75422011
v 2.74244812 0.83811401 0.83028609
v 3.26748718 0.07745728 0.83028609
v 3.26748718 0.83811642 0.83028594
v 2.74244812 0.07745483 0.83028617
v 3.26748718 0.07745728 0.83028609
v 2.74244812 0.07745483 0.83028617
v 2.74244812 0.07745483 0.75422011
v 3.26748718 0.07745728 0.75422004
v 3.26748718 0.83811642 0.83028594
v 3.26748718 0.07745728 0.83028609
v 3.26748718 0.07745728 0.75422004
v 3.26748718 0.83811642 0.75421988
v 3.26748718 0.83811642 0.83028594
v 2.74244812 0.83811401 0.75422004
v 2.74244812 0.83811401 0.83028609
v 3.26748718 0.83811642 0.75421988
v 2.74244812 0.83811401 0.83028609
v 2.74244812 0.07745483 0.75422011
v 2.74244812 0.07745483 0.83028617
v 2.74244812 0.83811401 0.75422004
v 3.26748718 0.07745728 0.83171889
v 2.74244812 0.83811401 0.83171897
v 3.26748718 0.83811642 0.83171874
v 2.74244812 0.07745483 0.83171912
v 2.74244812 0.83811401 0.90778518
v 3.26748718 0.07745728 0.90778502
v 3.26748718 0.83811642 0.90778502
v 2.74244812 0.07745483 0.90778518
v 3.26748718 0.07745728 0.90778502
v 2.74244812 0.07745483 0.90778518
v 2.74244812 0.07745483 0.83171912
v 3.26748718 0.07745728 0.83171889
v 3.26748718 0.83811642 0.90778502
v 3.26748718 0.07745728 0.90778502
v 3.26748718 0.07745728 0.83171889
v 3.26748718 0.83811642 0.83171874
v 3.26748718 0.83811642 0.90778502
v 2.74244812 0.83811401 0.83171897
v 2.74244812 0.83811401 0.90778518
v 3.26748718 0.83811642 0.83171874
v 2.74244812 0.83811401 0.90778518
v 2.74244812 0.07745483 0.83171912
v 2.74244812 0.07745483 0.90778518
v 2.74244812 0.83811401 0.83171897
v 3.26747986 0.07746048 0.90899604
v 2.74243835 0.83811722 0.90899604
v 3.26747986 0.83811962 0.90899604
v 2.74243835 0.07745804 0.90899604
v 2.74243835 0.83811722 0.98506171
v 3.26747986 0.07746048 0.98506171
v 3.26747986 0.83811962 0.98506171
v 2.74243835 0.07745804 0.98506171
v 3.26747986 0.07746048 0.98506171
v 2.74243835 0.07745804 0.98506171
v 2.74243835 0.07745804 0.90899604
v 3.26747986 0.07746048 0.90899604
v 3.26747986 0.83811962 0.98506171
v 3.26747986 0.07746048 0.98506171
v 3.26747986 0.07746048 0.90899604
v 3.26747986 0.83811962 0.90899604
v 2.74243835 0.83811722 0.98506171
v 3.26747986 0.83811962 0.98506171
v 3.26747986 0.83811962 0.90899604
v 2.74243835 0.83811722 0.90899604
v 2.74243835 0.07745804 0.98506171
v 2.74243835 0.83811722 0.98506171
v 2.74243835 0.83811722 0.90899604
v 2.74243835 0.07745804 0.90899604
v 3.26748718 0.07745731 0.98776542
v 2.74244812 0.83811405 0.98776542
v 3.26748718 0.83811642 0.98776542
v 2.74244812 0.07745487 0.98776542
v 2.74244812 0.83811405 1.06383109
v 3.26748718 0.07745731 1.06383109
v 3.26748718 0.83811642 1.06383109
v 2.74244812 0.07745487 1.06383124
v 3.26748718 0.07745731 1.06383109
v 2.74244812 0.07745487 1.06383124
v 2.74244812 0.07745487 0.98776542
v 3.26748718 0.07745731 0.98776542
v 3.26748718 0.83811642 1.06383109
v 3.26748718 0.07745731 1.06383109
v 3.26748718 0.07745731 0.98776542
v 3.26748718 0.83811642 0.98776542
v 2.74244812 0.83811405 1.06383109
v 3.26748718 0.83811642 1.06383109
v 3.26748718 0.83811642 0.98776542
v 2.74244812 0.83811405 0.98776542
v 2.74244812 0.83811405 1.06383109
v 2.74244812 0.07745487 0.98776542
v 2.74244812 0.07745487 1.06383124
v 2.74244812 0.83811405 0.98776542
vt 0.53232199 0.20843297
vt 0.53233123 0.02335316
vt 0.62502158 0.02441458
vt 0.62502158 0.20781967
vt 0.62614663 0.21097999
vt 0.53215632 0.21048046
vt 0.53233123 0.02135707
vt 0.62533323 0.02363411
vt 0.62620826 0.21098397
vt 0.53210667 0.21052089
vt 0.53273793 0.02190749
vt 0.62544975 0.02322591
vt 0.62620826 0.21115863
vt 0.53215632 0.21048046
vt 0.53278309 0.02190998
vt 0.62533323 0.02363411
vt 0.62617009 0.21099096
vt 0.53210667 0.21052089
vt 0.53224315 0.02151675
vt 0.62545124 0.02329228
vt 0.62595601 0.21183431
vt 0.53276538 0.21250599
vt 0.53215632 0.21048046
vt 0.62614663 0.21097999
vt 0.62602562 0.21183431
vt 0.53273094 0.21246907
vt 0.53210667 0.21052089
vt 0.62620826 0.21098397
vt 0.62595601 0.21183431
vt 0.53276538 0.21250599
vt 0.53215632 0.21048046
vt 0.62620826 0.21115863
vt 0.62602562 0.21183431
vt 0.53273094 0.21246907
vt 0.53210667 0.21052089
vt 0.62617009 0.21099096
vt 0.62595601 0.21185976
vt 0.53247944 0.21104187
vt 0.53276538 0.21250599
vt 0.62595601 0.21183431
vt 0.62602562 0.21185927
vt 0.53241880 0.21108827
vt 0.53273094 0.21246907
vt 0.62602562 0.21183431
vt 0.62595601 0.21185976
vt 0.53247944 0.21104187
vt 0.53276538 0.21250599
vt 0.62595601 0.21183431
vt 0.62602562 0.21185927
vt 0.53241880 0.21108827
vt 0.53273094 0.21246907
vt 0.62602562 0.21183431
vt 0.62602562 0.21185927
vt 0.62595601 0.21185976
vt 0.62602562 0.21185927
vt 0.62595601 0.21185976
vt 0.53232199 0.20843297
vt 0.53233123 0.02335316
vt 0.62502158 0.02441458
vt 0.62502158 0.20781967
vt 0.62614663 0.21097999
vt 0.53215632 0.21048046
vt 0.53233123 0.02135707
vt 0.62533323 0.02363411
vt 0.62620826 0.21098397
vt 0.53210667 0.21052089
vt 0.53273793 0.02190749
vt 0.62544975 0.02322591
vt 0.62620826 0.21115863
vt 0.53215632 0.21048046
vt 0.53278309 0.02190998
vt 0.62533323 0.02363411
vt 0.62617009 0.21099096
vt 0.53210667 0.21052089
vt 0.53224315 0.02151675
vt 0.62545124 0.02329228
vt 0.62595601 0.21183431
vt 0.53276538 0.21250599
vt 0.53215632 0.21048046
vt 0.62614663 0.21097999
vt 0.62602562 0.21183431
vt 0.53273094 0.21246907
vt 0.53210667 0.21052089
vt 0.62620826 0.21098397
vt 0.62595601 0.21183431
vt 0.53276538 0.21250599
vt 0.53215632 0.21048046
vt 0.62620826 0.21115863
vt 0.62602562 0.21183431
vt 0.53273094 0.21246907
vt 0.53210667 0.21052089
vt 0.62617009 0.21099096
vt 0.62595601 0.21185976
vt 0.53247944 0.21104187
vt 0.53276538 0.21250599
vt 0.62595601 0.21183431
vt 0.62602562 0.21185927
vt 0.53241880 0.21108827
vt 0.53273094 0.21246907
vt 0.62602562 0.21183431
vt 0.62595601 0.21185976
vt 0.53247944 0.21104187
vt 0.53276538 0.21250599
vt 0.62595601 0.21183431
vt 0.62602562 0.21185927
vt 0.53241880 0.21108827
vt 0.53273094 0.21246907
vt 0.62602562 0.21183431
vt 0.62602562 0.21185927
vt 0.62595601 0.21185976
vt 0.62602562 0.21185927
vt 0.62595601 0.21185976
vt 0.53232199 0.20843297
vt 0.53233123 0.02335316
vt 0.62502158 0.02441458
vt 0.62502158 0.20781967
vt 0.62614663 0.21097999
vt 0.53215632 0.21048046
vt 0.53233123 0.02135707
vt 0.62533323 0.02363411
vt 0.62620826 0.21098397
vt 0.53210667 0.21052089
vt 0.53273793 0.02190749
vt 0.62544975 0.02322591
vt 0.62620826 0.21115863
vt 0.53215632 0.21048046
vt 0.53278309 0.02190998
vt 0.62533323 0.02363411
vt 0.62617009 0.21099096
vt 0.53210667 0.21052089
vt 0.53224315 0.02151675
vt 0.62545124 0.02329228
vt 0.62595601 0.21183431
vt 0.53276538 0.21250599
vt 0.53215632 0.21048046
vt 0.62614663 0.21097999
vt 0.62602562 0.21183431
vt 0.53273094 0.21246907
vt 0.53210667 0.21052089
vt 0.62620826 0.21098397
vt 0.62595601 0.21183431
vt 0.53276538 0.21250599
vt 0.53215632 0.21048046
vt 0.62620826 0.21115863
vt 0.62602562 0.21183431
vt 0.53273094 0.21246907
vt 0.53210667 0.21052089
vt 0.62617009 0.21099096
vt 0.62595601 0.21185976
vt 0.53247944 0.21104187
vt 0.53276538 0.21250599
vt 0.62595601 0.21183431
vt 0.62602562 0.21185927
vt 0.53241880 0.21108827
vt 0.53273094 0.21246907
vt 0.62602562 0.21183431
vt 0.62595601 0.21185976
vt 0.53247944 0.21104187
vt 0.53276538 0.21250599
vt 0.62595601 0.21183431
vt 0.62602562 0.21185927
vt 0.53241880 0.21108827
vt 0.53273094 0.21246907
vt 0.62602562 0.21183431
vt 0.62602562 0.21185927
vt 0.62595601 0.21185976
vt 0.62602562 0.21185927
vt 0.62595601 0.21185976
vt 0.53232199 0.20843297
vt 0.53233123 0.02335316
vt 0.62502158 0.02441458
vt 0.62502158 0.20781967
vt 0.62614663 0.21097999
vt 0.53215632 0.21048046
vt 0.53233123 0.02135707
vt 0.62533323 0.02363411
vt 0.62620826 0.21098397
vt 0.53210667 0.21052089
vt 0.53273793 0.02190749
vt 0.62544975 0.02322591
vt 0.62620826 0.21115863
vt 0.53215632 0.21048046
vt 0.53278309 0.02190998
vt 0.62533323 0.02363411
vt 0.62617009 0.21099096
vt 0.53210667 0.21052089
vt 0.53224315 0.02151675
vt 0.62545124 0.02329228
vt 0.62595601 0.21183431
vt 0.53276538 0.21250599
vt 0.53215632 0.21048046
vt 0.62614663 0.21097999
vt 0.62602562 0.21183431
vt 0.53273094 0.21246907
vt 0.53210667 0.21052089
vt 0.62620826 0.21098397
vt 0.62595601 0.21183431
vt 0.53276538 0.21250599
vt 0.53215632 0.21048046
vt 0.62620826 0.21115863
vt 0.62602562 0.21183431
vt 0.53273094 0.21246907
vt 0.53210667 0.21052089
vt 0.62617009 0.21099096
vt 0.62595601 0.21185976
vt 0.53247944 0.21104187
vt 0.53276538 0.21250599
vt 0.62595601 0.21183431
vt 0.62602562 0.21185927
vt 0.53241880 0.21108827
vt 0.53273094 0.21246907
vt 0.62602562 0.21183431
vt 0.62595601 0.21185976
vt 0.53247944 0.21104187
vt 0.53276538 0.21250599
vt 0.62595601 0.21183431
vt 0.62602562 0.21185927
vt 0.53241880 0.21108827
vt 0.53273094 0.21246907
vt 0.62602562 0.21183431
vt 0.62602562 0.21185927
vt 0.62595601 0.21185976
vt 0.62602562 0.21185927
vt 0.62595601 0.21185976
vt 0.53232199 0.20843297
vt 0.53233123 0.02335316
vt 0.62502158 0.02441458
vt 0.62502158 0.20781967
vt 0.62614663 0.21097999
vt 0.53215632 0.21048046
vt 0.53233123 0.02135707
vt 0.62533323 0.02363411
vt 0.62620826 0.21098397
vt 0.53210667 0.21052089
vt 0.53273793 0.02190749
vt 0.62544975 0.02322591
vt 0.62620826 0.21115863
vt 0.53215632 0.21048046
vt 0.53278309 0.02190998
vt 0.62533323 0.02363411
vt 0.62617009 0.21099096
vt 0.53210667 0.21052089
vt 0.53224315 0.02151675
vt 0.62545124 0.02329228
vt 0.62595601 0.21183431
vt 0.53276538 0.21250599
vt 0.53215632 0.21048046
vt 0.62614663 0.21097999
vt 0.62602562 0.21183431
vt 0.53273094 0.21246907
vt 0.53210667 0.21052089
vt 0.62620826 0.21098397
vt 0.62595601 0.21183431
vt 0.53276538 0.21250599
vt 0.53215632 0.21048046
vt 0.62620826 0.21115863
vt 0.62602562 0.21183431
vt 0.53273094 0.21246907
vt 0.53210667 0.21052089
vt 0.62617009 0.21099096
vt 0.62595601 0.21185976
vt 0.53247944 0.21104187
vt 0.53276538 0.21250599
vt 0.62595601 0.21183431
vt 0.62602562 0.21185927
vt 0.53241880 0.21108827
vt 0.53273094 0.21246907
vt 0.62602562 0.21183431
vt 0.62595601 0.21185976
vt 0.53247944 0.21104187
vt 0.53276538 0.21250599
vt 0.62595601 0.21183431
vt 0.62602562 0.21185927
vt 0.53241880 0.21108827
vt 0.53273094 0.21246907
vt 0.62602562 0.21183431
vt 0.62602562 0.21185927
vt 0.62595601 0.21185976
vt 0.62602562 0.21185927
vt 0.62595601 0.21185976
vt 0.53232199 0.20843297
vt 0.53233123 0.02335316
vt 0.62502158 0.02441458
vt 0.62502158 0.20781967
vt 0.62614663 0.21097999
vt 0.53215632 0.21048046
vt 0.53233123 0.02135707
vt 0.62533323 0.02363411
vt 0.62620826 0.21098397
vt 0.53210667 0.21052089
vt 0.53273793 0.02190749
vt 0.62544975 0.02322591
vt 0.62620826 0.21115863
vt 0.53215632 0.21048046
vt 0.53278309 0.02190998
vt 0.62533323 0.02363411
vt 0.62617009 0.21099096
vt 0.53210667 0.21052089
vt 0.53224315 0.02151675
vt 0.62545124 0.02329228
vt 0.62595601 0.21183431
vt 0.53276538 0.21250599
vt 0.53215632 0.21048046
vt 0.62614663 0.21097999
vt 0.62602562 0.21183431
vt 0.53273094 0.21246907
vt 0.53210667 0.21052089
vt 0.62620826 0.21098397
vt 0.62595601 0.21183431
vt 0.53276538 0.21250599
vt 0.53215632 0.21048046
vt 0.62620826 0.21115863
vt 0.62602562 0.21183431
vt 0.53273094 0.21246907
vt 0.53210667 0.21052089
vt 0.62617009 0.21099096
vt 0.62595601 0.21185976
vt 0.53247944 0.21104187
vt 0.53276538 0.21250599
vt 0.62595601 0.21183431
vt 0.62602562 0.21185927
vt 0.53241880 0.21108827
vt 0.53273094 0.21246907
vt 0.62602562 0.21183431
vt 0.62595601 0.21185976
vt 0.53247944 0.21104187
vt 0.53276538 0.21250599
vt 0.62595601 0.21183431
vt 0.62602562 0.21185927
vt 0.53241880 0.21108827
vt 0.53273094 0.21246907
vt 0.62602562 0.21183431
vt 0.62602562 0.21185927
vt 0.62595601 0.21185976
vt 0.62602562 0.21185927
vt 0.62595601 0.21185976
vt 0.62445195 0.21183431
vt 0.62445195 0.21183431
vt 0.53357704 0.21199100
vt 0.53356855 0.21167811
vt 0.62460889 0.21183431
vt 0.62460889 0.21183431
vt 0.53355807 0.21198850
vt 0.53354984 0.21169309
vt 0.62445195 0.21183431
vt 0.53357729 0.21199749
vt 0.53356880 0.21168410
vt 0.62445195 0.21183431
vt 0.62460889 0.21183431
vt 0.62460889 0.21183431
vt 0.53355782 0.21198253
vt 0.53354959 0.21168709
vt 0.53356805 0.21166364
vt 0.53357679 0.21198052
vt 0.62445195 0.21183431
vt 0.62445195 0.21183431
vt 0.53355758 0.21197204
vt 0.62460889 0.21183431
vt 0.62460889 0.21183431
vt 0.53354909 0.21166764
vt 0.53357679 0.21198003
vt 0.62445195 0.21183431
vt 0.62445195 0.21183431
vt 0.53356805 0.21165766
vt 0.53355758 0.21197255
vt 0.62460914 0.21183431
vt 0.62460889 0.21183431
vt 0.53354909 0.21167362
vt 0.53357704 0.21199100
vt 0.62445195 0.21183431
vt 0.62445195 0.21183431
vt 0.53356855 0.21167811
vt 0.53355782 0.21198850
vt 0.62460889 0.21183431
vt 0.62460889 0.21183431
vt 0.53354984 0.21169309
vt 0.53356855 0.21168410
vt 0.53357729 0.21199749
vt 0.62445195 0.21183431
vt 0.62445195 0.21183431
vt 0.53355782 0.21198253
vt 0.62460889 0.21183431
vt 0.62460889 0.21183431
vt 0.53354959 0.21168709
vt 0.62445195 0.21183431
vt 0.62445195 0.21183431
vt 0.53357704 0.21199100
vt 0.53356855 0.21167811
vt 0.62460889 0.21183431
vt 0.62460889 0.21183431
vt 0.53355782 0.21198850
vt 0.53354984 0.21169309
vt 0.62445195 0.21183431
vt 0.53357729 0.21199749
vt 0.53356880 0.21168410
vt 0.62445195 0.21183431
vt 0.62460889 0.21183431
vt 0.62460889 0.21183431
vt 0.53355782 0.21198253
vt 0.53354959 0.21168709
vt 0.53356805 0.21166364
vt 0.53357679 0.21198052
vt 0.62445195 0.21183431
vt 0.62445195 0.21183431
vt 0.53355758 0.21197204
vt 0.62460889 0.21183431
vt 0.62460889 0.21183431
vt 0.53354909 0.21166764
vt 0.53357679 0.21198003
vt 0.62445195 0.21183431
vt 0.62445195 0.21183431
vt 0.53356805 0.21165766
vt 0.53355758 0.21197255
vt 0.62460914 0.21183431
vt 0.62460889 0.21183431
vt 0.53354909 0.21167362
vt 0.53357704 0.21199100
vt 0.62445195 0.21183431
vt 0.62445195 0.21183431
vt 0.53356855 0.21167811
vt 0.53355782 0.21198850
vt 0.62460889 0.21183431
vt 0.62460889 0.21183431
vt 0.53354984 0.21169309
vt 0.53356855 0.21168410
vt 0.53357729 0.21199749
vt 0.62445195 0.21183431
vt 0.62445195 0.21183431
vt 0.53355782 0.21198253
vt 0.62460889 0.21183431
vt 0.62460889 0.21183431
vt 0.53354959 0.21168709
vt 0.62445195 0.21183431
vt 0.62445195 0.21183431
vt 0.53357704 0.21199100
vt 0.53356855 0.21167811
vt 0.62460889 0.21183431
vt 0.62460889 0.21183431
vt 0.53355782 0.21198850
vt 0.53354984 0.21169309
vt 0.62445195 0.21183431
vt 0.53357729 0.21199749
vt 0.53356880 0.21168410
vt 0.62445195 0.21183431
vt 0.62460889 0.21183431
vt 0.62460889 0.21183431
vt 0.53355782 0.21198253
vt 0.53354959 0.21168709
vt 0.53356805 0.21166364
vt 0.53357679 0.21198052
vt 0.62445195 0.21183431
vt 0.62445195 0.21183431
vt 0.53355758 0.21197204
vt 0.62460889 0.21183431
vt 0.62460889 0.21183431
vt 0.53354909 0.21166764
vt 0.53357679 0.21198003
vt 0.62445195 0.21183431
vt 0.62445195 0.21183431
vt 0.53356805 0.21165766
vt 0.53355758 0.21197255
vt 0.62460914 0.21183431
vt 0.62460889 0.21183431
vt 0.53354909 0.21167362
vt 0.53357704 0.21199100
vt 0.62445195 0.21183431
vt 0.62445195 0.21183431
vt 0.53356855 0.21167811
vt 0.53355782 0.21198850
vt 0.62460889 0.21183431
vt 0.62460889 0.21183431
vt 0.53354984 0.21169309
vt 0.53356855 0.21168410
vt 0.53357729 0.21199749
vt 0.62445195 0.21183431
vt 0.62445195 0.21183431
vt 0.53355782 0.21198253
vt 0.62460889 0.21183431
vt 0.62460889 0.21183431
vt 0.53354959 0.21168709
vt 0.62715291 0.02039944
vt 0.62715291 0.21183431
vt 0.53143548 0.21183431
vt 0.53143548 0.02039944
vt 0.53143548 0.02039944
vt 0.62715291 0.02039944
vt 0.62715291 0.21183431
vt 0.53143548 0.21183431
vt 0.53143548 0.02039944
vt 0.62715291 0.02039944
vt 0.62715291 0.21183431
vt 0.53143548 0.21183431
vt 0.53143548 0.02039944
vt 0.62715291 0.02039944
vt 0.62715291 0.21183431
vt 0.53143548 0.21183431
vt 0.62715291 0.02039944
vt 0.62715291 0.21183431
vt 0.53143548 0.21183431
vt 0.53143548 0.02039944
vt 0.53143548 0.02039944
vt 0.62715291 0.02039944
vt 0.62715291 0.21183431
vt 0.53143548 0.21183431
vt 0.53143548 0.02039944
vt 0.62715291 0.02039944
vt 0.62715291 0.21183431
vt 0.53143548 0.21183431
vt 0.53143548 0.02039944
vt 0.62715291 0.02039944
vt 0.62715291 0.21183431
vt 0.53143548 0.21183431
vt 0.62715291 0.02039944
vt 0.62715291 0.21183431
vt 0.53143548 0.21183431
vt 0.53143548 0.02039944
vt 0.53143548 0.02039944
vt 0.62715291 0.02039944
vt 0.62715291 0.21183431
vt 0.53143548 0.21183431
vt 0.53143548 0.02039944
vt 0.62715291 0.02039944
vt 0.62715291 0.21183431
vt 0.53143548 0.21183431
vt 0.53143548 0.02039944
vt 0.62715291 0.02039944
vt 0.62715291 0.21183431
vt 0.53143548 0.21183431
vt 0.62308812 0.02053417
vt 0.62308812 0.12386646
vt 0.62175772 0.12386646
vt 0.62175772 0.02053417
vt 0.62143186 0.12394430
vt 0.62010121 0.12394430
vt 0.62010097 0.02057310
vt 0.62143186 0.02057310
vt 0.58788975 0.02322790
vt 0.58655936 0.02322790
vt 0.58655886 0.02140148
vt 0.58789000 0.02140148
vt 0.53277810 0.02060055
vt 0.58448841 0.02060055
vt 0.58448841 0.02247687
vt 0.53277810 0.02247687
vt 0.58789000 0.02575197
vt 0.58655886 0.02575197
vt 0.58655886 0.02388612
vt 0.58789000 0.02388612
vt 0.53153578 0.12484904
vt 0.53153578 0.02142843
vt 0.53247395 0.02142843
vt 0.53247395 0.12484904
vt 0.59558818 0.02721161
vt 0.59558843 0.13059629
vt 0.57583734 0.13059629
vt 0.57583709 0.02721161
vt 0.53154002 0.17107109
vt 0.53152630 0.13158735
vt 0.58320966 0.13155990
vt 0.58322338 0.17104363
vt 0.62591634 0.10139644
vt 0.62591634 0.06194214
vt 0.62681258 0.06194214
vt 0.62681258 0.10139644
vt 0.57456757 0.13060078
vt 0.57456757 0.02720662
vt 0.57546482 0.02720662
vt 0.57546482 0.13060078
vt 0.62343120 0.06001491
vt 0.62343170 0.02053218
vt 0.62432794 0.02053218
vt 0.62432794 0.05998647
vt 0.59610068 0.13052293
vt 0.59610118 0.02715771
vt 0.59699743 0.02715771
vt 0.59699743 0.13049449
vt 0.53277112 0.13059629
vt 0.53277086 0.02721161
vt 0.55252196 0.02721161
vt 0.55252196 0.13059629
vt 0.57281525 0.13057333
vt 0.55307313 0.13060078
vt 0.55305941 0.02723456
vt 0.57280153 0.02720662
vt 0.62343170 0.10139644
vt 0.62343170 0.06194214
vt 0.62432794 0.06194214
vt 0.62432794 0.10139644
vt 0.57332525 0.13060078
vt 0.57332525 0.02720662
vt 0.57422249 0.02720662
vt 0.57422249 0.13060078
vt 0.62591584 0.06001491
vt 0.62591634 0.02053218
vt 0.62681258 0.02053218
vt 0.62681258 0.05998647
vt 0.59858532 0.13052293
vt 0.59858582 0.02715771
vt 0.59948207 0.02715771
vt 0.59948207 0.13049449
vt 0.53152879 0.17214598
vt 0.58322114 0.17214598
vt 0.58322114 0.21164817
vt 0.53152879 0.21164817
vt 0.61960818 0.12386995
vt 0.59986631 0.12389790
vt 0.59985259 0.02053118
vt 0.61959396 0.02053218
vt 0.62469846 0.10139743
vt 0.62469846 0.06194114
vt 0.62560894 0.06194214
vt 0.62560894 0.10139644
vt 0.58529383 0.02481031
vt 0.53359675 0.02481031
vt 0.53359675 0.02301582
vt 0.58529383 0.02301582
vt 0.62467352 0.06001491
vt 0.62467401 0.02053218
vt 0.62557026 0.02053218
vt 0.62557026 0.05998647
vt 0.59734300 0.13052293
vt 0.59734350 0.02715771
vt 0.59823974 0.02715771
vt 0.59823974 0.13049449
vt 0.37455473 0.34729123
vt 0.25979955 0.21394019
vt 0.37455398 0.21394019
vt 0.25979955 0.34729123
vt 0.37955469 0.02000371
vt 0.49430863 0.20239429
vt 0.37955469 0.20239429
vt 0.49430863 0.02000371
vt 0.26042482 0.02362762
vt 0.37517951 0.20916204
vt 0.26042482 0.20916153
vt 0.37517951 0.01961048
vt 0.26042482 0.01961048
vt 0.26239048 0.48678027
vt 0.35468811 0.35065314
vt 0.35511702 0.48687705
vt 0.26283685 0.35063119
vt 0.49394734 0.33972004
vt 0.37919289 0.33972004
vt 0.37919289 0.20636551
vt 0.49394658 0.20636551
vt 0.48124968 0.48220422
vt 0.48318415 0.35378202
vt 0.48318415 0.48220422
vt 0.39536075 0.35378202
vt 0.39536052 0.48220372
vt 0.37455473 0.34729123
vt 0.25979955 0.21394019
vt 0.37455398 0.21394019
vt 0.25979955 0.34729123
vt 0.37955469 0.02000371
vt 0.49430863 0.20239429
vt 0.37955469 0.20239429
vt 0.49430863 0.02000371
vt 0.26042482 0.02362762
vt 0.37517951 0.20916204
vt 0.26042482 0.20916153
vt 0.37517951 0.01961048
vt 0.26042482 0.01961048
vt 0.26239048 0.48678027
vt 0.35468811 0.35065314
vt 0.35511702 0.48687705
vt 0.26283685 0.35063119
vt 0.49394734 0.33972004
vt 0.37919289 0.33972004
vt 0.37919289 0.20636551
vt 0.49394658 0.20636551
vt 0.48124968 0.48220422
vt 0.48318415 0.35378202
vt 0.48318415 0.48220422
vt 0.39536075 0.35378202
vt 0.39536052 0.48220372
vt 0.37455473 0.34729123
vt 0.25979955 0.21394019
vt 0.37455398 0.21394019
vt 0.25979955 0.34729123
vt 0.37955469 0.02000371
vt 0.49430863 0.20239429
vt 0.37955469 0.20239429
vt 0.49430863 0.02000371
vt 0.26042482 0.02362762
vt 0.37517951 0.20916204
vt 0.26042482 0.20916153
vt 0.37517951 0.01961048
vt 0.26042482 0.01961048
vt 0.26239048 0.48678027
vt 0.35468811 0.35065314
vt 0.35511702 0.48687705
vt 0.26283685 0.35063119
vt 0.49394734 0.33972004
vt 0.37919289 0.33972004
vt 0.37919289 0.20636551
vt 0.49394658 0.20636551
vt 0.48124968 0.48220422
vt 0.48318415 0.35378202
vt 0.48318415 0.48220422
vt 0.39536075 0.35378202
vt 0.39536052 0.48220372
vt 0.37455473 0.34729123
vt 0.25979955 0.21394019
vt 0.37455398 0.21394019
vt 0.25979955 0.34729123
vt 0.37955469 0.02000371
vt 0.49430863 0.20239429
vt 0.37955469 0.20239429
vt 0.49430863 0.02000371
vt 0.26042482 0.02362762
vt 0.37517951 0.20916204
vt 0.26042482 0.20916153
vt 0.37517951 0.01961048
vt 0.26042482 0.01961048
vt 0.26239048 0.48678027
vt 0.35468811 0.35065314
vt 0.35511702 0.48687705
vt 0.26283685 0.35063119
vt 0.49394734 0.33972004
vt 0.37919289 0.33972004
vt 0.37919289 0.20636551
vt 0.49394658 0.20636551
vt 0.48124968 0.48220422
vt 0.48318415 0.35378202
vt 0.48318415 0.48220422
vt 0.39536075 0.35378202
vt 0.39536052 0.48220372
vt 0.00503011 0.35917647
vt 0.18969397 0.26261095
vt 0.18969423 0.35917647
vt 0.00502986 0.26261095
vt 0.00335389 0.03239546
vt 0.18802026 0.25869909
vt 0.00335389 0.25869960
vt 0.18802000 0.03239496
vt 0.24287291 0.24166343
vt 0.24289787 0.47040230
vt 0.19346635 0.47019822
vt 0.19344938 0.24183860
vt 0.00277153 0.02162804
vt 0.18851753 0.02162804
vt 0.00277153 0.25095376
vt 0.18851753 0.25095376
vt 0.19539832 0.25100865
vt 0.19541804 0.02226878
vt 0.24484255 0.02244494
vt 0.24482759 0.25080306
vt 0.00502986 0.45687479
vt 0.18969374 0.36030924
vt 0.18969374 0.45687479
vt 0.00502986 0.36030924
vt 0.00503011 0.35917647
vt 0.18969397 0.26261095
vt 0.18969423 0.35917647
vt 0.00502986 0.26261095
vt 0.00335389 0.03239546
vt 0.18802026 0.25869909
vt 0.00335389 0.25869960
vt 0.18802000 0.03239496
vt 0.24287291 0.24166343
vt 0.24289787 0.47040230
vt 0.19346635 0.47019822
vt 0.19344938 0.24183860
vt 0.00277153 0.02162804
vt 0.18851753 0.02162804
vt 0.00277153 0.25095376
vt 0.18851753 0.25095376
vt 0.19539832 0.25100865
vt 0.19541804 0.02226878
vt 0.24484255 0.02244494
vt 0.24482759 0.25080306
vt 0.00502986 0.45687479
vt 0.18969374 0.36030924
vt 0.18969374 0.45687479
vt 0.00502986 0.36030924
vt 0.00503011 0.35917647
vt 0.18969397 0.26261095
vt 0.18969423 0.35917647
vt 0.00502986 0.26261095
vt 0.00335389 0.03239546
vt 0.18802026 0.25869909
vt 0.00335389 0.25869960
vt 0.18802000 0.03239496
vt 0.24287291 0.24166343
vt 0.24289787 0.47040230
vt 0.19346635 0.47019822
vt 0.19344938 0.24183860
vt 0.00277153 0.02162804
vt 0.18851753 0.02162804
vt 0.00277153 0.25095376
vt 0.18851753 0.25095376
vt 0.19539832 0.25100865
vt 0.19541804 0.02226878
vt 0.24484255 0.02244494
vt 0.24482759 0.25080306
vt 0.00502986 0.45687479
vt 0.18969374 0.36030924
vt 0.18969374 0.45687479
vt 0.00502986 0.36030924
vt 0.00503011 0.35917647
vt 0.18969397 0.26261095
vt 0.18969423 0.35917647
vt 0.00502986 0.26261095
vt 0.00335389 0.03239546
vt 0.18802026 0.25869909
vt 0.00335389 0.25869960
vt 0.18802000 0.03239496
vt 0.24287291 0.24166343
vt 0.24289787 0.47040230
vt 0.19346635 0.47019822
vt 0.19344938 0.24183860
vt 0.00277153 0.02162804
vt 0.18851753 0.02162804
vt 0.00277153 0.25095376
vt 0.18851753 0.25095376
vt 0.19539832 0.25100865
vt 0.19541804 0.02226878
vt 0.24484255 0.02244494
vt 0.24482759 0.25080306
vt 0.00502986 0.45687479
vt 0.18969374 0.36030924
vt 0.18969374 0.45687479
vt 0.00502986 0.36030924
vt 0.00503011 0.35917647
vt 0.18969397 0.26261095
vt 0.18969423 0.35917647
vt 0.00502986 0.26261095
vt 0.00335389 0.03239546
vt 0.18802026 0.25869909
vt 0.00335389 0.25869960
vt 0.18802000 0.03239496
vt 0.24287291 0.24166343
vt 0.24289787 0.47040230
vt 0.19346635 0.47019822
vt 0.19344938 0.24183860
vt 0.00277153 0.02162804
vt 0.18851753 0.02162804
vt 0.00277153 0.25095376
vt 0.18851753 0.25095376
vt 0.19539832 0.25100865
vt 0.19541804 0.02226878
vt 0.24484255 0.02244494
vt 0.24482759 0.25080306
vt 0.18969374 0.45687479
vt 0.00502986 0.36030924
vt 0.18969374 0.36030924
vt 0.00502986 0.45687479
vt 0.00503011 0.35917647
vt 0.18969397 0.26261095
vt 0.18969423 0.35917647
vt 0.00502986 0.26261095
vt 0.00335389 0.03239546
vt 0.18802026 0.25869909
vt 0.00335389 0.25869960
vt 0.18802000 0.03239496
vt 0.24287291 0.24166343
vt 0.24289787 0.47040230
vt 0.19346635 0.47019822
vt 0.19344938 0.24183860
vt 0.00277153 0.02162804
vt 0.18851753 0.02162804
vt 0.00277153 0.25095376
vt 0.18851753 0.25095376
vt 0.19539832 0.25100865
vt 0.19541804 0.02226878
vt 0.24484255 0.02244494
vt 0.24482759 0.25080306
vt 0.00502986 0.45687479
vt 0.18969374 0.36030924
vt 0.18969374 0.45687479
vt 0.00502986 0.36030924
vt 0.00503011 0.35917647
vt 0.18969397 0.26261095
vt 0.18969423 0.35917647
vt 0.00502986 0.26261095
vt 0.00335389 0.03239546
vt 0.18802026 0.25869909
vt 0.00335389 0.25869960
vt 0.18802000 0.03239496
vt 0.24287291 0.24166343
vt 0.24289787 0.47040230
vt 0.19346635 0.47019822
vt 0.19344938 0.24183860
vt 0.00277153 0.02162804
vt 0.18851753 0.02162804
vt 0.00277153 0.25095376
vt 0.18851753 0.25095376
vt 0.19539832 0.25100865
vt 0.19541804 0.02226878
vt 0.24484255 0.02244494
vt 0.24482759 0.25080306
vt 0.00502986 0.45687479
vt 0.18969374 0.36030924
vt 0.18969374 0.45687479
vt 0.00502986 0.36030924
vt 0.00503011 0.35917647
vt 0.18969397 0.26261095
vt 0.18969423 0.35917647
vt 0.00502986 0.26261095
vt 0.00335389 0.03239546
vt 0.18802026 0.25869909
vt 0.00335389 0.25869960
vt 0.18802000 0.03239496
vt 0.24287291 0.24166343
vt 0.24289787 0.47040230
vt 0.19346635 0.47019822
vt 0.19344938 0.24183860
vt 0.00277153 0.02162804
vt 0.18851753 0.02162804
vt 0.00277153 0.25095376
vt 0.18851753 0.25095376
vt 0.19539832 0.25100865
vt 0.19541804 0.02226878
vt 0.24484255 0.02244494
vt 0.24482759 0.25080306
vt 0.18969374 0.45687479
vt 0.00502986 0.36030924
vt 0.18969374 0.36030924
vt 0.00502986 0.45687479
vt 0.31260571 0.34726576
vt 0.48823077 0.10481674
vt 0.48823077 0.34726576
vt 0.31260571 0.10481674
vt 0.31310398 0.10481674
vt 0.48872930 0.34726576
vt 0.31310398 0.34726576
vt 0.48872930 0.10481674
vt 0.48872930 0.34726576
vt 0.48872930 0.10481674
vt 0.25677995 0.10481674
vt 0.25677995 0.34726576
vt 0.31310398 0.34726576
vt 0.48872930 0.34726576
vt 0.48872930 0.38239104
vt 0.31310398 0.38239053
vt 0.31310398 0.34726576
vt 0.29554160 0.10481674
vt 0.31310398 0.10481674
vt 0.29554160 0.34726576
vt 0.31038406 0.08828709
vt 0.48600936 0.05316232
vt 0.48600936 0.08828709
vt 0.31038406 0.05316232
vt 0.31260571 0.34726576
vt 0.48823077 0.10481674
vt 0.48823077 0.34726576
vt 0.31260571 0.10481674
vt 0.31310398 0.10481674
vt 0.48872930 0.34726576
vt 0.31310398 0.34726576
vt 0.48872930 0.10481674
vt 0.48872930 0.34726576
vt 0.48872930 0.10481674
vt 0.25677995 0.10481674
vt 0.25677995 0.34726576
vt 0.31310398 0.34726576
vt 0.48872930 0.34726576
vt 0.48872930 0.38239104
vt 0.31310398 0.38239053
vt 0.31310398 0.34726576
vt 0.29554160 0.10481674
vt 0.31310398 0.10481674
vt 0.29554160 0.34726576
vt 0.31038406 0.08828709
vt 0.48600936 0.05316232
vt 0.48600936 0.08828709
vt 0.31038406 0.05316232
vt 0.31260571 0.34726576
vt 0.48823077 0.10481674
vt 0.48823077 0.34726576
vt 0.31260571 0.10481674
vt 0.31310398 0.10481674
vt 0.48872930 0.34726576
vt 0.31310398 0.34726576
vt 0.48872930 0.10481674
vt 0.48872930 0.34726576
vt 0.48872930 0.10481674
vt 0.25677995 0.10481674
vt 0.25677995 0.34726576
vt 0.31310398 0.34726576
vt 0.48872930 0.34726576
vt 0.48872930 0.38239104
vt 0.31310398 0.38239053
vt 0.31310398 0.34726576
vt 0.29554160 0.10481674
vt 0.31310398 0.10481674
vt 0.29554160 0.34726576
vt 0.31038406 0.08828709
vt 0.48600936 0.05316232
vt 0.48600936 0.08828709
vt 0.31038406 0.05316232
vt 0.31260571 0.34726576
vt 0.48823077 0.10481674
vt 0.48823077 0.34726576
vt 0.31260571 0.10481674
vt 0.31310398 0.10481674
vt 0.48872930 0.34726576
vt 0.31310398 0.34726576
vt 0.48872930 0.10481674
vt 0.48872930 0.34726576
vt 0.48872930 0.10481674
vt 0.25677995 0.10481674
vt 0.25677995 0.34726576
vt 0.31310398 0.34726576
vt 0.48872930 0.34726576
vt 0.48872930 0.38239104
vt 0.31310398 0.38239053
vt 0.31310398 0.34726576
vt 0.29554160 0.10481674
vt 0.31310398 0.10481674
vt 0.29554160 0.34726576
vt 0.31038406 0.08828709
vt 0.48600936 0.05316232
vt 0.48600936 0.08828709
vt 0.31038406 0.05316232
vt 0.31260571 0.34726576
vt 0.48823077 0.10481674
vt 0.48823077 0.34726576
vt 0.31260571 0.10481674
vt 0.31310398 0.10481674
vt 0.48872930 0.34726576
vt 0.31310398 0.34726576
vt 0.48872930 0.10481674
vt 0.48872930 0.34726576
vt 0.48872930 0.10481674
vt 0.25677995 0.10481674
vt 0.25677995 0.34726576
vt 0.31310398 0.34726576
vt 0.48872930 0.34726576
vt 0.48872930 0.38239104
vt 0.31310398 0.38239053
vt 0.31310398 0.10481674
vt 0.31310398 0.34726576
vt 0.29554160 0.34726576
vt 0.29554160 0.10481674
vt 0.48600936 0.08828709
vt 0.31038406 0.08828709
vt 0.31038406 0.05316232
vt 0.48600936 0.05316232
vt 0.31260571 0.34726576
vt 0.48823077 0.10481674
vt 0.48823077 0.34726576
vt 0.31260571 0.10481674
vt 0.31310398 0.10481674
vt 0.48872930 0.34726576
vt 0.31310398 0.34726576
vt 0.48872930 0.10481674
vt 0.48872930 0.34726576
vt 0.48872930 0.10481674
vt 0.25677995 0.10481674
vt 0.25677995 0.34726576
vt 0.31310398 0.34726576
vt 0.48872930 0.34726576
vt 0.48872930 0.38239104
vt 0.31310398 0.38239053
vt 0.31310398 0.10481674
vt 0.31310398 0.34726576
vt 0.29554160 0.34726576
vt 0.29554160 0.10481674
vt 0.48600936 0.08828709
vt 0.31038406 0.08828709
vt 0.31038406 0.05316232
vt 0.48600936 0.05316232
vt 0.31260571 0.34726576
vt 0.48823077 0.10481674
vt 0.48823077 0.34726576
vt 0.31260571 0.10481674
vt 0.31310398 0.10481674
vt 0.48872930 0.34726576
vt 0.31310398 0.34726576
vt 0.48872930 0.10481674
vt 0.48872930 0.34726576
vt 0.48872930 0.10481674
vt 0.25677995 0.10481674
vt 0.25677995 0.34726576
vt 0.31310398 0.34726576
vt 0.48872930 0.34726576
vt 0.48872930 0.38239104
vt 0.31310398 0.38239053
vt 0.31310398 0.34726576
vt 0.29554160 0.10481674
vt 0.31310398 0.10481674
vt 0.29554160 0.34726576
vt 0.31038406 0.08828709
vt 0.48600936 0.05316232
vt 0.48600936 0.08828709
vt 0.31038406 0.05316232
vt 0.31260571 0.34726576
vt 0.48823077 0.10481674
vt 0.48823077 0.34726576
vt 0.31260571 0.10481674
vt 0.31310398 0.10481674
vt 0.48872930 0.34726576
vt 0.31310398 0.34726576
vt 0.48872930 0.10481674
vt 0.48872930 0.34726576
vt 0.48872930 0.10481674
vt 0.25677995 0.10481674
vt 0.25677995 0.34726576
vt 0.31310398 0.34726576
vt 0.48872930 0.34726576
vt 0.48872930 0.38239104
vt 0.31310398 0.38239053
vt 0.31310398 0.34726576
vt 0.29554160 0.10481674
vt 0.31310398 0.10481674
vt 0.29554160 0.34726576
vt 0.31038406 0.08828709
vt 0.48600936 0.05316232
vt 0.48600936 0.08828709
vt 0.31038406 0.05316232
vt 0.31260571 0.34726576
vt 0.48823077 0.10481674
vt 0.48823077 0.34726576
vt 0.31260571 0.10481674
vt 0.31310398 0.10481674
vt 0.48872930 0.34726576
vt 0.31310398 0.34726576
vt 0.48872930 0.10481674
vt 0.48872930 0.34726576
vt 0.48872930 0.10481674
vt 0.25677995 0.10481674
vt 0.25677995 0.34726576
vt 0.31310398 0.34726576
vt 0.48872930 0.34726576
vt 0.48872930 0.38239104
vt 0.31310398 0.38239053
vt 0.31310398 0.10481674
vt 0.31310398 0.34726576
vt 0.29554160 0.34726576
vt 0.29554160 0.10481674
vt 0.48600936 0.08828709
vt 0.31038406 0.08828709
vt 0.31038406 0.05316232
vt 0.48600936 0.05316232
vt 0.31260571 0.34726576
vt 0.48823077 0.10481674
vt 0.48823077 0.34726576
vt 0.31260571 0.10481674
vt 0.31310398 0.10481674
vt 0.48872930 0.34726576
vt 0.31310398 0.34726576
vt 0.48872930 0.10481674
vt 0.48872930 0.34726576
vt 0.48872930 0.10481674
vt 0.25677995 0.10481674
vt 0.25677995 0.34726576
vt 0.31310398 0.34726576
vt 0.48872930 0.34726576
vt 0.48872930 0.38239104
vt 0.31310398 0.38239053
vt 0.31310398 0.10481674
vt 0.31310398 0.34726576
vt 0.29554160 0.34726576
vt 0.29554160 0.10481674
vt 0.31038406 0.08828709
vt 0.48600936 0.05316232
vt 0.48600936 0.08828709
vt 0.31038406 0.05316232
vt 0.31260571 0.34726576
vt 0.48823077 0.10481674
vt 0.48823077 0.34726576
vt 0.31260571 0.10481674
vt 0.31310398 0.10481674
vt 0.48872930 0.34726576
vt 0.31310398 0.34726576
vt 0.48872930 0.10481674
vt 0.48872930 0.34726576
vt 0.48872930 0.10481674
vt 0.25677995 0.10481674
vt 0.25677995 0.34726576
vt 0.31310398 0.34726576
vt 0.48872930 0.34726576
vt 0.48872930 0.38239104
vt 0.31310398 0.38239053
vt 0.31310398 0.34726576
vt 0.29554160 0.10481674
vt 0.31310398 0.10481674
vt 0.29554160 0.34726576
vt 0.31038406 0.08828709
vt 0.48600936 0.05316232
vt 0.48600936 0.08828709
vt 0.31038406 0.05316232
vt 0.31260571 0.34726576
vt 0.48823077 0.10481674
vt 0.48823077 0.34726576
vt 0.31260571 0.10481674
vt 0.31310398 0.10481674
vt 0.48872930 0.34726576
vt 0.31310398 0.34726576
vt 0.48872930 0.10481674
vt 0.48872930 0.34726576
vt 0.48872930 0.10481674
vt 0.25677995 0.10481674
vt 0.25677995 0.34726576
vt 0.31310398 0.34726576
vt 0.48872930 0.34726576
vt 0.48872930 0.38239104
vt 0.31310398 0.38239053
vt 0.31310398 0.34726576
vt 0.29554160 0.10481674
vt 0.31310398 0.10481674
vt 0.29554160 0.34726576
vt 0.31038406 0.08828709
vt 0.48600936 0.05316232
vt 0.48600936 0.08828709
vt 0.31038406 0.05316232
vt 0.31260571 0.34726576
vt 0.48823077 0.10481674
vt 0.48823077 0.34726576
vt 0.31260571 0.10481674
vt 0.31310398 0.10481674
vt 0.48872930 0.34726576
vt 0.31310398 0.34726576
vt 0.48872930 0.10481674
vt 0.48872930 0.34726576
vt 0.48872930 0.10481674
vt 0.25677995 0.10481674
vt 0.25677995 0.34726576
vt 0.31310398 0.34726576
vt 0.48872930 0.34726576
vt 0.48872930 0.38239104
vt 0.31310398 0.38239053
vt 0.31310398 0.10481674
vt 0.31310398 0.34726576
vt 0.29554160 0.34726576
vt 0.29554160 0.10481674
vt 0.48600936 0.08828709
vt 0.31038406 0.08828709
vt 0.31038406 0.05316232
vt 0.48600936 0.05316232
vt 0.31260571 0.34726576
vt 0.48823077 0.10481674
vt 0.48823077 0.34726576
vt 0.31260571 0.10481674
vt 0.31310398 0.10481674
vt 0.48872930 0.34726576
vt 0.31310398 0.34726576
vt 0.48872930 0.10481674
vt 0.48872930 0.34726576
vt 0.48872930 0.10481674
vt 0.25677995 0.10481674
vt 0.25677995 0.34726576
vt 0.31310398 0.34726576
vt 0.48872930 0.34726576
vt 0.48872930 0.38239104
vt 0.31310398 0.38239053
vt 0.31310398 0.10481674
vt 0.31310398 0.34726576
vt 0.29554160 0.34726576
vt 0.29554160 0.10481674
vt 0.31038406 0.08828709
vt 0.48600936 0.05316232
vt 0.48600936 0.08828709
vt 0.31038406 0.05316232
f 1/1 2/2 3/3
f 3/3 4/4 1/1
f 5/5 6/6 7/7
f 7/7 8/8 5/5
f 9/9 10/10 11/11
f 11/11 12/12 9/9
f 13/13 14/14 15/15
f 15/15 16/16 13/13
f 17/17 18/18 19/19
f 19/19 20/20 17/17
f 21/21 22/22 23/23
f 23/23 24/24 21/21
f 25/25 26/26 27/27
f 27/27 28/28 25/25
f 29/29 30/30 31/31
f 31/31 32/32 29/29
f 33/33 34/34 35/35
f 35/35 36/36 33/33
f 37/37 38/38 39/39
f 39/39 40/40 37/37
f 41/41 42/42 43/43
f 43/43 44/44 41/41
f 45/45 46/46 47/47
f 47/47 48/48 45/45
f 49/49 50/50 51/51
f 51/51 52/52 49/49
f 53/53 54/54 55/55
f 55/55 56/56 53/53
f 57/57 58/58 59/59
f 59/59 60/60 57/57
f 61/61 62/62 63/63
f 63/63 64/64 61/61
f 65/65 66/66 67/67
f 67/67 68/68 65/65
f 69/69 70/70 71/71
f 71/71 72/72 69/69
f 73/73 74/74 75/75
f 75/75 76/76 73/73
f 77/77 78/78 79/79
f 79/79 80/80 77/77
f 81/81 82/82 83/83
f 83/83 84/84 81/81
f 85/85 86/86 87/87
f 87/87 88/88 85/85
f 89/89 90/90 91/91
f 91/91 92/92 89/89
f 93/93 94/94 95/95
f 95/95 96/96 93/93
f 97/97 98/98 99/99
f 99/99 100/100 97/97
f 101/101 102/102 103/103
f 103/103 104/104 101/101
f 105/105 106/106 107/107
f 107/107 108/108 105/105
f 109/109 110/110 111/111
f 111/111 112/112 109/109
f 113/113 114/114 115/115
f 115/115 116/116 113/113
f 117/117 118/118 119/119
f 119/119 120/120 117/117
f 121/121 122/122 123/123
f 123/123 124/124 121/121
f 125/125 126/126 127/127
f 127/127 128/128 125/125
f 129/129 130/130 131/131
f 131/131 132/132 129/129
f 133/133 134/134 135/135
f 135/135 136/136 133/133
f 137/137 138/138 139/139
f 139/139 140/140 137/137
f 141/141 142/142 143/143
f 143/143 144/144 141/141
f 145/145 146/146 147/147
f 147/147 148/148 145/145
f 149/149 150/150 151/151
f 151/151 152/152 149/149
f 153/153 154/154 155/155
f 155/155 156/156 153/153
f 157/157 158/158 159/159
f 159/159 160/160 157/157
f 161/161 162/162 163/163
f 163/163 164/164 161/161
f 165/165 166/166 167/167
f 167/167 168/168 165/165
f 169/169 170/170 171/171
f 171/171 172/172 169/169
f 173/173 174/174 175/175
f 175/175 176/176 173/173
f 177/177 178/178 179/179
f 179/179 180/180 177/177
f 181/181 182/182 183/183
f 183/183 184/184 181/181
f 185/185 186/186 187/187
f 187/187 188/188 185/185
f 189/189 190/190 191/191
f 191/191 192/192 189/189
f 193/193 194/194 195/195
f 195/195 196/196 193/193
f 197/197 198/198 199/199
f 199/199 200/200 197/197
f 201/201 202/202 203/203
f 203/203 204/204 201/201
f 205/205 206/206 207/207
f 207/207 208/208 205/205
f 209/209 210/210 211/211
f 211/211 212/212 209/209
f 213/213 214/214 215/215
f 215/215 216/216 213/213
f 217/217 218/218 219/219
f 219/219 220/220 217/217
f 221/221 222/222 223/223
f 223/223 224/224 221/221
f 225/225 226/226 227/227
f 227/227 228/228 225/225
f 229/229 230/230 231/231
f 231/231 232/232 229/229
f 233/233 234/234 235/235
f 235/235 236/236 233/233
f 237/237 238/238 239/239
f 239/239 240/240 237/237
f 241/241 242/242 243/243
f 243/243 244/244 241/241
f 245/245 246/246 247/247
f 247/247 248/248 245/245
f 249/249 250/250 251/251
f 251/251 252/252 249/249
f 253/253 254/254 255/255
f 255/255 256/256 253/253
f 257/257 258/258 259/259
f 259/259 260/260 257/257
f 261/261 262/262 263/263
f 263/263 264/264 261/261
f 265/265 266/266 267/267
f 267/267 268/268 265/265
f 269/269 270/270 271/271
f 271/271 272/272 269/269
f 273/273 274/274 275/275
f 275/275 276/276 273/273
f 277/277 278/278 279/279
f 279/279 280/280 277/277
f 281/281 282/282 283/283
f 283/283 284/284 281/281
f 285/285 286/286 287/287
f 287/287 288/288 285/285
f 289/289 290/290 291/291
f 291/291 292/292 289/289
f 293/293 294/294 295/295
f 295/295 296/296 293/293
f 297/297 298/298 299/299
f 299/299 300/300 297/297
f 301/301 302/302 303/303
f 303/303 304/304 301/301
f 305/305 306/306 307/307
f 307/307 308/308 305/305
f 309/309 310/310 311/311
f 311/311 312/312 309/309
f 313/313 314/314 315/315
f 315/315 316/316 313/313
f 317/317 318/318 319/319
f 319/319 320/320 317/317
f 321/321 322/322 323/323
f 323/323 324/324 321/321
f 325/325 326/326 327/327
f 327/327 328/328 325/325
f 329/329 330/330 331/331
f 331/331 332/332 329/329
f 333/333 334/334 335/335
f 335/335 336/336 333/333
f 337/337 338/338 339/339
f 339/339 340/340 337/337
f 341/341 342/342 343/343
f 343/343 344/344 341/341
f 345/345 346/346 347/347
f 347/347 348/348 345/345
f 349/349 350/350 351/351
f 351/351 352/352 349/349
f 353/353 354/354 355/355
f 355/355 356/356 353/353
f 357/357 358/358 359/359
f 359/359 360/360 357/357
f 361/361 362/362 363/363
f 363/363 364/364 361/361
f 365/365 366/366 367/367
f 367/367 368/368 365/365
f 369/369 370/370 371/371
f 371/371 372/372 369/369
f 373/373 374/374 375/375
f 375/375 376/376 373/373
f 377/377 378/378 379/379
f 379/379 380/380 377/377
f 381/381 382/382 383/383
f 383/383 384/384 381/381
f 385/385 386/386 387/387
f 387/387 388/388 385/385
f 389/389 390/390 391/391
f 391/391 392/392 389/389
f 393/393 394/394 395/395
f 395/395 396/396 393/393
f 397/397 398/398 399/399
f 399/399 400/400 397/397
f 401/401 402/402 403/403
f 403/403 404/404 401/401
f 405/405 406/406 407/407
f 407/407 408/408 405/405
f 409/409 410/410 411/411
f 411/411 412/412 409/409
f 413/413 414/414 415/415
f 415/415 416/416 413/413
f 417/417 418/418 419/419
f 419/419 420/420 417/417
f 421/421 422/422 423/423
f 423/423 424/424 421/421
f 425/425 426/426 427/427
f 427/427 428/428 425/425
f 429/429 430/430 431/431
f 431/431 432/432 429/429
f 433/433 434/434 435/435
f 435/435 436/436 433/433
f 437/437 438/438 439/439
f 439/439 440/440 437/437
f 441/441 442/442 443/443
f 443/443 444/444 441/441
f 445/445 446/446 447/447
f 447/447 448/448 445/445
f 449/449 450/450 451/451
f 451/451 452/452 449/449
f 453/453 454/454 455/455
f 455/455 456/456 453/453
f 457/457 458/458 459/459
f 459/459 460/460 457/457
f 461/461 462/462 463/463
f 463/463 464/464 461/461
f 465/465 466/466 467/467
f 467/467 468/468 465/465
f 469/469 470/470 471/471
f 471/471 472/472 469/469
f 473/473 474/474 475/475
f 475/475 476/476 473/473
f 477/477 478/478 479/479
f 479/479 480/480 477/477
f 481/481 482/482 483/483
f 483/483 484/484 481/481
f 485/485 486/486 487/487
f 487/487 488/488 485/485
f 489/489 490/490 491/491
f 491/491 492/492 489/489
f 493/493 494/494 495/495
f 495/495 496/496 493/493
f 497/497 498/498 499/499
f 499/499 500/500 497/497
f 501/501 502/502 503/503
f 503/503 504/504 501/501
f 505/505 506/506 507/507
f 507/507 508/508 505/505
f 509/509 510/510 511/511
f 511/511 512/512 509/509
f 513/513 514/514 515/515
f 515/515 516/516 513/513
f 517/517 518/518 519/519
f 519/519 520/520 517/517
f 521/521 522/522 523/523
f 523/523 524/524 521/521
f 525/525 526/526 527/527
f 527/527 528/528 525/525
f 529/529 530/530 531/531
f 531/531 532/532 529/529
f 533/533 534/534 535/535
f 535/535 536/536 533/533
f 537/537 538/538 539/539
f 539/539 540/540 537/537
f 541/541 542/542 543/543
f 543/543 544/544 541/541
f 545/545 546/546 547/547
f 547/547 548/548 545/545
f 549/549 550/550 551/551
f 551/551 552/552 549/549
f 553/553 554/554 555/555
f 555/555 556/556 553/553
f 557/557 558/558 559/559
f 559/559 560/560 557/557
f 561/561 562/562 563/563
f 563/563 564/564 561/561
f 565/565 566/566 567/567
f 567/567 568/568 565/565
f 569/569 570/570 571/571
f 571/571 572/572 569/569
f 573/573 574/574 575/575
f 575/575 576/576 573/573
f 577/577 578/578 579/579
f 579/579 580/580 577/577
f 581/581 582/582 583/583
f 583/583 584/584 581/581
f 585/585 586/586 587/587
f 587/587 588/588 585/585
f 589/589 590/590 591/591
f 591/591 592/592 589/589
f 593/593 594/594 595/595
f 595/595 596/596 593/593
f 597/597 598/598 599/599
f 599/599 600/600 597/597
f 601/601 602/602 603/603
f 603/603 604/604 601/601
f 605/605 606/606 607/607
f 607/607 608/608 605/605
f 609/609 610/610 611/611
f 611/611 612/612 609/609
f 613/613 614/614 615/615
f 615/615 616/616 613/613
f 617/617 618/618 619/619
f 619/619 620/620 617/617
f 621/621 622/622 623/623
f 623/623 624/624 621/621
f 625/625 626/626 627/627
f 626/626 625/625 628/628
f 629/629 630/630 631/631
f 630/630 629/629 632/632
f 633/633 634/634 635/635
f 634/634 633/633 636/636
f 637/637 636/636 633/633
f 638/638 639/639 640/640
f 639/639 638/638 641/641
f 642/642 643/643 644/644
f 642/642 644/644 645/645
f 646/646 647/647 648/648
f 647/647 646/646 649/649
f 646/646 650/650 649/649
f 651/651 652/652 653/653
f 652/652 651/651 654/654
f 655/655 656/656 657/657
f 656/656 655/655 658/658
f 659/659 660/660 661/661
f 660/660 659/659 662/662
f 663/663 662/662 659/659
f 664/664 665/665 666/666
f 665/665 664/664 667/667
f 668/668 669/669 670/670
f 668/668 670/670 671/671
f 672/672 673/673 674/674
f 673/673 672/672 675/675
f 672/672 676/676 675/675
f 677/677 678/678 679/679
f 678/678 677/677 680/680
f 681/681 682/682 683/683
f 682/682 681/681 684/684
f 685/685 686/686 687/687
f 686/686 685/685 688/688
f 689/689 688/688 685/685
f 690/690 691/691 692/692
f 691/691 690/690 693/693
f 694/694 695/695 696/696
f 694/694 696/696 697/697
f 698/698 699/699 700/700
f 699/699 698/698 701/701
f 698/698 702/702 701/701
f 703/703 704/704 705/705
f 704/704 703/703 706/706
f 707/707 708/708 709/709
f 708/708 707/707 710/710
f 711/711 712/712 713/713
f 712/712 711/711 714/714
f 715/715 714/714 711/711
f 716/716 717/717 718/718
f 717/717 716/716 719/719
f 720/720 721/721 722/722
f 720/720 722/722 723/723
f 724/724 725/725 726/726
f 725/725 724/724 727/727
f 724/724 728/728 727/727
f 729/729 730/730 731/731
f 730/730 729/729 732/732
f 733/733 734/734 735/735
f 734/734 733/733 736/736
f 737/737 738/738 739/739
f 737/737 739/739 740/740
f 741/741 742/742 743/743
f 742/742 744/744 743/743
f 745/745 746/746 747/747
f 745/745 747/747 748/748
f 749/749 750/750 751/751
f 750/750 749/749 752/752
f 753/753 754/754 755/755
f 754/754 753/753 756/756
f 757/757 758/758 759/759
f 758/758 757/757 760/760
f 761/761 762/762 763/763
f 761/761 763/763 764/764
f 765/765 766/766 767/767
f 766/766 768/768 767/767
f 769/769 770/770 771/771
f 769/769 771/771 772/772
f 773/773 774/774 775/775
f 774/774 773/773 776/776
f 777/777 778/778 779/779
f 778/778 777/777 780/780
f 781/781 782/782 783/783
f 782/782 781/781 784/784
f 785/785 786/786 787/787
f 785/785 787/787 788/788
f 789/789 790/790 791/791
f 790/790 792/792 791/791
f 793/793 794/794 795/795
f 793/793 795/795 796/796
f 797/797 798/798 799/799
f 798/798 797/797 800/800
f 801/801 802/802 803/803
f 802/802 801/801 804/804
f 805/805 806/806 807/807
f 806/806 805/805 808/808
f 809/809 810/810 811/811
f 809/809 811/811 812/812
f 813/813 814/814 815/815
f 814/814 816/816 815/815
f 817/817 818/818 819/819
f 817/817 819/819 820/820
f 821/821 822/822 823/823
f 822/822 821/821 824/824
f 825/825 826/826 827/827
f 826/826 825/825 828/828
f 829/829 830/830 831/831
f 830/830 829/829 832/832
f 833/833 834/834 835/835
f 833/833 835/835 836/836
f 837/837 838/838 839/839
f 838/838 840/840 839/839
f 841/841 842/842 843/843
f 841/841 843/843 844/844
f 845/845 846/846 847/847
f 846/846 845/845 848/848
f 849/849 850/850 851/851
f 850/850 849/849 852/852
f 853/853 854/854 855/855
f 854/854 853/853 856/856
f 857/857 858/858 859/859
f 857/857 859/859 860/860
f 861/861 862/862 863/863
f 862/862 864/864 863/863
f 865/865 866/866 867/867
f 865/865 867/867 868/868
f 869/869 870/870 871/871
f 870/870 869/869 872/872
f 873/873 874/874 875/875
f 874/874 873/873 876/876
f 877/877 878/878 879/879
f 878/878 877/877 880/880
f 881/881 882/882 883/883
f 881/881 883/883 884/884
f 885/885 886/886 887/887
f 886/886 888/888 887/887
f 889/889 890/890 891/891
f 889/889 891/891 892/892
f 893/893 894/894 895/895
f 894/894 893/893 896/896
f 897/897 898/898 899/899
f 898/898 897/897 900/900
f 901/901 902/902 903/903
f 902/902 901/901 904/904
f 905/905 906/906 907/907
f 905/905 907/907 908/908
f 909/909 910/910 911/911
f 910/910 912/912 911/911
f 913/913 914/914 915/915
f 913/913 915/915 916/916
f 917/917 918/918 919/919
f 918/918 917/917 920/920
f 921/921 922/922 923/923
f 922/922 921/921 924/924
f 925/925 926/926 927/927
f 926/926 925/925 928/928
f 929/929 930/930 931/931
f 929/929 931/931 932/932
f 933/933 934/934 935/935
f 933/933 935/935 936/936
f 937/937 938/938 939/939
f 938/938 937/937 940/940
f 941/941 942/942 943/943
f 942/942 941/941 944/944
f 945/945 946/946 947/947
f 946/946 945/945 948/948
f 949/949 950/950 951/951
f 950/950 949/949 952/952
f 953/953 954/954 955/955
f 953/953 955/955 956/956
f 957/957 958/958 959/959
f 957/957 959/959 960/960
f 961/961 962/962 963/963
f 962/962 961/961 964/964
f 965/965 966/966 967/967
f 966/966 965/965 968/968
f 969/969 970/970 971/971
f 970/970 969/969 972/972
f 973/973 974/974 975/975
f 974/974 973/973 976/976
f 977/977 978/978 979/979
f 977/977 979/979 980/980
f 981/981 982/982 983/983
f 981/981 983/983 984/984
f 985/985 986/986 987/987
f 986/986 985/985 988/988
f 989/989 990/990 991/991
f 990/990 989/989 992/992
f 993/993 994/994 995/995
f 994/994 993/993 996/996
f 997/997 998/998 999/999
f 998/998 997/997 1000/1000
f 1001/1001 1002/1002 1003/1003
f 1001/1001 1003/1003 1004/1004
f 1005/1005 1006/1006 1007/1007
f 1005/1005 1007/1007 1008/1008
f 1009/1009 1010/1010 1011/1011
f 1010/1010 1009/1009 1012/1012
f 1013/1013 1014/1014 1015/1015
f 1014/1014 1013/1013 1016/1016
f 1017/1017 1018/1018 1019/1019
f 1018/1018 1017/1017 1020/1020
f 1021/1021 1022/1022 1023/1023
f 1022/1022 1021/1021 1024/1024
f 1025/1025 1026/1026 1027/1027
f 1025/1025 1027/1027 1028/1028
f 1029/1029 1030/1030 1031/1031
f 1029/1029 1031/1031 1032/1032
f 1033/1033 1034/1034 1035/1035
f 1033/1033 1035/1035 1036/1036
f 1037/1037 1038/1038 1039/1039
f 1037/1037 1039/1039 1040/1040
f 1041/1041 1042/1042 1043/1043
f 1042/1042 1041/1041 1044/1044
f 1045/1045 1046/1046 1047/1047
f 1046/1046 1045/1045 1048/1048
f 1049/1049 1050/1050 1051/1051
f 1049/1049 1051/1051 1052/1052
f 1053/1053 1054/1054 1055/1055
f 1053/1053 1055/1055 1056/1056
f 1057/1057 1058/1058 1059/1059
f 1057/1057 1059/1059 1060/1060
f 1061/1061 1062/1062 1063/1063
f 1061/1061 1063/1063 1064/1064
f 1065/1065 1066/1066 1067/1067
f 1066/1066 1065/1065 1068/1068
f 1069/1069 1070/1070 1071/1071
f 1070/1070 1069/1069 1072/1072
f 1073/1073 1074/1074 1075/1075
f 1073/1073 1075/1075 1076/1076
f 1077/1077 1078/1078 1079/1079
f 1077/1077 1079/1079 1080/1080
f 1081/1081 1082/1082 1083/1083
f 1082/1082 1081/1081 1084/1084
f 1085/1085 1086/1086 1087/1087
f 1086/1086 1085/1085 1088/1088
f 1089/1089 1090/1090 1091/1091
f 1090/1090 1089/1089 1092/1092
f 1093/1093 1094/1094 1095/1095
f 1094/1094 1093/1093 1096/1096
f 1097/1097 1098/1098 1099/1099
f 1097/1097 1099/1099 1100/1100
f 1101/1101 1102/1102 1103/1103
f 1101/1101 1103/1103 1104/1104
f 1105/1105 1106/1106 1107/1107
f 1106/1106 1105/1105 1108/1108
f 1109/1109 1110/1110 1111/1111
f 1110/1110 1109/1109 1112/1112
f 1113/1113 1114/1114 1115/1115
f 1114/1114 1113/1113 1116/1116
f 1117/1117 1118/1118 1119/1119
f 1118/1118 1117/1117 1120/1120
f 1121/1121 1122/1122 1123/1123
f 1121/1121 1123/1123 1124/1124
f 1125/1125 1126/1126 1127/1127
f 1125/1125 1127/1127 1128/1128
f 1129/1129 1130/1130 1131/1131
f 1129/1129 1131/1131 1132/1132
f 1133/1133 1134/1134 1135/1135
f 1133/1133 1135/1135 1136/1136
f 1137/1137 1138/1138 1139/1139
f 1138/1138 1137/1137 1140/1140
f 1141/1141 1142/1142 1143/1143
f 1142/1142 1141/1141 1144/1144
f 1145/1145 1146/1146 1147/1147
f 1145/1145 1147/1147 1148/1148
f 1149/1149 1150/1150 1151/1151
f 1149/1149 1151/1151 1152/1152
f 1153/1153 1154/1154 1155/1155
f 1153/1153 1155/1155 1156/1156
f 1157/1157 1158/1158 1159/1159
f 1158/1158 1157/1157 1160/1160
f 1161/1161 1162/1162 1163/1163
f 1162/1162 1161/1161 1164/1164
f 1165/1165 1166/1166 1167/1167
f 1166/1166 1165/1165 1168/1168
f 1169/1169 1170/1170 1171/1171
f 1169/1169 1171/1171 1172/1172
f 1173/1173 1174/1174 1175/1175
f 1173/1173 1175/1175 1176/1176
f 1177/1177 1178/1178 1179/1179
f 1178/1178 1177/1177 1180/1180
f 1181/1181 1182/1182 1183/1183
f 1182/1182 1181/1181 1184/1184
f 1185/1185 1186/1186 1187/1187
f 1186/1186 1185/1185 1188/1188
f 1189/1189 1190/1190 1191/1191
f 1190/1190 1189/1189 1192/1192
f 1193/1193 1194/1194 1195/1195
f 1193/1193 1195/1195 1196/1196
f 1197/1197 1198/1198 1199/1199
f 1197/1197 1199/1199 1200/1200
f 1201/1201 1202/1202 1203/1203
f 1202/1202 1201/1201 1204/1204
f 1205/1205 1206/1206 1207/1207
f 1206/1206 1205/1205 1208/1208
f 1209/1209 1210/1210 1211/1211
f 1210/1210 1209/1209 1212/1212
f 1213/1213 1214/1214 1215/1215
f 1214/1214 1213/1213 1216/1216
f 1217/1217 1218/1218 1219/1219
f 1217/1217 1219/1219 1220/1220
f 1221/1221 1222/1222 1223/1223
f 1221/1221 1223/1223 1224/1224
f 1225/1225 1226/1226 1227/1227
f 1225/1225 1227/1227 1228/1228
f 1229/1229 1230/1230 1231/1231
f 1229/1229 1231/1231 1232/1232
f 1233/1233 1234/1234 1235/1235
f 1234/1234 1233/1233 1236/1236
f 1237/1237 1238/1238 1239/1239
f 1238/1238 1237/1237 1240/1240
f 1241/1241 1242/1242 1243/1243
f 1241/1241 1243/1243 1244/1244
f 1245/1245 1246/1246 1247/1247
f 1245/1245 1247/1247 1248/1248
f 1249/1249 1250/1250 1251/1251
f 1249/1249 1251/1251 1252/1252
f 1253/1253 1254/1254 1255/1255
f 1254/1254 1253/1253 1256/1256

