# https://github.com/mikedh/trimesh
mtllib material.mtl
usemtl material_0
v 0.00000031 0.03105404 0.11325655
v 0.00008331 0.00005436 0.00000000
v 0.00000000 0.00000004 0.11325655
v 0.00008331 0.03099976 0.00000000
v 0.00008331 0.00005436 0.00000000
v 0.05512512 0.00000000 0.11325655
v 0.00000000 0.00000004 0.11325655
v 0.05504181 0.00005444 0.00000000
v 0.05512512 0.00000000 0.11325655
v 0.05504181 0.00005444 0.00000000
v 0.05512497 0.03105408 0.11325655
v 0.05504181 0.03099976 0.00000000
v 0.05504181 0.03099976 0.00000000
v 0.00000031 0.03105404 0.11325655
v 0.05512497 0.03105408 0.11325655
v 0.00008331 0.03099976 0.00000000
v 0.00499786 0.02839584 0.11428630
v 0.00000000 0.00000004 0.11325655
v 0.00499786 0.00265827 0.11428630
v 0.00000031 0.03105404 0.11325655
v 0.05512512 0.00000000 0.11325655
v 0.00499786 0.00265827 0.11428630
v 0.00000000 0.00000004 0.11325655
v 0.05012726 0.00265827 0.11428630
v 0.05512497 0.03105408 0.11325655
v 0.05012726 0.00265827 0.11428630
v 0.05512512 0.00000000 0.11325655
v 0.05012726 0.02839588 0.11428630
v 0.00000031 0.03105404 0.11325655
v 0.05012726 0.02839588 0.11428630
v 0.05512497 0.03105408 0.11325655
v 0.00499786 0.02839584 0.11428630
v 0.00522125 0.02827728 2.61290519
v 0.00499786 0.00265827 0.11428630
v 0.00522125 0.00277679 2.61290519
v 0.00499786 0.02839584 0.11428630
v 0.00522125 0.00277679 2.61290519
v 0.05012726 0.00265827 0.11428630
v 0.04990509 0.00277679 2.61290519
v 0.00499786 0.00265827 0.11428630
v 0.04990509 0.00277679 2.61290519
v 0.05012726 0.00265827 0.11428630
v 0.04990509 0.02827728 2.61290519
v 0.05012726 0.02839588 0.11428630
v 0.04990509 0.02827728 2.61290519
v 0.05012726 0.02839588 0.11428630
v 0.00522125 0.02827728 2.61290519
v 0.00499786 0.02839584 0.11428630
v 0.00522125 0.02827728 2.61290519
v 0.04990509 0.00277679 2.61290519
v 0.04990509 0.02827728 2.61290519
v 0.00522125 0.00277679 2.61290519
v 3.86206131 0.87240402 0.11325655
v 3.86214478 0.84140434 0.00000000
v 3.86206131 0.84134991 0.11325655
v 3.86214478 0.87234966 0.00000000
v 3.86206131 0.84134991 0.11325655
v 3.86214478 0.84140434 0.00000000
v 3.91718674 0.84134995 0.11325655
v 3.91710327 0.84140430 0.00000000
v 3.91718674 0.84134995 0.11325655
v 3.91710327 0.84140430 0.00000000
v 3.91718674 0.87240406 0.11325655
v 3.91710327 0.87234970 0.00000000
v 3.91718674 0.87240406 0.11325655
v 3.86214478 0.87234966 0.00000000
v 3.86206131 0.87240402 0.11325655
v 3.91710327 0.87234970 0.00000000
v 3.86206131 0.87240402 0.11325655
v 3.86705917 0.84400822 0.11428630
v 3.86705917 0.86974586 0.11428630
v 3.86206131 0.84134991 0.11325655
v 3.91718674 0.84134995 0.11325655
v 3.86705917 0.84400822 0.11428630
v 3.86206131 0.84134991 0.11325655
v 3.91218918 0.84400829 0.11428630
v 3.91718674 0.87240406 0.11325655
v 3.91218918 0.84400829 0.11428630
v 3.91718674 0.84134995 0.11325655
v 3.91218918 0.86974590 0.11428630
v 3.91718674 0.87240406 0.11325655
v 3.86206131 0.87240402 0.11325655
v 3.86705917 0.86974586 0.11428630
v 3.91218918 0.86974590 0.11428630
v 3.86728210 0.86962742 2.61290519
v 3.86705917 0.86974586 0.11428630
v 3.86728210 0.84412685 2.61290519
v 3.86705917 0.84400822 0.11428630
v 3.86728210 0.84412685 2.61290519
v 3.86705917 0.84400822 0.11428630
v 3.91196579 0.84412689 2.61290519
v 3.91218918 0.84400829 0.11428630
v 3.91196579 0.84412689 2.61290519
v 3.91218918 0.86974590 0.11428630
v 3.91196594 0.86962742 2.61290519
v 3.91218918 0.84400829 0.11428630
v 3.91196594 0.86962742 2.61290519
v 3.86705917 0.86974586 0.11428630
v 3.86728210 0.86962742 2.61290519
v 3.91218918 0.86974590 0.11428630
v 3.86728210 0.86962742 2.61290519
v 3.91196579 0.84412689 2.61290519
v 3.91196594 0.86962742 2.61290519
v 3.86728210 0.84412685 2.61290519
v 0.00000031 0.87240280 0.11325655
v 0.00008331 0.84140312 0.00000000
v 0.00000000 0.84134869 0.11325655
v 0.00008331 0.87234844 0.00000000
v 0.00008331 0.84140312 0.00000000
v 0.05512512 0.84134872 0.11325655
v 0.00000000 0.84134869 0.11325655
v 0.05504181 0.84140308 0.00000000
v 0.05512512 0.84134872 0.11325655
v 0.05504181 0.84140308 0.00000000
v 0.05512497 0.87240284 0.11325655
v 0.05504181 0.87234848 0.00000000
v 0.05504181 0.87234848 0.00000000
v 0.00000031 0.87240280 0.11325655
v 0.05512497 0.87240284 0.11325655
v 0.00008331 0.87234844 0.00000000
v 0.00000031 0.87240280 0.11325655
v 0.00499786 0.84400700 0.11428630
v 0.00499786 0.86974464 0.11428630
v 0.00000000 0.84134869 0.11325655
v 0.05512512 0.84134872 0.11325655
v 0.00499786 0.84400700 0.11428630
v 0.00000000 0.84134869 0.11325655
v 0.05012726 0.84400707 0.11428630
v 0.05512497 0.87240284 0.11325655
v 0.05012726 0.84400707 0.11428630
v 0.05512512 0.84134872 0.11325655
v 0.05012726 0.86974468 0.11428630
v 0.00000031 0.87240280 0.11325655
v 0.05012726 0.86974468 0.11428630
v 0.05512497 0.87240284 0.11325655
v 0.00499786 0.86974464 0.11428630
v 0.00522125 0.86962620 2.61290519
v 0.00499786 0.86974464 0.11428630
v 0.00522125 0.84412563 2.61290519
v 0.00499786 0.84400700 0.11428630
v 0.00522125 0.84412563 2.61290519
v 0.05012726 0.84400707 0.11428630
v 0.04990509 0.84412567 2.61290519
v 0.00499786 0.84400700 0.11428630
v 0.04990509 0.84412567 2.61290519
v 0.05012726 0.86974468 0.11428630
v 0.04990509 0.86962620 2.61290519
v 0.05012726 0.84400707 0.11428630
v 0.04990509 0.86962620 2.61290519
v 0.05012726 0.86974468 0.11428630
v 0.00522125 0.86962620 2.61290519
v 0.00499786 0.86974464 0.11428630
v 0.00522125 0.86962620 2.61290519
v 0.04990509 0.84412567 2.61290519
v 0.04990509 0.86962620 2.61290519
v 0.00522125 0.84412563 2.61290519
v 1.94509910 0.87240341 0.11325655
v 1.94518231 0.84140373 0.00000000
v 1.94509910 0.84134930 0.11325655
v 1.94518231 0.87234905 0.00000000
v 1.94509910 0.84134930 0.11325655
v 2.00014079 0.84140369 0.00000000
v 2.00022409 0.84134933 0.11325655
v 1.94518231 0.84140373 0.00000000
v 2.00022409 0.84134933 0.11325655
v 2.00014079 0.84140369 0.00000000
v 2.00022409 0.87240345 0.11325655
v 2.00014079 0.87234909 0.00000000
v 2.00022409 0.87240345 0.11325655
v 2.00014079 0.87234909 0.00000000
v 1.94509910 0.87240341 0.11325655
v 1.94518231 0.87234905 0.00000000
v 1.94509910 0.87240341 0.11325655
v 1.95009671 0.84400761 0.11428630
v 1.95009671 0.86974525 0.11428630
v 1.94509910 0.84134930 0.11325655
v 2.00022409 0.84134933 0.11325655
v 1.95009671 0.84400761 0.11428630
v 1.94509910 0.84134930 0.11325655
v 1.99522658 0.84400768 0.11428630
v 2.00022409 0.87240345 0.11325655
v 1.99522658 0.84400768 0.11428630
v 2.00022409 0.84134933 0.11325655
v 1.99522658 0.86974529 0.11428630
v 2.00022409 0.87240345 0.11325655
v 1.94509910 0.87240341 0.11325655
v 1.95009671 0.86974525 0.11428630
v 1.99522658 0.86974529 0.11428630
v 1.95031945 0.86962685 2.61290519
v 1.95009671 0.86974525 0.11428630
v 1.95031988 0.84412624 2.61290519
v 1.95009671 0.84400761 0.11428630
v 1.95031988 0.84412624 2.61290519
v 1.99522658 0.84400768 0.11428630
v 1.99500389 0.84412628 2.61290519
v 1.95009671 0.84400761 0.11428630
v 1.99500389 0.84412628 2.61290519
v 1.99522658 0.86974529 0.11428630
v 1.99500349 0.86962685 2.61290519
v 1.99522658 0.84400768 0.11428630
v 1.99500349 0.86962685 2.61290519
v 1.95009671 0.86974525 0.11428630
v 1.95031945 0.86962685 2.61290519
v 1.99522658 0.86974529 0.11428630
v 1.99500349 0.86962685 2.61290519
v 1.95031988 0.84412624 2.61290519
v 1.99500389 0.84412628 2.61290519
v 1.95031945 0.86962685 2.61290519
v 1.94509941 0.03105465 0.11325655
v 1.94518262 0.00005497 0.00000000
v 1.94509941 0.00000065 0.11325655
v 1.94518262 0.03100037 0.00000000
v 1.94509941 0.00000065 0.11325655
v 2.00014109 0.00005505 0.00000000
v 2.00022439 0.00000061 0.11325655
v 1.94518262 0.00005497 0.00000000
v 2.00022439 0.00000061 0.11325655
v 2.00014109 0.00005505 0.00000000
v 2.00022439 0.03105469 0.11325655
v 2.00014109 0.03100037 0.00000000
v 2.00022439 0.03105469 0.11325655
v 2.00014109 0.03100037 0.00000000
v 1.94509941 0.03105465 0.11325655
v 1.94518262 0.03100037 0.00000000
v 1.94509941 0.03105465 0.11325655
v 1.95009701 0.00265888 0.11428630
v 1.95009701 0.02839645 0.11428630
v 1.94509941 0.00000065 0.11325655
v 2.00022439 0.00000061 0.11325655
v 1.95009701 0.00265888 0.11428630
v 1.94509941 0.00000065 0.11325655
v 1.99522688 0.00265888 0.11428630
v 2.00022439 0.03105469 0.11325655
v 1.99522688 0.00265888 0.11428630
v 2.00022439 0.00000061 0.11325655
v 1.99522688 0.02839649 0.11428630
v 2.00022439 0.03105469 0.11325655
v 1.94509941 0.03105465 0.11325655
v 1.95009701 0.02839645 0.11428630
v 1.99522688 0.02839649 0.11428630
v 1.95032018 0.02827789 2.61290519
v 1.95009701 0.00265888 0.11428630
v 1.95032032 0.00277740 2.61290519
v 1.95009701 0.02839645 0.11428630
v 1.95032032 0.00277740 2.61290519
v 1.99522688 0.00265888 0.11428630
v 1.99500439 0.00277744 2.61290519
v 1.95009701 0.00265888 0.11428630
v 1.99500439 0.00277744 2.61290519
v 1.99522688 0.02839649 0.11428630
v 1.99500419 0.02827797 2.61290519
v 1.99522688 0.00265888 0.11428630
v 1.99500419 0.02827797 2.61290519
v 1.99522688 0.02839649 0.11428630
v 1.95032018 0.02827789 2.61290519
v 1.95009701 0.02839645 0.11428630
v 1.99500419 0.02827797 2.61290519
v 1.95032032 0.00277740 2.61290519
v 1.99500439 0.00277744 2.61290519
v 1.95032018 0.02827789 2.61290519
v 3.86206192 0.03105526 0.11325655
v 3.86214508 0.00005558 0.00000000
v 3.86206177 0.00000126 0.11325655
v 3.86214523 0.03100098 0.00000000
v 3.86206177 0.00000126 0.11325655
v 3.91710358 0.00005566 0.00000000
v 3.91718704 0.00000122 0.11325655
v 3.86214508 0.00005558 0.00000000
v 3.91718704 0.00000122 0.11325655
v 3.91710358 0.00005566 0.00000000
v 3.91718689 0.03105530 0.11325655
v 3.91710358 0.03100098 0.00000000
v 3.91718689 0.03105530 0.11325655
v 3.86214523 0.03100098 0.00000000
v 3.86206192 0.03105526 0.11325655
v 3.91710358 0.03100098 0.00000000
v 3.86206192 0.03105526 0.11325655
v 3.86705948 0.00265949 0.11428630
v 3.86705963 0.02839706 0.11428630
v 3.86206177 0.00000126 0.11325655
v 3.91718704 0.00000122 0.11325655
v 3.86705948 0.00265949 0.11428630
v 3.86206177 0.00000126 0.11325655
v 3.91218933 0.00265949 0.11428630
v 3.91718689 0.03105530 0.11325655
v 3.91218933 0.00265949 0.11428630
v 3.91718704 0.00000122 0.11325655
v 3.91218933 0.02839710 0.11428630
v 3.91718689 0.03105530 0.11325655
v 3.86206192 0.03105526 0.11325655
v 3.86705963 0.02839706 0.11428630
v 3.91218933 0.02839710 0.11428630
v 3.86728226 0.02827850 2.61290519
v 3.86705948 0.00265949 0.11428630
v 3.86728241 0.00277802 2.61290519
v 3.86705963 0.02839706 0.11428630
v 3.86728241 0.00277802 2.61290519
v 3.86705948 0.00265949 0.11428630
v 3.91196625 0.00277802 2.61290519
v 3.91218933 0.00265949 0.11428630
v 3.91196625 0.00277802 2.61290519
v 3.91218933 0.00265949 0.11428630
v 3.91196609 0.02827850 2.61290519
v 3.91218933 0.02839710 0.11428630
v 3.91196609 0.02827850 2.61290519
v 3.86705963 0.02839706 0.11428630
v 3.86728226 0.02827850 2.61290519
v 3.91218933 0.02839710 0.11428630
v 3.91196609 0.02827850 2.61290519
v 3.86728241 0.00277802 2.61290519
v 3.91196625 0.00277802 2.61290519
v 3.86728226 0.02827850 2.61290519
v 0.00539444 0.84405094 0.66317603
v 0.00539413 0.02845043 0.09735737
v 0.00539413 0.02845055 0.13918107
v 0.04973099 0.02845058 0.13918102
v 0.04973114 0.84405098 0.70499976
v 0.00539444 0.84405094 0.70499976
v 0.00539413 0.02845055 0.13918107
v 0.04973099 0.02845058 0.13918102
v 0.04973114 0.84405098 0.70499976
v 0.04973099 0.02845058 0.13918102
v 0.04973099 0.84405098 0.66317603
v 0.04973114 0.02845047 0.09735737
v 0.04973114 0.02845047 0.09735737
v 0.00539444 0.84405094 0.66317603
v 0.04973099 0.84405098 0.66317603
v 0.00539413 0.02845043 0.09735737
v 0.00539368 0.02783905 1.44505515
v 0.00539352 0.84405060 1.95142722
v 0.00539352 0.02783905 1.41259177
v 0.00539352 0.84405071 1.99320334
v 0.00539352 0.84405071 1.99320334
v 0.04973068 0.02783909 1.44505500
v 0.04973038 0.84405075 1.99320334
v 0.00539368 0.02783905 1.44505515
v 0.04973068 0.02783909 1.41259177
v 0.04973038 0.84405064 1.95142722
v 0.04973068 0.02783909 1.44505500
v 0.04973038 0.84405075 1.99320334
v 0.00539352 0.02783905 1.41259177
v 0.00539352 0.84405060 1.95142722
v 0.04973068 0.02783909 1.41259177
v 0.04973038 0.84405064 1.95142722
v 0.00539444 0.84405094 0.77136939
v 0.00539413 0.02845055 1.30426261
v 0.00539444 0.84405094 0.81319327
v 0.00539413 0.02845047 1.34608619
v 0.00539413 0.02845055 1.30426261
v 0.00539444 0.84405094 0.77136939
v 0.04973099 0.02845058 1.30426276
v 0.04973114 0.84405098 0.77136939
v 0.04973099 0.84405098 0.81319327
v 0.04973099 0.02845058 1.30426276
v 0.04973114 0.84405098 0.77136939
v 0.04973114 0.02845055 1.34608619
v 0.00539444 0.84405094 0.81319327
v 0.04973114 0.02845055 1.34608619
v 0.04973099 0.84405098 0.81319327
v 0.00539413 0.02845047 1.34608619
v 3.86683731 0.84405327 0.66317603
v 3.86683731 0.02845257 0.09735739
v 3.86683731 0.02845268 0.13918107
v 3.91117432 0.02845287 0.13918102
v 3.91117416 0.84405346 0.70499976
v 3.86683731 0.84405327 0.70499976
v 3.86683731 0.02845268 0.13918107
v 3.91117432 0.02845287 0.13918102
v 3.91117416 0.84405346 0.70499976
v 3.91117432 0.02845287 0.13918102
v 3.91117416 0.84405346 0.66317603
v 3.91117432 0.02845276 0.09735739
v 3.91117432 0.02845276 0.09735739
v 3.86683731 0.84405327 0.66317603
v 3.91117416 0.84405346 0.66317603
v 3.86683731 0.02845257 0.09735739
v 3.86683762 0.02784119 1.44505515
v 3.86683716 0.84405289 1.95142722
v 3.86683762 0.02784119 1.41259177
v 3.86683701 0.84405304 1.99320334
v 3.86683701 0.84405304 1.99320334
v 3.91117447 0.02784134 1.44505500
v 3.91117416 0.84405315 1.99320334
v 3.86683762 0.02784119 1.44505515
v 3.91117462 0.02784134 1.41259177
v 3.91117416 0.84405304 1.95142722
v 3.91117447 0.02784134 1.44505500
v 3.91117416 0.84405315 1.99320334
v 3.86683762 0.02784119 1.41259177
v 3.86683716 0.84405289 1.95142722
v 3.91117462 0.02784134 1.41259177
v 3.91117416 0.84405304 1.95142722
v 3.86683762 0.84405327 0.77136939
v 3.86683746 0.02845268 1.30426261
v 3.86683762 0.84405327 0.81319304
v 3.86683746 0.02845261 1.34608603
v 3.86683746 0.02845268 1.30426261
v 3.86683762 0.84405327 0.77136939
v 3.91117447 0.02845287 1.30426261
v 3.91117432 0.84405346 0.77136939
v 3.91117432 0.84405346 0.81319304
v 3.91117447 0.02845287 1.30426261
v 3.91117432 0.84405346 0.77136939
v 3.91117447 0.02845280 1.34608603
v 3.86683762 0.84405327 0.81319304
v 3.91117447 0.02845280 1.34608603
v 3.91117432 0.84405346 0.81319304
v 3.86683746 0.02845261 1.34608603
v 1.94851273 0.84405319 0.66317603
v 1.94851276 0.02845245 0.09735739
v 1.94851276 0.02845253 0.13918107
v 1.99284981 0.02845272 0.13918102
v 1.99284947 0.84405342 0.70499976
v 1.94851273 0.84405319 0.70499976
v 1.94851273 0.84405319 0.66317603
v 1.94851276 0.02845253 0.13918107
v 1.99284981 0.02845272 0.13918102
v 1.99284947 0.84405342 0.70499976
v 1.99284981 0.02845272 0.13918102
v 1.99284947 0.84405342 0.66317603
v 1.99284981 0.02845264 0.09735739
v 1.99284981 0.02845264 0.09735739
v 1.94851273 0.84405319 0.66317603
v 1.99284947 0.84405342 0.66317603
v 1.94851276 0.02845245 0.09735739
v 1.94851300 0.02784103 1.44505515
v 1.94851242 0.84405285 1.95142722
v 1.94851300 0.02784103 1.41259177
v 1.94851242 0.84405293 1.99320334
v 1.94851242 0.84405293 1.99320334
v 1.99284985 0.02784130 1.44505500
v 1.99284950 0.84405315 1.99320334
v 1.94851300 0.02784103 1.44505515
v 1.99284985 0.02784130 1.41259177
v 1.99284951 0.84405304 1.95142722
v 1.99284985 0.02784130 1.44505500
v 1.99284950 0.84405315 1.99320334
v 1.94851300 0.02784103 1.41259177
v 1.94851242 0.84405285 1.95142722
v 1.99284985 0.02784130 1.41259177
v 1.99284951 0.84405304 1.95142722
v 1.94851296 0.84405319 0.77136939
v 1.94851277 0.02845253 1.30426261
v 1.94851296 0.84405319 0.81319304
v 1.94851277 0.02845249 1.34608603
v 1.94851277 0.02845253 1.30426261
v 1.94851296 0.84405319 0.77136939
v 1.99284977 0.02845272 1.30426261
v 1.99284962 0.84405342 0.77136939
v 1.99284962 0.84405342 0.81319304
v 1.99284977 0.02845272 1.30426261
v 1.99284962 0.84405342 0.77136939
v 1.99284977 0.02845268 1.34608603
v 1.94851296 0.84405319 0.81319304
v 1.99284977 0.02845268 1.34608603
v 1.99284962 0.84405342 0.81319304
v 1.94851277 0.02845249 1.34608603
v 3.86593384 0.85409504 2.59363211
v 3.86593399 0.02703011 2.56338675
v 3.86593399 0.02703011 2.59363211
v 3.86593384 0.85409504 2.56338675
v 3.91137756 0.85409508 2.59363211
v 3.91137772 0.02703014 2.59363211
v 3.91137772 0.02703014 2.56338675
v 3.91137756 0.85409508 2.56338675
v 3.91137772 0.02703014 2.56338675
v 3.86593384 0.85409504 2.56338675
v 3.91137756 0.85409508 2.56338675
v 3.86593399 0.02703011 2.56338675
v 3.91137772 0.02703014 2.59363211
v 3.91137756 0.85409508 2.59363211
v 3.86593384 0.85409504 2.59363211
v 3.86593399 0.02703011 2.59363211
v 1.94964066 0.85409534 2.59363211
v 1.94964096 0.02703037 2.56338675
v 1.94964096 0.02703037 2.59363211
v 1.94964066 0.85409534 2.56338675
v 1.99508438 0.85409538 2.59363211
v 1.99508469 0.02703041 2.59363211
v 1.99508469 0.02703041 2.56338675
v 1.99508438 0.85409538 2.56338675
v 1.99508469 0.02703041 2.56338675
v 1.94964066 0.85409534 2.56338675
v 1.99508438 0.85409538 2.56338675
v 1.94964096 0.02703037 2.56338675
v 1.99508469 0.02703041 2.59363211
v 1.99508438 0.85409538 2.59363211
v 1.94964066 0.85409534 2.59363211
v 1.94964096 0.02703037 2.59363211
v 0.00385513 0.85409565 2.59363211
v 0.00385513 0.02703072 2.56338675
v 0.00385513 0.02703072 2.59363211
v 0.00385513 0.85409565 2.56338675
v 0.04929886 0.85409569 2.59363211
v 0.04929886 0.02703075 2.59363211
v 0.04929886 0.02703075 2.56338675
v 0.04929886 0.85409569 2.56338675
v 0.04929886 0.02703075 2.56338675
v 0.00385513 0.85409565 2.56338675
v 0.04929886 0.85409569 2.56338675
v 0.00385513 0.02703072 2.56338675
v 0.04929886 0.02703075 2.59363211
v 0.04929886 0.85409569 2.59363211
v 0.00385513 0.85409565 2.59363211
v 0.00385513 0.02703072 2.59363211
v 0.03420731 0.82331654 2.36245948
v 3.89289444 0.87954838 2.36245948
v 3.89289444 0.82331738 2.36245948
v 0.03406296 0.87948822 2.36255851
v 3.89289444 0.87954842 2.42132041
v 0.03420731 0.82331654 2.42132041
v 3.89297501 0.82328766 2.42127036
v 0.03427963 0.87948822 2.42142051
v 0.03427963 0.87948822 2.42142051
v 0.03406296 0.87948822 2.36255851
v 0.03420731 0.82331654 2.42132041
v 0.03420731 0.82331654 2.36245948
v 3.89297501 0.82328766 2.42127036
v 0.03420731 0.82331654 2.42132041
v 0.03420731 0.82331654 2.36245948
v 3.89289444 0.82331738 2.36245948
v 3.89297501 0.82328766 2.42127036
v 3.89289444 0.82331738 2.36245948
v 3.89289444 0.87954842 2.42132041
v 3.89289444 0.87954838 2.36245948
v 0.03427963 0.87948822 2.42142051
v 3.89289444 0.87954842 2.42132041
v 3.89289444 0.87954838 2.36245948
v 0.03406296 0.87948822 2.36255851
v 3.89272141 0.01791256 1.35014640
v 0.03457825 0.01790970 1.35014624
v 0.03457825 0.85086288 1.35014624
v 3.89272095 0.85086567 1.35014640
v 0.03457825 0.85086292 1.40899497
v 3.89272141 0.01791256 1.40899512
v 3.89272095 0.85086567 1.40899497
v 0.03457825 0.01790970 1.40899497
v 0.03457825 0.01790970 1.40899497
v 0.03457825 0.85086292 1.40899497
v 0.03457825 0.85086288 1.35014624
v 0.03457825 0.01790970 1.35014624
v 0.03457825 0.01790970 1.40899497
v 3.89272141 0.01791256 1.35014640
v 3.89272141 0.01791256 1.40899512
v 0.03457825 0.01790970 1.35014624
v 3.89272095 0.85086567 1.40899497
v 3.89272141 0.01791256 1.40899512
v 3.89272141 0.01791256 1.35014640
v 3.89272095 0.85086567 1.35014640
v 0.03457825 0.85086292 1.40899497
v 3.89272095 0.85086567 1.40899497
v 3.89272095 0.85086567 1.35014640
v 0.03457825 0.85086288 1.35014624
v 3.89272141 0.01791256 0.70899138
v 0.03457825 0.01790970 0.70899138
v 0.03457825 0.85086288 0.70899131
v 3.89272095 0.85086567 0.70899138
v 0.03457825 0.85086292 0.76783995
v 3.89272141 0.01791256 0.76784011
v 3.89272095 0.85086567 0.76784018
v 0.03457825 0.01790970 0.76784003
v 0.03457825 0.85086288 0.70899131
v 0.03457825 0.01790970 0.76784003
v 0.03457825 0.85086292 0.76783995
v 0.03457825 0.01790970 0.70899138
v 0.03457825 0.01790970 0.76784003
v 3.89272141 0.01791256 0.70899138
v 3.89272141 0.01791256 0.76784011
v 0.03457825 0.01790970 0.70899138
v 3.89272141 0.01791256 0.76784011
v 3.89272095 0.85086567 0.70899138
v 3.89272095 0.85086567 0.76784018
v 3.89272141 0.01791256 0.70899138
v 0.03457825 0.85086292 0.76783995
v 3.89272095 0.85086567 0.76784018
v 3.89272095 0.85086567 0.70899138
v 0.03457825 0.85086288 0.70899131
v 3.89272141 0.01791256 1.96961768
v 0.03457825 0.01790970 1.96961768
v 0.03457825 0.85086288 1.96961768
v 3.89272095 0.85086575 1.96961768
v 0.03457825 0.85086292 2.02846625
v 3.89272141 0.01791256 2.02846625
v 3.89272095 0.85086575 2.02846625
v 0.03457825 0.01790974 2.02846625
v 0.03457825 0.01790974 2.02846625
v 0.03457825 0.85086292 2.02846625
v 0.03457825 0.85086288 1.96961768
v 0.03457825 0.01790970 1.96961768
v 3.89272141 0.01791256 2.02846625
v 0.03457825 0.01790974 2.02846625
v 0.03457825 0.01790970 1.96961768
v 3.89272141 0.01791256 1.96961768
v 3.89272095 0.85086575 2.02846625
v 3.89272141 0.01791256 2.02846625
v 3.89272141 0.01791256 1.96961768
v 3.89272095 0.85086575 1.96961768
v 0.03457825 0.85086292 2.02846625
v 3.89272095 0.85086575 2.02846625
v 3.89272095 0.85086575 1.96961768
v 0.03457825 0.85086288 1.96961768
v 3.86683731 0.02845268 0.13918107
v 3.86683731 0.84405327 0.70499976
v 3.86683731 0.84405327 0.66317603
v 3.86683731 0.02845268 0.13918107
v 0.00539413 0.02845055 0.13918107
v 0.00539444 0.84405094 0.70499976
v 0.00539444 0.84405094 0.66317603
v 0.00539413 0.02845055 0.13918107
v 2.65160751 0.18847656 1.23875769
v 2.65160751 0.18847687 0.76657882
v 2.64866562 0.73248856 1.23875769
v 2.64866562 0.73248856 0.76657882
v 2.65160751 0.18847687 0.76657882
v 2.00579453 0.18691189 0.76657882
v 2.64866562 0.73248856 0.76657882
v 2.00285385 0.73092419 0.76657882
v 2.64866562 0.73248856 1.23875769
v 2.01707993 0.73095867 1.23875769
v 2.65160751 0.18847656 1.23875769
v 2.00579819 0.18691189 1.23875769
v 2.00285996 0.73092419 1.23875769
v 2.00285385 0.73092419 0.76657882
v 2.65160751 0.18847656 1.23875769
v 2.00579819 0.18691189 1.23875769
v 2.65160751 0.18847687 0.76657882
v 2.00579453 0.18691189 0.76657882
v 2.00285996 0.73092419 1.23875769
v 2.00285385 0.73092419 0.76657882
v 2.00579819 0.18691189 1.23875769
v 2.00579453 0.18691189 0.76657882
v 2.64866562 0.73248856 1.23875769
v 2.64866562 0.73248856 0.76657882
v 2.01707993 0.73095867 1.23875769
v 2.00285385 0.73092419 0.76657882
v 3.31863876 0.73248878 1.23875739
v 3.32157822 0.18847694 1.23875739
v 3.31863876 0.73248878 0.76657904
v 3.32157822 0.18847694 0.76657904
v 3.32157822 0.18847694 0.76657904
v 2.67577011 0.18691196 0.76657912
v 3.31863876 0.73248878 0.76657904
v 2.67282578 0.73092426 0.76657912
v 3.31863876 0.73248878 1.23875739
v 2.68705551 0.73095875 1.23875769
v 3.32157822 0.18847694 1.23875739
v 2.67577011 0.18691196 1.23875769
v 2.67282822 0.73092426 1.23875769
v 2.67282578 0.73092426 0.76657912
v 3.32157822 0.18847694 1.23875739
v 2.67577011 0.18691196 1.23875769
v 2.67577011 0.18691196 0.76657912
v 3.32157822 0.18847694 0.76657904
v 2.67282822 0.73092426 1.23875769
v 2.67282578 0.73092426 0.76657912
v 2.67577011 0.18691196 1.23875769
v 2.67577011 0.18691196 0.76657912
v 3.31863876 0.73248878 1.23875739
v 3.31863876 0.73248878 0.76657904
v 2.68705551 0.73095875 1.23875769
v 2.67282578 0.73092426 0.76657912
v 0.83617050 0.18847656 2.50462333
v 0.83617050 0.18847687 2.03244452
v 0.83322861 0.73248856 2.50462333
v 0.83322861 0.73248856 2.03244452
v 0.83617050 0.18847687 2.03244452
v 0.19035751 0.18691189 2.03244452
v 0.83322861 0.73248856 2.03244452
v 0.18741684 0.73092419 2.03244452
v 0.83322861 0.73248856 2.50462333
v 0.20164291 0.73095867 2.50462333
v 0.83617050 0.18847656 2.50462333
v 0.19036118 0.18691189 2.50462333
v 0.18742294 0.73092419 2.50462333
v 0.18741684 0.73092419 2.03244452
v 0.83617050 0.18847656 2.50462333
v 0.19036118 0.18691189 2.50462333
v 0.83617050 0.18847687 2.03244452
v 0.19035751 0.18691189 2.03244452
v 0.18742294 0.73092419 2.50462333
v 0.18741684 0.73092419 2.03244452
v 0.19036118 0.18691189 2.50462333
v 0.19035751 0.18691189 2.03244452
v 0.83322861 0.73248856 2.50462333
v 0.83322861 0.73248856 2.03244452
v 0.20164291 0.73095867 2.50462333
v 0.18741684 0.73092419 2.03244452
v 1.55102158 0.06102558 2.50462333
v 1.55102158 0.06102619 2.03244452
v 1.77707260 0.55585714 2.50462333
v 1.77707260 0.55585714 2.03244452
v 1.19045517 0.82595905 2.03244452
v 1.77707260 0.55585714 2.03244452
v 0.96440292 0.33112815 2.03244452
v 1.55102158 0.06102619 2.03244452
v 1.55102158 0.06102558 2.50462333
v 1.77707260 0.55585714 2.50462333
v 1.20337753 0.82000935 2.50462333
v 0.96440659 0.33112631 2.50462333
v 1.19045517 0.82595905 2.03244452
v 1.55102158 0.06102558 2.50462333
v 0.96440659 0.33112631 2.50462333
v 1.55102158 0.06102619 2.03244452
v 0.96440292 0.33112815 2.03244452
v 1.19046127 0.82595661 2.50462333
v 0.96440292 0.33112815 2.03244452
v 0.96440659 0.33112631 2.50462333
v 1.19045517 0.82595905 2.03244452
v 1.77707260 0.55585714 2.50462333
v 1.77707260 0.55585714 2.03244452
v 1.20337753 0.82000935 2.50462333
v 1.19045517 0.82595905 2.03244452
v 0.17272934 0.21364546 0.76420813
v 0.95256332 0.21222830 0.76420790
v 0.17272934 0.21364546 0.96807395
v 0.95256332 0.21222708 0.96807425
v 0.17360336 0.69146719 0.76420813
v 0.95256332 0.21222830 0.76420790
v 0.17272934 0.21364546 0.76420813
v 0.95343124 0.69005117 0.76420790
v 0.95343124 0.69005041 0.96807425
v 0.95256332 0.21222708 0.96807425
v 0.95256332 0.21222830 0.76420790
v 0.95343124 0.69005117 0.76420790
v 0.95343124 0.69005041 0.96807425
v 0.17360336 0.69146811 0.96807410
v 0.95256332 0.21222708 0.96807425
v 0.17272934 0.21364546 0.96807395
v 0.17272934 0.21364546 0.96807395
v 0.17360336 0.69146811 0.96807410
v 0.17360336 0.69146719 0.76420813
v 0.17272934 0.21364546 0.76420813
v 0.95343124 0.69005117 0.76420790
v 0.17360336 0.69146719 0.76420813
v 0.95343124 0.69005041 0.96807425
v 0.17360336 0.69146811 0.96807410
v 1.07032822 0.21364546 0.76420813
v 1.85016220 0.21222830 0.76420790
v 1.07032822 0.21364546 0.96807395
v 1.85016220 0.21222708 0.96807425
v 1.07120224 0.69146719 0.76420813
v 1.85016220 0.21222830 0.76420790
v 1.07032822 0.21364546 0.76420813
v 1.85103012 0.69005117 0.76420790
v 1.85103012 0.69005041 0.96807425
v 1.85016220 0.21222708 0.96807425
v 1.85016220 0.21222830 0.76420790
v 1.85103012 0.69005117 0.76420790
v 1.85103012 0.69005041 0.96807425
v 1.07120224 0.69146811 0.96807410
v 1.85016220 0.21222708 0.96807425
v 1.07032822 0.21364546 0.96807395
v 1.07032822 0.21364546 0.96807395
v 1.07120224 0.69146811 0.96807410
v 1.07120224 0.69146719 0.76420813
v 1.07032822 0.21364546 0.76420813
v 1.85103012 0.69005117 0.76420790
v 1.07120224 0.69146719 0.76420813
v 1.85103012 0.69005041 0.96807425
v 1.07120224 0.69146811 0.96807410
v 1.07032822 0.21364538 0.97039695
v 1.85016220 0.21222822 0.97039710
v 1.07032822 0.21364538 1.17426291
v 1.85016220 0.21222700 1.17426322
v 1.07120224 0.69146715 0.97039695
v 1.85016220 0.21222822 0.97039710
v 1.07032822 0.21364538 0.97039695
v 1.85103012 0.69005114 0.97039710
v 1.85103012 0.69005037 1.17426322
v 1.85016220 0.21222700 1.17426322
v 1.85016220 0.21222822 0.97039710
v 1.85103012 0.69005114 0.97039710
v 1.85103012 0.69005037 1.17426322
v 1.07120224 0.69146807 1.17426307
v 1.85016220 0.21222700 1.17426322
v 1.07032822 0.21364538 1.17426291
v 1.07032822 0.21364538 1.17426291
v 1.07120224 0.69146807 1.17426307
v 1.07120224 0.69146715 0.97039695
v 1.07032822 0.21364538 0.97039695
v 1.07120224 0.69146807 1.17426307
v 1.85103012 0.69005037 1.17426322
v 1.85103012 0.69005114 0.97039710
v 1.07120224 0.69146715 0.97039695
v 0.54180649 0.06149265 1.40762458
v 0.54322372 0.84132668 1.40762427
v 0.54180649 0.06149265 1.61149024
v 0.54322495 0.84132668 1.61149054
v 0.06398544 0.06236671 1.40762458
v 0.54322372 0.84132668 1.40762427
v 0.54180649 0.06149265 1.40762458
v 0.06540146 0.84219456 1.40762427
v 0.54322372 0.84132668 1.40762427
v 0.06540146 0.84219456 1.61149054
v 0.54322495 0.84132668 1.61149054
v 0.06540146 0.84219456 1.40762427
v 0.54322495 0.84132668 1.61149054
v 0.06540146 0.84219456 1.61149054
v 0.06398422 0.06236671 1.61149054
v 0.54180649 0.06149265 1.61149024
v 0.54180649 0.06149265 1.61149024
v 0.06398422 0.06236671 1.61149054
v 0.06398544 0.06236671 1.40762458
v 0.54180649 0.06149265 1.40762458
v 0.06540146 0.84219456 1.40762427
v 0.06398544 0.06236671 1.40762458
v 0.06540146 0.84219456 1.61149054
v 0.06398422 0.06236671 1.61149054
v 0.55706039 0.84220314 1.40504859
v 0.55564316 0.06236912 1.40504828
v 0.55706039 0.84220314 1.60891425
v 0.55564194 0.06236912 1.60891455
v 1.03346542 0.06150124 1.40504828
v 0.55564316 0.06236912 1.40504828
v 1.03488144 0.84132908 1.40504859
v 0.55706039 0.84220314 1.40504859
v 1.03346542 0.06150124 1.60891455
v 0.55564194 0.06236912 1.60891455
v 0.55564316 0.06236912 1.40504828
v 1.03346542 0.06150124 1.40504828
v 0.55706039 0.84220314 1.60891425
v 0.55564194 0.06236912 1.60891455
v 1.03488266 0.84132908 1.60891455
v 1.03346542 0.06150124 1.60891455
v 0.55706039 0.84220314 1.60891425
v 1.03488266 0.84132908 1.60891455
v 1.03488144 0.84132908 1.40504859
v 0.55706039 0.84220314 1.40504859
v 1.03346542 0.06150124 1.40504828
v 1.03488144 0.84132908 1.40504859
v 1.03346542 0.06150124 1.60891455
v 1.03488266 0.84132908 1.60891455
v 0.54180649 0.06149265 1.61268851
v 0.54322372 0.84132668 1.61268821
v 0.54180649 0.06149265 1.81655417
v 0.54322495 0.84132668 1.81655448
v 0.06398544 0.06236671 1.61268851
v 0.54322372 0.84132668 1.61268821
v 0.54180649 0.06149265 1.61268851
v 0.06540146 0.84219456 1.61268821
v 0.54322372 0.84132668 1.61268821
v 0.06540146 0.84219456 1.81655448
v 0.54322495 0.84132668 1.81655448
v 0.06540146 0.84219456 1.61268821
v 0.54322495 0.84132668 1.81655448
v 0.06540146 0.84219456 1.81655448
v 0.06398422 0.06236671 1.81655448
v 0.54180649 0.06149265 1.81655417
v 0.54180649 0.06149265 1.81655417
v 0.06398422 0.06236671 1.81655448
v 0.06398544 0.06236671 1.61268851
v 0.54180649 0.06149265 1.61268851
v 0.06540146 0.84219456 1.61268821
v 0.06398544 0.06236671 1.61268851
v 0.06540146 0.84219456 1.81655448
v 0.06398422 0.06236671 1.81655448
v 1.88182114 0.69004992 1.40981055
v 1.10198715 0.69146717 1.40981025
v 1.88182114 0.69004992 1.61367621
v 1.10198715 0.69146839 1.61367652
v 1.88094712 0.21222889 1.40981055
v 1.10111923 0.21364489 1.40981025
v 1.10198715 0.69146717 1.40981025
v 1.88182114 0.69004992 1.40981055
v 1.10198715 0.69146717 1.40981025
v 1.10111923 0.21364489 1.61367652
v 1.10198715 0.69146839 1.61367652
v 1.10111923 0.21364489 1.40981025
v 1.10198715 0.69146839 1.61367652
v 1.88094712 0.21222767 1.61367652
v 1.88182114 0.69004992 1.61367621
v 1.10111923 0.21364489 1.61367652
v 1.88182114 0.69004992 1.61367621
v 1.88094712 0.21222767 1.61367652
v 1.88094712 0.21222889 1.40981055
v 1.88182114 0.69004992 1.40981055
v 1.10111923 0.21364489 1.40981025
v 1.88094712 0.21222889 1.40981055
v 1.10111923 0.21364489 1.61367652
v 1.88094712 0.21222767 1.61367652
v 1.93074692 0.61000250 1.61123725
v 1.16593002 0.76231632 1.81510352
v 1.93074692 0.61000250 1.81510321
v 1.16592880 0.76231510 1.61123755
v 1.83741562 0.14138494 1.61123725
v 1.07260483 0.29369389 1.61123755
v 1.16592880 0.76231510 1.61123755
v 1.93074692 0.61000250 1.61123725
v 1.07260483 0.29369389 1.81510352
v 1.16593002 0.76231632 1.81510352
v 1.16592880 0.76231510 1.61123755
v 1.07260483 0.29369389 1.61123755
v 1.16593002 0.76231632 1.81510352
v 1.83741562 0.14138311 1.81510352
v 1.93074692 0.61000250 1.81510321
v 1.07260483 0.29369389 1.81510352
v 1.93074692 0.61000250 1.81510321
v 1.83741562 0.14138311 1.81510352
v 1.83741562 0.14138494 1.61123725
v 1.93074692 0.61000250 1.61123725
v 1.07260483 0.29369389 1.61123755
v 1.83741562 0.14138311 1.81510352
v 1.07260483 0.29369389 1.81510352
v 1.83741562 0.14138494 1.61123725
v 2.78709946 0.69005026 1.41089530
v 2.00726548 0.69146746 1.41089515
v 2.78709946 0.69005026 1.61476126
v 2.00726548 0.69146868 1.61476157
v 2.78622543 0.21222853 1.41089530
v 2.00639756 0.21364458 1.41089515
v 2.00726548 0.69146746 1.41089515
v 2.78709946 0.69005026 1.41089530
v 2.00639756 0.21364534 1.61476157
v 2.00726548 0.69146868 1.61476157
v 2.00726548 0.69146746 1.41089515
v 2.00639756 0.21364458 1.41089515
v 2.00726548 0.69146868 1.61476157
v 2.78622543 0.21222761 1.61476126
v 2.78709946 0.69005026 1.61476126
v 2.00639756 0.21364534 1.61476157
v 2.78709946 0.69005026 1.61476126
v 2.78622543 0.21222761 1.61476126
v 2.78622543 0.21222853 1.41089530
v 2.78709946 0.69005026 1.41089530
v 2.00639756 0.21364458 1.41089515
v 2.78622543 0.21222761 1.61476126
v 2.00639756 0.21364534 1.61476157
v 2.78622543 0.21222853 1.41089530
v 2.78709946 0.69005026 1.61708426
v 2.00726548 0.69146749 1.61708426
v 2.78709946 0.69005026 1.82095023
v 2.00726548 0.69146872 1.82095053
v 2.78622543 0.21222849 1.61708426
v 2.00639756 0.21364458 1.61708426
v 2.00726548 0.69146749 1.61708426
v 2.78709946 0.69005026 1.61708426
v 2.00639756 0.21364534 1.82095053
v 2.00726548 0.69146872 1.82095053
v 2.00726548 0.69146749 1.61708426
v 2.00639756 0.21364458 1.61708426
v 2.00726548 0.69146872 1.82095053
v 2.78622543 0.21222757 1.82095023
v 2.78709946 0.69005026 1.82095023
v 2.00639756 0.21364534 1.82095053
v 2.78709946 0.69005026 1.82095023
v 2.78622543 0.21222757 1.82095023
v 2.78622543 0.21222849 1.61708426
v 2.78709946 0.69005026 1.61708426
v 2.78622543 0.21222757 1.82095023
v 2.00639756 0.21364534 1.82095053
v 2.00639756 0.21364458 1.61708426
v 2.78622543 0.21222849 1.61708426
v 2.78709946 0.69005026 2.02317740
v 2.00726548 0.69146746 2.02317725
v 2.78709946 0.69005026 2.22704337
v 2.00726548 0.69146868 2.22704367
v 2.78622543 0.21222853 2.02317740
v 2.00639756 0.21364458 2.02317725
v 2.00726548 0.69146746 2.02317725
v 2.78709946 0.69005026 2.02317740
v 2.00639756 0.21364534 2.22704367
v 2.00726548 0.69146868 2.22704367
v 2.00726548 0.69146746 2.02317725
v 2.00639756 0.21364458 2.02317725
v 2.00726548 0.69146868 2.22704367
v 2.78622543 0.21222761 2.22704337
v 2.78709946 0.69005026 2.22704337
v 2.00639756 0.21364534 2.22704367
v 2.78709946 0.69005026 2.22704337
v 2.78622543 0.21222761 2.22704337
v 2.78622543 0.21222853 2.02317740
v 2.78709946 0.69005026 2.02317740
v 2.00639756 0.21364458 2.02317725
v 2.78622543 0.21222761 2.22704337
v 2.00639756 0.21364534 2.22704367
v 2.78622543 0.21222853 2.02317740
v 3.33306625 0.07745487 0.75422011
v 3.33306625 0.83811405 0.75422004
v 3.85810532 0.07745731 0.75422004
v 3.85810532 0.83811646 0.75421988
v 3.85810532 0.83811646 0.83028594
v 3.33306625 0.83811405 0.83028609
v 3.85810532 0.07745731 0.83028609
v 3.33306625 0.07745487 0.83028617
v 3.85810532 0.07745731 0.83028609
v 3.33306625 0.07745487 0.83028617
v 3.33306625 0.07745487 0.75422011
v 3.85810532 0.07745731 0.75422004
v 3.85810532 0.83811646 0.83028594
v 3.85810532 0.07745731 0.83028609
v 3.85810532 0.07745731 0.75422004
v 3.85810532 0.83811646 0.75421988
v 3.85810532 0.83811646 0.75421988
v 3.33306625 0.83811405 0.75422004
v 3.85810532 0.83811646 0.83028594
v 3.33306625 0.83811405 0.83028609
v 3.33306625 0.83811405 0.75422004
v 3.33306625 0.07745487 0.75422011
v 3.33306625 0.83811405 0.83028609
v 3.33306625 0.07745487 0.83028617
v 3.33306625 0.07745487 0.83171912
v 3.33306625 0.83811405 0.83171897
v 3.85810532 0.07745731 0.83171889
v 3.85810532 0.83811646 0.83171874
v 3.85810532 0.83811646 0.90778502
v 3.33306625 0.83811405 0.90778518
v 3.85810532 0.07745731 0.90778502
v 3.33306625 0.07745487 0.90778518
v 3.85810532 0.07745731 0.90778502
v 3.33306625 0.07745487 0.90778518
v 3.33306625 0.07745487 0.83171912
v 3.85810532 0.07745731 0.83171889
v 3.85810532 0.83811646 0.90778502
v 3.85810532 0.07745731 0.90778502
v 3.85810532 0.07745731 0.83171889
v 3.85810532 0.83811646 0.83171874
v 3.85810532 0.83811646 0.83171874
v 3.33306625 0.83811405 0.83171897
v 3.85810532 0.83811646 0.90778502
v 3.33306625 0.83811405 0.90778518
v 3.33306625 0.83811405 0.83171897
v 3.33306625 0.07745487 0.83171912
v 3.33306625 0.83811405 0.90778518
v 3.33306625 0.07745487 0.90778518
v 3.33305649 0.07745808 0.90899604
v 3.33305649 0.83811726 0.90899604
v 3.85809799 0.07746052 0.90899604
v 3.85809799 0.83811966 0.90899604
v 3.85809799 0.83811966 0.98506171
v 3.33305649 0.83811726 0.98506171
v 3.85809799 0.07746052 0.98506171
v 3.33305649 0.07745808 0.98506171
v 3.85809799 0.07746052 0.98506171
v 3.33305649 0.07745808 0.98506171
v 3.33305649 0.07745808 0.90899604
v 3.85809799 0.07746052 0.90899604
v 3.85809799 0.83811966 0.98506171
v 3.85809799 0.07746052 0.98506171
v 3.85809799 0.07746052 0.90899604
v 3.85809799 0.83811966 0.90899604
v 3.33305649 0.83811726 0.98506171
v 3.85809799 0.83811966 0.98506171
v 3.85809799 0.83811966 0.90899604
v 3.33305649 0.83811726 0.90899604
v 3.33305649 0.07745808 0.98506171
v 3.33305649 0.83811726 0.98506171
v 3.33305649 0.83811726 0.90899604
v 3.33305649 0.07745808 0.90899604
v 2.79351669 0.05401855 1.41221137
v 2.79351669 0.81467773 1.41221137
v 3.31855576 0.05402100 1.41221137
v 3.31855576 0.81468018 1.41221122
v 3.31855576 0.81468018 1.48827735
v 2.79351669 0.81467773 1.48827735
v 3.31855576 0.05402100 1.48827735
v 2.79351669 0.05401855 1.48827750
v 3.31855576 0.05402100 1.48827735
v 2.79351669 0.05401855 1.48827750
v 2.79351669 0.05401855 1.41221137
v 3.31855576 0.05402100 1.41221137
v 3.31855576 0.81468018 1.48827735
v 3.31855576 0.05402100 1.48827735
v 3.31855576 0.05402100 1.41221137
v 3.31855576 0.81468018 1.41221122
v 3.31855576 0.81468018 1.41221122
v 2.79351669 0.81467773 1.41221137
v 3.31855576 0.81468018 1.48827735
v 2.79351669 0.81467773 1.48827735
v 2.79351669 0.81467773 1.41221137
v 2.79351669 0.05401855 1.41221137
v 2.79351669 0.81467773 1.48827735
v 2.79351669 0.05401855 1.48827750
v 2.79351669 0.05401855 1.48971045
v 2.79351669 0.81467773 1.48971030
v 3.31855576 0.05402100 1.48971015
v 3.31855576 0.81468018 1.48971015
v 3.31855576 0.81468018 1.56577643
v 2.79351669 0.81467773 1.56577643
v 3.31855576 0.05402100 1.56577643
v 2.79351669 0.05401855 1.56577643
v 2.79351669 0.05401855 1.48971045
v 3.31855576 0.05402100 1.56577643
v 2.79351669 0.05401855 1.56577643
v 3.31855576 0.05402100 1.48971015
v 3.31855576 0.81468018 1.56577643
v 3.31855576 0.05402100 1.56577643
v 3.31855576 0.05402100 1.48971015
v 3.31855576 0.81468018 1.48971015
v 3.31855576 0.81468018 1.48971015
v 2.79351669 0.81467773 1.48971030
v 3.31855576 0.81468018 1.56577643
v 2.79351669 0.81467773 1.56577643
v 2.79351669 0.81467773 1.48971030
v 2.79351669 0.05401855 1.48971045
v 2.79351669 0.81467773 1.56577643
v 2.79351669 0.05401855 1.56577643
v 2.79350693 0.05402180 1.56698737
v 2.79350693 0.81468098 1.56698737
v 3.31854843 0.05402424 1.56698737
v 3.31854843 0.81468338 1.56698737
v 3.31854843 0.81468338 1.64305304
v 2.79350693 0.81468098 1.64305304
v 3.31854843 0.05402424 1.64305304
v 2.79350693 0.05402180 1.64305304
v 2.79350693 0.05402180 1.56698737
v 3.31854843 0.05402424 1.64305304
v 2.79350693 0.05402180 1.64305304
v 3.31854843 0.05402424 1.56698737
v 3.31854843 0.81468338 1.64305304
v 3.31854843 0.05402424 1.64305304
v 3.31854843 0.05402424 1.56698737
v 3.31854843 0.81468338 1.56698737
v 2.79350693 0.81468098 1.64305304
v 3.31854843 0.81468338 1.64305304
v 3.31854843 0.81468338 1.56698737
v 2.79350693 0.81468098 1.56698737
v 2.79350693 0.05402180 1.64305304
v 2.79350693 0.81468098 1.64305304
v 2.79350693 0.81468098 1.56698737
v 2.79350693 0.05402180 1.56698737
v 2.98674057 0.85278961 1.64398230
v 3.37903427 0.01590843 1.64398246
v 2.86119492 0.10256256 1.64398230
v 3.50457870 0.76613556 1.64398246
v 3.37903427 0.01590843 1.72004874
v 3.50457870 0.76613556 1.72004874
v 2.98674057 0.85278961 1.72004859
v 2.86119492 0.10256256 1.72004859
v 2.86119492 0.10256256 1.64398230
v 3.37903427 0.01590843 1.64398246
v 2.86119492 0.10256256 1.72004859
v 3.37903427 0.01590843 1.72004874
v 3.50457870 0.76613556 1.72004874
v 3.37903427 0.01590843 1.72004874
v 3.37903427 0.01590843 1.64398246
v 3.50457870 0.76613556 1.64398246
v 2.98674057 0.85278961 1.72004859
v 3.50457870 0.76613556 1.72004874
v 3.50457870 0.76613556 1.64398246
v 2.98674057 0.85278961 1.64398230
v 2.86119492 0.10256256 1.72004859
v 2.98674057 0.85278961 1.72004859
v 2.98674057 0.85278961 1.64398230
v 2.86119492 0.10256256 1.64398230
v 2.98674057 0.85278961 1.72278510
v 3.37903427 0.01590843 1.72278525
v 2.86119492 0.10256256 1.72278510
v 3.50457870 0.76613556 1.72278525
v 3.37903427 0.01590843 1.79885184
v 3.50457870 0.76613556 1.79885184
v 2.98674057 0.85278961 1.79885199
v 2.86119492 0.10256256 1.79885199
v 3.37903427 0.01590843 1.79885184
v 2.86119492 0.10256256 1.79885199
v 2.86119492 0.10256256 1.72278510
v 3.37903427 0.01590843 1.72278525
v 3.50457870 0.76613556 1.79885184
v 3.37903427 0.01590843 1.79885184
v 3.37903427 0.01590843 1.72278525
v 3.50457870 0.76613556 1.72278525
v 3.50457870 0.76613556 1.72278525
v 2.98674057 0.85278961 1.79885199
v 3.50457870 0.76613556 1.79885184
v 2.98674057 0.85278961 1.72278510
v 2.86119492 0.10256256 1.79885199
v 2.98674057 0.85278961 1.79885199
v 2.98674057 0.85278961 1.72278510
v 2.86119492 0.10256256 1.72278510
v 3.33090805 0.05401855 1.41221137
v 3.33090805 0.81467773 1.41221137
v 3.85594711 0.05402100 1.41221137
v 3.85594711 0.81468018 1.41221122
v 3.85594711 0.81468018 1.48827735
v 3.33090805 0.81467773 1.48827735
v 3.85594711 0.05402100 1.48827735
v 3.33090805 0.05401855 1.48827750
v 3.85594711 0.05402100 1.48827735
v 3.33090805 0.05401855 1.48827750
v 3.33090805 0.05401855 1.41221137
v 3.85594711 0.05402100 1.41221137
v 3.85594711 0.81468018 1.48827735
v 3.85594711 0.05402100 1.48827735
v 3.85594711 0.05402100 1.41221137
v 3.85594711 0.81468018 1.41221122
v 3.85594711 0.81468018 1.41221122
v 3.33090805 0.81467773 1.41221137
v 3.85594711 0.81468018 1.48827735
v 3.33090805 0.81467773 1.48827735
v 3.33090805 0.81467773 1.41221137
v 3.33090805 0.05401855 1.41221137
v 3.33090805 0.81467773 1.48827735
v 3.33090805 0.05401855 1.48827750
v 3.33090805 0.05401855 1.48971045
v 3.33090805 0.81467773 1.48971030
v 3.85594711 0.05402100 1.48971015
v 3.85594711 0.81468018 1.48971015
v 3.85594711 0.81468018 1.56577643
v 3.33090805 0.81467773 1.56577643
v 3.85594711 0.05402100 1.56577643
v 3.33090805 0.05401855 1.56577643
v 3.33090805 0.05401855 1.48971045
v 3.85594711 0.05402100 1.56577643
v 3.33090805 0.05401855 1.56577643
v 3.85594711 0.05402100 1.48971015
v 3.85594711 0.81468018 1.56577643
v 3.85594711 0.05402100 1.56577643
v 3.85594711 0.05402100 1.48971015
v 3.85594711 0.81468018 1.48971015
v 3.85594711 0.81468018 1.48971015
v 3.33090805 0.81467773 1.48971030
v 3.85594711 0.81468018 1.56577643
v 3.33090805 0.81467773 1.56577643
v 3.33090805 0.81467773 1.48971030
v 3.33090805 0.05401855 1.48971045
v 3.33090805 0.81467773 1.56577643
v 3.33090805 0.05401855 1.56577643
v 3.72751450 0.27592226 2.03801612
v 2.98196762 0.12504883 2.03801627
v 3.62337265 0.79052948 2.03801627
v 2.87782578 0.63965624 2.03801642
v 2.98196762 0.12504883 2.11408210
v 3.62337265 0.79052948 2.11408210
v 2.87782578 0.63965624 2.11408240
v 3.72751450 0.27592226 2.11408240
v 2.98196762 0.12504883 2.11408210
v 2.87782578 0.63965624 2.11408240
v 2.87782578 0.63965624 2.03801642
v 2.98196762 0.12504883 2.03801627
v 2.98196762 0.12504883 2.11408210
v 3.72751450 0.27592226 2.03801612
v 3.72751450 0.27592226 2.11408240
v 2.98196762 0.12504883 2.03801627
v 3.72751450 0.27592226 2.03801612
v 3.62337265 0.79052948 2.11408210
v 3.72751450 0.27592226 2.11408240
v 3.62337265 0.79052948 2.03801627
v 3.62337265 0.79052948 2.03801627
v 2.87782578 0.63965624 2.03801642
v 3.62337265 0.79052948 2.11408210
v 2.87782578 0.63965624 2.11408240
v 3.72751450 0.27592226 2.11551490
v 2.98196762 0.12504883 2.11551520
v 3.62337265 0.79052948 2.11551520
v 2.87782578 0.63965624 2.11551535
v 2.98196762 0.12504883 2.19158118
v 3.62337265 0.79052948 2.19158149
v 2.87782578 0.63965624 2.19158149
v 3.72751450 0.27592226 2.19158118
v 2.98196762 0.12504883 2.19158118
v 2.87782578 0.63965624 2.19158149
v 2.87782578 0.63965624 2.11551535
v 2.98196762 0.12504883 2.11551520
v 3.72751450 0.27592226 2.19158118
v 2.98196762 0.12504883 2.19158118
v 2.98196762 0.12504883 2.11551520
v 3.72751450 0.27592226 2.11551490
v 3.72751450 0.27592226 2.11551490
v 3.62337265 0.79052948 2.11551520
v 3.72751450 0.27592226 2.19158118
v 3.62337265 0.79052948 2.19158149
v 3.62337265 0.79052948 2.11551520
v 2.87782578 0.63965624 2.11551535
v 3.62337265 0.79052948 2.19158149
v 2.87782578 0.63965624 2.19158149
v 3.72750351 0.27592150 2.19279227
v 2.98195663 0.12504808 2.19279227
v 3.62336166 0.79053101 2.19279227
v 2.87781479 0.63965746 2.19279227
v 2.98195663 0.12504808 2.26885794
v 3.62336166 0.79053101 2.26885794
v 2.87781479 0.63965746 2.26885794
v 3.72750351 0.27592150 2.26885794
v 2.98195663 0.12504808 2.26885794
v 2.87781479 0.63965746 2.26885794
v 2.87781479 0.63965746 2.19279227
v 2.98195663 0.12504808 2.19279227
v 3.72750351 0.27592150 2.26885794
v 2.98195663 0.12504808 2.26885794
v 2.98195663 0.12504808 2.19279227
v 3.72750351 0.27592150 2.19279227
v 3.62336166 0.79053101 2.26885794
v 3.72750351 0.27592150 2.26885794
v 3.72750351 0.27592150 2.19279227
v 3.62336166 0.79053101 2.19279227
v 2.87781479 0.63965746 2.26885794
v 3.62336166 0.79053101 2.26885794
v 3.62336166 0.79053101 2.19279227
v 2.87781479 0.63965746 2.19279227
v 3.72751450 0.27592232 2.27156165
v 2.98196762 0.12504890 2.27156165
v 3.62337265 0.79052956 2.27156165
v 2.87782578 0.63965630 2.27156165
v 2.98196762 0.12504890 2.34762732
v 3.62337265 0.79052956 2.34762732
v 2.87782578 0.63965630 2.34762748
v 3.72751450 0.27592232 2.34762732
v 2.98196762 0.12504890 2.34762732
v 2.87782578 0.63965630 2.34762748
v 2.87782578 0.63965630 2.27156165
v 2.98196762 0.12504890 2.27156165
v 3.72751450 0.27592232 2.34762732
v 2.98196762 0.12504890 2.34762732
v 2.98196762 0.12504890 2.27156165
v 3.72751450 0.27592232 2.27156165
v 3.62337265 0.79052956 2.34762732
v 3.72751450 0.27592232 2.34762732
v 3.72751450 0.27592232 2.27156165
v 3.62337265 0.79052956 2.27156165
v 3.62337265 0.79052956 2.27156165
v 2.87782578 0.63965630 2.27156165
v 3.62337265 0.79052956 2.34762732
v 2.87782578 0.63965630 2.34762748
vt 0.39206598 0.21066561
vt 0.43857758 0.02373641
vt 0.43901896 0.21097999
vt 0.39211126 0.02135707
vt 0.39231711 0.02225980
vt 0.43890344 0.21082927
vt 0.39199898 0.21052089
vt 0.43867052 0.02322591
vt 0.39206598 0.21066561
vt 0.39241454 0.02286062
vt 0.43904978 0.21115863
vt 0.43857758 0.02373641
vt 0.39204177 0.02168692
vt 0.43892353 0.21082378
vt 0.39199898 0.21052089
vt 0.43873415 0.02300634
vt 0.39232834 0.21250599
vt 0.43901896 0.21097999
vt 0.43904517 0.21183431
vt 0.39206598 0.21066561
vt 0.43943029 0.21169459
vt 0.39231112 0.21246907
vt 0.39199898 0.21052089
vt 0.43895846 0.21183431
vt 0.43904978 0.21115863
vt 0.39232834 0.21250599
vt 0.39206598 0.21066561
vt 0.43904529 0.21183431
vt 0.43943029 0.21169459
vt 0.39231112 0.21246907
vt 0.39199898 0.21052089
vt 0.43895834 0.21183431
vt 0.39227045 0.21118608
vt 0.43904517 0.21183431
vt 0.43892365 0.21185976
vt 0.39232834 0.21250599
vt 0.39215505 0.21107979
vt 0.43895846 0.21183431
vt 0.43877045 0.21184279
vt 0.39231112 0.21246907
vt 0.39227045 0.21118608
vt 0.39232834 0.21250599
vt 0.43892365 0.21185976
vt 0.43904529 0.21183431
vt 0.39215505 0.21108028
vt 0.39231112 0.21246907
vt 0.43877045 0.21184279
vt 0.43895834 0.21183431
vt 0.43952211 0.21190768
vt 0.43952211 0.21190768
vt 0.43892365 0.21185976
vt 0.43892365 0.21185976
vt 0.39206598 0.21066561
vt 0.43857758 0.02373641
vt 0.43901896 0.21097999
vt 0.39211126 0.02135707
vt 0.39199898 0.21052089
vt 0.39231698 0.02225930
vt 0.43890369 0.21082878
vt 0.43867052 0.02322591
vt 0.39206598 0.21066561
vt 0.39241454 0.02286062
vt 0.43904978 0.21115863
vt 0.43857758 0.02373641
vt 0.39199898 0.21052089
vt 0.43873415 0.02300634
vt 0.43892365 0.21082378
vt 0.39204177 0.02168692
vt 0.39206598 0.21066561
vt 0.43904517 0.21183431
vt 0.39232834 0.21250599
vt 0.43901896 0.21097999
vt 0.43943029 0.21169459
vt 0.39231112 0.21246907
vt 0.39199898 0.21052089
vt 0.43895846 0.21183431
vt 0.43904978 0.21115863
vt 0.39232834 0.21250599
vt 0.39206598 0.21066561
vt 0.43904517 0.21183431
vt 0.39199898 0.21052089
vt 0.43943029 0.21169459
vt 0.43895834 0.21183431
vt 0.39231112 0.21246907
vt 0.39227045 0.21118608
vt 0.39232834 0.21250599
vt 0.43892365 0.21185976
vt 0.43904517 0.21183431
vt 0.39215505 0.21107979
vt 0.39231112 0.21246907
vt 0.43877045 0.21184279
vt 0.43895846 0.21183431
vt 0.39227045 0.21118608
vt 0.43904517 0.21183431
vt 0.43892365 0.21185976
vt 0.39232834 0.21250599
vt 0.39215505 0.21108028
vt 0.43895834 0.21183431
vt 0.43877045 0.21184279
vt 0.39231112 0.21246907
vt 0.43952211 0.21190768
vt 0.43952211 0.21190768
vt 0.43892365 0.21185976
vt 0.43892365 0.21185976
vt 0.39206598 0.21066561
vt 0.43857758 0.02373641
vt 0.43901896 0.21097999
vt 0.39211126 0.02135707
vt 0.39231711 0.02225980
vt 0.43890344 0.21082927
vt 0.39199898 0.21052089
vt 0.43867052 0.02322591
vt 0.39206598 0.21066561
vt 0.39241454 0.02286062
vt 0.43904978 0.21115863
vt 0.43857758 0.02373641
vt 0.39204177 0.02168692
vt 0.43892365 0.21082378
vt 0.39199898 0.21052089
vt 0.43873415 0.02300634
vt 0.39206598 0.21066561
vt 0.43904517 0.21183431
vt 0.39232834 0.21250599
vt 0.43901896 0.21097999
vt 0.43943029 0.21169459
vt 0.39231112 0.21246907
vt 0.39199898 0.21052089
vt 0.43895846 0.21183431
vt 0.43904978 0.21115863
vt 0.39232834 0.21250599
vt 0.39206598 0.21066561
vt 0.43904517 0.21183431
vt 0.43943029 0.21169459
vt 0.39231112 0.21246907
vt 0.39199898 0.21052089
vt 0.43895834 0.21183431
vt 0.39227045 0.21118608
vt 0.39232834 0.21250599
vt 0.43892365 0.21185976
vt 0.43904517 0.21183431
vt 0.39215505 0.21107979
vt 0.43895846 0.21183431
vt 0.43877045 0.21184279
vt 0.39231112 0.21246907
vt 0.39227045 0.21118608
vt 0.43904517 0.21183431
vt 0.43892365 0.21185976
vt 0.39232834 0.21250599
vt 0.39215505 0.21108028
vt 0.39231112 0.21246907
vt 0.43877045 0.21184279
vt 0.43895834 0.21183431
vt 0.43952211 0.21190768
vt 0.43952211 0.21190768
vt 0.43892365 0.21185976
vt 0.43892365 0.21185976
vt 0.39206598 0.21066561
vt 0.43857758 0.02373641
vt 0.43901896 0.21097999
vt 0.39211126 0.02135707
vt 0.39199898 0.21052089
vt 0.43867052 0.02322591
vt 0.43890369 0.21082878
vt 0.39231698 0.02225930
vt 0.39206598 0.21066561
vt 0.39241454 0.02286062
vt 0.43904978 0.21115863
vt 0.43857758 0.02373641
vt 0.39199898 0.21052089
vt 0.39204177 0.02168692
vt 0.43892365 0.21082378
vt 0.43873415 0.02300634
vt 0.39206598 0.21066561
vt 0.43904517 0.21183431
vt 0.39232834 0.21250599
vt 0.43901896 0.21097999
vt 0.43943029 0.21169459
vt 0.39231112 0.21246907
vt 0.39199898 0.21052089
vt 0.43895846 0.21183431
vt 0.43904978 0.21115863
vt 0.39232834 0.21250599
vt 0.39206598 0.21066561
vt 0.43904517 0.21183431
vt 0.39199898 0.21052089
vt 0.43943029 0.21169459
vt 0.43895834 0.21183431
vt 0.39231112 0.21246907
vt 0.39227045 0.21118608
vt 0.39232834 0.21250599
vt 0.43892365 0.21185976
vt 0.43904517 0.21183431
vt 0.39215505 0.21107979
vt 0.43895846 0.21183431
vt 0.43877045 0.21184279
vt 0.39231112 0.21246907
vt 0.39227045 0.21118608
vt 0.43904517 0.21183431
vt 0.43892365 0.21185976
vt 0.39232834 0.21250599
vt 0.39215505 0.21108028
vt 0.43895834 0.21183431
vt 0.43877045 0.21184279
vt 0.39231112 0.21246907
vt 0.43892365 0.21185976
vt 0.43892365 0.21185976
vt 0.43952211 0.21190768
vt 0.43952211 0.21190768
vt 0.39206598 0.21066561
vt 0.43857758 0.02373641
vt 0.43901896 0.21097999
vt 0.39211126 0.02135707
vt 0.39199898 0.21052089
vt 0.43867052 0.02322591
vt 0.43890369 0.21082878
vt 0.39231698 0.02225930
vt 0.39206598 0.21066561
vt 0.39241454 0.02286062
vt 0.43904978 0.21115863
vt 0.43857758 0.02373641
vt 0.39199898 0.21052089
vt 0.39204177 0.02168692
vt 0.43892365 0.21082378
vt 0.43873415 0.02300634
vt 0.39206598 0.21066561
vt 0.43904517 0.21183431
vt 0.39232834 0.21250599
vt 0.43901896 0.21097999
vt 0.43943029 0.21169459
vt 0.39231112 0.21246907
vt 0.39199898 0.21052089
vt 0.43895846 0.21183431
vt 0.43904978 0.21115863
vt 0.39232834 0.21250599
vt 0.39206598 0.21066561
vt 0.43904529 0.21183431
vt 0.39199898 0.21052089
vt 0.43943029 0.21169459
vt 0.43895834 0.21183431
vt 0.39231112 0.21246907
vt 0.39227045 0.21118608
vt 0.43904517 0.21183431
vt 0.43892365 0.21185976
vt 0.39232834 0.21250599
vt 0.39215505 0.21107979
vt 0.43895846 0.21183431
vt 0.43877045 0.21184279
vt 0.39231112 0.21246907
vt 0.39227045 0.21118608
vt 0.43904529 0.21183431
vt 0.43892365 0.21185976
vt 0.39232834 0.21250599
vt 0.39215505 0.21108028
vt 0.39231112 0.21246907
vt 0.43877045 0.21184279
vt 0.43895834 0.21183431
vt 0.43892365 0.21185976
vt 0.43892365 0.21185976
vt 0.43952211 0.21190768
vt 0.43952211 0.21190768
vt 0.39206598 0.21066561
vt 0.43857758 0.02373641
vt 0.43901896 0.21097999
vt 0.39211126 0.02135707
vt 0.39199898 0.21052089
vt 0.43867052 0.02322591
vt 0.43890369 0.21082878
vt 0.39231711 0.02225980
vt 0.39206598 0.21066561
vt 0.39241454 0.02286062
vt 0.43904978 0.21115863
vt 0.43857758 0.02373641
vt 0.39199898 0.21052089
vt 0.43873415 0.02300634
vt 0.43892365 0.21082378
vt 0.39204177 0.02168692
vt 0.39206598 0.21066561
vt 0.43904517 0.21183431
vt 0.39232834 0.21250599
vt 0.43901896 0.21097999
vt 0.43943029 0.21169459
vt 0.39231112 0.21246907
vt 0.39199898 0.21052089
vt 0.43895846 0.21183431
vt 0.43904978 0.21115863
vt 0.39232834 0.21250599
vt 0.39206598 0.21066561
vt 0.43904529 0.21183431
vt 0.39199898 0.21052089
vt 0.43943029 0.21169459
vt 0.43895834 0.21183431
vt 0.39231112 0.21246907
vt 0.39227045 0.21118608
vt 0.43904517 0.21183431
vt 0.43892365 0.21185976
vt 0.39232834 0.21250599
vt 0.39215505 0.21107979
vt 0.39231112 0.21246907
vt 0.43877045 0.21184279
vt 0.43895846 0.21183431
vt 0.39227045 0.21118608
vt 0.39232834 0.21250599
vt 0.43892365 0.21185976
vt 0.43904529 0.21183431
vt 0.39215505 0.21108028
vt 0.43895834 0.21183431
vt 0.43877045 0.21184279
vt 0.39231112 0.21246907
vt 0.43892365 0.21185976
vt 0.43892365 0.21185976
vt 0.43952211 0.21190768
vt 0.43952211 0.21190768
vt 0.39273417 0.21199100
vt 0.39275762 0.21162572
vt 0.43837398 0.21183431
vt 0.43825009 0.21183431
vt 0.43825009 0.21183431
vt 0.39272469 0.21198850
vt 0.39272519 0.21164618
vt 0.43825009 0.21183431
vt 0.39273429 0.21199749
vt 0.39273005 0.21168410
vt 0.43817163 0.21183431
vt 0.43817163 0.21183431
vt 0.39272045 0.21168709
vt 0.43825009 0.21183431
vt 0.39272456 0.21198253
vt 0.43847079 0.21183431
vt 0.43817163 0.21183431
vt 0.39272968 0.21166364
vt 0.39273404 0.21198052
vt 0.43817163 0.21183431
vt 0.39272020 0.21166764
vt 0.43825009 0.21183431
vt 0.43825009 0.21183431
vt 0.39272444 0.21197204
vt 0.43817163 0.21183431
vt 0.43843935 0.21183431
vt 0.39273404 0.21198003
vt 0.39272968 0.21165766
vt 0.43825022 0.21183431
vt 0.43825009 0.21183431
vt 0.39272444 0.21197255
vt 0.39272481 0.21161974
vt 0.43817163 0.21183431
vt 0.43837398 0.21183431
vt 0.39273417 0.21199100
vt 0.39272993 0.21167811
vt 0.39272519 0.21164618
vt 0.39272456 0.21198850
vt 0.43825009 0.21183431
vt 0.43825009 0.21183431
vt 0.43817163 0.21183431
vt 0.39272993 0.21168410
vt 0.39273429 0.21199749
vt 0.43817163 0.21183431
vt 0.43825009 0.21183431
vt 0.39272045 0.21168709
vt 0.39272456 0.21198253
vt 0.43825009 0.21183431
vt 0.39273417 0.21199100
vt 0.39275762 0.21162572
vt 0.43837398 0.21183431
vt 0.43825009 0.21183431
vt 0.43825009 0.21183431
vt 0.39272456 0.21198850
vt 0.39272519 0.21164618
vt 0.43825009 0.21183431
vt 0.39273429 0.21199749
vt 0.39273005 0.21168410
vt 0.43817163 0.21183431
vt 0.43817163 0.21183431
vt 0.39272045 0.21168709
vt 0.43825009 0.21183431
vt 0.39272456 0.21198253
vt 0.43847104 0.21183431
vt 0.43817163 0.21183431
vt 0.39272968 0.21166364
vt 0.39273404 0.21198052
vt 0.43817163 0.21183431
vt 0.39272020 0.21166764
vt 0.43825009 0.21183431
vt 0.43825009 0.21183431
vt 0.39272444 0.21197204
vt 0.43817163 0.21183431
vt 0.43843948 0.21183431
vt 0.39273404 0.21198003
vt 0.39272968 0.21165766
vt 0.43825022 0.21183431
vt 0.43825009 0.21183431
vt 0.39272444 0.21197255
vt 0.39272481 0.21161974
vt 0.43817163 0.21183431
vt 0.43837398 0.21183431
vt 0.39273417 0.21199100
vt 0.39272993 0.21167811
vt 0.39272519 0.21164618
vt 0.39272456 0.21198850
vt 0.43825009 0.21183431
vt 0.43825009 0.21183431
vt 0.43817163 0.21183431
vt 0.39272993 0.21168410
vt 0.39273429 0.21199749
vt 0.43817163 0.21183431
vt 0.43825009 0.21183431
vt 0.39272045 0.21168709
vt 0.39272456 0.21198253
vt 0.43825009 0.21183431
vt 0.39273417 0.21199100
vt 0.39275762 0.21162572
vt 0.43837398 0.21183431
vt 0.43825009 0.21183431
vt 0.43825009 0.21183431
vt 0.39272456 0.21198850
vt 0.39272469 0.21198052
vt 0.39272519 0.21164618
vt 0.43825009 0.21183431
vt 0.39273429 0.21199749
vt 0.39273005 0.21168410
vt 0.43817163 0.21183431
vt 0.43817163 0.21183431
vt 0.39272045 0.21168709
vt 0.43825009 0.21183431
vt 0.39272456 0.21198253
vt 0.43847129 0.21183431
vt 0.43817163 0.21183431
vt 0.39272968 0.21166364
vt 0.39273404 0.21198052
vt 0.43817163 0.21183431
vt 0.39272020 0.21166764
vt 0.43825009 0.21183431
vt 0.43825009 0.21183431
vt 0.39272444 0.21197204
vt 0.43817163 0.21183431
vt 0.43843948 0.21183431
vt 0.39273404 0.21198003
vt 0.39272968 0.21165766
vt 0.43825022 0.21183431
vt 0.43825009 0.21183431
vt 0.39272444 0.21197255
vt 0.39272481 0.21161974
vt 0.43817163 0.21183431
vt 0.43837385 0.21183431
vt 0.39273417 0.21199100
vt 0.39272993 0.21167811
vt 0.39272519 0.21164618
vt 0.39272456 0.21198850
vt 0.43825009 0.21183431
vt 0.43825009 0.21183431
vt 0.43817163 0.21183431
vt 0.39272993 0.21168410
vt 0.39273429 0.21199749
vt 0.43817163 0.21183431
vt 0.43825009 0.21183431
vt 0.39272045 0.21168709
vt 0.39272456 0.21198253
vt 0.43825009 0.21183431
vt 0.39166339 0.21183431
vt 0.43952211 0.02039944
vt 0.43952211 0.21183431
vt 0.39166339 0.02039944
vt 0.43952211 0.21183431
vt 0.39166339 0.21183431
vt 0.39166339 0.02039944
vt 0.43952211 0.02039944
vt 0.39166339 0.21183431
vt 0.43952211 0.02039944
vt 0.43952211 0.21183431
vt 0.39166339 0.02039944
vt 0.43952211 0.21183431
vt 0.39166339 0.21183431
vt 0.39166339 0.02039944
vt 0.43952211 0.02039944
vt 0.39166339 0.21183431
vt 0.43952211 0.02039944
vt 0.43952211 0.21183431
vt 0.39166339 0.02039944
vt 0.43952211 0.21183431
vt 0.39166339 0.21183431
vt 0.39166339 0.02039944
vt 0.43952211 0.02039944
vt 0.39166339 0.21183431
vt 0.43952211 0.02039944
vt 0.43952211 0.21183431
vt 0.39166339 0.02039944
vt 0.43952211 0.21183431
vt 0.39166339 0.21183431
vt 0.39166339 0.02039944
vt 0.43952211 0.02039944
vt 0.39166339 0.21183431
vt 0.43952211 0.02039944
vt 0.43952211 0.21183431
vt 0.39166339 0.02039944
vt 0.43952211 0.21183431
vt 0.39166339 0.21183431
vt 0.39166339 0.02039944
vt 0.43952211 0.02039944
vt 0.39166339 0.21183431
vt 0.43952211 0.02039944
vt 0.43952211 0.21183431
vt 0.39166339 0.02039944
vt 0.43952211 0.21183431
vt 0.39166339 0.21183431
vt 0.39166339 0.02039944
vt 0.43952211 0.02039944
vt 0.43748971 0.12386646
vt 0.43682451 0.02053417
vt 0.43748971 0.02053417
vt 0.43682451 0.12386646
vt 0.43599626 0.12394430
vt 0.43666158 0.02057310
vt 0.43666158 0.12394430
vt 0.43599588 0.02049525
vt 0.41922533 0.02322790
vt 0.41922533 0.02143990
vt 0.41989052 0.02322790
vt 0.41989065 0.02140148
vt 0.39232959 0.02064246
vt 0.41818985 0.02060055
vt 0.41818985 0.02247687
vt 0.39233470 0.02247687
vt 0.41922533 0.02571304
vt 0.41922508 0.02388612
vt 0.41989065 0.02575197
vt 0.41989065 0.02388612
vt 0.39172402 0.12486999
vt 0.39171354 0.02142843
vt 0.39218262 0.02142843
vt 0.39217214 0.12493287
vt 0.42373101 0.02719863
vt 0.42373987 0.13059629
vt 0.41387293 0.13060877
vt 0.41386419 0.02721161
vt 0.41755622 0.13156439
vt 0.39171005 0.17106660
vt 0.39170680 0.13159932
vt 0.41755934 0.17103166
vt 0.43890382 0.10139644
vt 0.43890444 0.06196061
vt 0.43934733 0.06194464
vt 0.43935131 0.10137797
vt 0.41322906 0.02720562
vt 0.41367843 0.13060227
vt 0.41322345 0.13059678
vt 0.41368405 0.02721061
vt 0.43766125 0.06001491
vt 0.43766212 0.02055064
vt 0.43810962 0.02053218
vt 0.43810900 0.05996801
vt 0.42399000 0.13051943
vt 0.42399562 0.02712777
vt 0.42445197 0.02715522
vt 0.42444461 0.13052293
vt 0.39233982 0.13060877
vt 0.39233108 0.02721161
vt 0.40219802 0.02719863
vt 0.40220663 0.13059629
vt 0.40247660 0.02721161
vt 0.41235203 0.13059629
vt 0.40248521 0.13060877
vt 0.41234342 0.02719863
vt 0.43810501 0.06194464
vt 0.43766150 0.10139644
vt 0.43766212 0.06196061
vt 0.43810900 0.10137797
vt 0.41260790 0.02720562
vt 0.41305727 0.13060227
vt 0.41260229 0.13059678
vt 0.41306289 0.02721061
vt 0.43890444 0.02055064
vt 0.43935131 0.05996801
vt 0.43890357 0.06001491
vt 0.43935194 0.02053218
vt 0.42523232 0.13051943
vt 0.42523794 0.02712777
vt 0.42569429 0.02715522
vt 0.42568693 0.13052293
vt 0.39170680 0.17218092
vt 0.41755622 0.17214598
vt 0.41755934 0.21161324
vt 0.39171005 0.21164817
vt 0.42587194 0.02053118
vt 0.43574862 0.12389291
vt 0.42588180 0.12390588
vt 0.43573801 0.02053417
vt 0.43829488 0.10139743
vt 0.43829289 0.06195312
vt 0.43874550 0.06194464
vt 0.43874962 0.10137797
vt 0.41859157 0.02483426
vt 0.39274377 0.02481180
vt 0.39274502 0.02299187
vt 0.41859294 0.02301432
vt 0.43828241 0.06001491
vt 0.43828316 0.02055064
vt 0.43873078 0.02053218
vt 0.43873028 0.05996801
vt 0.42461116 0.13051943
vt 0.42461678 0.02712777
vt 0.42507313 0.02715522
vt 0.42506577 0.13052293
vt 0.41260790 0.02720562
vt 0.43904978 0.21115863
vt 0.39199898 0.21052089
vt 0.43943029 0.21169459
vt 0.39171479 0.02135607
vt 0.43857758 0.02373641
vt 0.39227045 0.21118608
vt 0.39215505 0.21108028
vt 0.25587620 0.34729123
vt 0.25587620 0.21394019
vt 0.31325379 0.34729123
vt 0.31325342 0.21394019
vt 0.31575377 0.20239429
vt 0.31575377 0.02000371
vt 0.37313074 0.20239429
vt 0.37313074 0.02000371
vt 0.25618884 0.20916153
vt 0.25618884 0.02362762
vt 0.31356618 0.20916204
vt 0.31356618 0.01961048
vt 0.25618884 0.01961048
vt 0.25618884 0.01960899
vt 0.30353494 0.48687705
vt 0.25717167 0.48678027
vt 0.30332048 0.35065314
vt 0.25739485 0.35063119
vt 0.31557287 0.33972004
vt 0.31557287 0.20636551
vt 0.37295010 0.33972004
vt 0.37294972 0.20636551
vt 0.32365669 0.48220372
vt 0.32365680 0.35378202
vt 0.36660127 0.48220422
vt 0.36756850 0.35378202
vt 0.31325379 0.34729123
vt 0.25587620 0.34729123
vt 0.31325342 0.21394019
vt 0.25587620 0.21394019
vt 0.31575377 0.20239429
vt 0.31575377 0.02000371
vt 0.37313074 0.20239429
vt 0.37313074 0.02000371
vt 0.25618884 0.20916153
vt 0.25618884 0.02362762
vt 0.31356618 0.20916204
vt 0.31356618 0.01961048
vt 0.25618884 0.01961048
vt 0.25618884 0.01960998
vt 0.30353494 0.48687705
vt 0.25717167 0.48678027
vt 0.25739485 0.35063119
vt 0.30332048 0.35065314
vt 0.31557287 0.33972004
vt 0.31557287 0.20636551
vt 0.37295010 0.33972004
vt 0.37294972 0.20636551
vt 0.32365669 0.48220372
vt 0.32365680 0.35378202
vt 0.36660127 0.48220422
vt 0.36756850 0.35378202
vt 0.25587620 0.34729123
vt 0.25587620 0.21394019
vt 0.31325379 0.34729123
vt 0.31325342 0.21394019
vt 0.31575377 0.20239429
vt 0.31575377 0.02000371
vt 0.37313074 0.20239429
vt 0.37313074 0.02000371
vt 0.25618884 0.20916153
vt 0.25618884 0.02362762
vt 0.31356618 0.20916204
vt 0.31356618 0.01961048
vt 0.25618884 0.01961048
vt 0.25618884 0.01960899
vt 0.30353494 0.48687705
vt 0.25717167 0.48678027
vt 0.30332048 0.35065314
vt 0.25739485 0.35063119
vt 0.31557287 0.33972004
vt 0.31557287 0.20636551
vt 0.37295010 0.33972004
vt 0.37294972 0.20636551
vt 0.32365669 0.48220372
vt 0.32365680 0.35378202
vt 0.36660127 0.48220422
vt 0.36756850 0.35378202
vt 0.25587620 0.34729123
vt 0.25587620 0.21394019
vt 0.31325379 0.34729123
vt 0.31325342 0.21394019
vt 0.37313074 0.02000371
vt 0.37313074 0.20239429
vt 0.31575377 0.02000371
vt 0.31575377 0.20239429
vt 0.31356618 0.20916204
vt 0.25618884 0.20916153
vt 0.25618884 0.02362762
vt 0.31356618 0.01961048
vt 0.25618884 0.01960849
vt 0.30353494 0.48687705
vt 0.25717167 0.48678027
vt 0.30332048 0.35065314
vt 0.25739485 0.35063119
vt 0.31557287 0.33972004
vt 0.37294972 0.20636551
vt 0.37295010 0.33972004
vt 0.31557287 0.20636551
vt 0.32365669 0.48220372
vt 0.32365680 0.35378202
vt 0.36660127 0.48220422
vt 0.36756850 0.35378202
vt 0.12852214 0.26261095
vt 0.22085419 0.26261095
vt 0.12852226 0.35917647
vt 0.22085432 0.35917647
vt 0.22001734 0.25869909
vt 0.12768415 0.03239546
vt 0.22001721 0.03239496
vt 0.12768415 0.25869960
vt 0.24744366 0.24166343
vt 0.24745614 0.47040230
vt 0.22274038 0.47019822
vt 0.22273190 0.24183860
vt 0.12739297 0.02162804
vt 0.22026597 0.02162804
vt 0.12739297 0.25095376
vt 0.22026597 0.25095376
vt 0.22370636 0.25100865
vt 0.22371622 0.02226878
vt 0.24842848 0.02244494
vt 0.24842100 0.25080306
vt 0.12852214 0.36030924
vt 0.22085407 0.36030924
vt 0.12852214 0.45687479
vt 0.22085407 0.45687479
vt 0.12852214 0.26261095
vt 0.22085419 0.26261095
vt 0.12852226 0.35917647
vt 0.22085432 0.35917647
vt 0.22001734 0.25869909
vt 0.12768415 0.03239546
vt 0.22001721 0.03239496
vt 0.12768415 0.25869960
vt 0.24744366 0.24166343
vt 0.24745614 0.47040230
vt 0.22274038 0.47019822
vt 0.22273190 0.24183860
vt 0.12739297 0.02162804
vt 0.22026597 0.02162804
vt 0.12739297 0.25095376
vt 0.22026597 0.25095376
vt 0.22370636 0.25100865
vt 0.22371622 0.02226878
vt 0.24842848 0.02244494
vt 0.24842100 0.25080306
vt 0.12852214 0.36030924
vt 0.22085407 0.36030924
vt 0.12852214 0.45687479
vt 0.22085407 0.45687479
vt 0.12852214 0.26261095
vt 0.22085419 0.26261095
vt 0.12852226 0.35917647
vt 0.22085432 0.35917647
vt 0.22001734 0.25869909
vt 0.12768415 0.03239546
vt 0.22001721 0.03239496
vt 0.12768415 0.25869960
vt 0.24744366 0.24166343
vt 0.24745614 0.47040230
vt 0.22274038 0.47019822
vt 0.22273190 0.24183860
vt 0.12739297 0.02162804
vt 0.22026597 0.02162804
vt 0.12739297 0.25095376
vt 0.22026597 0.25095376
vt 0.22370636 0.25100865
vt 0.22371622 0.02226878
vt 0.24842848 0.02244494
vt 0.24842100 0.25080306
vt 0.22085407 0.45687479
vt 0.12852214 0.45687479
vt 0.12852214 0.36030924
vt 0.22085407 0.36030924
vt 0.12852214 0.26261095
vt 0.22085419 0.26261095
vt 0.12852226 0.35917647
vt 0.22085432 0.35917647
vt 0.22001734 0.25869909
vt 0.12768415 0.03239546
vt 0.22001721 0.03239496
vt 0.12768415 0.25869960
vt 0.22274038 0.47019822
vt 0.24744366 0.24166343
vt 0.24745614 0.47040230
vt 0.22273190 0.24183860
vt 0.12739297 0.25095376
vt 0.12739297 0.02162804
vt 0.22026597 0.02162804
vt 0.22026597 0.25095376
vt 0.22370636 0.25100865
vt 0.22371622 0.02226878
vt 0.24842848 0.02244494
vt 0.24842100 0.25080306
vt 0.12852214 0.36030924
vt 0.22085407 0.36030924
vt 0.12852214 0.45687479
vt 0.22085407 0.45687479
vt 0.12852214 0.26261095
vt 0.22085419 0.26261095
vt 0.12852226 0.35917647
vt 0.22085432 0.35917647
vt 0.12768415 0.25869960
vt 0.12768415 0.03239546
vt 0.22001734 0.25869909
vt 0.22001721 0.03239496
vt 0.24744366 0.24166343
vt 0.24745614 0.47040230
vt 0.22274038 0.47019822
vt 0.22273190 0.24183860
vt 0.22026597 0.25095376
vt 0.12739297 0.25095376
vt 0.22026597 0.02162804
vt 0.12739297 0.02162804
vt 0.22370636 0.25100865
vt 0.22371622 0.02226878
vt 0.24842848 0.02244494
vt 0.24842100 0.25080306
vt 0.12852214 0.36030924
vt 0.22085407 0.36030924
vt 0.12852214 0.45687479
vt 0.22085407 0.45687479
vt 0.12852214 0.26261095
vt 0.22085419 0.26261095
vt 0.12852226 0.35917647
vt 0.22085432 0.35917647
vt 0.22001734 0.25869909
vt 0.12768415 0.03239546
vt 0.22001721 0.03239496
vt 0.12768415 0.25869960
vt 0.22274038 0.47019822
vt 0.24744366 0.24166343
vt 0.24745614 0.47040230
vt 0.22273190 0.24183860
vt 0.12739297 0.25095376
vt 0.12739297 0.02162804
vt 0.22026597 0.02162804
vt 0.22026597 0.25095376
vt 0.22370636 0.25100865
vt 0.22371622 0.02226878
vt 0.24842848 0.02244494
vt 0.24842100 0.25080306
vt 0.12852214 0.36030924
vt 0.22085407 0.36030924
vt 0.12852214 0.45687479
vt 0.22085407 0.45687479
vt 0.12852214 0.26261095
vt 0.22085419 0.26261095
vt 0.12852226 0.35917647
vt 0.22085432 0.35917647
vt 0.22001734 0.25869909
vt 0.12768415 0.25869960
vt 0.12768415 0.03239546
vt 0.22001721 0.03239496
vt 0.22274038 0.47019822
vt 0.24744366 0.24166343
vt 0.24745614 0.47040230
vt 0.22273190 0.24183860
vt 0.12739297 0.25095376
vt 0.22026597 0.02162804
vt 0.22026597 0.25095376
vt 0.12739297 0.02162804
vt 0.22370636 0.25100865
vt 0.22371622 0.02226878
vt 0.24842848 0.02244494
vt 0.24842100 0.25080306
vt 0.12852214 0.36030924
vt 0.22085407 0.36030924
vt 0.12852214 0.45687479
vt 0.22085407 0.45687479
vt 0.12852214 0.26261095
vt 0.22085432 0.35917647
vt 0.12852226 0.35917647
vt 0.22085419 0.26261095
vt 0.22001734 0.25869909
vt 0.12768415 0.25869960
vt 0.12768415 0.03239546
vt 0.22001721 0.03239496
vt 0.24744366 0.24166343
vt 0.24745614 0.47040230
vt 0.22274038 0.47019822
vt 0.22273190 0.24183860
vt 0.12739297 0.25095376
vt 0.22026597 0.02162804
vt 0.22026597 0.25095376
vt 0.12739297 0.02162804
vt 0.22370636 0.25100865
vt 0.22371622 0.02226878
vt 0.24842848 0.02244494
vt 0.24842100 0.25080306
vt 0.12852214 0.36030924
vt 0.22085407 0.45687479
vt 0.12852214 0.45687479
vt 0.22085407 0.36030924
vt 0.12852214 0.26261095
vt 0.22085419 0.26261095
vt 0.12852226 0.35917647
vt 0.22085432 0.35917647
vt 0.22001734 0.25869909
vt 0.12768415 0.25869960
vt 0.12768415 0.03239546
vt 0.22001721 0.03239496
vt 0.24744366 0.24166343
vt 0.24745614 0.47040230
vt 0.22274038 0.47019822
vt 0.22273190 0.24183860
vt 0.12739297 0.25095376
vt 0.22026597 0.02162804
vt 0.22026597 0.25095376
vt 0.12739297 0.02162804
vt 0.22370636 0.25100865
vt 0.22371622 0.02226878
vt 0.24842848 0.02244494
vt 0.24842100 0.25080306
vt 0.12852214 0.36030924
vt 0.22085407 0.45687479
vt 0.12852214 0.45687479
vt 0.22085407 0.36030924
vt 0.12852214 0.26261095
vt 0.22085419 0.26261095
vt 0.12852226 0.35917647
vt 0.22085432 0.35917647
vt 0.22001734 0.25869909
vt 0.12768415 0.25869960
vt 0.12768415 0.03239546
vt 0.22001721 0.03239496
vt 0.24744366 0.24166343
vt 0.24745614 0.47040230
vt 0.22274038 0.47019822
vt 0.22273190 0.24183860
vt 0.12739297 0.25095376
vt 0.22026597 0.02162804
vt 0.22026597 0.25095376
vt 0.12739297 0.02162804
vt 0.22370636 0.25100865
vt 0.22371622 0.02226878
vt 0.24842848 0.02244494
vt 0.24842100 0.25080306
vt 0.22085407 0.45687479
vt 0.12852214 0.45687479
vt 0.12852214 0.36030924
vt 0.22085407 0.36030924
vt 0.12852214 0.26261095
vt 0.22085419 0.26261095
vt 0.12852226 0.35917647
vt 0.22085432 0.35917647
vt 0.22001734 0.25869909
vt 0.12768415 0.25869960
vt 0.12768415 0.03239546
vt 0.22001721 0.03239496
vt 0.24744366 0.24166343
vt 0.24745614 0.47040230
vt 0.22274038 0.47019822
vt 0.22273190 0.24183860
vt 0.12739297 0.25095376
vt 0.22026597 0.02162804
vt 0.22026597 0.25095376
vt 0.12739297 0.02162804
vt 0.22370636 0.25100865
vt 0.22371622 0.02226878
vt 0.24842848 0.02244494
vt 0.24842100 0.25080306
vt 0.12852214 0.36030924
vt 0.22085407 0.45687479
vt 0.12852214 0.45687479
vt 0.22085407 0.36030924
vt 0.03026463 0.10481674
vt 0.11807716 0.10481674
vt 0.03026463 0.34726576
vt 0.11807716 0.34726576
vt 0.03051377 0.34726576
vt 0.03051377 0.10481674
vt 0.11832643 0.34726576
vt 0.11832643 0.10481674
vt 0.11832643 0.34726576
vt 0.11832643 0.10481674
vt 0.00235175 0.10481674
vt 0.00235175 0.34726576
vt 0.03051377 0.34726576
vt 0.11832643 0.34726576
vt 0.11832643 0.38239104
vt 0.03051377 0.38239053
vt 0.02173258 0.34726576
vt 0.02173258 0.10481674
vt 0.03051377 0.34726576
vt 0.03051377 0.10481674
vt 0.02915380 0.05316232
vt 0.11696646 0.05316232
vt 0.02915380 0.08828709
vt 0.11696646 0.08828709
vt 0.03026463 0.10481674
vt 0.11807716 0.10481674
vt 0.03026463 0.34726576
vt 0.11807716 0.34726576
vt 0.03051377 0.34726576
vt 0.03051377 0.10481674
vt 0.11832643 0.34726576
vt 0.11832643 0.10481674
vt 0.11832643 0.34726576
vt 0.11832643 0.10481674
vt 0.00235175 0.10481674
vt 0.00235175 0.34726576
vt 0.03051377 0.34726576
vt 0.11832643 0.34726576
vt 0.11832643 0.38239104
vt 0.03051377 0.38239053
vt 0.02173258 0.34726576
vt 0.02173258 0.10481674
vt 0.03051377 0.34726576
vt 0.03051377 0.10481674
vt 0.02915380 0.05316232
vt 0.11696646 0.05316232
vt 0.02915380 0.08828709
vt 0.11696646 0.08828709
vt 0.03026463 0.10481674
vt 0.11807716 0.10481674
vt 0.03026463 0.34726576
vt 0.11807716 0.34726576
vt 0.03051377 0.34726576
vt 0.03051377 0.10481674
vt 0.11832643 0.34726576
vt 0.11832643 0.10481674
vt 0.11832643 0.34726576
vt 0.11832643 0.10481674
vt 0.00235175 0.10481674
vt 0.00235175 0.34726576
vt 0.03051377 0.34726576
vt 0.11832643 0.34726576
vt 0.11832643 0.38239104
vt 0.03051377 0.38239053
vt 0.03051377 0.10481674
vt 0.03051377 0.34726576
vt 0.02173258 0.34726576
vt 0.02173258 0.10481674
vt 0.11696646 0.08828709
vt 0.02915380 0.08828709
vt 0.02915380 0.05316232
vt 0.11696646 0.05316232
vt 0.03026463 0.10481674
vt 0.11807716 0.10481674
vt 0.03026463 0.34726576
vt 0.11807716 0.34726576
vt 0.03051377 0.34726576
vt 0.03051377 0.10481674
vt 0.11832643 0.34726576
vt 0.11832643 0.10481674
vt 0.11832643 0.34726576
vt 0.11832643 0.10481674
vt 0.00235175 0.10481674
vt 0.00235175 0.34726576
vt 0.03051377 0.34726576
vt 0.11832643 0.34726576
vt 0.11832643 0.38239104
vt 0.03051377 0.38239053
vt 0.02173258 0.34726576
vt 0.02173258 0.10481674
vt 0.03051377 0.34726576
vt 0.03051377 0.10481674
vt 0.02915380 0.05316232
vt 0.11696646 0.05316232
vt 0.02915380 0.08828709
vt 0.11696646 0.08828709
vt 0.03026463 0.10481674
vt 0.11807716 0.10481674
vt 0.03026463 0.34726576
vt 0.11807716 0.34726576
vt 0.03051377 0.34726576
vt 0.03051377 0.10481674
vt 0.11832643 0.34726576
vt 0.11832643 0.10481674
vt 0.00235175 0.10481674
vt 0.11832643 0.34726576
vt 0.11832643 0.10481674
vt 0.00235175 0.34726576
vt 0.03051377 0.34726576
vt 0.11832643 0.34726576
vt 0.11832643 0.38239104
vt 0.03051377 0.38239053
vt 0.02173258 0.34726576
vt 0.02173258 0.10481674
vt 0.03051377 0.34726576
vt 0.03051377 0.10481674
vt 0.02915380 0.05316232
vt 0.11696646 0.05316232
vt 0.02915380 0.08828709
vt 0.11696646 0.08828709
vt 0.03026463 0.10481674
vt 0.11807716 0.10481674
vt 0.03026463 0.34726576
vt 0.11807716 0.34726576
vt 0.03051377 0.34726576
vt 0.03051377 0.10481674
vt 0.11832643 0.34726576
vt 0.11832643 0.10481674
vt 0.00235175 0.10481674
vt 0.11832643 0.34726576
vt 0.11832643 0.10481674
vt 0.00235175 0.34726576
vt 0.03051377 0.34726576
vt 0.11832643 0.34726576
vt 0.11832643 0.38239104
vt 0.03051377 0.38239053
vt 0.03051377 0.10481674
vt 0.03051377 0.34726576
vt 0.02173258 0.34726576
vt 0.02173258 0.10481674
vt 0.11696646 0.08828709
vt 0.02915380 0.08828709
vt 0.02915380 0.05316232
vt 0.11696646 0.05316232
vt 0.11807716 0.10481674
vt 0.03026463 0.34726576
vt 0.03026463 0.10481674
vt 0.11807716 0.34726576
vt 0.11832643 0.34726576
vt 0.03051377 0.34726576
vt 0.03051377 0.10481674
vt 0.11832643 0.10481674
vt 0.00235175 0.10481674
vt 0.00235175 0.34726576
vt 0.11832643 0.10481674
vt 0.11832643 0.34726576
vt 0.03051377 0.34726576
vt 0.11832643 0.34726576
vt 0.11832643 0.38239104
vt 0.03051377 0.38239053
vt 0.03051377 0.10481674
vt 0.03051377 0.34726576
vt 0.02173258 0.34726576
vt 0.02173258 0.10481674
vt 0.11696646 0.08828709
vt 0.02915380 0.08828709
vt 0.02915380 0.05316232
vt 0.11696646 0.05316232
vt 0.11807716 0.10481674
vt 0.03026463 0.34726576
vt 0.03026463 0.10481674
vt 0.11807716 0.34726576
vt 0.11832643 0.34726576
vt 0.03051377 0.34726576
vt 0.03051377 0.10481674
vt 0.11832643 0.10481674
vt 0.11832643 0.34726576
vt 0.11832643 0.10481674
vt 0.00235175 0.10481674
vt 0.00235175 0.34726576
vt 0.03051377 0.34726576
vt 0.11832643 0.34726576
vt 0.11832643 0.38239104
vt 0.03051377 0.38239053
vt 0.02173258 0.34726576
vt 0.03051377 0.10481674
vt 0.03051377 0.34726576
vt 0.02173258 0.10481674
vt 0.11696646 0.08828709
vt 0.02915380 0.08828709
vt 0.02915380 0.05316232
vt 0.11696646 0.05316232
vt 0.03026463 0.10481674
vt 0.11807716 0.10481674
vt 0.03026463 0.34726576
vt 0.11807716 0.34726576
vt 0.03051377 0.34726576
vt 0.03051377 0.10481674
vt 0.11832643 0.34726576
vt 0.11832643 0.10481674
vt 0.11832643 0.34726576
vt 0.11832643 0.10481674
vt 0.00235175 0.10481674
vt 0.00235175 0.34726576
vt 0.03051377 0.34726576
vt 0.11832643 0.34726576
vt 0.11832643 0.38239104
vt 0.03051377 0.38239053
vt 0.02173258 0.34726576
vt 0.02173258 0.10481674
vt 0.03051377 0.34726576
vt 0.03051377 0.10481674
vt 0.02915380 0.05316232
vt 0.11696646 0.05316232
vt 0.02915380 0.08828709
vt 0.11696646 0.08828709
vt 0.03026463 0.10481674
vt 0.11807716 0.10481674
vt 0.03026463 0.34726576
vt 0.11807716 0.34726576
vt 0.03051377 0.34726576
vt 0.03051377 0.10481674
vt 0.11832643 0.34726576
vt 0.11832643 0.10481674
vt 0.00235175 0.10481674
vt 0.11832643 0.34726576
vt 0.11832643 0.10481674
vt 0.00235175 0.34726576
vt 0.03051377 0.34726576
vt 0.11832643 0.34726576
vt 0.11832643 0.38239104
vt 0.03051377 0.38239053
vt 0.02173258 0.34726576
vt 0.02173258 0.10481674
vt 0.03051377 0.34726576
vt 0.03051377 0.10481674
vt 0.02915380 0.05316232
vt 0.11696646 0.05316232
vt 0.02915380 0.08828709
vt 0.11696646 0.08828709
vt 0.11807716 0.34726576
vt 0.03026463 0.34726576
vt 0.11807716 0.10481674
vt 0.03026463 0.10481674
vt 0.11832643 0.34726576
vt 0.03051377 0.10481674
vt 0.11832643 0.10481674
vt 0.03051377 0.34726576
vt 0.11832643 0.34726576
vt 0.11832643 0.10481674
vt 0.00235175 0.10481674
vt 0.00235175 0.34726576
vt 0.11832643 0.34726576
vt 0.03051377 0.38239053
vt 0.03051377 0.34726576
vt 0.11832643 0.38239104
vt 0.02173258 0.34726576
vt 0.03051377 0.10481674
vt 0.03051377 0.34726576
vt 0.02173258 0.10481674
vt 0.02915380 0.05316232
vt 0.11696646 0.05316232
vt 0.02915380 0.08828709
vt 0.11696646 0.08828709
vt 0.11807716 0.34726576
vt 0.03026463 0.34726576
vt 0.11807716 0.10481674
vt 0.03026463 0.10481674
vt 0.11832643 0.34726576
vt 0.03051377 0.10481674
vt 0.11832643 0.10481674
vt 0.03051377 0.34726576
vt 0.11832643 0.34726576
vt 0.11832643 0.10481674
vt 0.00235175 0.10481674
vt 0.00235175 0.34726576
vt 0.03051377 0.34726576
vt 0.11832643 0.34726576
vt 0.11832643 0.38239104
vt 0.03051377 0.38239053
vt 0.02173258 0.34726576
vt 0.02173258 0.10481674
vt 0.03051377 0.34726576
vt 0.03051377 0.10481674
vt 0.02915380 0.05316232
vt 0.11696646 0.05316232
vt 0.02915380 0.08828709
vt 0.11696646 0.08828709
vt 0.11807716 0.34726576
vt 0.03026463 0.34726576
vt 0.11807716 0.10481674
vt 0.03026463 0.10481674
vt 0.11832643 0.34726576
vt 0.03051377 0.10481674
vt 0.11832643 0.10481674
vt 0.03051377 0.34726576
vt 0.11832643 0.34726576
vt 0.11832643 0.10481674
vt 0.00235175 0.10481674
vt 0.00235175 0.34726576
vt 0.03051377 0.34726576
vt 0.11832643 0.34726576
vt 0.11832643 0.38239104
vt 0.03051377 0.38239053
vt 0.03051377 0.10481674
vt 0.03051377 0.34726576
vt 0.02173258 0.34726576
vt 0.02173258 0.10481674
vt 0.11696646 0.08828709
vt 0.02915380 0.08828709
vt 0.02915380 0.05316232
vt 0.11696646 0.05316232
vt 0.11807716 0.34726576
vt 0.03026463 0.34726576
vt 0.11807716 0.10481674
vt 0.03026463 0.10481674
vt 0.11832643 0.34726576
vt 0.03051377 0.10481674
vt 0.11832643 0.10481674
vt 0.03051377 0.34726576
vt 0.11832643 0.34726576
vt 0.11832643 0.10481674
vt 0.00235175 0.10481674
vt 0.00235175 0.34726576
vt 0.03051377 0.34726576
vt 0.11832643 0.34726576
vt 0.11832643 0.38239104
vt 0.03051377 0.38239053
vt 0.03051377 0.10481674
vt 0.03051377 0.34726576
vt 0.02173258 0.34726576
vt 0.02173258 0.10481674
vt 0.02915380 0.05316232
vt 0.11696646 0.05316232
vt 0.02915380 0.08828709
vt 0.11696646 0.08828709
f 1/1 2/2 3/3
f 2/2 1/1 4/4
f 5/5 6/6 7/7
f 6/6 5/5 8/8
f 9/9 10/10 11/11
f 11/11 10/10 12/12
f 13/13 14/14 15/15
f 14/14 13/13 16/16
f 17/17 18/18 19/19
f 18/18 17/17 20/20
f 21/21 22/22 23/23
f 22/22 21/21 24/24
f 25/25 26/26 27/27
f 26/26 25/25 28/28
f 29/29 30/30 31/31
f 30/30 29/29 32/32
f 33/33 34/34 35/35
f 34/34 33/33 36/36
f 37/37 38/38 39/39
f 38/38 37/37 40/40
f 41/41 42/42 43/43
f 43/43 42/42 44/44
f 45/45 46/46 47/47
f 47/47 46/46 48/48
f 49/49 50/50 51/51
f 50/50 49/49 52/52
f 53/53 54/54 55/55
f 54/54 53/53 56/56
f 57/57 58/58 59/59
f 59/59 58/58 60/60
f 61/61 62/62 63/63
f 63/63 62/62 64/64
f 65/65 66/66 67/67
f 66/66 65/65 68/68
f 69/69 70/70 71/71
f 69/69 72/72 70/70
f 73/73 74/74 75/75
f 74/74 73/73 76/76
f 77/77 78/78 79/79
f 78/78 77/77 80/80
f 81/81 82/82 83/83
f 81/81 83/83 84/84
f 85/85 86/86 87/87
f 87/87 86/86 88/88
f 89/89 90/90 91/91
f 91/91 90/90 92/92
f 93/93 94/94 95/95
f 94/94 93/93 96/96
f 97/97 98/98 99/99
f 98/98 97/97 100/100
f 101/101 102/102 103/103
f 102/102 101/101 104/104
f 105/105 106/106 107/107
f 106/106 105/105 108/108
f 109/109 110/110 111/111
f 110/110 109/109 112/112
f 113/113 114/114 115/115
f 115/115 114/114 116/116
f 117/117 118/118 119/119
f 118/118 117/117 120/120
f 121/121 122/122 123/123
f 121/121 124/124 122/122
f 125/125 126/126 127/127
f 126/126 125/125 128/128
f 129/129 130/130 131/131
f 130/130 129/129 132/132
f 133/133 134/134 135/135
f 134/134 133/133 136/136
f 137/137 138/138 139/139
f 139/139 138/138 140/140
f 141/141 142/142 143/143
f 142/142 141/141 144/144
f 145/145 146/146 147/147
f 146/146 145/145 148/148
f 149/149 150/150 151/151
f 151/151 150/150 152/152
f 153/153 154/154 155/155
f 154/154 153/153 156/156
f 157/157 158/158 159/159
f 158/158 157/157 160/160
f 161/161 162/162 163/163
f 162/162 161/161 164/164
f 165/165 166/166 167/167
f 167/167 166/166 168/168
f 169/169 170/170 171/171
f 171/171 170/170 172/172
f 173/173 174/174 175/175
f 173/173 176/176 174/174
f 177/177 178/178 179/179
f 178/178 177/177 180/180
f 181/181 182/182 183/183
f 182/182 181/181 184/184
f 185/185 186/186 187/187
f 185/185 187/187 188/188
f 189/189 190/190 191/191
f 191/191 190/190 192/192
f 193/193 194/194 195/195
f 194/194 193/193 196/196
f 197/197 198/198 199/199
f 198/198 197/197 200/200
f 201/201 202/202 203/203
f 202/202 201/201 204/204
f 205/205 206/206 207/207
f 206/206 205/205 208/208
f 209/209 210/210 211/211
f 210/210 209/209 212/212
f 213/213 214/214 215/215
f 214/214 213/213 216/216
f 217/217 218/218 219/219
f 219/219 218/218 220/220
f 221/221 222/222 223/223
f 223/223 222/222 224/224
f 225/225 226/226 227/227
f 225/225 228/228 226/226
f 229/229 230/230 231/231
f 230/230 229/229 232/232
f 233/233 234/234 235/235
f 234/234 233/233 236/236
f 237/237 238/238 239/239
f 237/237 239/239 240/240
f 241/241 242/242 243/243
f 242/242 241/241 244/244
f 245/245 246/246 247/247
f 246/246 245/245 248/248
f 249/249 250/250 251/251
f 250/250 249/249 252/252
f 253/253 254/254 255/255
f 255/255 254/254 256/256
f 257/257 258/258 259/259
f 258/258 257/257 260/260
f 261/261 262/262 263/263
f 262/262 261/261 264/264
f 265/265 266/266 267/267
f 266/266 265/265 268/268
f 269/269 270/270 271/271
f 271/271 270/270 272/272
f 273/273 274/274 275/275
f 274/274 273/273 276/276
f 277/277 278/278 279/279
f 277/277 280/280 278/278
f 281/281 282/282 283/283
f 282/282 281/281 284/284
f 285/285 286/286 287/287
f 286/286 285/285 288/288
f 289/289 290/290 291/291
f 289/289 291/291 292/292
f 293/293 294/294 295/295
f 294/294 293/293 296/296
f 297/297 298/298 299/299
f 299/299 298/298 300/300
f 301/301 302/302 303/303
f 303/303 302/302 304/304
f 305/305 306/306 307/307
f 306/306 305/305 308/308
f 309/309 310/310 311/311
f 310/310 309/309 312/312
f 313/313 314/314 315/315
f 316/316 317/317 318/318
f 318/318 319/319 320/320
f 321/321 322/322 323/323
f 324/324 323/323 322/322
f 325/325 326/326 327/327
f 326/326 325/325 328/328
f 329/329 330/330 331/331
f 329/329 332/332 330/330
f 333/333 334/334 335/335
f 334/334 333/333 336/336
f 337/337 338/338 339/339
f 340/340 339/339 338/338
f 341/341 342/342 343/343
f 343/343 342/342 344/344
f 345/345 346/346 347/347
f 348/348 347/347 346/346
f 349/349 350/350 351/351
f 351/351 350/350 352/352
f 353/353 354/354 355/355
f 353/353 356/356 354/354
f 357/357 358/358 359/359
f 358/358 357/357 360/360
f 361/361 362/362 363/363
f 364/364 365/365 366/366
f 366/366 367/367 368/368
f 369/369 370/370 371/371
f 372/372 371/371 370/370
f 373/373 374/374 375/375
f 374/374 373/373 376/376
f 377/377 378/378 379/379
f 377/377 380/380 378/378
f 381/381 382/382 383/383
f 382/382 381/381 384/384
f 385/385 386/386 387/387
f 388/388 387/387 386/386
f 389/389 390/390 391/391
f 391/391 390/390 392/392
f 393/393 394/394 395/395
f 396/396 395/395 394/394
f 397/397 398/398 399/399
f 399/399 398/398 400/400
f 401/401 402/402 403/403
f 401/401 404/404 402/402
f 405/405 406/406 407/407
f 406/406 405/405 408/408
f 409/409 410/410 411/411
f 412/412 413/413 414/414
f 415/415 416/416 414/414
f 414/414 416/416 417/417
f 418/418 419/419 420/420
f 421/421 420/420 419/419
f 422/422 423/423 424/424
f 423/423 422/422 425/425
f 426/426 427/427 428/428
f 426/426 429/429 427/427
f 430/430 431/431 432/432
f 431/431 430/430 433/433
f 434/434 435/435 436/436
f 437/437 436/436 435/435
f 438/438 439/439 440/440
f 440/440 439/439 441/441
f 442/442 443/443 444/444
f 445/445 444/444 443/443
f 446/446 447/447 448/448
f 448/448 447/447 449/449
f 450/450 451/451 452/452
f 450/450 453/453 451/451
f 454/454 455/455 456/456
f 455/455 454/454 457/457
f 458/458 459/459 460/460
f 459/459 458/458 461/461
f 462/462 463/463 464/464
f 462/462 464/464 465/465
f 466/466 467/467 468/468
f 467/467 466/466 469/469
f 470/470 471/471 472/472
f 472/472 473/473 470/470
f 474/474 475/475 476/476
f 475/475 474/474 477/477
f 478/478 479/479 480/480
f 478/478 480/480 481/481
f 482/482 483/483 484/484
f 483/483 482/482 485/485
f 486/486 487/487 488/488
f 488/488 489/489 486/486
f 490/490 491/491 492/492
f 491/491 490/490 493/493
f 494/494 495/495 496/496
f 494/494 496/496 497/497
f 498/498 499/499 500/500
f 499/499 498/498 501/501
f 502/502 503/503 504/504
f 504/504 505/505 502/502
f 506/506 507/507 508/508
f 507/507 506/506 509/509
f 510/510 511/511 512/512
f 511/511 510/510 513/513
f 514/514 515/515 516/516
f 516/516 515/515 517/517
f 518/518 519/519 520/520
f 518/518 520/520 521/521
f 522/522 523/523 524/524
f 524/524 523/523 525/525
f 526/526 527/527 528/528
f 526/526 528/528 529/529
f 530/530 531/531 532/532
f 530/530 532/532 533/533
f 534/534 535/535 536/536
f 535/535 534/534 537/537
f 538/538 539/539 540/540
f 538/538 540/540 541/541
f 542/542 543/543 544/544
f 543/543 542/542 545/545
f 546/546 547/547 548/548
f 546/546 548/548 549/549
f 550/550 551/551 552/552
f 550/550 552/552 553/553
f 554/554 555/555 556/556
f 554/554 556/556 557/557
f 558/558 559/559 560/560
f 559/559 558/558 561/561
f 562/562 563/563 564/564
f 563/563 562/562 565/565
f 566/566 567/567 568/568
f 567/567 566/566 569/569
f 570/570 571/571 572/572
f 571/571 570/570 573/573
f 574/574 575/575 576/576
f 574/574 576/576 577/577
f 578/578 579/579 580/580
f 578/578 580/580 581/581
f 582/582 583/583 584/584
f 583/583 582/582 585/585
f 586/586 587/587 588/588
f 586/586 588/588 589/589
f 590/590 591/591 592/592
f 590/590 592/592 593/593
f 594/594 595/595 596/596
f 594/594 596/596 597/597
f 598/598 599/599 600/600
f 598/598 600/600 601/601
f 602/602 603/603 604/604
f 602/602 604/604 605/605
f 606/606 607/607 608/608
f 606/606 608/608 609/609
f 610/610 611/611 612/612
f 612/612 611/611 613/613
f 614/614 615/615 616/616
f 615/615 617/617 616/616
f 618/618 619/619 620/620
f 619/619 621/621 620/620
f 621/621 619/619 622/622
f 619/619 623/623 622/622
f 624/624 625/625 626/626
f 625/625 627/627 626/626
f 628/628 629/629 630/630
f 630/630 629/629 631/631
f 632/632 633/633 634/634
f 634/634 633/633 635/635
f 636/636 637/637 638/638
f 637/637 639/639 638/638
f 640/640 641/641 642/642
f 641/641 643/643 642/642
f 644/644 645/645 646/646
f 645/645 647/647 646/646
f 647/647 645/645 648/648
f 645/645 649/649 648/648
f 650/650 651/651 652/652
f 650/650 652/652 653/653
f 654/654 655/655 656/656
f 656/656 655/655 657/657
f 658/658 659/659 660/660
f 660/660 659/659 661/661
f 662/662 663/663 664/664
f 664/664 663/663 665/665
f 666/666 667/667 668/668
f 667/667 669/669 668/668
f 670/670 671/671 672/672
f 671/671 673/673 672/672
f 673/673 671/671 674/674
f 671/671 675/675 674/674
f 676/676 677/677 678/678
f 677/677 679/679 678/678
f 680/680 681/681 682/682
f 682/682 681/681 683/683
f 684/684 685/685 686/686
f 686/686 685/685 687/687
f 688/688 689/689 690/690
f 690/690 689/689 691/691
f 692/692 693/693 694/694
f 694/694 693/693 695/695
f 696/696 697/697 698/698
f 696/696 698/698 699/699
f 698/698 700/700 699/699
f 701/701 702/702 703/703
f 702/702 704/704 703/703
f 705/705 706/706 707/707
f 706/706 705/705 708/708
f 709/709 710/710 711/711
f 711/711 710/710 712/712
f 713/713 714/714 715/715
f 716/716 715/715 714/714
f 717/717 718/718 719/719
f 718/718 717/717 720/720
f 721/721 722/722 723/723
f 721/721 723/723 724/724
f 725/725 726/726 727/727
f 726/726 728/728 727/727
f 729/729 730/730 731/731
f 729/729 731/731 732/732
f 733/733 734/734 735/735
f 736/736 735/735 734/734
f 737/737 738/738 739/739
f 740/740 739/739 738/738
f 741/741 742/742 743/743
f 742/742 741/741 744/744
f 745/745 746/746 747/747
f 745/745 747/747 748/748
f 749/749 750/750 751/751
f 750/750 752/752 751/751
f 753/753 754/754 755/755
f 753/753 755/755 756/756
f 757/757 758/758 759/759
f 760/760 759/759 758/758
f 761/761 762/762 763/763
f 764/764 763/763 762/762
f 765/765 766/766 767/767
f 766/766 765/765 768/768
f 769/769 770/770 771/771
f 769/769 771/771 772/772
f 773/773 774/774 775/775
f 774/774 776/776 775/775
f 777/777 778/778 779/779
f 777/777 779/779 780/780
f 781/781 782/782 783/783
f 781/781 783/783 784/784
f 785/785 786/786 787/787
f 788/788 787/787 786/786
f 789/789 790/790 791/791
f 790/790 789/789 792/792
f 793/793 794/794 795/795
f 794/794 793/793 796/796
f 797/797 798/798 799/799
f 797/797 799/799 800/800
f 801/801 802/802 803/803
f 801/801 803/803 804/804
f 805/805 806/806 807/807
f 808/808 807/807 806/806
f 809/809 810/810 811/811
f 812/812 811/811 810/810
f 813/813 814/814 815/815
f 814/814 816/816 815/815
f 817/817 818/818 819/819
f 817/817 819/819 820/820
f 821/821 822/822 823/823
f 823/823 822/822 824/824
f 825/825 826/826 827/827
f 825/825 827/827 828/828
f 829/829 830/830 831/831
f 832/832 831/831 830/830
f 833/833 834/834 835/835
f 836/836 835/835 834/834
f 837/837 838/838 839/839
f 838/838 837/837 840/840
f 841/841 842/842 843/843
f 842/842 841/841 844/844
f 845/845 846/846 847/847
f 845/845 847/847 848/848
f 849/849 850/850 851/851
f 849/849 851/851 852/852
f 853/853 854/854 855/855
f 856/856 855/855 854/854
f 857/857 858/858 859/859
f 860/860 859/859 858/858
f 861/861 862/862 863/863
f 861/861 863/863 864/864
f 865/865 866/866 867/867
f 866/866 865/865 868/868
f 869/869 870/870 871/871
f 870/870 869/869 872/872
f 873/873 874/874 875/875
f 873/873 875/875 876/876
f 877/877 878/878 879/879
f 880/880 879/879 878/878
f 881/881 882/882 883/883
f 882/882 881/881 884/884
f 885/885 886/886 887/887
f 887/887 888/888 885/885
f 889/889 890/890 891/891
f 889/889 891/891 892/892
f 893/893 894/894 895/895
f 894/894 893/893 896/896
f 897/897 898/898 899/899
f 897/897 899/899 900/900
f 901/901 902/902 903/903
f 902/902 901/901 904/904
f 905/905 906/906 907/907
f 908/908 907/907 906/906
f 909/909 910/910 911/911
f 909/909 911/911 912/912
f 913/913 914/914 915/915
f 913/913 915/915 916/916
f 917/917 918/918 919/919
f 918/918 917/917 920/920
f 921/921 922/922 923/923
f 921/921 923/923 924/924
f 925/925 926/926 927/927
f 926/926 925/925 928/928
f 929/929 930/930 931/931
f 932/932 931/931 930/930
f 933/933 934/934 935/935
f 933/933 935/935 936/936
f 937/937 938/938 939/939
f 937/937 939/939 940/940
f 941/941 942/942 943/943
f 942/942 941/941 944/944
f 945/945 946/946 947/947
f 945/945 947/947 948/948
f 949/949 950/950 951/951
f 949/949 951/951 952/952
f 953/953 954/954 955/955
f 956/956 955/955 954/954
f 957/957 958/958 959/959
f 957/957 959/959 960/960
f 961/961 962/962 963/963
f 961/961 963/963 964/964
f 965/965 966/966 967/967
f 966/966 965/965 968/968
f 969/969 970/970 971/971
f 969/969 971/971 972/972
f 973/973 974/974 975/975
f 974/974 973/973 976/976
f 977/977 978/978 979/979
f 979/979 978/978 980/980
f 981/981 982/982 983/983
f 982/982 984/984 983/983
f 985/985 986/986 987/987
f 985/985 987/987 988/988
f 989/989 990/990 991/991
f 989/989 991/991 992/992
f 993/993 994/994 995/995
f 996/996 995/995 994/994
f 997/997 998/998 999/999
f 1000/1000 999/999 998/998
f 1001/1001 1002/1002 1003/1003
f 1003/1003 1002/1002 1004/1004
f 1005/1005 1006/1006 1007/1007
f 1006/1006 1008/1008 1007/1007
f 1009/1009 1010/1010 1011/1011
f 1009/1009 1011/1011 1012/1012
f 1013/1013 1014/1014 1015/1015
f 1013/1013 1015/1015 1016/1016
f 1017/1017 1018/1018 1019/1019
f 1020/1020 1019/1019 1018/1018
f 1021/1021 1022/1022 1023/1023
f 1024/1024 1023/1023 1022/1022
f 1025/1025 1026/1026 1027/1027
f 1027/1027 1026/1026 1028/1028
f 1029/1029 1030/1030 1031/1031
f 1030/1030 1032/1032 1031/1031
f 1033/1033 1034/1034 1035/1035
f 1033/1033 1035/1035 1036/1036
f 1037/1037 1038/1038 1039/1039
f 1037/1037 1039/1039 1040/1040
f 1041/1041 1042/1042 1043/1043
f 1041/1041 1043/1043 1044/1044
f 1045/1045 1046/1046 1047/1047
f 1045/1045 1047/1047 1048/1048
f 1049/1049 1050/1050 1051/1051
f 1051/1051 1050/1050 1052/1052
f 1053/1053 1054/1054 1055/1055
f 1054/1054 1056/1056 1055/1055
f 1057/1057 1058/1058 1059/1059
f 1057/1057 1059/1059 1060/1060
f 1061/1061 1062/1062 1063/1063
f 1061/1061 1063/1063 1064/1064
f 1065/1065 1066/1066 1067/1067
f 1068/1068 1067/1067 1066/1066
f 1069/1069 1070/1070 1071/1071
f 1072/1072 1071/1071 1070/1070
f 1073/1073 1074/1074 1075/1075
f 1075/1075 1074/1074 1076/1076
f 1077/1077 1078/1078 1079/1079
f 1078/1078 1080/1080 1079/1079
f 1081/1081 1082/1082 1083/1083
f 1082/1082 1081/1081 1084/1084
f 1085/1085 1086/1086 1087/1087
f 1085/1085 1087/1087 1088/1088
f 1089/1089 1090/1090 1091/1091
f 1092/1092 1091/1091 1090/1090
f 1093/1093 1094/1094 1095/1095
f 1096/1096 1095/1095 1094/1094
f 1097/1097 1098/1098 1099/1099
f 1099/1099 1098/1098 1100/1100
f 1101/1101 1102/1102 1103/1103
f 1102/1102 1104/1104 1103/1103
f 1105/1105 1106/1106 1107/1107
f 1106/1106 1105/1105 1108/1108
f 1109/1109 1110/1110 1111/1111
f 1109/1109 1111/1111 1112/1112
f 1113/1113 1114/1114 1115/1115
f 1113/1113 1115/1115 1116/1116
f 1117/1117 1118/1118 1119/1119
f 1117/1117 1119/1119 1120/1120
f 1121/1121 1122/1122 1123/1123
f 1122/1122 1121/1121 1124/1124
f 1125/1125 1126/1126 1127/1127
f 1127/1127 1128/1128 1125/1125
f 1129/1129 1130/1130 1131/1131
f 1132/1132 1131/1131 1130/1130
f 1133/1133 1134/1134 1135/1135
f 1133/1133 1135/1135 1136/1136
f 1137/1137 1138/1138 1139/1139
f 1137/1137 1139/1139 1140/1140
f 1141/1141 1142/1142 1143/1143
f 1141/1141 1143/1143 1144/1144
f 1145/1145 1146/1146 1147/1147
f 1146/1146 1145/1145 1148/1148
f 1149/1149 1150/1150 1151/1151
f 1151/1151 1152/1152 1149/1149
f 1153/1153 1154/1154 1155/1155
f 1153/1153 1155/1155 1156/1156
f 1157/1157 1158/1158 1159/1159
f 1157/1157 1159/1159 1160/1160
f 1161/1161 1162/1162 1163/1163
f 1162/1162 1161/1161 1164/1164
f 1165/1165 1166/1166 1167/1167
f 1165/1165 1167/1167 1168/1168
f 1169/1169 1170/1170 1171/1171
f 1171/1171 1170/1170 1172/1172
f 1173/1173 1174/1174 1175/1175
f 1174/1174 1176/1176 1175/1175
f 1177/1177 1178/1178 1179/1179
f 1177/1177 1179/1179 1180/1180
f 1181/1181 1182/1182 1183/1183
f 1181/1181 1183/1183 1184/1184
f 1185/1185 1186/1186 1187/1187
f 1188/1188 1187/1187 1186/1186
f 1189/1189 1190/1190 1191/1191
f 1192/1192 1191/1191 1190/1190
f 1193/1193 1194/1194 1195/1195
f 1195/1195 1194/1194 1196/1196
f 1197/1197 1198/1198 1199/1199
f 1198/1198 1200/1200 1199/1199
f 1201/1201 1202/1202 1203/1203
f 1202/1202 1201/1201 1204/1204
f 1205/1205 1206/1206 1207/1207
f 1205/1205 1207/1207 1208/1208
f 1209/1209 1210/1210 1211/1211
f 1212/1212 1211/1211 1210/1210
f 1213/1213 1214/1214 1215/1215
f 1216/1216 1215/1215 1214/1214
f 1217/1217 1218/1218 1219/1219
f 1218/1218 1220/1220 1219/1219
f 1221/1221 1222/1222 1223/1223
f 1222/1222 1221/1221 1224/1224
f 1225/1225 1226/1226 1227/1227
f 1225/1225 1227/1227 1228/1228
f 1229/1229 1230/1230 1231/1231
f 1230/1230 1229/1229 1232/1232
f 1233/1233 1234/1234 1235/1235
f 1234/1234 1233/1233 1236/1236
f 1237/1237 1238/1238 1239/1239
f 1240/1240 1239/1239 1238/1238
f 1241/1241 1242/1242 1243/1243
f 1242/1242 1244/1244 1243/1243
f 1245/1245 1246/1246 1247/1247
f 1246/1246 1245/1245 1248/1248
f 1249/1249 1250/1250 1251/1251
f 1249/1249 1251/1251 1252/1252
f 1253/1253 1254/1254 1255/1255
f 1253/1253 1255/1255 1256/1256
f 1257/1257 1258/1258 1259/1259
f 1260/1260 1259/1259 1258/1258
f 1261/1261 1262/1262 1263/1263
f 1264/1264 1263/1263 1262/1262
f 1265/1265 1266/1266 1267/1267
f 1266/1266 1268/1268 1267/1267
f 1269/1269 1270/1270 1271/1271
f 1270/1270 1269/1269 1272/1272
f 1273/1273 1274/1274 1275/1275
f 1273/1273 1275/1275 1276/1276
f 1277/1277 1278/1278 1279/1279
f 1277/1277 1279/1279 1280/1280
f 1281/1281 1282/1282 1283/1283
f 1281/1281 1283/1283 1284/1284
f 1285/1285 1286/1286 1287/1287
f 1285/1285 1287/1287 1288/1288
f 1289/1289 1290/1290 1291/1291
f 1290/1290 1292/1292 1291/1291
f 1293/1293 1294/1294 1295/1295
f 1294/1294 1293/1293 1296/1296
f 1297/1297 1298/1298 1299/1299
f 1297/1297 1299/1299 1300/1300
f 1301/1301 1302/1302 1303/1303
f 1301/1301 1303/1303 1304/1304
f 1305/1305 1306/1306 1307/1307
f 1305/1305 1307/1307 1308/1308
f 1309/1309 1310/1310 1311/1311
f 1312/1312 1311/1311 1310/1310

